<svg version="1.1" viewBox="0.0 0.0 960.0 540.0" fill="none" stroke="none" stroke-linecap="square" stroke-miterlimit="10" xmlns:xlink="http://www.w3.org/1999/xlink" xmlns="http://www.w3.org/2000/svg"><clipPath id="g2e3d90cf874_0_0.0"><path d="m0 0l960.0 0l0 540.0l-960.0 0l0 -540.0z" clip-rule="nonzero"/></clipPath><g clip-path="url(#g2e3d90cf874_0_0.0)"><g id="g2e3d90cf874_0_0"><path fill="#ffffff" d="m0 0l960.0 0l0 540.0l-960.0 0l0 -540.0z" fill-rule="nonzero"/><path fill="#000000" d="m0 0l960.0 0l0 540.0l-960.0 0z" fill-rule="evenodd"/><g id="a11y-g2e3d90cf874_0_1" role="img" aria-label="SEGNO STUDIO&#xa;" tabindex="0"><path fill="#000000" fill-opacity="0.0" d="m288.0013 270.0l0 87.275604l384.00003 0l0 -87.275604z" fill-rule="nonzero"/></g><path fill="#000000" fill-opacity="0.0" d="m288.0013 270.0l384.00003 0l0 87.275604l-384.00003 0z" fill-rule="evenodd"/><path fill="#b7b7b7" d="m318.72467 300.73398q5.625 0 9.265625 2.90625q3.65625 2.90625 3.65625 8.0l-3.3125 0q-0.21875 -3.84375 -2.921875 -5.953125q-2.6875 -2.109375 -6.640625 -2.109375q-4.140625 0 -6.46875 1.796875q-2.3125 1.78125 -2.3125 5.15625q0 1.984375 1.171875 3.3125q1.1875 1.328125 4.328125 2.109375l7.984375 1.953125q4.9375 1.21875 7.1875 3.484375q2.25 2.25 2.25 5.8125q0 4.40625 -3.390625 7.234375q-3.375 2.8125 -10.0 2.8125q-6.546875 0 -10.28125 -2.953125q-3.734375 -2.953125 -3.734375 -8.53125l0 -0.78125l3.359375 0l0 0.234375q0 4.640625 2.90625 6.90625q2.90625 2.265625 8.46875 2.265625q3.609375 0 6.453125 -1.90625q2.859375 -1.90625 2.859375 -5.203125q0 -4.53125 -6.828125 -6.234375q-6.84375 -1.671875 -8.171875 -2.015625q-4.1875 -1.03125 -6.046875 -3.0625q-1.859375 -2.03125 -1.859375 -5.34375q0 -4.078125 3.109375 -6.984375q3.109375 -2.90625 8.96875 -2.90625zm43.7005 0.734375l0 2.859375l-20.84375 0l0 12.640625l19.53125 0l0 2.859375l-19.53125 0l0 13.828125l21.078125 0l0 2.84375l-24.4375 0l0 -35.03125l24.203125 0zm19.770447 -0.734375q5.640625 0 9.609375 2.984375q3.96875 2.984375 5.0 8.640625l-3.328125 0q-0.40625 -3.484375 -3.625 -6.125q-3.203125 -2.65625 -7.65625 -2.65625q-6.140625 0 -9.671875 4.3125q-3.53125 4.3125 -3.53125 11.09375q0 6.6875 3.5 11.046875q3.515625 4.359375 9.703125 4.359375q5.375 0 8.734375 -3.375q3.375 -3.375 3.375 -9.390625l0 -0.09375l-11.921875 0l0 -2.828125l14.875 0l0 17.796875l-2.421875 0l-0.4375 -6.375l-0.09375 0q-1.671875 3.5 -4.828125 5.3125q-3.140625 1.8125 -7.28125 1.8125q-7.578125 0 -12.0625 -5.140625q-4.46875 -5.140625 -4.46875 -13.125q0 -8.015625 4.484375 -13.125q4.5 -5.125 12.046875 -5.125zm25.162537 0.734375l20.421875 29.640625l0.09375 0l0 -29.640625l3.328125 0l0 35.03125l-3.71875 0l-20.40625 -29.640625l-0.09375 0l0 29.640625l-3.359375 0l0 -35.03125l3.734375 0zm45.544983 -0.734375q4.9375 0 8.703125 2.328125q3.78125 2.3125 5.78125 6.578125q2.0 4.265625 2.0 9.34375q0 7.90625 -4.46875 13.09375q-4.46875 5.171875 -12.015625 5.171875q-7.5625 0 -12.046875 -5.109375q-4.484375 -5.125 -4.484375 -13.15625q0 -8.015625 4.484375 -13.125q4.5 -5.125 12.046875 -5.125zm-13.203125 18.25q0 6.609375 3.484375 11.015625q3.5 4.390625 9.71875 4.390625q6.15625 0 9.65625 -4.375q3.5 -4.375 3.5 -11.03125q0 -6.578125 -3.484375 -10.984375q-3.46875 -4.421875 -9.71875 -4.421875q-6.078125 0 -9.625 4.3125q-3.53125 4.3125 -3.53125 11.09375zm59.91867 -18.25q5.625 0 9.265625 2.90625q3.6562805 2.90625 3.6562805 8.0l-3.3125305 0q-0.21875 -3.84375 -2.921875 -5.953125q-2.6875 -2.109375 -6.640625 -2.109375q-4.140625 0 -6.46875 1.796875q-2.3125 1.78125 -2.3125 5.15625q0 1.984375 1.171875 3.3125q1.1875 1.328125 4.328125 2.109375l7.984375 1.953125q4.9375 1.21875 7.1875 3.484375q2.2500305 2.25 2.2500305 5.8125q0 4.40625 -3.3906555 7.234375q-3.375 2.8125 -10.0 2.8125q-6.546875 0 -10.28125 -2.953125q-3.734375 -2.953125 -3.734375 -8.53125l0 -0.78125l3.359375 0l0 0.234375q0 4.640625 2.90625 6.90625q2.90625 2.265625 8.46875 2.265625q3.609375 0 6.453125 -1.90625q2.859375 -1.90625 2.859375 -5.203125q0 -4.53125 -6.828125 -6.234375q-6.84375 -1.671875 -8.171875 -2.015625q-4.1875 -1.03125 -6.046875 -3.0625q-1.859375 -2.03125 -1.859375 -5.34375q0 -4.078125 3.109375 -6.984375q3.109375 -2.90625 8.96875 -2.90625zm42.33902 0.734375l0 2.859375l-12.21875 0l0 32.171875l-3.328125 0l0 -32.171875l-12.21875 0l0 -2.859375l27.765625 0zm6.27063 0l0 21.921875q0 5.375 2.484375 8.1875q2.5 2.8125 7.765625 2.8125q5.296875 0 7.796875 -2.78125q2.515625 -2.78125 2.515625 -8.21875l0 -21.921875l3.34375 0l0 22.640625q0 5.796875 -3.46875 9.46875q-3.46875 3.671875 -10.1875 3.671875q-4.09375 0 -7.171875 -1.53125q-3.078125 -1.546875 -4.75 -4.625q-1.65625 -3.09375 -1.65625 -6.984375l0 -22.640625l3.328125 0zm42.28253 0q7.859375 0 12.203125 4.203125q4.34375 4.1875 4.34375 13.3125q0 9.171875 -4.390625 13.34375q-4.375 4.171875 -11.796875 4.171875l-12.03125 0l0 -35.03125l11.671875 0zm-0.90625 32.1875q7.25 0 10.6875 -3.40625q3.4375 -3.40625 3.4375 -11.265625q0 -7.78125 -3.359375 -11.21875q-3.34375 -3.4375 -11.25 -3.4375l-6.921875 0l0 29.328125l7.40625 0zm26.438843 -32.1875l0 35.03125l-3.328125 0l0 -35.03125l3.328125 0zm21.993835 -0.734375q4.9375 0 8.703125 2.328125q3.78125 2.3125 5.78125 6.578125q2.0 4.265625 2.0 9.34375q0 7.90625 -4.46875 13.09375q-4.46875 5.171875 -12.015625 5.171875q-7.5625 0 -12.046875 -5.109375q-4.484375 -5.125 -4.484375 -13.15625q0 -8.015625 4.484375 -13.125q4.5 -5.125 12.046875 -5.125zm-13.203125 18.25q0 6.609375 3.484375 11.015625q3.5 4.390625 9.71875 4.390625q6.15625 0 9.65625 -4.375q3.5 -4.375 3.5 -11.03125q0 -6.578125 -3.484375 -10.984375q-3.46875 -4.421875 -9.71875 -4.421875q-6.078125 0 -9.625 4.3125q-3.53125 4.3125 -3.53125 11.09375z" fill-rule="nonzero"/><path fill="#000000" fill-opacity="0.0" d="m355.27167 20.5433l249.45673 0l0 249.45673l-249.45673 0z" fill-rule="evenodd"/><g transform="matrix(0.5543482939632546 0.0 0.0 0.5543482939632546 355.2716535433071 20.5433)"><clipPath id="g2e3d90cf874_0_0.1"><path d="m0 -7.1054274E-15l450.0 0l0 450.0l-450.0 0z" clip-rule="evenodd"/></clipPath><image clip-path="url(#g2e3d90cf874_0_0.1)" fill="#000" width="450.0" height="450.0" x="0.0" y="0.0" preserveAspectRatio="none" xlink:href="https://lh7-rt.googleusercontent.com/slidesz/AGV_vUeXFAOlCYpSIIGxtYj2p_2KCtWxzuCb_iuD8yoziIBhly1IaTrx5TjmHVjE3EHKCiMp8FXlwxSaGVhPtRd_CHeC8ZKVDPSBSYDxXm2IkYDPoB-sQtTi61v069_r8p9Brto=s2048?key=7LE3oBm5y_Q2w8Qv5o4NHULt"/></g><g id="a11y-g2e3e872469c_0_179" role="img" aria-label="Unique experiences blending design and technology.&#xa;Your ideas and our creativity connecting the best of both worlds.&#xa;" tabindex="0"><path fill="#000000" fill-opacity="0.0" d="m146.29134 397.8504l0 86.456696l678.1732 0l0 -86.456696z" fill-rule="nonzero"/></g><path fill="#000000" fill-opacity="0.0" d="m146.29134 397.8504l678.1732 0l0 86.456696l-678.1732 0z" fill-rule="evenodd"/><path fill="#eeeeee" d="m221.2808 412.4385l0 10.421875q0 1.984375 1.125 3.15625q1.140625 1.171875 3.359375 1.171875q2.09375 0 3.15625 -1.171875q1.0625 -1.171875 1.0625 -3.15625l0 -10.421875l2.15625 0l0 10.4375q0 2.859375 -1.609375 4.5q-1.59375 1.625 -4.765625 1.625q-3.296875 0 -4.96875 -1.59375q-1.65625 -1.59375 -1.65625 -4.53125l0 -10.4375l2.140625 0zm19.658493 4.1875q2.109375 0 3.0625 1.09375q0.96875 1.078125 0.96875 3.09375l0 7.796875l-1.9375 0l0 -8.0q0 -1.0 -0.640625 -1.640625q-0.625 -0.640625 -1.75 -0.640625q-1.625 0 -2.546875 1.0q-0.90625 1.0 -0.90625 2.59375l0 6.6875l-1.921875 0l0 -11.71875l1.8125 0l0 1.859375l0.046875 0q0.640625 -1.09375 1.5625 -1.609375q0.9375 -0.515625 2.25 -0.515625zm8.959702 -4.1875l0 2.359375l-1.921875 0l0 -2.359375l1.921875 0zm0 4.453125l0 11.71875l-1.921875 0l0 -11.71875l1.921875 0zm7.705368 -0.265625q1.140625 0 2.171875 0.46875q1.046875 0.46875 1.609375 1.359375l0.046875 0l0 -1.5625l1.9375 0l0 16.203125l-1.9375 0l0 -6.0625l-0.046875 0q-0.453125 0.90625 -1.4375 1.390625q-0.984375 0.46875 -2.296875 0.46875q-2.453125 0 -3.921875 -1.703125q-1.46875 -1.703125 -1.46875 -4.46875q0 -2.703125 1.4375 -4.390625q1.4375 -1.703125 3.90625 -1.703125zm-3.296875 6.21875q0 1.890625 0.96875 3.125q0.984375 1.21875 2.65625 1.21875q1.703125 0 2.640625 -1.21875q0.9375 -1.234375 0.9375 -3.203125q0 -2.0 -0.96875 -3.21875q-0.96875 -1.21875 -2.75 -1.21875q-1.671875 0 -2.578125 1.21875q-0.90625 1.203125 -0.90625 3.296875zm13.945648 -5.953125l0 7.984375q0 1.0 0.625 1.65625q0.640625 0.65625 1.765625 0.65625q1.65625 0 2.546875 -1.015625q0.90625 -1.015625 0.90625 -2.578125l0 -6.703125l1.9375 0l0 11.71875l-1.8125 0l0 -1.859375l-0.046875 0q-0.640625 1.125 -1.609375 1.640625q-0.96875 0.5 -2.21875 0.5q-2.046875 0 -3.03125 -1.0625q-0.984375 -1.0625 -0.984375 -3.125l0 -7.8125l1.921875 0zm15.537842 -0.265625q2.53125 0 3.921875 1.8125q1.390625 1.8125 1.390625 4.65625l0 0.234375l-8.765625 0l0 0.140625q0 1.671875 0.96875 2.703125q0.96875 1.015625 2.671875 1.015625q1.28125 0 2.03125 -0.59375q0.765625 -0.609375 1.0 -1.703125l1.90625 0q-0.390625 1.953125 -1.703125 2.984375q-1.3125 1.015625 -3.296875 1.015625q-1.84375 0 -3.125 -0.828125q-1.28125 -0.84375 -1.890625 -2.328125q-0.609375 -1.5 -0.609375 -3.046875q0 -2.59375 1.5625 -4.328125q1.5625 -1.734375 3.9375 -1.734375zm-3.453125 5.0l6.71875 0q-0.09375 -1.421875 -1.046875 -2.359375q-0.9375 -0.9375 -2.34375 -0.9375q-1.328125 0 -2.28125 0.890625q-0.9375 0.890625 -1.046875 2.40625zm21.916626 -5.0q2.53125 0 3.921875 1.8125q1.390625 1.8125 1.390625 4.65625l0 0.234375l-8.765625 0l0 0.140625q0 1.671875 0.96875 2.703125q0.96875 1.015625 2.671875 1.015625q1.28125 0 2.03125 -0.59375q0.765625 -0.609375 1.0 -1.703125l1.90625 0q-0.390625 1.953125 -1.703125 2.984375q-1.3125 1.015625 -3.296875 1.015625q-1.84375 0 -3.125 -0.828125q-1.28125 -0.84375 -1.890625 -2.328125q-0.609375 -1.5 -0.609375 -3.046875q0 -2.59375 1.5625 -4.328125q1.5625 -1.734375 3.9375 -1.734375zm-3.453125 5.0l6.71875 0q-0.09375 -1.421875 -1.046875 -2.359375q-0.9375 -0.9375 -2.34375 -0.9375q-1.328125 0 -2.28125 0.890625q-0.9375 0.890625 -1.046875 2.40625zm11.884399 -4.734375l2.796875 4.078125l0.03125 0l2.90625 -4.078125l2.3125 0l-4.03125 5.40625l4.53125 6.3125l-2.46875 0l-3.265625 -4.84375l-3.265625 4.84375l-2.328125 0l4.40625 -6.15625l-4.09375 -5.5625l2.46875 0zm15.971802 -0.265625q2.515625 0 3.953125 1.734375q1.453125 1.71875 1.453125 4.4375q0 2.71875 -1.4375 4.40625q-1.4375 1.6875 -3.90625 1.6875q-1.09375 0 -2.140625 -0.453125q-1.046875 -0.453125 -1.65625 -1.390625l-0.046875 0l0 6.046875l-1.921875 0l0 -16.203125l1.921875 0l0 1.59375l0.046875 0q0.453125 -0.90625 1.421875 -1.375q0.984375 -0.484375 2.3125 -0.484375zm-3.84375 6.125q0 2.03125 0.984375 3.234375q0.984375 1.203125 2.703125 1.203125q1.671875 0 2.59375 -1.1875q0.921875 -1.203125 0.921875 -3.34375q0 -1.890625 -0.96875 -3.109375q-0.96875 -1.21875 -2.671875 -1.21875q-1.6875 0 -2.625 1.234375q-0.9375 1.234375 -0.9375 3.1875zm16.367523 -6.125q2.53125 0 3.921875 1.8125q1.390625 1.8125 1.390625 4.65625l0 0.234375l-8.765625 0l0 0.140625q0 1.671875 0.96875 2.703125q0.96875 1.015625 2.671875 1.015625q1.28125 0 2.03125 -0.59375q0.765625 -0.609375 1.0 -1.703125l1.90625 0q-0.390625 1.953125 -1.703125 2.984375q-1.3125 1.015625 -3.296875 1.015625q-1.84375 0 -3.125 -0.828125q-1.28125 -0.84375 -1.890625 -2.328125q-0.609375 -1.5 -0.609375 -3.046875q0 -2.59375 1.5625 -4.328125q1.5625 -1.734375 3.9375 -1.734375zm-3.453125 5.0l6.71875 0q-0.09375 -1.421875 -1.046875 -2.359375q-0.9375 -0.9375 -2.34375 -0.9375q-1.328125 0 -2.28125 0.890625q-0.9375 0.890625 -1.046875 2.40625zm16.59076 -5.0q0.0625 0 0.109375 0q0.0625 0 0.15625 0l0 2.046875q-2.171875 0 -3.203125 1.15625q-1.03125 1.140625 -1.03125 3.53125l0 5.25l-1.921875 0l0 -11.71875l1.8125 0l0 2.46875l0.03125 0q0.6875 -1.390625 1.671875 -2.0625q0.984375 -0.671875 2.375 -0.671875zm3.7478333 -4.1875l0 2.359375l-1.921875 0l0 -2.359375l1.921875 0zm0 4.453125l0 11.71875l-1.921875 0l0 -11.71875l1.921875 0zm7.8616333 -0.265625q2.53125 0 3.921875 1.8125q1.390625 1.8125 1.390625 4.65625l0 0.234375l-8.765625 0l0 0.140625q0 1.671875 0.96875 2.703125q0.96875 1.015625 2.671875 1.015625q1.28125 0 2.03125 -0.59375q0.765625 -0.609375 1.0 -1.703125l1.90625 0q-0.390625 1.953125 -1.703125 2.984375q-1.3125 1.015625 -3.296875 1.015625q-1.84375 0 -3.125 -0.828125q-1.28125 -0.84375 -1.890625 -2.328125q-0.609375 -1.5 -0.609375 -3.046875q0 -2.59375 1.5625 -4.328125q1.5625 -1.734375 3.9375 -1.734375zm-3.453125 5.0l6.71875 0q-0.09375 -1.421875 -1.046875 -2.359375q-0.9375 -0.9375 -2.34375 -0.9375q-1.328125 0 -2.28125 0.890625q-0.9375 0.890625 -1.046875 2.40625zm16.43451 -5.0q2.109375 0 3.0625 1.09375q0.96875 1.078125 0.96875 3.09375l0 7.796875l-1.9375 0l0 -8.0q0 -1.0 -0.640625 -1.640625q-0.625 -0.640625 -1.75 -0.640625q-1.625 0 -2.546875 1.0q-0.90625 1.0 -0.90625 2.59375l0 6.6875l-1.921875 0l0 -11.71875l1.8125 0l0 1.859375l0.046875 0q0.640625 -1.09375 1.5625 -1.609375q0.9375 -0.515625 2.25 -0.515625zm11.819061 0q2.140625 0 3.46875 1.03125q1.34375 1.015625 1.578125 3.0l-1.984375 0q-0.234375 -1.140625 -1.0 -1.734375q-0.75 -0.59375 -1.90625 -0.59375q-1.78125 0 -2.71875 1.203125q-0.921875 1.1875 -0.921875 3.375q0 1.9375 0.90625 3.109375q0.921875 1.171875 2.5 1.171875q1.40625 0 2.21875 -0.75q0.8125 -0.765625 1.0 -2.109375l1.96875 0q-0.3125 2.1875 -1.640625 3.375q-1.328125 1.1875 -3.515625 1.1875q-2.5625 0 -4.03125 -1.609375q-1.453125 -1.609375 -1.453125 -4.375q0 -2.875 1.46875 -4.578125q1.484375 -1.703125 4.0625 -1.703125zm12.137634 0q2.5312805 0 3.9219055 1.8125q1.390625 1.8125 1.390625 4.65625l0 0.234375l-8.7656555 0l0 0.140625q0 1.671875 0.96875 2.703125q0.96875 1.015625 2.671875 1.015625q1.2812805 0 2.0312805 -0.59375q0.765625 -0.609375 1.0 -1.703125l1.90625 0q-0.390625 1.953125 -1.703125 2.984375q-1.3125 1.015625 -3.2969055 1.015625q-1.84375 0 -3.125 -0.828125q-1.28125 -0.84375 -1.890625 -2.328125q-0.609375 -1.5 -0.609375 -3.046875q0 -2.59375 1.5625 -4.328125q1.5625 -1.734375 3.9375 -1.734375zm-3.453125 5.0l6.7187805 0q-0.09375 -1.421875 -1.046875 -2.359375q-0.9375305 -0.9375 -2.3437805 -0.9375q-1.328125 0 -2.28125 0.890625q-0.9375 0.890625 -1.046875 2.40625zm14.65329 -5.0q2.359375 0 3.515625 0.921875q1.15625 0.921875 1.265625 2.75l-1.921875 0l0 -0.03125q-0.078125 -0.921875 -0.8125 -1.421875q-0.734375 -0.515625 -1.90625 -0.515625q-1.15625 0 -1.828125 0.390625q-0.671875 0.390625 -0.671875 1.09375q0 0.640625 0.59375 1.0625q0.59375 0.40625 1.78125 0.65625l1.8125 0.40625q1.71875 0.375 2.59375 1.15625q0.890625 0.78125 0.890625 2.09375q0 1.734375 -1.34375 2.71875q-1.34375 0.984375 -3.640625 0.984375q-2.25 0 -3.578125 -1.0q-1.3125 -1.015625 -1.390625 -2.96875l1.9375 0q0.03125 1.09375 0.859375 1.6875q0.828125 0.578125 2.28125 0.578125q1.390625 0 2.109375 -0.4375q0.71875 -0.453125 0.71875 -1.3125q0 -0.78125 -0.71875 -1.234375q-0.71875 -0.46875 -2.921875 -0.921875q-2.21875 -0.421875 -3.125 -1.203125q-0.890625 -0.796875 -0.890625 -2.125q0 -1.53125 1.25 -2.421875q1.25 -0.90625 3.140625 -0.90625zm15.716492 -4.1875l0 6.046875l0.046875 0q0.453125 -0.90625 1.421875 -1.375q0.96875 -0.484375 2.3125 -0.484375q2.515625 0 3.953125 1.734375q1.453125 1.71875 1.453125 4.4375q0 2.71875 -1.4375 4.40625q-1.4375 1.6875 -3.90625 1.6875q-1.09375 0 -2.140625 -0.453125q-1.046875 -0.453125 -1.65625 -1.390625l-0.046875 0l0 1.5625l-1.921875 0l0 -16.171875l1.921875 0zm-0.0625 10.3125q0 2.03125 0.984375 3.234375q0.984375 1.203125 2.703125 1.203125q1.671875 0 2.59375 -1.1875q0.921875 -1.203125 0.921875 -3.34375q0 -1.890625 -0.96875 -3.109375q-0.96875 -1.21875 -2.671875 -1.21875q-1.6875 0 -2.625 1.234375q-0.9375 1.234375 -0.9375 3.1875zm13.539398 -10.3125l0 16.171875l-1.921875 0l0 -16.171875l1.921875 0zm7.861603 4.1875q2.53125 0 3.921875 1.8125q1.390625 1.8125 1.390625 4.65625l0 0.234375l-8.765625 0l0 0.140625q0 1.671875 0.96875 2.703125q0.96875 1.015625 2.671875 1.015625q1.28125 0 2.03125 -0.59375q0.765625 -0.609375 1.0 -1.703125l1.90625 0q-0.390625 1.953125 -1.703125 2.984375q-1.3125 1.015625 -3.296875 1.015625q-1.84375 0 -3.125 -0.828125q-1.28125 -0.84375 -1.890625 -2.328125q-0.609375 -1.5 -0.609375 -3.046875q0 -2.59375 1.5625 -4.328125q1.5625 -1.734375 3.9375 -1.734375zm-3.453125 5.0l6.71875 0q-0.09375 -1.421875 -1.046875 -2.359375q-0.9375 -0.9375 -2.34375 -0.9375q-1.328125 0 -2.28125 0.890625q-0.9375 0.890625 -1.046875 2.40625zm16.43451 -5.0q2.109375 0 3.0625 1.09375q0.96875 1.078125 0.96875 3.09375l0 7.796875l-1.9375 0l0 -8.0q0 -1.0 -0.640625 -1.640625q-0.625 -0.640625 -1.75 -0.640625q-1.625 0 -2.546875 1.0q-0.90625 1.0 -0.90625 2.59375l0 6.6875l-1.921875 0l0 -11.71875l1.8125 0l0 1.859375l0.046875 0q0.640625 -1.09375 1.5625 -1.609375q0.9375 -0.515625 2.25 -0.515625zm17.397217 -4.1875l0 16.171875l-1.9375 0l0 -1.578125l-0.046875 0q-0.453125 0.90625 -1.4375 1.390625q-0.984375 0.46875 -2.296875 0.46875q-2.453125 0 -3.921875 -1.703125q-1.46875 -1.703125 -1.46875 -4.46875q0 -2.703125 1.421875 -4.390625q1.421875 -1.703125 3.921875 -1.703125q1.140625 0 2.171875 0.46875q1.046875 0.46875 1.609375 1.359375l0.046875 0l0 -6.015625l1.9375 0zm-9.0625 10.40625q0 1.890625 0.96875 3.125q0.984375 1.21875 2.65625 1.21875q1.703125 0 2.640625 -1.21875q0.9375 -1.234375 0.9375 -3.203125q0 -2.0 -0.96875 -3.21875q-0.96875 -1.21875 -2.75 -1.21875q-1.671875 0 -2.578125 1.21875q-0.90625 1.203125 -0.90625 3.296875zm14.055023 -10.40625l0 2.359375l-1.921875 0l0 -2.359375l1.921875 0zm0 4.453125l0 11.71875l-1.921875 0l0 -11.71875l1.921875 0zm8.674133 -0.265625q2.109375 0 3.0625 1.09375q0.96875 1.078125 0.96875 3.09375l0 7.796875l-1.9375 0l0 -8.0q0 -1.0 -0.640625 -1.640625q-0.625 -0.640625 -1.75 -0.640625q-1.625 0 -2.546875 1.0q-0.90625 1.0 -0.90625 2.59375l0 6.6875l-1.921875 0l0 -11.71875l1.8125 0l0 1.859375l0.046875 0q0.640625 -1.09375 1.5625 -1.609375q0.9375 -0.515625 2.25 -0.515625zm11.694092 0q1.21875 0 2.109375 0.53125q0.90625 0.53125 1.390625 1.421875l0.03125 0l0 -1.6875l1.796875 0l0 10.84375q0 2.75 -1.328125 4.1875q-1.328125 1.4375 -4.09375 1.4375q-2.015625 0 -3.390625 -0.890625q-1.375 -0.875 -1.46875 -2.546875l1.9375 0q0.03125 0.90625 0.9375 1.40625q0.921875 0.5 2.09375 0.5q1.703125 0 2.609375 -1.125q0.90625 -1.125 0.90625 -3.359375l0 -0.71875l-0.046875 0q-0.453125 0.96875 -1.4375 1.546875q-0.96875 0.5625 -2.21875 0.5625q-2.390625 0 -3.8125 -1.625q-1.421875 -1.640625 -1.421875 -4.296875q0 -2.6875 1.421875 -4.4375q1.421875 -1.75 3.984375 -1.75zm-3.359375 5.953125q0 2.09375 0.875 3.28125q0.875 1.1875 2.421875 1.1875q1.59375 0 2.53125 -1.234375q0.953125 -1.234375 0.953125 -3.296875q0 -1.875 -0.875 -3.03125q-0.859375 -1.15625 -2.46875 -1.15625q-1.625 0 -2.53125 1.15625q-0.90625 1.15625 -0.90625 3.09375zm28.36676 -10.140625l0 16.171875l-1.9375 0l0 -1.578125l-0.046875 0q-0.453125 0.90625 -1.4375 1.390625q-0.984375 0.46875 -2.296875 0.46875q-2.453125 0 -3.921875 -1.703125q-1.46875 -1.703125 -1.46875 -4.46875q0 -2.703125 1.421875 -4.390625q1.421875 -1.703125 3.921875 -1.703125q1.140625 0 2.171875 0.46875q1.046875 0.46875 1.609375 1.359375l0.046875 0l0 -6.015625l1.9375 0zm-9.0625 10.40625q0 1.890625 0.96875 3.125q0.984375 1.21875 2.65625 1.21875q1.703125 0 2.640625 -1.21875q0.9375 -1.234375 0.9375 -3.203125q0 -2.0 -0.96875 -3.21875q-0.96875 -1.21875 -2.75 -1.21875q-1.671875 0 -2.578125 1.21875q-0.90625 1.203125 -0.90625 3.296875zm16.883118 -6.21875q2.53125 0 3.921875 1.8125q1.390625 1.8125 1.390625 4.65625l0 0.234375l-8.765625 0l0 0.140625q0 1.671875 0.96875 2.703125q0.96875 1.015625 2.671875 1.015625q1.28125 0 2.03125 -0.59375q0.765625 -0.609375 1.0 -1.703125l1.90625 0q-0.390625 1.953125 -1.703125 2.984375q-1.3125 1.015625 -3.296875 1.015625q-1.84375 0 -3.125 -0.828125q-1.28125 -0.84375 -1.890625 -2.328125q-0.609375 -1.5 -0.609375 -3.046875q0 -2.59375 1.5625 -4.328125q1.5625 -1.734375 3.9375 -1.734375zm-3.453125 5.0l6.71875 0q-0.09375 -1.421875 -1.046875 -2.359375q-0.9375 -0.9375 -2.34375 -0.9375q-1.328125 0 -2.28125 0.890625q-0.9375 0.890625 -1.046875 2.40625zm14.653259 -5.0q2.359375 0 3.515625 0.921875q1.15625 0.921875 1.265625 2.75l-1.921875 0l0 -0.03125q-0.078125 -0.921875 -0.8125 -1.421875q-0.734375 -0.515625 -1.90625 -0.515625q-1.15625 0 -1.828125 0.390625q-0.671875 0.390625 -0.671875 1.09375q0 0.640625 0.59375 1.0625q0.59375 0.40625 1.78125 0.65625l1.8125 0.40625q1.71875 0.375 2.59375 1.15625q0.890625 0.78125 0.890625 2.09375q0 1.734375 -1.34375 2.71875q-1.34375 0.984375 -3.640625 0.984375q-2.25 0 -3.578125 -1.0q-1.3125 -1.015625 -1.390625 -2.96875l1.9375 0q0.03125 1.09375 0.859375 1.6875q0.828125 0.578125 2.28125 0.578125q1.390625 0 2.109375 -0.4375q0.71875 -0.453125 0.71875 -1.3125q0 -0.78125 -0.71875 -1.234375q-0.71875 -0.46875 -2.921875 -0.921875q-2.21875 -0.421875 -3.125 -1.203125q-0.890625 -0.796875 -0.890625 -2.125q0 -1.53125 1.25 -2.421875q1.25 -0.90625 3.140625 -0.90625zm9.46875 -4.1875l0 2.359375l-1.921875 0l0 -2.359375l1.921875 0zm0 4.453125l0 11.71875l-1.921875 0l0 -11.71875l1.921875 0zm7.7678833 -0.265625q1.21875 0 2.109375 0.53125q0.90625 0.53125 1.390625 1.421875l0.03125 0l0 -1.6875l1.796875 0l0 10.84375q0 2.75 -1.328125 4.1875q-1.328125 1.4375 -4.09375 1.4375q-2.015625 0 -3.390625 -0.890625q-1.375 -0.875 -1.46875 -2.546875l1.9375 0q0.03125 0.90625 0.9375 1.40625q0.921875 0.5 2.09375 0.5q1.703125 0 2.609375 -1.125q0.90625 -1.125 0.90625 -3.359375l0 -0.71875l-0.046875 0q-0.453125 0.96875 -1.4375 1.546875q-0.96875 0.5625 -2.21875 0.5625q-2.390625 0 -3.8125 -1.625q-1.421875 -1.640625 -1.421875 -4.296875q0 -2.6875 1.421875 -4.4375q1.421875 -1.75 3.984375 -1.75zm-3.359375 5.953125q0 2.09375 0.875 3.28125q0.875 1.1875 2.421875 1.1875q1.59375 0 2.53125 -1.234375q0.953125 -1.234375 0.953125 -3.296875q0 -1.875 -0.875 -3.03125q-0.859375 -1.15625 -2.46875 -1.15625q-1.625 0 -2.53125 1.15625q-0.90625 1.15625 -0.90625 3.09375zm17.275269 -5.953125q2.109375 0 3.0625 1.09375q0.96875 1.078125 0.96875 3.09375l0 7.796875l-1.9375 0l0 -8.0q0 -1.0 -0.640625 -1.640625q-0.625 -0.640625 -1.75 -0.640625q-1.625 0 -2.546875 1.0q-0.90625 1.0 -0.90625 2.59375l0 6.6875l-1.921875 0l0 -11.71875l1.8125 0l0 1.859375l0.046875 0q0.640625 -1.09375 1.5625 -1.609375q0.9375 -0.515625 2.25 -0.515625zm18.004333 0q2.390625 0 3.390625 0.859375q1.0 0.84375 1.0 2.28125q0 6.09375 0 6.765625q0 0.65625 0.609375 0.65625q0.140625 0 0.296875 -0.03125q0.15625 -0.046875 0.296875 -0.078125l0 1.484375q-0.265625 0.15625 -0.625 0.234375q-0.34375 0.09375 -0.75 0.09375q-0.796875 0 -1.21875 -0.453125q-0.421875 -0.453125 -0.421875 -1.359375q-0.765625 0.90625 -1.8125 1.359375q-1.03125 0.453125 -2.3125 0.453125q-1.8125 0 -2.84375 -0.859375q-1.03125 -0.859375 -1.03125 -2.4375q0 -1.578125 1.0 -2.5q1.015625 -0.921875 4.75 -1.390625q1.265625 -0.15625 1.703125 -0.46875q0.453125 -0.328125 0.453125 -0.984375q0 -0.96875 -0.625 -1.4375q-0.625 -0.484375 -1.984375 -0.484375q-1.4375 0 -2.15625 0.546875q-0.703125 0.53125 -0.75 1.671875l-1.9375 0q0.09375 -1.953125 1.375 -2.9375q1.28125 -0.984375 3.59375 -0.984375zm-3.375 8.828125q0 0.828125 0.59375 1.28125q0.59375 0.453125 1.671875 0.453125q1.625 0 2.59375 -0.8125q0.96875 -0.8125 0.96875 -1.796875l0 -2.015625q-0.484375 0.34375 -1.265625 0.46875q-0.765625 0.109375 -2.046875 0.296875q-1.28125 0.1875 -1.90625 0.703125q-0.609375 0.5 -0.609375 1.421875zm16.43451 -8.828125q2.109375 0 3.0625 1.09375q0.96875 1.078125 0.96875 3.09375l0 7.796875l-1.9375 0l0 -8.0q0 -1.0 -0.640625 -1.640625q-0.625 -0.640625 -1.75 -0.640625q-1.625 0 -2.546875 1.0q-0.90625 1.0 -0.90625 2.59375l0 6.6875l-1.921875 0l0 -11.71875l1.8125 0l0 1.859375l0.046875 0q0.640625 -1.09375 1.5625 -1.609375q0.9375 -0.515625 2.25 -0.515625zm17.397217 -4.1875l0 16.171875l-1.9375 0l0 -1.578125l-0.046875 0q-0.453125 0.90625 -1.4375 1.390625q-0.984375 0.46875 -2.296875 0.46875q-2.453125 0 -3.921875 -1.703125q-1.46875 -1.703125 -1.46875 -4.46875q0 -2.703125 1.421875 -4.390625q1.421875 -1.703125 3.921875 -1.703125q1.140625 0 2.171875 0.46875q1.046875 0.46875 1.609375 1.359375l0.046875 0l0 -6.015625l1.9375 0zm-9.0625 10.40625q0 1.890625 0.96875 3.125q0.984375 1.21875 2.65625 1.21875q1.703125 0 2.640625 -1.21875q0.9375 -1.234375 0.9375 -3.203125q0 -2.0 -0.96875 -3.21875q-0.96875 -1.21875 -2.75 -1.21875q-1.671875 0 -2.578125 1.21875q-0.90625 1.203125 -0.90625 3.296875zm20.990295 -9.453125l0 3.5l2.328125 0l0 1.703125l-2.328125 0l0 7.34375q0 0.875 0.578125 0.921875q0.578125 0.046875 1.21875 0.046875l0.53125 0l0 1.703125l-1.578125 0q-1.59375 0 -2.140625 -0.5625q-0.53125 -0.5625 -0.53125 -1.890625l0 -7.5625l-2.0 0l0 -1.703125l2.0 0l0 -3.5l1.921875 0zm9.046204 3.234375q2.53125 0 3.921875 1.8125q1.390625 1.8125 1.390625 4.65625l0 0.234375l-8.765625 0l0 0.140625q0 1.671875 0.96875 2.703125q0.96875 1.015625 2.671875 1.015625q1.28125 0 2.03125 -0.59375q0.765625 -0.609375 1.0 -1.703125l1.90625 0q-0.390625 1.953125 -1.703125 2.984375q-1.3125 1.015625 -3.296875 1.015625q-1.84375 0 -3.125 -0.828125q-1.28125 -0.84375 -1.890625 -2.328125q-0.609375 -1.5 -0.609375 -3.046875q0 -2.59375 1.5625 -4.328125q1.5625 -1.734375 3.9375 -1.734375zm-3.453125 5.0l6.71875 0q-0.09375 -1.421875 -1.046875 -2.359375q-0.9375 -0.9375 -2.34375 -0.9375q-1.328125 0 -2.28125 0.890625q-0.9375 0.890625 -1.046875 2.40625zm15.653198 -5.0q2.140625 0 3.46875 1.03125q1.34375 1.015625 1.578125 3.0l-1.984375 0q-0.234375 -1.140625 -1.0 -1.734375q-0.75 -0.59375 -1.90625 -0.59375q-1.78125 0 -2.71875 1.203125q-0.92181396 1.1875 -0.92181396 3.375q0 1.9375 0.90618896 3.109375q0.921875 1.171875 2.5 1.171875q1.40625 0 2.21875 -0.75q0.8125 -0.765625 1.0 -2.109375l1.96875 0q-0.3125 2.1875 -1.640625 3.375q-1.328125 1.1875 -3.515625 1.1875q-2.5625 0 -4.031189 -1.609375q-1.453125 -1.609375 -1.453125 -4.375q0 -2.875 1.46875 -4.578125q1.484314 -1.703125 4.062439 -1.703125zm9.200195 -4.1875l0 6.1875l0.046875 0q0.421875 -0.953125 1.421875 -1.46875q1.015625 -0.53125 2.28125 -0.53125q2.109375 0 3.0625 1.09375q0.96875 1.078125 0.96875 3.09375l0 7.796875l-1.9375 0l0 -8.0q0 -1.0 -0.640625 -1.640625q-0.625 -0.640625 -1.75 -0.640625q-1.625 0 -2.546875 1.0q-0.90625 1.0 -0.90625 2.59375l0 6.6875l-1.921875 0l0 -16.171875l1.921875 0zm16.350342 4.1875q2.109375 0 3.0625 1.09375q0.96875 1.078125 0.96875 3.09375l0 7.796875l-1.9375 0l0 -8.0q0 -1.0 -0.640625 -1.640625q-0.625 -0.640625 -1.75 -0.640625q-1.625 0 -2.546875 1.0q-0.90625 1.0 -0.90625 2.59375l0 6.6875l-1.921875 0l0 -11.71875l1.8125 0l0 1.859375l0.046875 0q0.640625 -1.09375 1.5625 -1.609375q0.9375 -0.515625 2.25 -0.515625zm11.975342 0q2.65625 0 4.171875 1.71875q1.515625 1.71875 1.515625 4.421875q0 2.734375 -1.546875 4.4375q-1.546875 1.6875 -4.140625 1.6875q-2.546875 0 -4.125 -1.65625q-1.5625 -1.671875 -1.5625 -4.46875q0 -2.78125 1.53125 -4.453125q1.546875 -1.6875 4.15625 -1.6875zm-3.640625 6.140625q0 2.015625 1.015625 3.21875q1.03125 1.203125 2.625 1.203125q1.59375 0 2.625 -1.203125q1.03125 -1.21875 1.03125 -3.21875q0 -2.0 -1.03125 -3.21875q-1.03125 -1.21875 -2.640625 -1.21875q-1.546875 0 -2.59375 1.203125q-1.03125 1.1875 -1.03125 3.234375zm13.634644 -10.328125l0 16.171875l-1.921875 0l0 -16.171875l1.921875 0zm8.049072 4.1875q2.65625 0 4.171875 1.71875q1.515625 1.71875 1.515625 4.421875q0 2.734375 -1.546875 4.4375q-1.546875 1.6875 -4.140625 1.6875q-2.546875 0 -4.125 -1.65625q-1.5625 -1.671875 -1.5625 -4.46875q0 -2.78125 1.53125 -4.453125q1.546875 -1.6875 4.15625 -1.6875zm-3.640625 6.140625q0 2.015625 1.015625 3.21875q1.03125 1.203125 2.625 1.203125q1.59375 0 2.625 -1.203125q1.03125 -1.21875 1.03125 -3.21875q0 -2.0 -1.03125 -3.21875q-1.03125 -1.21875 -2.640625 -1.21875q-1.546875 0 -2.59375 1.203125q-1.03125 1.1875 -1.03125 3.234375zm16.369019 -6.140625q1.21875 0 2.109375 0.53125q0.90625 0.53125 1.390625 1.421875l0.03125 0l0 -1.6875l1.796875 0l0 10.84375q0 2.75 -1.328125 4.1875q-1.328125 1.4375 -4.09375 1.4375q-2.015625 0 -3.390625 -0.890625q-1.375 -0.875 -1.46875 -2.546875l1.9375 0q0.03125 0.90625 0.9375 1.40625q0.921875 0.5 2.09375 0.5q1.703125 0 2.609375 -1.125q0.90625 -1.125 0.90625 -3.359375l0 -0.71875l-0.046875 0q-0.453125 0.96875 -1.4375 1.546875q-0.96875 0.5625 -2.21875 0.5625q-2.390625 0 -3.8125 -1.625q-1.421875 -1.640625 -1.421875 -4.296875q0 -2.6875 1.421875 -4.4375q1.421875 -1.75 3.984375 -1.75zm-3.359375 5.953125q0 2.09375 0.875 3.28125q0.875 1.1875 2.421875 1.1875q1.59375 0 2.53125 -1.234375q0.953125 -1.234375 0.953125 -3.296875q0 -1.875 -0.875 -3.03125q-0.859375 -1.15625 -2.46875 -1.15625q-1.625 0 -2.53125 1.15625q-0.90625 1.15625 -0.90625 3.09375zm12.509644 -5.6875l3.421875 9.578125l0.03125 0l3.296875 -9.578125l2.046875 0l-4.984375 12.96875q-0.78125 2.03125 -1.515625 2.734375q-0.71875 0.703125 -2.0 0.703125q-0.359375 0 -0.6875 -0.046875q-0.328125 -0.03125 -0.65625 -0.15625l0 -1.765625q0.28125 0.09375 0.5625 0.171875q0.28125 0.09375 0.5625 0.09375q1.1875 0 1.640625 -1.171875q0.46875 -1.171875 0.75 -1.875l-4.65625 -11.65625l2.1875 0zm12.27478 9.203125l0 2.515625l-2.515625 0l0 -2.515625l2.515625 0z" fill-rule="nonzero"/><path fill="#eeeeee" d="m161.63512 451.63852l4.84375 7.703125l4.734375 -7.703125l2.453125 0l-6.1875 9.5625l0 6.609375l-2.15625 0l0 -6.609375l-6.25 -9.5625l2.5625 0zm16.213303 4.1875q2.65625 0 4.171875 1.71875q1.515625 1.71875 1.515625 4.421875q0 2.734375 -1.546875 4.4375q-1.546875 1.6875 -4.140625 1.6875q-2.546875 0 -4.125 -1.65625q-1.5625 -1.671875 -1.5625 -4.46875q0 -2.78125 1.53125 -4.453125q1.546875 -1.6875 4.15625 -1.6875zm-3.640625 6.140625q0 2.015625 1.015625 3.21875q1.03125 1.203125 2.625 1.203125q1.59375 0 2.625 -1.203125q1.03125 -1.21875 1.03125 -3.21875q0 -2.0 -1.03125 -3.21875q-1.03125 -1.21875 -2.640625 -1.21875q-1.546875 0 -2.59375 1.203125q-1.03125 1.1875 -1.03125 3.234375zm13.525269 -5.875l0 7.984375q0 1.0 0.625 1.65625q0.640625 0.65625 1.765625 0.65625q1.65625 0 2.546875 -1.015625q0.90625 -1.015625 0.90625 -2.578125l0 -6.703125l1.9375 0l0 11.71875l-1.8125 0l0 -1.859375l-0.046875 0q-0.640625 1.125 -1.609375 1.640625q-0.96875 0.5 -2.21875 0.5q-2.046875 0 -3.03125 -1.0625q-0.984375 -1.0625 -0.984375 -3.125l0 -7.8125l1.921875 0zm16.506577 -0.265625q0.0625 0 0.109375 0q0.0625 0 0.15625 0l0 2.046875q-2.171875 0 -3.203125 1.15625q-1.03125 1.140625 -1.03125 3.53125l0 5.25l-1.921875 0l0 -11.71875l1.8125 0l0 2.46875l0.03125 0q0.6875 -1.390625 1.671875 -2.0625q0.984375 -0.671875 2.375 -0.671875zm10.042465 -4.1875l0 2.359375l-1.921875 0l0 -2.359375l1.921875 0zm0 4.453125l0 11.71875l-1.921875 0l0 -11.71875l1.921875 0zm13.470993 -4.453125l0 16.171875l-1.9375 0l0 -1.578125l-0.046875 0q-0.453125 0.90625 -1.4375 1.390625q-0.984375 0.46875 -2.296875 0.46875q-2.453125 0 -3.921875 -1.703125q-1.46875 -1.703125 -1.46875 -4.46875q0 -2.703125 1.421875 -4.390625q1.421875 -1.703125 3.921875 -1.703125q1.140625 0 2.171875 0.46875q1.046875 0.46875 1.609375 1.359375l0.046875 0l0 -6.015625l1.9375 0zm-9.0625 10.40625q0 1.890625 0.96875 3.125q0.984375 1.21875 2.65625 1.21875q1.703125 0 2.640625 -1.21875q0.9375 -1.234375 0.9375 -3.203125q0 -2.0 -0.96875 -3.21875q-0.96875 -1.21875 -2.75 -1.21875q-1.671875 0 -2.578125 1.21875q-0.90625 1.203125 -0.90625 3.296875zm16.883148 -6.21875q2.53125 0 3.921875 1.8125q1.390625 1.8125 1.390625 4.65625l0 0.234375l-8.765625 0l0 0.140625q0 1.671875 0.96875 2.703125q0.96875 1.015625 2.671875 1.015625q1.28125 0 2.03125 -0.59375q0.765625 -0.609375 1.0 -1.703125l1.90625 0q-0.390625 1.953125 -1.703125 2.984375q-1.3125 1.015625 -3.296875 1.015625q-1.84375 0 -3.125 -0.828125q-1.28125 -0.84375 -1.890625 -2.328125q-0.609375 -1.5 -0.609375 -3.046875q0 -2.59375 1.5625 -4.328125q1.5625 -1.734375 3.9375 -1.734375zm-3.453125 5.0l6.71875 0q-0.09375 -1.421875 -1.046875 -2.359375q-0.9375 -0.9375 -2.34375 -0.9375q-1.328125 0 -2.28125 0.890625q-0.9375 0.890625 -1.046875 2.40625zm15.543884 -5.0q2.390625 0 3.390625 0.859375q1.0 0.84375 1.0 2.28125q0 6.09375 0 6.765625q0 0.65625 0.609375 0.65625q0.140625 0 0.296875 -0.03125q0.15625 -0.046875 0.296875 -0.078125l0 1.484375q-0.265625 0.15625 -0.625 0.234375q-0.34375 0.09375 -0.75 0.09375q-0.796875 0 -1.21875 -0.453125q-0.421875 -0.453125 -0.421875 -1.359375q-0.765625 0.90625 -1.8125 1.359375q-1.03125 0.453125 -2.3125 0.453125q-1.8125 0 -2.84375 -0.859375q-1.03125 -0.859375 -1.03125 -2.4375q0 -1.578125 1.0 -2.5q1.015625 -0.921875 4.75 -1.390625q1.265625 -0.15625 1.703125 -0.46875q0.453125 -0.328125 0.453125 -0.984375q0 -0.96875 -0.625 -1.4375q-0.625 -0.484375 -1.984375 -0.484375q-1.4375 0 -2.15625 0.546875q-0.703125 0.53125 -0.75 1.671875l-1.9375 0q0.09375 -1.953125 1.375 -2.9375q1.28125 -0.984375 3.59375 -0.984375zm-3.375 8.828125q0 0.828125 0.59375 1.28125q0.59375 0.453125 1.671875 0.453125q1.625 0 2.59375 -0.8125q0.96875 -0.8125 0.96875 -1.796875l0 -2.015625q-0.484375 0.34375 -1.265625 0.46875q-0.765625 0.109375 -2.046875 0.296875q-1.28125 0.1875 -1.90625 0.703125q-0.609375 0.5 -0.609375 1.421875zm14.653275 -8.828125q2.359375 0 3.515625 0.921875q1.15625 0.921875 1.265625 2.75l-1.921875 0l0 -0.03125q-0.078125 -0.921875 -0.8125 -1.421875q-0.734375 -0.515625 -1.90625 -0.515625q-1.15625 0 -1.828125 0.390625q-0.671875 0.390625 -0.671875 1.09375q0 0.640625 0.59375 1.0625q0.59375 0.40625 1.78125 0.65625l1.8125 0.40625q1.71875 0.375 2.59375 1.15625q0.890625 0.78125 0.890625 2.09375q0 1.734375 -1.34375 2.71875q-1.34375 0.984375 -3.640625 0.984375q-2.25 0 -3.5781403 -1.0q-1.3125 -1.015625 -1.390625 -2.96875l1.9375153 0q0.03125 1.09375 0.859375 1.6875q0.828125 0.578125 2.28125 0.578125q1.390625 0 2.109375 -0.4375q0.71875 -0.453125 0.71875 -1.3125q0 -0.78125 -0.71875 -1.234375q-0.71875 -0.46875 -2.921875 -0.921875q-2.21875 -0.421875 -3.1250153 -1.203125q-0.890625 -0.796875 -0.890625 -2.125q0 -1.53125 1.25 -2.421875q1.2500153 -0.90625 3.1406403 -0.90625zm18.513367 0q2.390625 0 3.390625 0.859375q1.0 0.84375 1.0 2.28125q0 6.09375 0 6.765625q0 0.65625 0.609375 0.65625q0.140625 0 0.296875 -0.03125q0.15625 -0.046875 0.296875 -0.078125l0 1.484375q-0.265625 0.15625 -0.625 0.234375q-0.34375 0.09375 -0.75 0.09375q-0.796875 0 -1.21875 -0.453125q-0.421875 -0.453125 -0.421875 -1.359375q-0.765625 0.90625 -1.8125 1.359375q-1.03125 0.453125 -2.3125 0.453125q-1.8125 0 -2.84375 -0.859375q-1.03125 -0.859375 -1.03125 -2.4375q0 -1.578125 1.0 -2.5q1.015625 -0.921875 4.75 -1.390625q1.265625 -0.15625 1.703125 -0.46875q0.453125 -0.328125 0.453125 -0.984375q0 -0.96875 -0.625 -1.4375q-0.625 -0.484375 -1.984375 -0.484375q-1.4375 0 -2.15625 0.546875q-0.703125 0.53125 -0.75 1.671875l-1.9375 0q0.09375 -1.953125 1.375 -2.9375q1.28125 -0.984375 3.59375 -0.984375zm-3.375 8.828125q0 0.828125 0.59375 1.28125q0.59375 0.453125 1.671875 0.453125q1.625 0 2.59375 -0.8125q0.96875 -0.8125 0.96875 -1.796875l0 -2.015625q-0.484375 0.34375 -1.265625 0.46875q-0.765625 0.109375 -2.046875 0.296875q-1.28125 0.1875 -1.90625 0.703125q-0.609375 0.5 -0.609375 1.421875zm16.43451 -8.828125q2.109375 0 3.0625 1.09375q0.96875 1.078125 0.96875 3.09375l0 7.796875l-1.9375 0l0 -8.0q0 -1.0 -0.640625 -1.640625q-0.625 -0.640625 -1.75 -0.640625q-1.625 0 -2.546875 1.0q-0.90625 1.0 -0.90625 2.59375l0 6.6875l-1.921875 0l0 -11.71875l1.8125 0l0 1.859375l0.046875 0q0.640625 -1.09375 1.5625 -1.609375q0.9375 -0.515625 2.25 -0.515625zm17.397217 -4.1875l0 16.171875l-1.9375 0l0 -1.578125l-0.046875 0q-0.453125 0.90625 -1.4375 1.390625q-0.984375 0.46875 -2.296875 0.46875q-2.453125 0 -3.921875 -1.703125q-1.46875 -1.703125 -1.46875 -4.46875q0 -2.703125 1.421875 -4.390625q1.421875 -1.703125 3.921875 -1.703125q1.140625 0 2.171875 0.46875q1.046875 0.46875 1.609375 1.359375l0.046875 0l0 -6.015625l1.9375 0zm-9.0625 10.40625q0 1.890625 0.96875 3.125q0.984375 1.21875 2.65625 1.21875q1.703125 0 2.640625 -1.21875q0.9375 -1.234375 0.9375 -3.203125q0 -2.0 -0.96875 -3.21875q-0.96875 -1.21875 -2.75 -1.21875q-1.671875 0 -2.578125 1.21875q-0.90625 1.203125 -0.90625 3.296875zm23.365265 -6.21875q2.65625 0 4.171875 1.71875q1.515625 1.71875 1.515625 4.421875q0 2.734375 -1.546875 4.4375q-1.546875 1.6875 -4.140625 1.6875q-2.546875 0 -4.125 -1.65625q-1.5625 -1.671875 -1.5625 -4.46875q0 -2.78125 1.53125 -4.453125q1.546875 -1.6875 4.15625 -1.6875zm-3.640625 6.140625q0 2.015625 1.015625 3.21875q1.03125 1.203125 2.625 1.203125q1.59375 0 2.625 -1.203125q1.03125 -1.21875 1.03125 -3.21875q0 -2.0 -1.03125 -3.21875q-1.03125 -1.21875 -2.640625 -1.21875q-1.546875 0 -2.59375 1.203125q-1.03125 1.1875 -1.03125 3.234375zm13.525269 -5.875l0 7.984375q0 1.0 0.625 1.65625q0.640625 0.65625 1.765625 0.65625q1.65625 0 2.546875 -1.015625q0.90625 -1.015625 0.90625 -2.578125l0 -6.703125l1.9375 0l0 11.71875l-1.8125 0l0 -1.859375l-0.046875 0q-0.640625 1.125 -1.609375 1.640625q-0.96875 0.5 -2.21875 0.5q-2.046875 0 -3.03125 -1.0625q-0.984375 -1.0625 -0.984375 -3.125l0 -7.8125l1.921875 0zm16.506592 -0.265625q0.0625 0 0.109375 0q0.0625 0 0.15625 0l0 2.046875q-2.171875 0 -3.203125 1.15625q-1.03125 1.140625 -1.03125 3.53125l0 5.25l-1.921875 0l0 -11.71875l1.8125 0l0 2.46875l0.03125 0q0.6875 -1.390625 1.671875 -2.0625q0.984375 -0.671875 2.375 -0.671875zm12.901825 0q2.140625 0 3.46875 1.03125q1.34375 1.015625 1.578125 3.0l-1.984375 0q-0.234375 -1.140625 -1.0 -1.734375q-0.75 -0.59375 -1.90625 -0.59375q-1.78125 0 -2.71875 1.203125q-0.921875 1.1875 -0.921875 3.375q0 1.9375 0.90625 3.109375q0.921875 1.171875 2.5 1.171875q1.40625 0 2.21875 -0.75q0.8125 -0.765625 1.0 -2.109375l1.96875 0q-0.3125 2.1875 -1.640625 3.375q-1.328125 1.1875 -3.515625 1.1875q-2.5625 0 -4.03125 -1.609375q-1.453125 -1.609375 -1.453125 -4.375q0 -2.875 1.46875 -4.578125q1.484375 -1.703125 4.0625 -1.703125zm13.106384 0q0.0625 0 0.109375 0q0.0625 0 0.15625 0l0 2.046875q-2.171875 0 -3.203125 1.15625q-1.03125 1.140625 -1.03125 3.53125l0 5.25l-1.921875 0l0 -11.71875l1.8125 0l0 2.46875l0.03125 0q0.6875 -1.390625 1.671875 -2.0625q0.984375 -0.671875 2.375 -0.671875zm6.1664734 0q2.53125 0 3.921875 1.8125q1.390625 1.8125 1.390625 4.65625l0 0.234375l-8.765625 0l0 0.140625q0 1.671875 0.96875 2.703125q0.96875 1.015625 2.671875 1.015625q1.28125 0 2.03125 -0.59375q0.765625 -0.609375 1.0 -1.703125l1.90625 0q-0.390625 1.953125 -1.703125 2.984375q-1.3125 1.015625 -3.296875 1.015625q-1.84375 0 -3.125 -0.828125q-1.28125 -0.84375 -1.890625 -2.328125q-0.609375 -1.5 -0.609375 -3.046875q0 -2.59375 1.5625 -4.328125q1.5625 -1.734375 3.9375 -1.734375zm-3.453125 5.0l6.71875 0q-0.09375 -1.421875 -1.046875 -2.359375q-0.9375 -0.9375 -2.34375 -0.9375q-1.328125 0 -2.28125 0.890625q-0.9375 0.890625 -1.046875 2.40625zm15.543884 -5.0q2.390625 0 3.390625 0.859375q1.0 0.84375 1.0 2.28125q0 6.09375 0 6.765625q0 0.65625 0.609375 0.65625q0.140625 0 0.296875 -0.03125q0.15625 -0.046875 0.296875 -0.078125l0 1.484375q-0.265625 0.15625 -0.625 0.234375q-0.34375 0.09375 -0.75 0.09375q-0.796875 0 -1.21875 -0.453125q-0.421875 -0.453125 -0.421875 -1.359375q-0.765625 0.90625 -1.8125 1.359375q-1.03125 0.453125 -2.3125 0.453125q-1.8125 0 -2.84375 -0.859375q-1.03125 -0.859375 -1.03125 -2.4375q0 -1.578125 1.0 -2.5q1.015625 -0.921875 4.75 -1.390625q1.265625 -0.15625 1.703125 -0.46875q0.453125 -0.328125 0.453125 -0.984375q0 -0.96875 -0.625 -1.4375q-0.625 -0.484375 -1.984375 -0.484375q-1.4375 0 -2.15625 0.546875q-0.703125 0.53125 -0.75 1.671875l-1.9375 0q0.09375 -1.953125 1.375 -2.9375q1.28125 -0.984375 3.59375 -0.984375zm-3.375 8.828125q0 0.828125 0.59375 1.28125q0.59375 0.453125 1.671875 0.453125q1.625 0 2.59375 -0.8125q0.96875 -0.8125 0.96875 -1.796875l0 -2.015625q-0.484375 0.34375 -1.265625 0.46875q-0.765625 0.109375 -2.046875 0.296875q-1.28125 0.1875 -1.90625 0.703125q-0.609375 0.5 -0.609375 1.421875zm13.434509 -12.0625l0 3.5l2.328125 0l0 1.703125l-2.328125 0l0 7.34375q0 0.875 0.578125 0.921875q0.578125 0.046875 1.21875 0.046875l0.53125 0l0 1.703125l-1.578125 0q-1.59375 0 -2.140625 -0.5625q-0.53125 -0.5625 -0.53125 -1.890625l0 -7.5625l-2.0 0l0 -1.703125l2.0 0l0 -3.5l1.921875 0zm6.4947815 -0.953125l0 2.359375l-1.921875 0l0 -2.359375l1.921875 0zm0 4.453125l0 11.71875l-1.921875 0l0 -11.71875l1.921875 0zm4.017853 0l3.28125 9.765625l0.046875 0l3.203125 -9.765625l2.0 0l-4.28125 11.71875l-2.046875 0l-4.34375 -11.71875l2.140625 0zm12.34375 -4.453125l0 2.359375l-1.921875 0l0 -2.359375l1.921875 0zm0 4.453125l0 11.71875l-1.921875 0l0 -11.71875l1.921875 0zm5.6741333 -3.5l0 3.5l2.328125 0l0 1.703125l-2.328125 0l0 7.34375q0 0.875 0.578125 0.921875q0.578125 0.046875 1.21875 0.046875l0.53125 0l0 1.703125l-1.578125 0q-1.59375 0 -2.140625 -0.5625q-0.53125 -0.5625 -0.53125 -1.890625l0 -7.5625l-2.0 0l0 -1.703125l2.0 0l0 -3.5l1.921875 0zm5.369751 3.5l3.421875 9.578125l0.03125 0l3.296875 -9.578125l2.046875 0l-4.984375 12.96875q-0.78125 2.03125 -1.515625 2.734375q-0.71875 0.703125 -2.0 0.703125q-0.359375 0 -0.6875 -0.046875q-0.328125 -0.03125 -0.65625 -0.15625l0 -1.765625q0.28125 0.09375 0.5625 0.171875q0.28125 0.09375 0.5625 0.09375q1.1875 0 1.640625 -1.171875q0.46875 -1.171875 0.75 -1.875l-4.65625 -11.65625l2.1875 0zm21.607117 -0.265625q2.140625 0 3.46875 1.03125q1.34375 1.015625 1.578125 3.0l-1.984375 0q-0.234375 -1.140625 -1.0 -1.734375q-0.75 -0.59375 -1.90625 -0.59375q-1.78125 0 -2.71875 1.203125q-0.921875 1.1875 -0.921875 3.375q0 1.9375 0.90625 3.109375q0.921875 1.171875 2.5 1.171875q1.40625 0 2.21875 -0.75q0.8125 -0.765625 1.0 -2.109375l1.96875 0q-0.3125 2.1875 -1.640625 3.375q-1.328125 1.1875 -3.515625 1.1875q-2.5625 0 -4.03125 -1.609375q-1.453125 -1.609375 -1.453125 -4.375q0 -2.875 1.46875 -4.578125q1.484375 -1.703125 4.0625 -1.703125zm12.325134 0q2.65625 0 4.171875 1.71875q1.515625 1.71875 1.515625 4.421875q0 2.734375 -1.546875 4.4375q-1.546875 1.6875 -4.140625 1.6875q-2.546875 0 -4.125 -1.65625q-1.5625 -1.671875 -1.5625 -4.46875q0 -2.78125 1.53125 -4.453125q1.546875 -1.6875 4.15625 -1.6875zm-3.640625 6.140625q0 2.015625 1.015625 3.21875q1.03125 1.203125 2.625 1.203125q1.59375 0 2.625 -1.203125q1.03125 -1.21875 1.03125 -3.21875q0 -2.0 -1.03125 -3.21875q-1.03125 -1.21875 -2.640625 -1.21875q-1.546875 0 -2.59375 1.203125q-1.03125 1.1875 -1.03125 3.234375zm17.275269 -6.140625q2.109375 0 3.0625 1.09375q0.96875 1.078125 0.96875 3.09375l0 7.796875l-1.9375 0l0 -8.0q0 -1.0 -0.640625 -1.640625q-0.625 -0.640625 -1.75 -0.640625q-1.625 0 -2.546875 1.0q-0.90625 1.0 -0.90625 2.59375l0 6.6875l-1.921875 0l0 -11.71875l1.8125 0l0 1.859375l0.046875 0q0.640625 -1.09375 1.5625 -1.609375q0.9375 -0.515625 2.25 -0.515625zm12.600342 0q2.109375 0 3.0625 1.09375q0.96875 1.078125 0.96875 3.09375l0 7.796875l-1.9375 0l0 -8.0q0 -1.0 -0.640625 -1.640625q-0.625 -0.640625 -1.75 -0.640625q-1.625 0 -2.546875 1.0q-0.90625 1.0 -0.90625 2.59375l0 6.6875l-1.921875 0l0 -11.71875l1.8125 0l0 1.859375l0.046875 0q0.640625 -1.09375 1.5625 -1.609375q0.9375 -0.515625 2.25 -0.515625zm11.787842 0q2.53125 0 3.921875 1.8125q1.390625 1.8125 1.390625 4.65625l0 0.234375l-8.765625 0l0 0.140625q0 1.671875 0.96875 2.703125q0.96875 1.015625 2.671875 1.015625q1.28125 0 2.03125 -0.59375q0.765625 -0.609375 1.0 -1.703125l1.90625 0q-0.390625 1.953125 -1.703125 2.984375q-1.3125 1.015625 -3.296875 1.015625q-1.84375 0 -3.125 -0.828125q-1.28125 -0.84375 -1.890625 -2.328125q-0.609375 -1.5 -0.609375 -3.046875q0 -2.59375 1.5625 -4.328125q1.5625 -1.734375 3.9375 -1.734375zm-3.453125 5.0l6.71875 0q-0.09375 -1.421875 -1.046875 -2.359375q-0.9375 -0.9375 -2.34375 -0.9375q-1.328125 0 -2.28125 0.890625q-0.9375 0.890625 -1.046875 2.40625zm15.653259 -5.0q2.140625 0 3.46875 1.03125q1.34375 1.015625 1.578125 3.0l-1.984375 0q-0.234375 -1.140625 -1.0 -1.734375q-0.75 -0.59375 -1.90625 -0.59375q-1.78125 0 -2.71875 1.203125q-0.921875 1.1875 -0.921875 3.375q0 1.9375 0.90625 3.109375q0.921875 1.171875 2.5 1.171875q1.40625 0 2.21875 -0.75q0.8125 -0.765625 1.0 -2.109375l1.96875 0q-0.3125 2.1875 -1.640625 3.375q-1.328125 1.1875 -3.515625 1.1875q-2.5625 0 -4.03125 -1.609375q-1.453125 -1.609375 -1.453125 -4.375q0 -2.875 1.46875 -4.578125q1.484375 -1.703125 4.0625 -1.703125zm9.950134 -3.234375l0 3.5l2.328125 0l0 1.703125l-2.328125 0l0 7.34375q0 0.875 0.578125 0.921875q0.578125 0.046875 1.21875 0.046875l0.53125 0l0 1.703125l-1.578125 0q-1.59375 0 -2.140625 -0.5625q-0.53125 -0.5625 -0.53125 -1.890625l0 -7.5625l-2.0 0l0 -1.703125l2.0 0l0 -3.5l1.921875 0zm6.494751 -0.953125l0 2.359375l-1.921875 0l0 -2.359375l1.921875 0zm0 4.453125l0 11.71875l-1.921875 0l0 -11.71875l1.921875 0zm8.674133 -0.265625q2.109375 0 3.0625 1.09375q0.96875 1.078125 0.96875 3.09375l0 7.796875l-1.9375 0l0 -8.0q0 -1.0 -0.640625 -1.640625q-0.625 -0.640625 -1.75 -0.640625q-1.625 0 -2.546875 1.0q-0.90625 1.0 -0.90625 2.59375l0 6.6875l-1.921875 0l0 -11.71875l1.8125 0l0 1.859375l0.046875 0q0.640625 -1.09375 1.5625 -1.609375q0.9375 -0.515625 2.25 -0.515625zm11.694092 0q1.21875 0 2.109375 0.53125q0.90625 0.53125 1.390625 1.421875l0.03125 0l0 -1.6875l1.796875 0l0 10.84375q0 2.75 -1.328125 4.1875q-1.328125 1.4375 -4.09375 1.4375q-2.015625 0 -3.390625 -0.890625q-1.375 -0.875 -1.46875 -2.546875l1.9375 0q0.03125 0.90625 0.9375 1.40625q0.921875 0.5 2.09375 0.5q1.703125 0 2.609375 -1.125q0.90625 -1.125 0.90625 -3.359375l0 -0.71875l-0.046875 0q-0.453125 0.96875 -1.4375 1.546875q-0.96875 0.5625 -2.21875 0.5625q-2.390625 0 -3.8125 -1.625q-1.421875 -1.640625 -1.421875 -4.296875q0 -2.6875 1.421875 -4.4375q1.421875 -1.75 3.984375 -1.75zm-3.359375 5.953125q0 2.09375 0.875 3.28125q0.875 1.1875 2.421875 1.1875q1.59375 0 2.53125 -1.234375q0.953125 -1.234375 0.953125 -3.296875q0 -1.875 -0.875 -3.03125q-0.859375 -1.15625 -2.46875 -1.15625q-1.625 0 -2.53125 1.15625q-0.90625 1.15625 -0.90625 3.09375zm20.569885 -9.1875l0 3.5l2.328125 0l0 1.703125l-2.328125 0l0 7.34375q0 0.875 0.578125 0.921875q0.578125 0.046875 1.21875 0.046875l0.53125 0l0 1.703125l-1.578125 0q-1.59375 0 -2.140625 -0.5625q-0.53125 -0.5625 -0.53125 -1.890625l0 -7.5625l-2.0 0l0 -1.703125l2.0 0l0 -3.5l1.921875 0zm6.385376 -0.953125l0 6.1875l0.046875 0q0.421875 -0.953125 1.421875 -1.46875q1.015625 -0.53125 2.28125 -0.53125q2.109375 0 3.0625 1.09375q0.96875 1.078125 0.96875 3.09375l0 7.796875l-1.9375 0l0 -8.0q0 -1.0 -0.640625 -1.640625q-0.625 -0.640625 -1.75 -0.640625q-1.625 0 -2.546875 1.0q-0.90625 1.0 -0.90625 2.59375l0 6.6875l-1.921875 0l0 -16.171875l1.921875 0zm15.537842 4.1875q2.53125 0 3.921875 1.8125q1.390625 1.8125 1.390625 4.65625l0 0.234375l-8.765625 0l0 0.140625q0 1.671875 0.96875 2.703125q0.96875 1.015625 2.671875 1.015625q1.28125 0 2.03125 -0.59375q0.765625 -0.609375 1.0 -1.703125l1.90625 0q-0.390625 1.953125 -1.703125 2.984375q-1.3125 1.015625 -3.296875 1.015625q-1.84375 0 -3.125 -0.828125q-1.28125 -0.84375 -1.890625 -2.328125q-0.609375 -1.5 -0.609375 -3.046875q0 -2.59375 1.5625 -4.328125q1.5625 -1.734375 3.9375 -1.734375zm-3.453125 5.0l6.71875 0q-0.09375 -1.421875 -1.046875 -2.359375q-0.9375 -0.9375 -2.34375 -0.9375q-1.328125 0 -2.28125 0.890625q-0.9375 0.890625 -1.046875 2.40625zm19.041626 -9.1875l0 6.046875l0.046875 0q0.453125 -0.90625 1.421875 -1.375q0.96875 -0.484375 2.3125 -0.484375q2.515625 0 3.953125 1.734375q1.453125 1.71875 1.453125 4.4375q0 2.71875 -1.4375 4.40625q-1.4375 1.6875 -3.90625 1.6875q-1.09375 0 -2.140625 -0.453125q-1.046875 -0.453125 -1.65625 -1.390625l-0.046875 0l0 1.5625l-1.921875 0l0 -16.171875l1.921875 0zm-0.0625 10.3125q0 2.03125 0.984375 3.234375q0.984375 1.203125 2.703125 1.203125q1.671875 0 2.59375 -1.1875q0.921875 -1.203125 0.921875 -3.34375q0 -1.890625 -0.96875 -3.109375q-0.96875 -1.21875 -2.671875 -1.21875q-1.6875 0 -2.625 1.234375q-0.9375 1.234375 -0.9375 3.1875zm16.367493 -6.125q2.53125 0 3.921875 1.8125q1.390625 1.8125 1.390625 4.65625l0 0.234375l-8.765625 0l0 0.140625q0 1.671875 0.96875 2.703125q0.96875 1.015625 2.671875 1.015625q1.28125 0 2.03125 -0.59375q0.765625 -0.609375 1.0 -1.703125l1.90625 0q-0.390625 1.953125 -1.703125 2.984375q-1.3125 1.015625 -3.296875 1.015625q-1.84375 0 -3.125 -0.828125q-1.28125 -0.84375 -1.890625 -2.328125q-0.609375 -1.5 -0.609375 -3.046875q0 -2.59375 1.5625 -4.328125q1.5625 -1.734375 3.9375 -1.734375zm-3.453125 5.0l6.71875 0q-0.09375 -1.421875 -1.046875 -2.359375q-0.9375 -0.9375 -2.34375 -0.9375q-1.328125 0 -2.28125 0.890625q-0.9375 0.890625 -1.046875 2.40625zm14.653259 -5.0q2.359375 0 3.515625 0.921875q1.15625 0.921875 1.265625 2.75l-1.921875 0l0 -0.03125q-0.078125 -0.921875 -0.8125 -1.421875q-0.734375 -0.515625 -1.90625 -0.515625q-1.15625 0 -1.828125 0.390625q-0.671875 0.390625 -0.671875 1.09375q0 0.640625 0.59375 1.0625q0.59375 0.40625 1.78125 0.65625l1.8125 0.40625q1.71875 0.375 2.59375 1.15625q0.890625 0.78125 0.890625 2.09375q0 1.734375 -1.34375 2.71875q-1.34375 0.984375 -3.640625 0.984375q-2.25 0 -3.578125 -1.0q-1.3125 -1.015625 -1.390625 -2.96875l1.9375 0q0.03125 1.09375 0.859375 1.6875q0.828125 0.578125 2.28125 0.578125q1.390625 0 2.109375 -0.4375q0.71875 -0.453125 0.71875 -1.3125q0 -0.78125 -0.71875 -1.234375q-0.71875 -0.46875 -2.921875 -0.921875q-2.21875 -0.421875 -3.125 -1.203125q-0.890625 -0.796875 -0.890625 -2.125q0 -1.53125 1.25 -2.421875q1.25 -0.90625 3.140625 -0.90625zm10.109375 -3.234375l0 3.5l2.328125 0l0 1.703125l-2.328125 0l0 7.34375q0 0.875 0.578125 0.921875q0.578125 0.046875 1.21875 0.046875l0.53125 0l0 1.703125l-1.578125 0q-1.59375 0 -2.140625 -0.5625q-0.53125 -0.5625 -0.53125 -1.890625l0 -7.5625l-2.0 0l0 -1.703125l2.0 0l0 -3.5l1.921875 0zm15.805054 3.234375q2.65625 0 4.171875 1.71875q1.515625 1.71875 1.515625 4.421875q0 2.734375 -1.546875 4.4375q-1.546875 1.6875 -4.140625 1.6875q-2.546875 0 -4.125 -1.65625q-1.5625 -1.671875 -1.5625 -4.46875q0 -2.78125 1.53125 -4.453125q1.546875 -1.6875 4.15625 -1.6875zm-3.640625 6.140625q0 2.015625 1.015625 3.21875q1.03125 1.203125 2.625 1.203125q1.59375 0 2.625 -1.203125q1.03125 -1.21875 1.03125 -3.21875q0 -2.0 -1.03125 -3.21875q-1.03125 -1.21875 -2.640625 -1.21875q-1.546875 0 -2.59375 1.203125q-1.03125 1.1875 -1.03125 3.234375zm15.619019 -10.515625q0.234375 0 0.625 0.0625q0.40625 0.046875 0.625 0.125l0 1.671875q-0.21875 -0.078125 -0.546875 -0.109375q-0.3125 -0.046875 -0.53125 -0.046875q-0.8125 0 -1.140625 0.328125q-0.328125 0.328125 -0.328125 0.9375l0 1.671875l2.265625 0l0 1.703125l-2.265625 0l0 10.015625l-1.921875 0l0 -10.015625l-1.96875 0l0 -1.703125l1.96875 0l0 -1.828125q0 -1.28125 0.8125 -2.046875q0.8125 -0.765625 2.40625 -0.765625zm10.967285 0.1875l0 6.046875l0.046875 0q0.453125 -0.90625 1.421875 -1.375q0.96875 -0.484375 2.3125 -0.484375q2.515625 0 3.953125 1.734375q1.453125 1.71875 1.453125 4.4375q0 2.71875 -1.4375 4.40625q-1.4375 1.6875 -3.90625 1.6875q-1.09375 0 -2.140625 -0.453125q-1.046875 -0.453125 -1.65625 -1.390625l-0.046875 0l0 1.5625l-1.921875 0l0 -16.171875l1.921875 0zm-0.0625 10.3125q0 2.03125 0.984375 3.234375q0.984375 1.203125 2.703125 1.203125q1.671875 0 2.59375 -1.1875q0.921875 -1.203125 0.921875 -3.34375q0 -1.890625 -0.96875 -3.109375q-0.96875 -1.21875 -2.671875 -1.21875q-1.6875 0 -2.625 1.234375q-0.9375 1.234375 -0.9375 3.1875zm16.554932 -6.125q2.65625 0 4.171875 1.71875q1.515625 1.71875 1.515625 4.421875q0 2.734375 -1.546875 4.4375q-1.546875 1.6875 -4.140625 1.6875q-2.546875 0 -4.125 -1.65625q-1.5625 -1.671875 -1.5625 -4.46875q0 -2.78125 1.53125 -4.453125q1.546875 -1.6875 4.15625 -1.6875zm-3.640625 6.140625q0 2.015625 1.015625 3.21875q1.03125 1.203125 2.625 1.203125q1.59375 0 2.625 -1.203125q1.03125 -1.21875 1.03125 -3.21875q0 -2.0 -1.03125 -3.21875q-1.03125 -1.21875 -2.640625 -1.21875q-1.546875 0 -2.59375 1.203125q-1.03125 1.1875 -1.03125 3.234375zm14.275269 -9.375l0 3.5l2.328125 0l0 1.703125l-2.328125 0l0 7.34375q0 0.875 0.578125 0.921875q0.578125 0.046875 1.21875 0.046875l0.53125 0l0 1.703125l-1.578125 0q-1.59375 0 -2.140625 -0.5625q-0.53125 -0.5625 -0.53125 -1.890625l0 -7.5625l-2.0 0l0 -1.703125l2.0 0l0 -3.5l1.921875 0zm6.385376 -0.953125l0 6.1875l0.046875 0q0.421875 -0.953125 1.421875 -1.46875q1.015625 -0.53125 2.28125 -0.53125q2.109375 0 3.0625 1.09375q0.96875 1.078125 0.96875 3.09375l0 7.796875l-1.9375 0l0 -8.0q0 -1.0 -0.640625 -1.640625q-0.625 -0.640625 -1.75 -0.640625q-1.625 0 -2.546875 1.0q-0.90625 1.0 -0.90625 2.59375l0 6.6875l-1.921875 0l0 -16.171875l1.921875 0zm18.035645 4.453125l2.65625 9.578125l0.03125 0l2.359375 -9.578125l2.109375 0l2.4375 9.53125l0.03125 0.046875l0.03125 0l2.625 -9.578125l2.0 0l-3.734375 11.6875l-0.015625 0.03125l-2.046875 0l-2.359375 -9.265625l-0.015625 -0.046875l-0.046875 0l-2.34375 9.3125l-2.078125 0l-3.765625 -11.71875l2.125 0zm21.153564 -0.265625q2.65625 0 4.171875 1.71875q1.515625 1.71875 1.515625 4.421875q0 2.734375 -1.546875 4.4375q-1.546875 1.6875 -4.140625 1.6875q-2.546875 0 -4.125 -1.65625q-1.5625 -1.671875 -1.5625 -4.46875q0 -2.78125 1.53125 -4.453125q1.546875 -1.6875 4.15625 -1.6875zm-3.640625 6.140625q0 2.015625 1.015625 3.21875q1.03125 1.203125 2.625 1.203125q1.59375 0 2.625 -1.203125q1.03125 -1.21875 1.03125 -3.21875q0 -2.0 -1.03125 -3.21875q-1.03125 -1.21875 -2.640625 -1.21875q-1.546875 0 -2.59375 1.203125q-1.03125 1.1875 -1.03125 3.234375zm17.431519 -6.140625q0.0625 0 0.109375 0q0.0625 0 0.15625 0l0 2.046875q-2.171875 0 -3.203125 1.15625q-1.03125 1.140625 -1.03125 3.53125l0 5.25l-1.921875 0l0 -11.71875l1.8125 0l0 2.46875l0.03125 0q0.6875 -1.390625 1.671875 -2.0625q0.984375 -0.671875 2.375 -0.671875zm3.7478027 -4.1875l0 16.171875l-1.921875 0l0 -16.171875l1.921875 0zm13.471069 0l0 16.171875l-1.9375 0l0 -1.578125l-0.046875 0q-0.453125 0.90625 -1.4375 1.390625q-0.984375 0.46875 -2.296875 0.46875q-2.453125 0 -3.921875 -1.703125q-1.46875 -1.703125 -1.46875 -4.46875q0 -2.703125 1.421875 -4.390625q1.421875 -1.703125 3.921875 -1.703125q1.140625 0 2.171875 0.46875q1.046875 0.46875 1.609375 1.359375l0.046875 0l0 -6.015625l1.9375 0zm-9.0625 10.40625q0 1.890625 0.96875 3.125q0.984375 1.21875 2.65625 1.21875q1.703125 0 2.640625 -1.21875q0.9375 -1.234375 0.9375 -3.203125q0 -2.0 -0.96875 -3.21875q-0.96875 -1.21875 -2.75 -1.21875q-1.671875 0 -2.578125 1.21875q-0.90625 1.203125 -0.90625 3.296875zm15.914307 -6.21875q2.359375 0 3.515625 0.921875q1.15625 0.921875 1.265625 2.75l-1.921875 0l0 -0.03125q-0.078125 -0.921875 -0.8125 -1.421875q-0.734375 -0.515625 -1.90625 -0.515625q-1.15625 0 -1.828125 0.390625q-0.671875 0.390625 -0.671875 1.09375q0 0.640625 0.59375 1.0625q0.59375 0.40625 1.78125 0.65625l1.8125 0.40625q1.71875 0.375 2.59375 1.15625q0.890625 0.78125 0.890625 2.09375q0 1.734375 -1.34375 2.71875q-1.34375 0.984375 -3.640625 0.984375q-2.25 0 -3.578125 -1.0q-1.3125 -1.015625 -1.390625 -2.96875l1.9375 0q0.03125 1.09375 0.859375 1.6875q0.828125 0.578125 2.28125 0.578125q1.390625 0 2.109375 -0.4375q0.71875 -0.453125 0.71875 -1.3125q0 -0.78125 -0.71875 -1.234375q-0.71875 -0.46875 -2.921875 -0.921875q-2.21875 -0.421875 -3.125 -1.203125q-0.890625 -0.796875 -0.890625 -2.125q0 -1.53125 1.25 -2.421875q1.25 -0.90625 3.140625 -0.90625zm10.375 9.46875l0 2.515625l-2.515625 0l0 -2.515625l2.515625 0z" fill-rule="nonzero"/></g></g></svg>