<svg version="1.1" viewBox="0.0 0.0 960.0 540.0" fill="none" stroke="none" stroke-linecap="square" stroke-miterlimit="10" xmlns:xlink="http://www.w3.org/1999/xlink" xmlns="http://www.w3.org/2000/svg"><clipPath id="g2e3e872469c_0_168.0"><path d="m0 0l960.0 0l0 540.0l-960.0 0l0 -540.0z" clip-rule="nonzero"/></clipPath><g clip-path="url(#g2e3e872469c_0_168.0)"><g id="g2e3e872469c_0_168"><path fill="#ffffff" d="m0 0l960.0 0l0 540.0l-960.0 0l0 -540.0z" fill-rule="nonzero"/><path fill="#000000" d="m0 0l960.0 0l0 540.0l-960.0 0z" fill-rule="evenodd"/><g id="a11y-g2e3e872469c_0_169" role="img" aria-label="BRESH PARTY&#xa;We design event installations for Puma, Adidas, and Brahma, transforming spaces and enabling high-quality content creation.&#xa;" tabindex="0"><path fill="#000000" fill-opacity="0.0" d="m185.93964 439.98688l0 94.6142l653.8268 0l0 -94.6142z" fill-rule="nonzero"/></g><path fill="#000000" fill-opacity="0.0" d="m185.93964 439.98688l653.8268 0l0 94.6142l-653.8268 0z" fill-rule="evenodd"/><path fill="#d9d9d9" d="m201.58026 453.25186q2.28125 0 3.09375 0.9375q0.828125 0.921875 0.828125 2.09375q0 0.984375 -0.484375 1.703125q-0.46875 0.71875 -1.34375 1.078125l0 0.03125q1.140625 0.25 1.75 1.046875q0.609375 0.78125 0.609375 1.9375q0 1.5 -1.0625 2.53125q-1.046875 1.015625 -2.640625 1.015625l-6.03125 0l0 -12.375l5.28125 0zm-0.265625 5.3125q1.234375 0 1.890625 -0.453125q0.65625 -0.46875 0.65625 -1.515625q0 -0.984375 -0.546875 -1.46875q-0.546875 -0.484375 -1.984375 -0.484375l-3.390625 0l0 3.921875l3.375 0zm0.8125 5.671875q1.0 0 1.625 -0.59375q0.625 -0.59375 0.625 -1.625q0 -1.03125 -0.71875 -1.546875q-0.703125 -0.515625 -2.03125 -0.515625l-3.6875 0l0 4.28125l4.1875 0zm11.933289 -10.984375q1.609375 0 2.640625 0.859375q1.046875 0.859375 1.046875 2.390625q0 1.21875 -0.546875 2.03125q-0.53125 0.796875 -1.609375 1.09375l0 0.03125q0.9375 0.1875 1.375 0.875q0.453125 0.6875 0.515625 2.375q0.046875 1.078125 0.203125 1.703125q0.171875 0.609375 0.484375 1.015625l-1.828125 0q-0.15625 -0.203125 -0.203125 -0.390625q-0.046875 -0.203125 -0.09375 -0.5625l-0.0625 -1.359375q-0.03125 -0.953125 -0.421875 -1.9375q-0.375 -1.0 -1.6875 -1.03125l-4.0625 0l0 5.28125l-1.640625 0l0 -12.375l5.890625 0zm-0.734375 5.703125q1.375 0 2.078125 -0.53125q0.703125 -0.53125 0.703125 -1.671875q0 -1.0 -0.5625 -1.546875q-0.5625 -0.5625 -1.578125 -0.5625l-4.15625 0l0 4.3125l3.515625 0zm15.245789 -5.703125l0 1.390625l-6.890625 0l0 3.921875l6.421875 0l0 1.390625l-6.421875 0l0 4.28125l6.953125 0l0 1.390625l-8.59375 0l0 -12.375l8.53125 0zm6.209717 -0.296875q2.0625 0 3.265625 1.0q1.21875 1.0 1.28125 2.921875l-1.546875 0q-0.140625 -1.265625 -0.921875 -1.890625q-0.765625 -0.640625 -2.15625 -0.640625q-1.3125 0 -2.046875 0.546875q-0.71875 0.546875 -0.71875 1.5625q0 0.734375 0.609375 1.203125q0.625 0.453125 3.359375 1.0q1.984375 0.40625 2.953125 1.25q0.984375 0.84375 0.984375 2.328125q0 1.71875 -1.40625 2.703125q-1.40625 0.984375 -3.421875 0.984375q-2.25 0 -3.671875 -1.125q-1.421875 -1.125 -1.4375 -3.234375l1.5625 0q0.015625 1.40625 1.0 2.1875q1.0 0.78125 2.59375 0.78125q1.5 0 2.3125 -0.578125q0.828125 -0.578125 0.828125 -1.671875q0 -0.875 -0.75 -1.40625q-0.75 -0.53125 -2.734375 -0.921875q-2.640625 -0.5 -3.53125 -1.28125q-0.890625 -0.796875 -0.890625 -2.09375q0 -1.671875 1.25 -2.640625q1.265625 -0.984375 3.234375 -0.984375zm8.712128 0.296875l0 5.3125l6.515625 0l0 -5.3125l1.640625 0l0 12.375l-1.640625 0l0 -5.671875l-6.515625 0l0 5.671875l-1.640625 0l0 -12.375l1.640625 0zm21.1875 0q1.6875 0 2.6875 0.921875q1.015625 0.921875 1.015625 2.734375q0 1.828125 -1.015625 2.75q-1.0 0.90625 -2.578125 0.90625l-3.96875 0l0 5.0625l-1.640625 0l0 -12.375l5.5 0zm-0.46875 5.921875q1.1875 0 1.859375 -0.546875q0.671875 -0.5625 0.671875 -1.71875q0 -1.140625 -0.671875 -1.703125q-0.65625 -0.5625 -1.953125 -0.5625l-3.296875 0l0 4.53125l3.390625 0zm10.124237 -5.921875l4.828125 12.375l-1.8125 0l-1.34375 -3.71875l-5.234375 0l-1.390625 3.71875l-1.703125 0l4.84375 -12.375l1.8125 0zm-0.953125 1.5l-2.09375 5.765625l4.1875 0l-2.046875 -5.765625l-0.046875 0zm12.899628 -1.5q1.609375 0 2.640625 0.859375q1.046875 0.859375 1.046875 2.390625q0 1.21875 -0.546875 2.03125q-0.53125 0.796875 -1.609375 1.09375l0 0.03125q0.9375 0.1875 1.375 0.875q0.453125 0.6875 0.515625 2.375q0.046875 1.078125 0.203125 1.703125q0.171875 0.609375 0.484375 1.015625l-1.828125 0q-0.15625 -0.203125 -0.203125 -0.390625q-0.046875 -0.203125 -0.09375 -0.5625l-0.0625 -1.359375q-0.03125 -0.953125 -0.421875 -1.9375q-0.375 -1.0 -1.6875 -1.03125l-4.0625 0l0 5.28125l-1.640625 0l0 -12.375l5.890625 0zm-0.734375 5.703125q1.375 0 2.078125 -0.53125q0.703125 -0.53125 0.703125 -1.671875q0 -1.0 -0.5625 -1.546875q-0.5625 -0.5625 -1.578125 -0.5625l-4.15625 0l0 4.3125l3.515625 0zm15.191101 -5.703125l0 1.390625l-4.140625 0l0 10.984375l-1.640625 0l0 -10.984375l-4.125 0l0 -1.390625l9.90625 0zm2.0295715 0l3.703125 5.890625l3.625 -5.890625l1.859375 0l-4.71875 7.3125l0 5.0625l-1.65625 0l0 -5.0625l-4.78125 -7.3125l1.96875 0z" fill-rule="nonzero"/><path fill="#d9d9d9" d="m196.83026 486.05188l2.421875 10.296875l0.03125 0l2.78125 -10.296875l1.78125 0l2.734375 10.296875l0.03125 0l2.515625 -10.296875l1.65625 0l-3.3125 12.375l-1.71875 0l-2.828125 -10.40625l-0.03125 0l-2.859375 10.40625l-1.71875 0l-3.15625 -12.375l1.671875 0zm18.564835 3.21875q1.9375 0 3.0 1.390625q1.0625 1.375 1.0625 3.546875l0 0.1875l-6.703125 0l0 0.109375q0 1.28125 0.734375 2.0625q0.75 0.765625 2.046875 0.765625q0.984375 0 1.5625 -0.453125q0.578125 -0.453125 0.765625 -1.296875l1.453125 0q-0.296875 1.484375 -1.3125 2.28125q-1.0 0.78125 -2.515625 0.78125q-1.40625 0 -2.390625 -0.640625q-0.96875 -0.640625 -1.4375 -1.78125q-0.46875 -1.140625 -0.46875 -2.328125q0 -1.984375 1.1875 -3.296875q1.203125 -1.328125 3.015625 -1.328125zm-2.640625 3.8125l5.140625 0q-0.0625 -1.09375 -0.796875 -1.8125q-0.71875 -0.71875 -1.796875 -0.71875q-1.015625 0 -1.734375 0.6875q-0.71875 0.6875 -0.8125 1.84375zm21.04329 -7.03125l0 12.375l-1.46875 0l0 -1.203125l-0.03125 0q-0.34375 0.6875 -1.109375 1.0625q-0.75 0.359375 -1.75 0.359375q-1.875 0 -3.0 -1.296875q-1.125 -1.3125 -1.125 -3.421875q0 -2.078125 1.078125 -3.359375q1.09375 -1.296875 3.0 -1.296875q0.875 0 1.671875 0.359375q0.796875 0.34375 1.234375 1.03125l0.03125 0l0 -4.609375l1.46875 0zm-6.921875 7.96875q0 1.4375 0.75 2.375q0.75 0.9375 2.015625 0.9375q1.3125 0 2.015625 -0.9375q0.71875 -0.9375 0.71875 -2.4375q0 -1.53125 -0.734375 -2.46875q-0.734375 -0.9375 -2.109375 -0.9375q-1.265625 0 -1.96875 0.9375q-0.6875 0.921875 -0.6875 2.53125zm12.912277 -4.75q1.9375 0 3.0 1.390625q1.0625 1.375 1.0625 3.546875l0 0.1875l-6.703125 0l0 0.109375q0 1.28125 0.734375 2.0625q0.75 0.765625 2.046875 0.765625q0.984375 0 1.5625 -0.453125q0.578125 -0.453125 0.765625 -1.296875l1.453125 0q-0.296875 1.484375 -1.3125 2.28125q-1.0 0.78125 -2.515625 0.78125q-1.40625 0 -2.390625 -0.640625q-0.96875 -0.640625 -1.4375 -1.78125q-0.46875 -1.140625 -0.46875 -2.328125q0 -1.984375 1.1875 -3.296875q1.203125 -1.328125 3.015625 -1.328125zm-2.640625 3.8125l5.140625 0q-0.0625 -1.09375 -0.796875 -1.8125q-0.71875 -0.71875 -1.796875 -0.71875q-1.015625 0 -1.734375 0.6875q-0.71875 0.6875 -0.8125 1.84375zm11.213348 -3.8125q1.796875 0 2.671875 0.703125q0.890625 0.6875 0.96875 2.09375l-1.46875 0l0 -0.015625q-0.0625 -0.71875 -0.625 -1.109375q-0.5625 -0.390625 -1.4375 -0.390625q-0.890625 0 -1.40625 0.3125q-0.515625 0.296875 -0.515625 0.84375q0 0.484375 0.453125 0.796875q0.453125 0.3125 1.375 0.5l1.375 0.3125q1.3125 0.296875 1.984375 0.890625q0.671875 0.59375 0.671875 1.609375q0 1.3125 -1.03125 2.078125q-1.015625 0.75 -2.78125 0.75q-1.71875 0 -2.734375 -0.765625q-1.0 -0.78125 -1.0625 -2.28125l1.484375 0q0.03125 0.84375 0.65625 1.296875q0.640625 0.4375 1.75 0.4375q1.0625 0 1.609375 -0.328125q0.546875 -0.34375 0.546875 -1.0q0 -0.609375 -0.546875 -0.953125q-0.546875 -0.359375 -2.234375 -0.6875q-1.6875 -0.34375 -2.375 -0.9375q-0.6875 -0.609375 -0.6875 -1.609375q0 -1.1875 0.953125 -1.859375q0.953125 -0.6875 2.40625 -0.6875zm7.2421875 -3.21875l0 1.8125l-1.484375 0l0 -1.8125l1.484375 0zm0 3.421875l0 8.953125l-1.484375 0l0 -8.953125l1.484375 0zm5.9278717 -0.203125q0.9375 0 1.625 0.40625q0.6875 0.40625 1.0625 1.078125l0.015625 0l0 -1.28125l1.375 0l0 8.28125q0 2.109375 -1.015625 3.203125q-1.015625 1.109375 -3.125 1.109375q-1.546875 0 -2.59375 -0.6875q-1.046875 -0.671875 -1.125 -1.953125l1.46875 0q0.046875 0.6875 0.734375 1.078125q0.703125 0.390625 1.59375 0.390625q1.296875 0 1.984375 -0.875q0.703125 -0.859375 0.703125 -2.5625l0 -0.546875l-0.03125 0q-0.34375 0.734375 -1.09375 1.171875q-0.75 0.4375 -1.703125 0.4375q-1.828125 0 -2.921875 -1.25q-1.078125 -1.25 -1.078125 -3.28125q0 -2.046875 1.078125 -3.375q1.09375 -1.34375 3.046875 -1.34375zm-2.5625 4.546875q0 1.59375 0.65625 2.515625q0.671875 0.90625 1.875 0.90625q1.21875 0 1.9375 -0.9375q0.71875 -0.953125 0.71875 -2.53125q0 -1.4375 -0.671875 -2.328125q-0.65625 -0.890625 -1.890625 -0.890625q-1.234375 0 -1.9375 0.890625q-0.6875 0.890625 -0.6875 2.375zm13.215759 -4.546875q1.609375 0 2.34375 0.828125q0.734375 0.828125 0.734375 2.359375l0 5.96875l-1.46875 0l0 -6.125q0 -0.75 -0.5 -1.25q-0.484375 -0.5 -1.34375 -0.5q-1.234375 0 -1.9375 0.765625q-0.703125 0.765625 -0.703125 1.984375l0 5.125l-1.46875 0l0 -8.953125l1.390625 0l0 1.421875l0.03125 0q0.484375 -0.84375 1.203125 -1.234375q0.71875 -0.390625 1.71875 -0.390625zm13.826416 0q1.9375 0 3.0 1.390625q1.0625 1.375 1.0625 3.546875l0 0.1875l-6.703125 0l0 0.109375q0 1.28125 0.734375 2.0625q0.75 0.765625 2.046875 0.765625q0.984375 0 1.5625 -0.453125q0.578125 -0.453125 0.765625 -1.296875l1.453125 0q-0.296875 1.484375 -1.3125 2.28125q-1.0 0.78125 -2.515625 0.78125q-1.40625 0 -2.390625 -0.640625q-0.96875 -0.640625 -1.4375 -1.78125q-0.46875 -1.140625 -0.46875 -2.328125q0 -1.984375 1.1875 -3.296875q1.203125 -1.328125 3.015625 -1.328125zm-2.640625 3.8125l5.140625 0q-0.0625 -1.09375 -0.796875 -1.8125q-0.71875 -0.71875 -1.796875 -0.71875q-1.015625 0 -1.734375 0.6875q-0.71875 0.6875 -0.8125 1.84375zm9.010223 -3.609375l2.515625 7.46875l0.03125 0l2.4375 -7.46875l1.546875 0l-3.28125 8.953125l-1.5625 0l-3.328125 -8.953125l1.640625 0zm11.6015625 -0.203125q1.9375 0 3.0 1.390625q1.0625 1.375 1.0625 3.546875l0 0.1875l-6.703125 0l0 0.109375q0 1.28125 0.734375 2.0625q0.75 0.765625 2.046875 0.765625q0.984375 0 1.5625 -0.453125q0.578125 -0.453125 0.765625 -1.296875l1.453125 0q-0.296875 1.484375 -1.3125 2.28125q-1.0 0.78125 -2.515625 0.78125q-1.40625 0 -2.390625 -0.640625q-0.96875 -0.640625 -1.4375 -1.78125q-0.46875 -1.140625 -0.46875 -2.328125q0 -1.984375 1.1875 -3.296875q1.203125 -1.328125 3.015625 -1.328125zm-2.640625 3.8125l5.140625 0q-0.0625 -1.09375 -0.796875 -1.8125q-0.71875 -0.71875 -1.796875 -0.71875q-1.015625 0 -1.734375 0.6875q-0.71875 0.6875 -0.8125 1.84375zm12.572723 -3.8125q1.609375 0 2.34375 0.828125q0.734375 0.828125 0.734375 2.359375l0 5.96875l-1.46875 0l0 -6.125q0 -0.75 -0.5 -1.25q-0.484375 -0.5 -1.34375 -0.5q-1.234375 0 -1.9375 0.765625q-0.703125 0.765625 -0.703125 1.984375l0 5.125l-1.46875 0l0 -8.953125l1.390625 0l0 1.421875l0.03125 0q0.484375 -0.84375 1.203125 -1.234375q0.71875 -0.390625 1.71875 -0.390625zm7.34021 -2.484375l0 2.6875l1.78125 0l0 1.296875l-1.78125 0l0 5.609375q0 0.671875 0.4375 0.71875q0.453125 0.03125 0.9375 0.03125l0.40625 0l0 1.296875l-1.21875 0q-1.203125 0 -1.625 -0.421875q-0.40625 -0.4375 -0.40625 -1.453125l0 -5.78125l-1.53125 0l0 -1.296875l1.53125 0l0 -2.6875l1.46875 0zm9.7872925 -0.734375l0 1.8125l-1.484375 0l0 -1.8125l1.484375 0zm0 3.421875l0 8.953125l-1.484375 0l0 -8.953125l1.484375 0zm6.631012 -0.203125q1.609375 0 2.34375 0.828125q0.734375 0.828125 0.734375 2.359375l0 5.96875l-1.46875 0l0 -6.125q0 -0.75 -0.5 -1.25q-0.484375 -0.5 -1.34375 -0.5q-1.234375 0 -1.9375 0.765625q-0.703125 0.765625 -0.703125 1.984375l0 5.125l-1.46875 0l0 -8.953125l1.390625 0l0 1.421875l0.03125 0q0.484375 -0.84375 1.203125 -1.234375q0.71875 -0.390625 1.71875 -0.390625zm8.27771 0q1.796875 0 2.671875 0.703125q0.890625 0.6875 0.96875 2.09375l-1.46875 0l0 -0.015625q-0.0625 -0.71875 -0.625 -1.109375q-0.5625 -0.390625 -1.4375 -0.390625q-0.890625 0 -1.40625 0.3125q-0.515625 0.296875 -0.515625 0.84375q0 0.484375 0.453125 0.796875q0.453125 0.3125 1.375 0.5l1.375 0.3125q1.3125 0.296875 1.984375 0.890625q0.671875 0.59375 0.671875 1.609375q0 1.3125 -1.03125 2.078125q-1.015625 0.75 -2.78125 0.75q-1.71875 0 -2.734375 -0.765625q-1.0 -0.78125 -1.0625 -2.28125l1.484375 0q0.03125 0.84375 0.65625 1.296875q0.640625 0.4375 1.75 0.4375q1.0625 0 1.609375 -0.328125q0.546875 -0.34375 0.546875 -1.0q0 -0.609375 -0.546875 -0.953125q-0.546875 -0.359375 -2.234375 -0.6875q-1.6875 -0.34375 -2.375 -0.9375q-0.6875 -0.609375 -0.6875 -1.609375q0 -1.1875 0.953125 -1.859375q0.953125 -0.6875 2.40625 -0.6875zm7.7265625 -2.484375l0 2.6875l1.78125 0l0 1.296875l-1.78125 0l0 5.609375q0 0.671875 0.4375 0.71875q0.453125 0.03125 0.9375 0.03125l0.40625 0l0 1.296875l-1.21875 0q-1.203125 0 -1.625 -0.421875q-0.40625 -0.4375 -0.40625 -1.453125l0 -5.78125l-1.53125 0l0 -1.296875l1.53125 0l0 -2.6875l1.46875 0zm7.0667114 2.484375q1.828125 0 2.59375 0.65625q0.765625 0.640625 0.765625 1.734375q0 4.65625 0 5.171875q0 0.5 0.46875 0.5q0.109375 0 0.21875 -0.015625q0.125 -0.03125 0.234375 -0.0625l0 1.140625q-0.203125 0.109375 -0.46875 0.171875q-0.265625 0.078125 -0.578125 0.078125q-0.609375 0 -0.9375 -0.34375q-0.3125 -0.34375 -0.3125 -1.046875q-0.59375 0.6875 -1.390625 1.046875q-0.796875 0.34375 -1.765625 0.34375q-1.390625 0 -2.1875 -0.65625q-0.78125 -0.65625 -0.78125 -1.859375q0 -1.21875 0.765625 -1.921875q0.78125 -0.703125 3.625 -1.0625q0.96875 -0.125 1.3125 -0.359375q0.34375 -0.25 0.34375 -0.75q0 -0.734375 -0.484375 -1.109375q-0.46875 -0.375 -1.515625 -0.375q-1.09375 0 -1.640625 0.421875q-0.546875 0.40625 -0.59375 1.28125l-1.46875 0q0.078125 -1.484375 1.046875 -2.234375q0.984375 -0.75 2.75 -0.75zm-2.578125 6.75q0 0.625 0.453125 0.96875q0.453125 0.34375 1.28125 0.34375q1.234375 0 1.984375 -0.609375q0.75 -0.625 0.75 -1.390625l0 -1.53125q-0.375 0.265625 -0.96875 0.359375q-0.59375 0.078125 -1.578125 0.21875q-0.984375 0.140625 -1.453125 0.53125q-0.46875 0.390625 -0.46875 1.109375zm9.791473 -9.96875l0 12.375l-1.484375 0l0 -12.375l1.484375 0zm3.849762 0l0 12.375l-1.484375 0l0 -12.375l1.484375 0zm5.943512 3.21875q1.828125 0 2.59375 0.65625q0.765625 0.640625 0.765625 1.734375q0 4.65625 0 5.171875q0 0.5 0.46875 0.5q0.109375 0 0.21875 -0.015625q0.125 -0.03125 0.234375 -0.0625l0 1.140625q-0.203125 0.109375 -0.46875 0.171875q-0.265625 0.078125 -0.578125 0.078125q-0.609375 0 -0.9375 -0.34375q-0.3125 -0.34375 -0.3125 -1.046875q-0.59375 0.6875 -1.390625 1.046875q-0.796875 0.34375 -1.765625 0.34375q-1.390625 0 -2.1875 -0.65625q-0.78125 -0.65625 -0.78125 -1.859375q0 -1.21875 0.765625 -1.921875q0.78125 -0.703125 3.625 -1.0625q0.96875 -0.125 1.3125 -0.359375q0.34375 -0.25 0.34375 -0.75q0 -0.734375 -0.484375 -1.109375q-0.46875 -0.375 -1.515625 -0.375q-1.09375 0 -1.640625 0.421875q-0.546875 0.40625 -0.59375 1.28125l-1.46875 0q0.078125 -1.484375 1.046875 -2.234375q0.984375 -0.75 2.75 -0.75zm-2.578125 6.75q0 0.625 0.453125 0.96875q0.453125 0.34375 1.28125 0.34375q1.234375 0 1.984375 -0.609375q0.75 -0.625 0.75 -1.390625l0 -1.53125q-0.375 0.265625 -0.96875 0.359375q-0.59375 0.078125 -1.578125 0.21875q-0.984375 0.140625 -1.453125 0.53125q-0.46875 0.390625 -0.46875 1.109375zm10.275848 -9.234375l0 2.6875l1.78125 0l0 1.296875l-1.78125 0l0 5.609375q0 0.671875 0.4375 0.71875q0.453125 0.03125 0.9375 0.03125l0.40625 0l0 1.296875l-1.21875 0q-1.203125 0 -1.625 -0.421875q-0.40625 -0.4375 -0.40625 -1.453125l0 -5.78125l-1.53125 0l0 -1.296875l1.53125 0l0 -2.6875l1.46875 0zm4.972992 -0.734375l0 1.8125l-1.484375 0l0 -1.8125l1.484375 0zm0 3.421875l0 8.953125l-1.484375 0l0 -8.953125l1.484375 0zm6.146637 -0.203125q2.03125 0 3.1875 1.3125q1.171875 1.296875 1.171875 3.375q0 2.09375 -1.1875 3.390625q-1.1875 1.296875 -3.171875 1.296875q-1.9375 0 -3.140625 -1.265625q-1.203125 -1.28125 -1.203125 -3.421875q0 -2.125 1.171875 -3.40625q1.1875 -1.28125 3.171875 -1.28125zm-2.78125 4.6875q0 1.546875 0.78125 2.46875q0.78125 0.90625 2.0 0.90625q1.21875 0 2.0 -0.921875q0.796875 -0.921875 0.796875 -2.453125q0 -1.53125 -0.796875 -2.46875q-0.78125 -0.9375 -2.015625 -0.9375q-1.171875 0 -1.96875 0.921875q-0.796875 0.921875 -0.796875 2.484375zm13.215759 -4.6875q1.609375 0 2.34375 0.828125q0.734375 0.828125 0.734375 2.359375l0 5.96875l-1.46875 0l0 -6.125q0 -0.75 -0.5 -1.25q-0.484375 -0.5 -1.34375 -0.5q-1.234375 0 -1.9375 0.765625q-0.703125 0.765625 -0.703125 1.984375l0 5.125l-1.46875 0l0 -8.953125l1.390625 0l0 1.421875l0.03125 0q0.484375 -0.84375 1.203125 -1.234375q0.71875 -0.390625 1.71875 -0.390625zm8.27771 0q1.796875 0 2.671875 0.703125q0.890625 0.6875 0.96875 2.09375l-1.46875 0l0 -0.015625q-0.0625 -0.71875 -0.625 -1.109375q-0.5625 -0.390625 -1.4375 -0.390625q-0.890625 0 -1.40625 0.3125q-0.515625 0.296875 -0.515625 0.84375q0 0.484375 0.453125 0.796875q0.453125 0.3125 1.375 0.5l1.375 0.3125q1.3125 0.296875 1.984375 0.890625q0.671875 0.59375 0.671875 1.609375q0 1.3125 -1.03125 2.078125q-1.015625 0.75 -2.78125 0.75q-1.71875 0 -2.734375 -0.765625q-1.0 -0.78125 -1.0625 -2.28125l1.484375 0q0.03125 0.84375 0.65625 1.296875q0.640625 0.4375 1.75 0.4375q1.0625 0 1.609375 -0.328125q0.546875 -0.34375 0.546875 -1.0q0 -0.609375 -0.546875 -0.953125q-0.546875 -0.359375 -2.234375 -0.6875q-1.6875 -0.34375 -2.375 -0.9375q-0.6875 -0.609375 -0.6875 -1.609375q0 -1.1875 0.953125 -1.859375q0.953125 -0.6875 2.40625 -0.6875zm13.572113 -3.359375q0.171875 0 0.46875 0.046875q0.3125 0.046875 0.484375 0.09375l0 1.28125q-0.171875 -0.0625 -0.421875 -0.078125q-0.234375 -0.03125 -0.40625 -0.03125q-0.609375 0 -0.875 0.25q-0.25 0.25 -0.25 0.703125l0 1.296875l1.734375 0l0 1.296875l-1.734375 0l0 7.65625l-1.46875 0l0 -7.65625l-1.5 0l0 -1.296875l1.5 0l0 -1.40625q0 -0.984375 0.625 -1.5625q0.625 -0.59375 1.84375 -0.59375zm5.9086304 3.359375q2.03125 0 3.1875 1.3125q1.171875 1.296875 1.171875 3.375q0 2.09375 -1.1875 3.390625q-1.1875 1.296875 -3.171875 1.296875q-1.9375 0 -3.140625 -1.265625q-1.203125 -1.28125 -1.203125 -3.421875q0 -2.125 1.171875 -3.40625q1.1875 -1.28125 3.171875 -1.28125zm-2.78125 4.6875q0 1.546875 0.78125 2.46875q0.78125 0.90625 2.0 0.90625q1.21875 0 2.0 -0.921875q0.796875 -0.921875 0.796875 -2.453125q0 -1.53125 -0.796875 -2.46875q-0.78125 -0.9375 -2.015625 -0.9375q-1.171875 0 -1.96875 0.921875q-0.796875 0.921875 -0.796875 2.484375zm13.325134 -4.703125q0.0625 0 0.09375 0q0.046875 0 0.109375 0.015625l0 1.546875q-1.65625 0 -2.453125 0.890625q-0.78125 0.875 -0.78125 2.703125l0 4.015625l-1.46875 0l0 -8.953125l1.375 0l0 1.875l0.046875 0q0.515625 -1.0625 1.265625 -1.578125q0.765625 -0.515625 1.8125 -0.515625zm11.881592 -3.203125q1.6875 0 2.6875 0.921875q1.015625 0.921875 1.015625 2.734375q0 1.828125 -1.015625 2.75q-1.0 0.90625 -2.578125 0.90625l-3.96875 0l0 5.0625l-1.640625 0l0 -12.375l5.5 0zm-0.46875 5.921875q1.1875 0 1.859375 -0.546875q0.671875 -0.5625 0.671875 -1.71875q0 -1.140625 -0.671875 -1.703125q-0.65625 -0.5625 -1.953125 -0.5625l-3.296875 0l0 4.53125l3.390625 0zm7.0682373 -2.5l0 6.109375q0 0.75 0.484375 1.25q0.484375 0.5 1.34375 0.5q1.265625 0 1.953125 -0.765625q0.703125 -0.78125 0.703125 -1.984375l0 -5.109375l1.46875 0l0 8.953125l-1.390625 0l0 -1.421875l-0.03125 0q-0.5 0.859375 -1.234375 1.25q-0.734375 0.390625 -1.6875 0.390625q-1.5625 0 -2.328125 -0.8125q-0.75 -0.8125 -0.75 -2.390625l0 -5.96875l1.46875 0zm12.480835 -0.203125q0.984375 0 1.609375 0.390625q0.625 0.390625 0.859375 1.125q0.453125 -0.71875 1.1875 -1.109375q0.734375 -0.40625 1.625 -0.40625q1.515625 0 2.234375 0.6875q0.734375 0.671875 0.734375 1.84375l0 6.625l-1.46875 0l0 -5.9375q0 -0.96875 -0.421875 -1.453125q-0.40625 -0.484375 -1.3125 -0.484375q-1.109375 0 -1.734375 0.65625q-0.609375 0.640625 -0.609375 1.59375l0 5.625l-1.46875 0l0 -5.9375q0 -0.96875 -0.40625 -1.453125q-0.40625 -0.484375 -1.28125 -0.484375q-0.703125 0 -1.25 0.34375q-0.53125 0.34375 -0.84375 0.9375q-0.296875 0.578125 -0.296875 0.984375l0 5.609375l-1.46875 0l0 -8.953125l1.390625 0l0 1.3125l0.03125 0q0.5 -0.765625 1.21875 -1.140625q0.71875 -0.375 1.671875 -0.375zm14.125122 0q1.828125 0 2.59375 0.65625q0.765625 0.640625 0.765625 1.734375q0 4.65625 0 5.171875q0 0.5 0.46875 0.5q0.109375 0 0.21875 -0.015625q0.125 -0.03125 0.234375 -0.0625l0 1.140625q-0.203125 0.109375 -0.46875 0.171875q-0.265625 0.078125 -0.578125 0.078125q-0.609375 0 -0.9375 -0.34375q-0.3125 -0.34375 -0.3125 -1.046875q-0.59375 0.6875 -1.390625 1.046875q-0.796875 0.34375 -1.765625 0.34375q-1.390625 0 -2.1875 -0.65625q-0.78125 -0.65625 -0.78125 -1.859375q0 -1.21875 0.765625 -1.921875q0.78125 -0.703125 3.625 -1.0625q0.96875 -0.125 1.3125 -0.359375q0.34375 -0.25 0.34375 -0.75q0 -0.734375 -0.484375 -1.109375q-0.46875 -0.375 -1.515625 -0.375q-1.09375 0 -1.640625 0.421875q-0.546875 0.40625 -0.59375 1.28125l-1.46875 0q0.078125 -1.484375 1.046875 -2.234375q0.984375 -0.75 2.75 -0.75zm-2.578125 6.75q0 0.625 0.453125 0.96875q0.453125 0.34375 1.28125 0.34375q1.234375 0 1.984375 -0.609375q0.75 -0.625 0.75 -1.390625l0 -1.53125q-0.375 0.265625 -0.96875 0.359375q-0.59375 0.078125 -1.578125 0.21875q-0.984375 0.140625 -1.453125 0.53125q-0.46875 0.390625 -0.46875 1.109375zm10.478973 0.484375l0 1.84375q0 0.953125 -0.46875 1.640625q-0.46875 0.6875 -1.4375 0.984375l0 -0.859375q0.453125 -0.171875 0.734375 -0.59375q0.28125 -0.421875 0.28125 -1.0l0 -0.09375l-1.03125 0l0 -1.921875l1.921875 0zm12.800507 -10.453125l4.828125 12.375l-1.8125 0l-1.34375 -3.71875l-5.234375 0l-1.390625 3.71875l-1.703125 0l4.84375 -12.375l1.8125 0zm-0.953125 1.5l-2.09375 5.765625l4.1875 0l-2.046875 -5.765625l-0.046875 0zm14.758972 -1.5l0 12.375l-1.46875 0l0 -1.203125l-0.03125 0q-0.34375 0.6875 -1.109375 1.0625q-0.75 0.359375 -1.75 0.359375q-1.875 0 -3.0 -1.296875q-1.125 -1.3125 -1.125 -3.421875q0 -2.078125 1.078125 -3.359375q1.09375 -1.296875 3.0 -1.296875q0.875 0 1.671875 0.359375q0.796875 0.34375 1.234375 1.03125l0.03125 0l0 -4.609375l1.46875 0zm-6.921875 7.96875q0 1.4375 0.75 2.375q0.75 0.9375 2.015625 0.9375q1.3125 0 2.015625 -0.9375q0.71875 -0.9375 0.71875 -2.4375q0 -1.53125 -0.734375 -2.46875q-0.734375 -0.9375 -2.109375 -0.9375q-1.265625 0 -1.96875 0.9375q-0.6875 0.921875 -0.6875 2.53125zm10.7560425 -7.96875l0 1.8125l-1.484375 0l0 -1.8125l1.484375 0zm0 3.421875l0 8.953125l-1.484375 0l0 -8.953125l1.484375 0zm10.287231 -3.421875l0 12.375l-1.46875 0l0 -1.203125l-0.03125 0q-0.34375 0.6875 -1.109375 1.0625q-0.75 0.359375 -1.75 0.359375q-1.875 0 -3.0 -1.296875q-1.125 -1.3125 -1.125 -3.421875q0 -2.078125 1.078125 -3.359375q1.09375 -1.296875 3.0 -1.296875q0.875 0 1.671875 0.359375q0.796875 0.34375 1.234375 1.03125l0.03125 0l0 -4.609375l1.46875 0zm-6.921875 7.96875q0 1.4375 0.75 2.375q0.75 0.9375 2.015625 0.9375q1.3125 0 2.015625 -0.9375q0.71875 -0.9375 0.71875 -2.4375q0 -1.53125 -0.734375 -2.46875q-0.734375 -0.9375 -2.109375 -0.9375q-1.265625 0 -1.96875 0.9375q-0.6875 0.921875 -0.6875 2.53125zm12.8497925 -4.75q1.828125 0 2.59375 0.65625q0.765625 0.640625 0.765625 1.734375q0 4.65625 0 5.171875q0 0.5 0.46875 0.5q0.109375 0 0.21875 -0.015625q0.125 -0.03125 0.234375 -0.0625l0 1.140625q-0.203125 0.109375 -0.46875 0.171875q-0.265625 0.078125 -0.578125 0.078125q-0.609375 0 -0.9375 -0.34375q-0.3125 -0.34375 -0.3125 -1.046875q-0.59375 0.6875 -1.390625 1.046875q-0.796875 0.34375 -1.765625 0.34375q-1.390625 0 -2.1875 -0.65625q-0.78125 -0.65625 -0.78125 -1.859375q0 -1.21875 0.765625 -1.921875q0.78125 -0.703125 3.625 -1.0625q0.96875 -0.125 1.3125 -0.359375q0.34375 -0.25 0.34375 -0.75q0 -0.734375 -0.484375 -1.109375q-0.46875 -0.375 -1.515625 -0.375q-1.09375 0 -1.640625 0.421875q-0.546875 0.40625 -0.59375 1.28125l-1.46875 0q0.078125 -1.484375 1.046875 -2.234375q0.984375 -0.75 2.75 -0.75zm-2.578125 6.75q0 0.625 0.453125 0.96875q0.453125 0.34375 1.28125 0.34375q1.234375 0 1.984375 -0.609375q0.75 -0.625 0.75 -1.390625l0 -1.53125q-0.375 0.265625 -0.96875 0.359375q-0.59375 0.078125 -1.578125 0.21875q-0.984375 0.140625 -1.453125 0.53125q-0.46875 0.390625 -0.46875 1.109375zm11.213318 -6.75q1.796875 0 2.671875 0.703125q0.890625 0.6875 0.96875 2.09375l-1.46875 0l0 -0.015625q-0.0625 -0.71875 -0.625 -1.109375q-0.5625 -0.390625 -1.4375 -0.390625q-0.890625 0 -1.40625 0.3125q-0.515625 0.296875 -0.515625 0.84375q0 0.484375 0.453125 0.796875q0.453125 0.3125 1.375 0.5l1.375 0.3125q1.3125 0.296875 1.984375 0.890625q0.671875 0.59375 0.671875 1.609375q0 1.3125 -1.03125 2.078125q-1.015625 0.75 -2.78125 0.75q-1.71875 0 -2.734375 -0.765625q-1.0 -0.78125 -1.0625 -2.28125l1.484375 0q0.03125 0.84375 0.65625 1.296875q0.640625 0.4375 1.75 0.4375q1.0625 0 1.609375 -0.328125q0.546875 -0.34375 0.546875 -1.0q0 -0.609375 -0.546875 -0.953125q-0.546875 -0.359375 -2.234375 -0.6875q-1.6875 -0.34375 -2.375 -0.9375q-0.6875 -0.609375 -0.6875 -1.609375q0 -1.1875 0.953125 -1.859375q0.953125 -0.6875 2.40625 -0.6875zm7.9296875 7.234375l0 1.84375q0 0.953125 -0.46875 1.640625q-0.46875 0.6875 -1.4375 0.984375l0 -0.859375q0.453125 -0.171875 0.734375 -0.59375q0.28125 -0.421875 0.28125 -1.0l0 -0.09375l-1.03125 0l0 -1.921875l1.921875 0zm11.034912 -7.234375q1.828125 0 2.59375 0.65625q0.765625 0.640625 0.765625 1.734375q0 4.65625 0 5.171875q0 0.5 0.46875 0.5q0.109375 0 0.21875 -0.015625q0.125 -0.03125 0.234375 -0.0625l0 1.140625q-0.203125 0.109375 -0.46875 0.171875q-0.265625 0.078125 -0.578125 0.078125q-0.609375 0 -0.9375 -0.34375q-0.3125 -0.34375 -0.3125 -1.046875q-0.59375 0.6875 -1.390625 1.046875q-0.796875 0.34375 -1.765625 0.34375q-1.390625 0 -2.1875 -0.65625q-0.78125 -0.65625 -0.78125 -1.859375q0 -1.21875 0.765625 -1.921875q0.78125 -0.703125 3.625 -1.0625q0.96875 -0.125 1.3125 -0.359375q0.34375 -0.25 0.34375 -0.75q0 -0.734375 -0.484375 -1.109375q-0.46875 -0.375 -1.515625 -0.375q-1.09375 0 -1.640625 0.421875q-0.546875 0.40625 -0.59375 1.28125l-1.46875 0q0.078125 -1.484375 1.046875 -2.234375q0.984375 -0.75 2.75 -0.75zm-2.578125 6.75q0 0.625 0.453125 0.96875q0.453125 0.34375 1.28125 0.34375q1.234375 0 1.984375 -0.609375q0.75 -0.625 0.75 -1.390625l0 -1.53125q-0.375 0.265625 -0.96875 0.359375q-0.59375 0.078125 -1.578125 0.21875q-0.984375 0.140625 -1.453125 0.53125q-0.46875 0.390625 -0.46875 1.109375zm12.572693 -6.75q1.609375 0 2.34375 0.828125q0.734375 0.828125 0.734375 2.359375l0 5.96875l-1.46875 0l0 -6.125q0 -0.75 -0.5 -1.25q-0.484375 -0.5 -1.34375 -0.5q-1.234375 0 -1.9375 0.765625q-0.703125 0.765625 -0.703125 1.984375l0 5.125l-1.46875 0l0 -8.953125l1.390625 0l0 1.421875l0.03125 0q0.484375 -0.84375 1.203125 -1.234375q0.71875 -0.390625 1.71875 -0.390625zm13.293335 -3.21875l0 12.375l-1.46875 0l0 -1.203125l-0.03125 0q-0.34375 0.6875 -1.109375 1.0625q-0.75 0.359375 -1.75 0.359375q-1.875 0 -3.0 -1.296875q-1.125 -1.3125 -1.125 -3.421875q0 -2.078125 1.078125 -3.359375q1.09375 -1.296875 3.0 -1.296875q0.875 0 1.671875 0.359375q0.796875 0.34375 1.234375 1.03125l0.03125 0l0 -4.609375l1.46875 0zm-6.921875 7.96875q0 1.4375 0.75 2.375q0.75 0.9375 2.015625 0.9375q1.3125 0 2.015625 -0.9375q0.71875 -0.9375 0.71875 -2.4375q0 -1.53125 -0.734375 -2.46875q-0.734375 -0.9375 -2.109375 -0.9375q-1.265625 0 -1.96875 0.9375q-0.6875 0.921875 -0.6875 2.53125zm19.539124 -7.96875q2.28125 0 3.09375 0.9375q0.828125 0.921875 0.828125 2.09375q0 0.984375 -0.484375 1.703125q-0.46875 0.71875 -1.34375 1.078125l0 0.03125q1.140625 0.25 1.75 1.046875q0.609375 0.78125 0.609375 1.9375q0 1.5 -1.0625 2.53125q-1.046875 1.015625 -2.640625 1.015625l-6.03125 0l0 -12.375l5.28125 0zm-0.265625 5.3125q1.234375 0 1.890625 -0.453125q0.65625 -0.46875 0.65625 -1.515625q0 -0.984375 -0.546875 -1.46875q-0.546875 -0.484375 -1.984375 -0.484375l-3.390625 0l0 3.921875l3.375 0zm0.8125 5.671875q1.0 0 1.625 -0.59375q0.625 -0.59375 0.625 -1.625q0 -1.03125 -0.71875 -1.546875q-0.703125 -0.515625 -2.03125 -0.515625l-3.6875 0l0 4.28125l4.1875 0zm10.245789 -7.78125q0.0625 0 0.09375 0q0.046875 0 0.109375 0.015625l0 1.546875q-1.65625 0 -2.453125 0.890625q-0.78125 0.875 -0.78125 2.703125l0 4.015625l-1.46875 0l0 -8.953125l1.375 0l0 1.875l0.046875 0q0.515625 -1.0625 1.265625 -1.578125q0.765625 -0.515625 1.8125 -0.515625zm4.558777 0.015625q1.828125 0 2.59375 0.65625q0.765625 0.640625 0.765625 1.734375q0 4.65625 0 5.171875q0 0.5 0.46875 0.5q0.109375 0 0.21875 -0.015625q0.125 -0.03125 0.234375 -0.0625l0 1.140625q-0.203125 0.109375 -0.46875 0.171875q-0.265625 0.078125 -0.578125 0.078125q-0.609375 0 -0.9375 -0.34375q-0.3125 -0.34375 -0.3125 -1.046875q-0.59375 0.6875 -1.390625 1.046875q-0.796875 0.34375 -1.765625 0.34375q-1.390625 0 -2.1875 -0.65625q-0.78125 -0.65625 -0.78125 -1.859375q0 -1.21875 0.765625 -1.921875q0.78125 -0.703125 3.625 -1.0625q0.96875 -0.125 1.3125 -0.359375q0.34375 -0.25 0.34375 -0.75q0 -0.734375 -0.484375 -1.109375q-0.46875 -0.375 -1.515625 -0.375q-1.09375 0 -1.640625 0.421875q-0.546875 0.40625 -0.59375 1.28125l-1.46875 0q0.078125 -1.484375 1.046875 -2.234375q0.984375 -0.75 2.75 -0.75zm-2.578125 6.75q0 0.625 0.453125 0.96875q0.453125 0.34375 1.28125 0.34375q1.234375 0 1.984375 -0.609375q0.75 -0.625 0.75 -1.390625l0 -1.53125q-0.375 0.265625 -0.96875 0.359375q-0.59375 0.078125 -1.578125 0.21875q-0.984375 0.140625 -1.453125 0.53125q-0.46875 0.390625 -0.46875 1.109375zm9.697754 -9.96875l0 4.734375l0.03125 0q0.328125 -0.71875 1.09375 -1.109375q0.765625 -0.40625 1.75 -0.40625q1.609375 0 2.34375 0.828125q0.734375 0.828125 0.734375 2.359375l0 5.96875l-1.46875 0l0 -6.125q0 -0.75 -0.5 -1.25q-0.484375 -0.5 -1.34375 -0.5q-1.234375 0 -1.9375 0.765625q-0.703125 0.765625 -0.703125 1.984375l0 5.125l-1.46875 0l0 -12.375l1.46875 0zm12.480835 3.21875q0.984375 0 1.609375 0.390625q0.625 0.390625 0.859375 1.125q0.453125 -0.71875 1.1875 -1.109375q0.734375 -0.40625 1.625 -0.40625q1.515625 0 2.234375 0.6875q0.734375 0.671875 0.734375 1.84375l0 6.625l-1.46875 0l0 -5.9375q0 -0.96875 -0.421875 -1.453125q-0.40625 -0.484375 -1.3125 -0.484375q-1.109375 0 -1.734375 0.65625q-0.609375 0.640625 -0.609375 1.59375l0 5.625l-1.46875 0l0 -5.9375q0 -0.96875 -0.40625 -1.453125q-0.40625 -0.484375 -1.28125 -0.484375q-0.703125 0 -1.25 0.34375q-0.53125 0.34375 -0.84375 0.9375q-0.296875 0.578125 -0.296875 0.984375l0 5.609375l-1.46875 0l0 -8.953125l1.390625 0l0 1.3125l0.03125 0q0.5 -0.765625 1.21875 -1.140625q0.71875 -0.375 1.671875 -0.375zm14.125122 0q1.828125 0 2.59375 0.65625q0.765625 0.640625 0.765625 1.734375q0 4.65625 0 5.171875q0 0.5 0.46875 0.5q0.109375 0 0.21875 -0.015625q0.125 -0.03125 0.234375 -0.0625l0 1.140625q-0.203125 0.109375 -0.46875 0.171875q-0.265625 0.078125 -0.578125 0.078125q-0.609375 0 -0.9375 -0.34375q-0.3125 -0.34375 -0.3125 -1.046875q-0.59375 0.6875 -1.390625 1.046875q-0.796875 0.34375 -1.765625 0.34375q-1.390625 0 -2.1875 -0.65625q-0.78125 -0.65625 -0.78125 -1.859375q0 -1.21875 0.765625 -1.921875q0.78125 -0.703125 3.625 -1.0625q0.96875 -0.125 1.3125 -0.359375q0.34375 -0.25 0.34375 -0.75q0 -0.734375 -0.484375 -1.109375q-0.46875 -0.375 -1.515625 -0.375q-1.09375 0 -1.640625 0.421875q-0.546875 0.40625 -0.59375 1.28125l-1.46875 0q0.078125 -1.484375 1.046875 -2.234375q0.984375 -0.75 2.75 -0.75zm-2.578125 6.75q0 0.625 0.453125 0.96875q0.453125 0.34375 1.28125 0.34375q1.234375 0 1.984375 -0.609375q0.75 -0.625 0.75 -1.390625l0 -1.53125q-0.375 0.265625 -0.96875 0.359375q-0.59375 0.078125 -1.578125 0.21875q-0.984375 0.140625 -1.453125 0.53125q-0.46875 0.390625 -0.46875 1.109375zm10.478943 0.484375l0 1.84375q0 0.953125 -0.46875 1.640625q-0.46875 0.6875 -1.4375 0.984375l0 -0.859375q0.453125 -0.171875 0.734375 -0.59375q0.28125 -0.421875 0.28125 -1.0l0 -0.09375l-1.03125 0l0 -1.921875l1.921875 0zm9.425537 -9.71875l0 2.6875l1.78125 0l0 1.296875l-1.78125 0l0 5.609375q0 0.671875 0.4375 0.71875q0.453125 0.03125 0.9375 0.03125l0.40625 0l0 1.296875l-1.21875 0q-1.203125 0 -1.625 -0.421875q-0.40625 -0.4375 -0.40625 -1.453125l0 -5.78125l-1.53125 0l0 -1.296875l1.53125 0l0 -2.6875l1.46875 0zm7.8635864 2.46875q0.0625 0 0.09375 0q0.046875 0 0.109375 0.015625l0 1.546875q-1.65625 0 -2.453125 0.890625q-0.78125 0.875 -0.78125 2.703125l0 4.015625l-1.46875 0l0 -8.953125l1.375 0l0 1.875l0.046875 0q0.515625 -1.0625 1.265625 -1.578125q0.765625 -0.515625 1.8125 -0.515625zm4.558777 0.015625q1.828125 0 2.59375 0.65625q0.765625 0.640625 0.765625 1.734375q0 4.65625 0 5.171875q0 0.5 0.46875 0.5q0.109375 0 0.21875 -0.015625q0.125 -0.03125 0.234375 -0.0625l0 1.140625q-0.203125 0.109375 -0.46875 0.171875q-0.265625 0.078125 -0.578125 0.078125q-0.609375 0 -0.9375 -0.34375q-0.3125 -0.34375 -0.3125 -1.046875q-0.59375 0.6875 -1.390625 1.046875q-0.796875 0.34375 -1.765625 0.34375q-1.390625 0 -2.1875 -0.65625q-0.78125 -0.65625 -0.78125 -1.859375q0 -1.21875 0.765625 -1.921875q0.78125 -0.703125 3.625 -1.0625q0.96875 -0.125 1.3125 -0.359375q0.34375 -0.25 0.34375 -0.75q0 -0.734375 -0.484375 -1.109375q-0.46875 -0.375 -1.515625 -0.375q-1.09375 0 -1.640625 0.421875q-0.546875 0.40625 -0.59375 1.28125l-1.46875 0q0.078125 -1.484375 1.046875 -2.234375q0.984375 -0.75 2.75 -0.75zm-2.578125 6.75q0 0.625 0.453125 0.96875q0.453125 0.34375 1.28125 0.34375q1.234375 0 1.984375 -0.609375q0.75 -0.625 0.75 -1.390625l0 -1.53125q-0.375 0.265625 -0.96875 0.359375q-0.59375 0.078125 -1.578125 0.21875q-0.984375 0.140625 -1.453125 0.53125q-0.46875 0.390625 -0.46875 1.109375zm12.572754 -6.75q1.609375 0 2.34375 0.828125q0.734375 0.828125 0.734375 2.359375l0 5.96875l-1.46875 0l0 -6.125q0 -0.75 -0.5 -1.25q-0.484375 -0.5 -1.34375 -0.5q-1.234375 0 -1.9375 0.765625q-0.703125 0.765625 -0.703125 1.984375l0 5.125l-1.46875 0l0 -8.953125l1.390625 0l0 1.421875l0.03125 0q0.484375 -0.84375 1.203125 -1.234375q0.71875 -0.390625 1.71875 -0.390625zm8.27771 0q1.796875 0 2.671875 0.703125q0.890625 0.6875 0.96875 2.09375l-1.46875 0l0 -0.015625q-0.0625 -0.71875 -0.625 -1.109375q-0.5625 -0.390625 -1.4375 -0.390625q-0.890625 0 -1.40625 0.3125q-0.515625 0.296875 -0.515625 0.84375q0 0.484375 0.453125 0.796875q0.453125 0.3125 1.375 0.5l1.375 0.3125q1.3125 0.296875 1.984375 0.890625q0.671875 0.59375 0.671875 1.609375q0 1.3125 -1.03125 2.078125q-1.015625 0.75 -2.78125 0.75q-1.71875 0 -2.734375 -0.765625q-1.0 -0.78125 -1.0625 -2.28125l1.484375 0q0.03125 0.84375 0.65625 1.296875q0.640625 0.4375 1.75 0.4375q1.0625 0 1.609375 -0.328125q0.546875 -0.34375 0.546875 -1.0q0 -0.609375 -0.546875 -0.953125q-0.546875 -0.359375 -2.234375 -0.6875q-1.6875 -0.34375 -2.375 -0.9375q-0.6875 -0.609375 -0.6875 -1.609375q0 -1.1875 0.953125 -1.859375q0.953125 -0.6875 2.40625 -0.6875zm8.7578125 -3.359375q0.171875 0 0.46875 0.046875q0.3125 0.046875 0.484375 0.09375l0 1.28125q-0.171875 -0.0625 -0.421875 -0.078125q-0.234375 -0.03125 -0.40625 -0.03125q-0.609375 0 -0.875 0.25q-0.25 0.25 -0.25 0.703125l0 1.296875l1.734375 0l0 1.296875l-1.734375 0l0 7.65625l-1.46875 0l0 -7.65625l-1.5 0l0 -1.296875l1.5 0l0 -1.40625q0 -0.984375 0.625 -1.5625q0.625 -0.59375 1.84375 -0.59375zm5.9086304 3.359375q2.03125 0 3.1875 1.3125q1.171875 1.296875 1.171875 3.375q0 2.09375 -1.1875 3.390625q-1.1875 1.296875 -3.171875 1.296875q-1.9375 0 -3.140625 -1.265625q-1.203125 -1.28125 -1.203125 -3.421875q0 -2.125 1.171875 -3.40625q1.1875 -1.28125 3.171875 -1.28125zm-2.78125 4.6875q0 1.546875 0.78125 2.46875q0.78125 0.90625 2.0 0.90625q1.21875 0 2.0 -0.921875q0.796875 -0.921875 0.796875 -2.453125q0 -1.53125 -0.796875 -2.46875q-0.78125 -0.9375 -2.015625 -0.9375q-1.171875 0 -1.96875 0.921875q-0.796875 0.921875 -0.796875 2.484375zm13.325134 -4.703125q0.0625 0 0.09375 0q0.046875 0 0.109375 0.015625l0 1.546875q-1.65625 0 -2.453125 0.890625q-0.78125 0.875 -0.78125 2.703125l0 4.015625l-1.46875 0l0 -8.953125l1.375 0l0 1.875l0.046875 0q0.515625 -1.0625 1.265625 -1.578125q0.765625 -0.515625 1.8125 -0.515625zm5.6297607 0.015625q0.984375 0 1.609375 0.390625q0.625 0.390625 0.859375 1.125q0.453125 -0.71875 1.1875 -1.109375q0.734375 -0.40625 1.625 -0.40625q1.515625 0 2.234375 0.6875q0.734375 0.671875 0.734375 1.84375l0 6.625l-1.46875 0l0 -5.9375q0 -0.96875 -0.421875 -1.453125q-0.40625 -0.484375 -1.3125 -0.484375q-1.109375 0 -1.734375 0.65625q-0.609375 0.640625 -0.609375 1.59375l0 5.625l-1.46875 0l0 -5.9375q0 -0.96875 -0.40625 -1.453125q-0.40625 -0.484375 -1.28125 -0.484375q-0.703125 0 -1.25 0.34375q-0.53125 0.34375 -0.84375 0.9375q-0.296875 0.578125 -0.296875 0.984375l0 5.609375l-1.46875 0l0 -8.953125l1.390625 0l0 1.3125l0.03125 0q0.5 -0.765625 1.21875 -1.140625q0.71875 -0.375 1.671875 -0.375zm12.031372 -3.21875l0 1.8125l-1.484375 0l0 -1.8125l1.484375 0zm0 3.421875l0 8.953125l-1.484375 0l0 -8.953125l1.484375 0zm6.6310425 -0.203125q1.609375 0 2.34375 0.828125q0.734375 0.828125 0.734375 2.359375l0 5.96875l-1.46875 0l0 -6.125q0 -0.75 -0.5 -1.25q-0.484375 -0.5 -1.34375 -0.5q-1.234375 0 -1.9375 0.765625q-0.703125 0.765625 -0.703125 1.984375l0 5.125l-1.46875 0l0 -8.953125l1.390625 0l0 1.421875l0.03125 0q0.484375 -0.84375 1.203125 -1.234375q0.71875 -0.390625 1.71875 -0.390625zm8.93396 0q0.9375 0 1.625 0.40625q0.6875 0.40625 1.0625 1.078125l0.015625 0l0 -1.28125l1.375 0l0 8.28125q0 2.109375 -1.015625 3.203125q-1.015625 1.109375 -3.125 1.109375q-1.546875 0 -2.59375 -0.6875q-1.046875 -0.671875 -1.125 -1.953125l1.46875 0q0.046875 0.6875 0.734375 1.078125q0.703125 0.390625 1.59375 0.390625q1.296875 0 1.984375 -0.875q0.703125 -0.859375 0.703125 -2.5625l0 -0.546875l-0.03125 0q-0.34375 0.734375 -1.09375 1.171875q-0.75 0.4375 -1.703125 0.4375q-1.828125 0 -2.921875 -1.25q-1.078125 -1.25 -1.078125 -3.28125q0 -2.046875 1.078125 -3.375q1.09375 -1.34375 3.046875 -1.34375zm-2.5625 4.546875q0 1.59375 0.65625 2.515625q0.671875 0.90625 1.875 0.90625q1.21875 0 1.9375 -0.9375q0.71875 -0.953125 0.71875 -2.53125q0 -1.4375 -0.671875 -2.328125q-0.65625 -0.890625 -1.890625 -0.890625q-1.234375 0 -1.9375 0.890625q-0.6875 0.890625 -0.6875 2.375z" fill-rule="nonzero"/><path fill="#d9d9d9" d="m778.09546 489.27063q1.796875 0 2.671875 0.703125q0.890625 0.6875 0.96875 2.09375l-1.46875 0l0 -0.015625q-0.0625 -0.71875 -0.625 -1.109375q-0.5625 -0.390625 -1.4375 -0.390625q-0.890625 0 -1.40625 0.3125q-0.515625 0.296875 -0.515625 0.84375q0 0.484375 0.453125 0.796875q0.453125 0.3125 1.375 0.5l1.375 0.3125q1.3125 0.296875 1.984375 0.890625q0.671875 0.59375 0.671875 1.609375q0 1.3125 -1.03125 2.078125q-1.015625 0.75 -2.78125 0.75q-1.71875 0 -2.734375 -0.765625q-1.0 -0.78125 -1.0625 -2.28125l1.484375 0q0.03125 0.84375 0.65625 1.296875q0.640625 0.4375 1.75 0.4375q1.0625 0 1.609375 -0.328125q0.546875 -0.34375 0.546875 -1.0q0 -0.609375 -0.546875 -0.953125q-0.546875 -0.359375 -2.234375 -0.6875q-1.6875 -0.34375 -2.375 -0.9375q-0.6875 -0.609375 -0.6875 -1.609375q0 -1.1875 0.953125 -1.859375q0.953125 -0.6875 2.40625 -0.6875zm10.1015625 0q1.921875 0 3.015625 1.328125q1.109375 1.3125 1.109375 3.375q0 2.078125 -1.109375 3.375q-1.09375 1.296875 -2.984375 1.296875q-0.828125 0 -1.640625 -0.34375q-0.796875 -0.359375 -1.25 -1.0625l-0.046875 0l0 4.625l-1.46875 0l0 -12.390625l1.46875 0l0 1.21875l0.046875 0q0.34375 -0.703125 1.09375 -1.0625q0.75 -0.359375 1.765625 -0.359375zm-2.953125 4.671875q0 1.5625 0.75 2.484375q0.765625 0.90625 2.078125 0.90625q1.28125 0 1.984375 -0.90625q0.703125 -0.921875 0.703125 -2.546875q0 -1.453125 -0.75 -2.390625q-0.734375 -0.9375 -2.03125 -0.9375q-1.296875 0 -2.015625 0.953125q-0.71875 0.953125 -0.71875 2.4375zm12.4591675 -4.671875q1.828125 0 2.59375 0.65625q0.765625 0.640625 0.765625 1.734375q0 4.65625 0 5.171875q0 0.5 0.46875 0.5q0.109375 0 0.21875 -0.015625q0.125 -0.03125 0.234375 -0.0625l0 1.140625q-0.203125 0.109375 -0.46875 0.171875q-0.265625 0.078125 -0.578125 0.078125q-0.609375 0 -0.9375 -0.34375q-0.3125 -0.34375 -0.3125 -1.046875q-0.59375 0.6875 -1.390625 1.046875q-0.796875 0.34375 -1.765625 0.34375q-1.390625 0 -2.1875 -0.65625q-0.78125 -0.65625 -0.78125 -1.859375q0 -1.21875 0.765625 -1.921875q0.78125 -0.703125 3.625 -1.0625q0.96875 -0.125 1.3125 -0.359375q0.34375 -0.25 0.34375 -0.75q0 -0.734375 -0.484375 -1.109375q-0.46875 -0.375 -1.515625 -0.375q-1.09375 0 -1.640625 0.421875q-0.546875 0.40625 -0.59375 1.28125l-1.46875 0q0.078125 -1.484375 1.046875 -2.234375q0.984375 -0.75 2.75 -0.75zm-2.578125 6.75q0 0.625 0.453125 0.96875q0.453125 0.34375 1.28125 0.34375q1.234375 0 1.984375 -0.609375q0.75 -0.625 0.75 -1.390625l0 -1.53125q-0.375 0.265625 -0.96875 0.359375q-0.59375 0.078125 -1.578125 0.21875q-0.984375 0.140625 -1.453125 0.53125q-0.46875 0.390625 -0.46875 1.109375zm11.963318 -6.75q1.640625 0 2.65625 0.78125q1.03125 0.765625 1.21875 2.296875l-1.53125 0q-0.171875 -0.875 -0.75 -1.328125q-0.578125 -0.46875 -1.46875 -0.46875q-1.359375 0 -2.078125 0.921875q-0.703125 0.921875 -0.703125 2.59375q0 1.484375 0.703125 2.375q0.703125 0.890625 1.90625 0.890625q1.078125 0 1.6875 -0.578125q0.625 -0.578125 0.78125 -1.609375l1.5 0q-0.25 1.6875 -1.265625 2.59375q-1.015625 0.90625 -2.6875 0.90625q-1.953125 0 -3.078125 -1.234375q-1.109375 -1.234375 -1.109375 -3.34375q0 -2.203125 1.125 -3.5q1.140625 -1.296875 3.09375 -1.296875zm9.291504 0q1.9375 0 3.0 1.390625q1.0625 1.375 1.0625 3.546875l0 0.1875l-6.703125 0l0 0.109375q0 1.28125 0.734375 2.0625q0.75 0.765625 2.046875 0.765625q0.984375 0 1.5625 -0.453125q0.578125 -0.453125 0.765625 -1.296875l1.453125 0q-0.296875 1.484375 -1.3125 2.28125q-1.0 0.78125 -2.515625 0.78125q-1.40625 0 -2.390625 -0.640625q-0.96875 -0.640625 -1.4375 -1.78125q-0.46875 -1.140625 -0.46875 -2.328125q0 -1.984375 1.1875 -3.296875q1.203125 -1.328125 3.015625 -1.328125zm-2.640625 3.8125l5.140625 0q-0.0625 -1.09375 -0.796875 -1.8125q-0.71875 -0.71875 -1.796875 -0.71875q-1.015625 0 -1.734375 0.6875q-0.71875 0.6875 -0.8125 1.84375zm11.213318 -3.8125q1.796875 0 2.671875 0.703125q0.890625 0.6875 0.96875 2.09375l-1.46875 0l0 -0.015625q-0.0625 -0.71875 -0.625 -1.109375q-0.5625 -0.390625 -1.4375 -0.390625q-0.890625 0 -1.40625 0.3125q-0.515625 0.296875 -0.515625 0.84375q0 0.484375 0.453125 0.796875q0.453125 0.3125 1.375 0.5l1.375 0.3125q1.3125 0.296875 1.984375 0.890625q0.671875 0.59375 0.671875 1.609375q0 1.3125 -1.03125 2.078125q-1.015625 0.75 -2.78125 0.75q-1.71875 0 -2.734375 -0.765625q-1.0 -0.78125 -1.0625 -2.28125l1.484375 0q0.03125 0.84375 0.65625 1.296875q0.640625 0.4375 1.75 0.4375q1.0625 0 1.609375 -0.328125q0.546875 -0.34375 0.546875 -1.0q0 -0.609375 -0.546875 -0.953125q-0.546875 -0.359375 -2.234375 -0.6875q-1.6875 -0.34375 -2.375 -0.9375q-0.6875 -0.609375 -0.6875 -1.609375q0 -1.1875 0.953125 -1.859375q0.953125 -0.6875 2.40625 -0.6875z" fill-rule="nonzero"/><path fill="#d9d9d9" d="m199.70526 510.07062q1.828125 0 2.59375 0.65625q0.765625 0.640625 0.765625 1.734375q0 4.65625 0 5.171875q0 0.5 0.46875 0.5q0.109375 0 0.21875 -0.015625q0.125 -0.03125 0.234375 -0.0625l0 1.140625q-0.203125 0.109375 -0.46875 0.171875q-0.265625 0.078125 -0.578125 0.078125q-0.609375 0 -0.9375 -0.34375q-0.3125 -0.34375 -0.3125 -1.046875q-0.59375 0.6875 -1.390625 1.046875q-0.796875 0.34375 -1.765625 0.34375q-1.390625 0 -2.1875 -0.65625q-0.78125 -0.65625 -0.78125 -1.859375q0 -1.21875 0.765625 -1.921875q0.78125 -0.703125 3.625 -1.0625q0.96875 -0.125 1.3125 -0.359375q0.34375 -0.25 0.34375 -0.75q0 -0.734375 -0.484375 -1.109375q-0.46875 -0.375 -1.515625 -0.375q-1.09375 0 -1.640625 0.421875q-0.546875 0.40625 -0.59375 1.28125l-1.46875 0q0.078125 -1.484375 1.046875 -2.234375q0.984375 -0.75 2.75 -0.75zm-2.578125 6.75q0 0.625 0.453125 0.96875q0.453125 0.34375 1.28125 0.34375q1.234375 0 1.984375 -0.609375q0.75 -0.625 0.75 -1.390625l0 -1.53125q-0.375 0.265625 -0.96875 0.359375q-0.59375 0.078125 -1.578125 0.21875q-0.984375 0.140625 -1.453125 0.53125q-0.46875 0.390625 -0.46875 1.109375zm12.572723 -6.75q1.609375 0 2.34375 0.828125q0.734375 0.828125 0.734375 2.359375l0 5.96875l-1.46875 0l0 -6.125q0 -0.75 -0.5 -1.25q-0.484375 -0.5 -1.34375 -0.5q-1.234375 0 -1.9375 0.765625q-0.703125 0.765625 -0.703125 1.984375l0 5.125l-1.46875 0l0 -8.953125l1.390625 0l0 1.421875l0.03125 0q0.484375 -0.84375 1.203125 -1.234375q0.71875 -0.390625 1.71875 -0.390625zm13.293335 -3.21875l0 12.375l-1.46875 0l0 -1.203125l-0.03125 0q-0.34375 0.6875 -1.109375 1.0625q-0.75 0.359375 -1.75 0.359375q-1.875 0 -3.0 -1.296875q-1.125 -1.3125 -1.125 -3.421875q0 -2.078125 1.078125 -3.359375q1.09375 -1.296875 3.0 -1.296875q0.875 0 1.671875 0.359375q0.796875 0.34375 1.234375 1.03125l0.03125 0l0 -4.609375l1.46875 0zm-6.921875 7.96875q0 1.4375 0.75 2.375q0.75 0.9375 2.015625 0.9375q1.3125 0 2.015625 -0.9375q0.71875 -0.9375 0.71875 -2.4375q0 -1.53125 -0.734375 -2.46875q-0.734375 -0.9375 -2.109375 -0.9375q-1.265625 0 -1.96875 0.9375q-0.6875 0.921875 -0.6875 2.53125zm17.726593 -4.75q1.9375 0 3.0 1.390625q1.0625 1.375 1.0625 3.546875l0 0.1875l-6.703125 0l0 0.109375q0 1.28125 0.734375 2.0625q0.75 0.765625 2.046875 0.765625q0.984375 0 1.5625 -0.453125q0.578125 -0.453125 0.765625 -1.296875l1.453125 0q-0.296875 1.484375 -1.3125 2.28125q-1.0 0.78125 -2.515625 0.78125q-1.40625 0 -2.390625 -0.640625q-0.96875 -0.640625 -1.4375 -1.78125q-0.46875 -1.140625 -0.46875 -2.328125q0 -1.984375 1.1875 -3.296875q1.203125 -1.328125 3.015625 -1.328125zm-2.640625 3.8125l5.140625 0q-0.0625 -1.09375 -0.796875 -1.8125q-0.71875 -0.71875 -1.796875 -0.71875q-1.015625 0 -1.734375 0.6875q-0.71875 0.6875 -0.8125 1.84375zm12.572723 -3.8125q1.609375 0 2.34375 0.828125q0.734375 0.828125 0.734375 2.359375l0 5.96875l-1.46875 0l0 -6.125q0 -0.75 -0.5 -1.25q-0.484375 -0.5 -1.34375 -0.5q-1.234375 0 -1.9375 0.765625q-0.703125 0.765625 -0.703125 1.984375l0 5.125l-1.46875 0l0 -8.953125l1.390625 0l0 1.421875l0.03125 0q0.484375 -0.84375 1.203125 -1.234375q0.71875 -0.390625 1.71875 -0.390625zm8.949585 0q1.828125 0 2.59375 0.65625q0.765625 0.640625 0.765625 1.734375q0 4.65625 0 5.171875q0 0.5 0.46875 0.5q0.109375 0 0.21875 -0.015625q0.125 -0.03125 0.234375 -0.0625l0 1.140625q-0.203125 0.109375 -0.46875 0.171875q-0.265625 0.078125 -0.578125 0.078125q-0.609375 0 -0.9375 -0.34375q-0.3125 -0.34375 -0.3125 -1.046875q-0.59375 0.6875 -1.390625 1.046875q-0.796875 0.34375 -1.765625 0.34375q-1.390625 0 -2.1875 -0.65625q-0.78125 -0.65625 -0.78125 -1.859375q0 -1.21875 0.765625 -1.921875q0.78125 -0.703125 3.625 -1.0625q0.96875 -0.125 1.3125 -0.359375q0.34375 -0.25 0.34375 -0.75q0 -0.734375 -0.484375 -1.109375q-0.46875 -0.375 -1.515625 -0.375q-1.09375 0 -1.640625 0.421875q-0.546875 0.40625 -0.59375 1.28125l-1.46875 0q0.078125 -1.484375 1.046875 -2.234375q0.984375 -0.75 2.75 -0.75zm-2.578125 6.75q0 0.625 0.453125 0.96875q0.453125 0.34375 1.28125 0.34375q1.234375 0 1.984375 -0.609375q0.75 -0.625 0.75 -1.390625l0 -1.53125q-0.375 0.265625 -0.96875 0.359375q-0.59375 0.078125 -1.578125 0.21875q-0.984375 0.140625 -1.453125 0.53125q-0.46875 0.390625 -0.46875 1.109375zm9.744598 -9.96875l0 4.640625l0.046875 0q0.34375 -0.703125 1.078125 -1.0625q0.75 -0.359375 1.78125 -0.359375q1.921875 0 3.015625 1.328125q1.109375 1.3125 1.109375 3.375q0 2.078125 -1.109375 3.375q-1.09375 1.296875 -2.984375 1.296875q-0.828125 0 -1.640625 -0.34375q-0.796875 -0.359375 -1.25 -1.0625l-0.046875 0l0 1.1875l-1.46875 0l0 -12.375l1.46875 0zm-0.046875 7.890625q0 1.5625 0.75 2.484375q0.765625 0.90625 2.078125 0.90625q1.28125 0 1.984375 -0.90625q0.703125 -0.921875 0.703125 -2.546875q0 -1.453125 -0.75 -2.390625q-0.734375 -0.9375 -2.03125 -0.9375q-1.296875 0 -2.015625 0.953125q-0.71875 0.953125 -0.71875 2.4375zm10.365387 -7.890625l0 12.375l-1.484375 0l0 -12.375l1.484375 0zm3.849762 0l0 1.8125l-1.484375 0l0 -1.8125l1.484375 0zm0 3.421875l0 8.953125l-1.484375 0l0 -8.953125l1.484375 0zm6.631012 -0.203125q1.609375 0 2.34375 0.828125q0.734375 0.828125 0.734375 2.359375l0 5.96875l-1.46875 0l0 -6.125q0 -0.75 -0.5 -1.25q-0.484375 -0.5 -1.34375 -0.5q-1.234375 0 -1.9375 0.765625q-0.703125 0.765625 -0.703125 1.984375l0 5.125l-1.46875 0l0 -8.953125l1.390625 0l0 1.421875l0.03125 0q0.484375 -0.84375 1.203125 -1.234375q0.71875 -0.390625 1.71875 -0.390625zm8.93396 0q0.9375 0 1.625 0.40625q0.6875 0.40625 1.0625 1.078125l0.015625 0l0 -1.28125l1.375 0l0 8.28125q0 2.109375 -1.015625 3.203125q-1.015625 1.109375 -3.125 1.109375q-1.546875 0 -2.59375 -0.6875q-1.046875 -0.671875 -1.125 -1.953125l1.46875 0q0.046875 0.6875 0.734375 1.078125q0.703125 0.390625 1.59375 0.390625q1.296875 0 1.984375 -0.875q0.703125 -0.859375 0.703125 -2.5625l0 -0.546875l-0.03125 0q-0.34375 0.734375 -1.09375 1.171875q-0.75 0.4375 -1.703125 0.4375q-1.828125 0 -2.921875 -1.25q-1.078125 -1.25 -1.078125 -3.28125q0 -2.046875 1.078125 -3.375q1.09375 -1.34375 3.046875 -1.34375zm-2.5625 4.546875q0 1.59375 0.65625 2.515625q0.671875 0.90625 1.875 0.90625q1.21875 0 1.9375 -0.9375q0.71875 -0.953125 0.71875 -2.53125q0 -1.4375 -0.671875 -2.328125q-0.65625 -0.890625 -1.890625 -0.890625q-1.234375 0 -1.9375 0.890625q-0.6875 0.890625 -0.6875 2.375zm15.15509 -7.765625l0 4.734375l0.03125 0q0.328125 -0.71875 1.09375 -1.109375q0.765625 -0.40625 1.75 -0.40625q1.609375 0 2.34375 0.828125q0.734375 0.828125 0.734375 2.359375l0 5.96875l-1.46875 0l0 -6.125q0 -0.75 -0.5 -1.25q-0.484375 -0.5 -1.34375 -0.5q-1.234375 0 -1.9375 0.765625q-0.703125 0.765625 -0.703125 1.984375l0 5.125l-1.46875 0l0 -12.375l1.46875 0zm9.730835 0l0 1.8125l-1.484375 0l0 -1.8125l1.484375 0zm0 3.421875l0 8.953125l-1.484375 0l0 -8.953125l1.484375 0zm5.927887 -0.203125q0.9375 0 1.625 0.40625q0.6875 0.40625 1.0625 1.078125l0.015625 0l0 -1.28125l1.375 0l0 8.28125q0 2.109375 -1.015625 3.203125q-1.015625 1.109375 -3.125 1.109375q-1.546875 0 -2.59375 -0.6875q-1.046875 -0.671875 -1.125 -1.953125l1.46875 0q0.046875 0.6875 0.734375 1.078125q0.703125 0.390625 1.59375 0.390625q1.296875 0 1.984375 -0.875q0.703125 -0.859375 0.703125 -2.5625l0 -0.546875l-0.03125 0q-0.34375 0.734375 -1.09375 1.171875q-0.75 0.4375 -1.703125 0.4375q-1.828125 0 -2.921875 -1.25q-1.078125 -1.25 -1.078125 -3.28125q0 -2.046875 1.078125 -3.375q1.09375 -1.34375 3.046875 -1.34375zm-2.5625 4.546875q0 1.59375 0.65625 2.515625q0.671875 0.90625 1.875 0.90625q1.21875 0 1.9375 -0.9375q0.71875 -0.953125 0.71875 -2.53125q0 -1.4375 -0.671875 -2.328125q-0.65625 -0.890625 -1.890625 -0.890625q-1.234375 0 -1.9375 0.890625q-0.6875 0.890625 -0.6875 2.375zm10.340759 -7.765625l0 4.734375l0.03125 0q0.328125 -0.71875 1.09375 -1.109375q0.765625 -0.40625 1.75 -0.40625q1.609375 0 2.34375 0.828125q0.734375 0.828125 0.734375 2.359375l0 5.96875l-1.46875 0l0 -6.125q0 -0.75 -0.5 -1.25q-0.484375 -0.5 -1.34375 -0.5q-1.234375 0 -1.9375 0.765625q-0.703125 0.765625 -0.703125 1.984375l0 5.125l-1.46875 0l0 -12.375l1.46875 0zm12.93396 6.859375l0 1.390625l-5.015625 0l0 -1.390625l5.015625 0zm5.571533 -3.640625q0.875 0 1.671875 0.359375q0.796875 0.34375 1.234375 1.03125l0.03125 0l0 -1.1875l1.46875 0l0 12.390625l-1.46875 0l0 -4.640625l-0.03125 0q-0.34375 0.6875 -1.109375 1.0625q-0.75 0.359375 -1.75 0.359375q-1.875 0 -3.0 -1.296875q-1.125 -1.3125 -1.125 -3.421875q0 -2.078125 1.09375 -3.359375q1.09375 -1.296875 2.984375 -1.296875zm-2.515625 4.75q0 1.4375 0.75 2.375q0.75 0.9375 2.015625 0.9375q1.3125 0 2.015625 -0.9375q0.71875 -0.9375 0.71875 -2.4375q0 -1.53125 -0.734375 -2.46875q-0.734375 -0.9375 -2.109375 -0.9375q-1.265625 0 -1.96875 0.9375q-0.6875 0.921875 -0.6875 2.53125zm10.6622925 -4.546875l0 6.109375q0 0.75 0.484375 1.25q0.484375 0.5 1.34375 0.5q1.265625 0 1.953125 -0.765625q0.703125 -0.78125 0.703125 -1.984375l0 -5.109375l1.46875 0l0 8.953125l-1.390625 0l0 -1.421875l-0.03125 0q-0.5 0.859375 -1.234375 1.25q-0.734375 0.390625 -1.6875 0.390625q-1.5625 0 -2.328125 -0.8125q-0.75 -0.8125 -0.75 -2.390625l0 -5.96875l1.46875 0zm11.824585 -0.203125q1.828125 0 2.59375 0.65625q0.765625 0.640625 0.765625 1.734375q0 4.65625 0 5.171875q0 0.5 0.46875 0.5q0.109375 0 0.21875 -0.015625q0.125 -0.03125 0.234375 -0.0625l0 1.140625q-0.203125 0.109375 -0.46875 0.171875q-0.265625 0.078125 -0.578125 0.078125q-0.609375 0 -0.9375 -0.34375q-0.3125 -0.34375 -0.3125 -1.046875q-0.59375 0.6875 -1.390625 1.046875q-0.796875 0.34375 -1.765625 0.34375q-1.390625 0 -2.1875 -0.65625q-0.78125 -0.65625 -0.78125 -1.859375q0 -1.21875 0.765625 -1.921875q0.78125 -0.703125 3.625 -1.0625q0.96875 -0.125 1.3125 -0.359375q0.34375 -0.25 0.34375 -0.75q0 -0.734375 -0.484375 -1.109375q-0.46875 -0.375 -1.515625 -0.375q-1.09375 0 -1.640625 0.421875q-0.546875 0.40625 -0.59375 1.28125l-1.46875 0q0.078125 -1.484375 1.046875 -2.234375q0.984375 -0.75 2.75 -0.75zm-2.578125 6.75q0 0.625 0.453125 0.96875q0.453125 0.34375 1.28125 0.34375q1.234375 0 1.984375 -0.609375q0.75 -0.625 0.75 -1.390625l0 -1.53125q-0.375 0.265625 -0.96875 0.359375q-0.59375 0.078125 -1.578125 0.21875q-0.984375 0.140625 -1.453125 0.53125q-0.46875 0.390625 -0.46875 1.109375zm9.791473 -9.96875l0 12.375l-1.484375 0l0 -12.375l1.484375 0zm3.849762 0l0 1.8125l-1.484375 0l0 -1.8125l1.484375 0zm0 3.421875l0 8.953125l-1.484375 0l0 -8.953125l1.484375 0zm4.334137 -2.6875l0 2.6875l1.78125 0l0 1.296875l-1.78125 0l0 5.609375q0 0.671875 0.4375 0.71875q0.453125 0.03125 0.9375 0.03125l0.40625 0l0 1.296875l-1.21875 0q-1.203125 0 -1.625 -0.421875q-0.40625 -0.4375 -0.40625 -1.453125l0 -5.78125l-1.53125 0l0 -1.296875l1.53125 0l0 -2.6875l1.46875 0zm4.0979614 2.6875l2.625 7.3125l0.03125 0l2.515625 -7.3125l1.5625 0l-3.8125 9.90625q-0.59375 1.546875 -1.15625 2.09375q-0.546875 0.546875 -1.53125 0.546875q-0.265625 0 -0.53125 -0.046875q-0.25 -0.03125 -0.5 -0.109375l0 -1.359375q0.21875 0.078125 0.4375 0.140625q0.21875 0.0625 0.4375 0.0625q0.890625 0 1.25 -0.90625q0.359375 -0.890625 0.5625 -1.421875l-3.546875 -8.90625l1.65625 0zm16.525269 -0.203125q1.640625 0 2.65625 0.78125q1.03125 0.765625 1.21875 2.296875l-1.53125 0q-0.171875 -0.875 -0.75 -1.328125q-0.578125 -0.46875 -1.46875 -0.46875q-1.359375 0 -2.078125 0.921875q-0.703125 0.921875 -0.703125 2.59375q0 1.484375 0.703125 2.375q0.703125 0.890625 1.90625 0.890625q1.078125 0 1.6875 -0.578125q0.625 -0.578125 0.78125 -1.609375l1.5 0q-0.25 1.6875 -1.265625 2.59375q-1.015625 0.90625 -2.6875 0.90625q-1.953125 0 -3.078125 -1.234375q-1.109375 -1.234375 -1.109375 -3.34375q0 -2.203125 1.125 -3.5q1.140625 -1.296875 3.09375 -1.296875zm9.432098 0q2.03125 0 3.1875 1.3125q1.171875 1.296875 1.171875 3.375q0 2.09375 -1.1875 3.390625q-1.1875 1.296875 -3.171875 1.296875q-1.9375 0 -3.140625 -1.265625q-1.203125 -1.28125 -1.203125 -3.421875q0 -2.125 1.171875 -3.40625q1.1875 -1.28125 3.171875 -1.28125zm-2.78125 4.6875q0 1.546875 0.78125 2.46875q0.78125 0.90625 2.0 0.90625q1.21875 0 2.0 -0.921875q0.796875 -0.921875 0.796875 -2.453125q0 -1.53125 -0.796875 -2.46875q-0.78125 -0.9375 -2.015625 -0.9375q-1.171875 0 -1.96875 0.921875q-0.796875 0.921875 -0.796875 2.484375zm13.215759 -4.6875q1.609375 0 2.34375 0.828125q0.734375 0.828125 0.734375 2.359375l0 5.96875l-1.46875 0l0 -6.125q0 -0.75 -0.5 -1.25q-0.484375 -0.5 -1.34375 -0.5q-1.234375 0 -1.9375 0.765625q-0.703125 0.765625 -0.703125 1.984375l0 5.125l-1.46875 0l0 -8.953125l1.390625 0l0 1.421875l0.03125 0q0.484375 -0.84375 1.203125 -1.234375q0.71875 -0.390625 1.71875 -0.390625zm7.34021 -2.484375l0 2.6875l1.78125 0l0 1.296875l-1.78125 0l0 5.609375q0 0.671875 0.4375 0.71875q0.453125 0.03125 0.9375 0.03125l0.40625 0l0 1.296875l-1.21875 0q-1.203125 0 -1.625 -0.421875q-0.40625 -0.4375 -0.40625 -1.453125l0 -5.78125l-1.53125 0l0 -1.296875l1.53125 0l0 -2.6875l1.46875 0zm6.917633 2.484375q1.9375 0 3.0 1.390625q1.0625 1.375 1.0625 3.546875l0 0.1875l-6.703125 0l0 0.109375q0 1.28125 0.734375 2.0625q0.75 0.765625 2.046875 0.765625q0.984375 0 1.5625 -0.453125q0.578125 -0.453125 0.765625 -1.296875l1.453125 0q-0.296875 1.484375 -1.3125 2.28125q-1.0 0.78125 -2.515625 0.78125q-1.40625 0 -2.390625 -0.640625q-0.96875 -0.640625 -1.4375 -1.78125q-0.46875 -1.140625 -0.46875 -2.328125q0 -1.984375 1.1875 -3.296875q1.203125 -1.328125 3.015625 -1.328125zm-2.640625 3.8125l5.140625 0q-0.0625 -1.09375 -0.796875 -1.8125q-0.71875 -0.71875 -1.796875 -0.71875q-1.015625 0 -1.734375 0.6875q-0.71875 0.6875 -0.8125 1.84375zm12.572723 -3.8125q1.609375 0 2.34375 0.828125q0.734375 0.828125 0.734375 2.359375l0 5.96875l-1.46875 0l0 -6.125q0 -0.75 -0.5 -1.25q-0.484375 -0.5 -1.34375 -0.5q-1.234375 0 -1.9375 0.765625q-0.703125 0.765625 -0.703125 1.984375l0 5.125l-1.46875 0l0 -8.953125l1.390625 0l0 1.421875l0.03125 0q0.484375 -0.84375 1.203125 -1.234375q0.71875 -0.390625 1.71875 -0.390625zm7.34021 -2.484375l0 2.6875l1.78125 0l0 1.296875l-1.78125 0l0 5.609375q0 0.671875 0.4375 0.71875q0.453125 0.03125 0.9375 0.03125l0.40625 0l0 1.296875l-1.21875 0q-1.203125 0 -1.625 -0.421875q-0.40625 -0.4375 -0.40625 -1.453125l0 -5.78125l-1.53125 0l0 -1.296875l1.53125 0l0 -2.6875l1.46875 0zm11.9591675 2.484375q1.640625 0 2.65625 0.78125q1.03125 0.765625 1.21875 2.296875l-1.53125 0q-0.171875 -0.875 -0.75 -1.328125q-0.578125 -0.46875 -1.46875 -0.46875q-1.359375 0 -2.078125 0.921875q-0.703125 0.921875 -0.703125 2.59375q0 1.484375 0.703125 2.375q0.703125 0.890625 1.90625 0.890625q1.078125 0 1.6875 -0.578125q0.625 -0.578125 0.78125 -1.609375l1.5 0q-0.25 1.6875 -1.265625 2.59375q-1.015625 0.90625 -2.6875 0.90625q-1.953125 0 -3.078125 -1.234375q-1.109375 -1.234375 -1.109375 -3.34375q0 -2.203125 1.125 -3.5q1.140625 -1.296875 3.09375 -1.296875zm10.025848 -0.015625q0.0625 0 0.09375 0q0.046875 0 0.109375 0.015625l0 1.546875q-1.65625 0 -2.453125 0.890625q-0.78125 0.875 -0.78125 2.703125l0 4.015625l-1.46875 0l0 -8.953125l1.375 0l0 1.875l0.046875 0q0.515625 -1.0625 1.265625 -1.578125q0.765625 -0.515625 1.8125 -0.515625zm4.72287 0.015625q1.9375 0 3.0 1.390625q1.0625 1.375 1.0625 3.546875l0 0.1875l-6.703125 0l0 0.109375q0 1.28125 0.734375 2.0625q0.75 0.765625 2.046875 0.765625q0.984375 0 1.5625 -0.453125q0.578125 -0.453125 0.765625 -1.296875l1.453125 0q-0.296875 1.484375 -1.3125 2.28125q-1.0 0.78125 -2.515625 0.78125q-1.40625 0 -2.390625 -0.640625q-0.96875 -0.640625 -1.4375 -1.78125q-0.46875 -1.140625 -0.46875 -2.328125q0 -1.984375 1.1875 -3.296875q1.203125 -1.328125 3.015625 -1.328125zm-2.640625 3.8125l5.140625 0q-0.0625 -1.09375 -0.796875 -1.8125q-0.71875 -0.71875 -1.796875 -0.71875q-1.015625 0 -1.734375 0.6875q-0.71875 0.6875 -0.8125 1.84375zm11.885223 -3.8125q1.828125 0 2.59375 0.65625q0.765625 0.640625 0.765625 1.734375q0 4.65625 0 5.171875q0 0.5 0.46875 0.5q0.109375 0 0.21875 -0.015625q0.125 -0.03125 0.234375 -0.0625l0 1.140625q-0.203125 0.109375 -0.46875 0.171875q-0.265625 0.078125 -0.578125 0.078125q-0.609375 0 -0.9375 -0.34375q-0.3125 -0.34375 -0.3125 -1.046875q-0.59375 0.6875 -1.390625 1.046875q-0.796875 0.34375 -1.765625 0.34375q-1.390625 0 -2.1875 -0.65625q-0.78125 -0.65625 -0.78125 -1.859375q0 -1.21875 0.765625 -1.921875q0.78125 -0.703125 3.625 -1.0625q0.96875 -0.125 1.3125 -0.359375q0.34375 -0.25 0.34375 -0.75q0 -0.734375 -0.484375 -1.109375q-0.46875 -0.375 -1.515625 -0.375q-1.09375 0 -1.640625 0.421875q-0.546875 0.40625 -0.59375 1.28125l-1.46875 0q0.078125 -1.484375 1.046875 -2.234375q0.984375 -0.75 2.75 -0.75zm-2.578125 6.75q0 0.625 0.453125 0.96875q0.453125 0.34375 1.28125 0.34375q1.234375 0 1.984375 -0.609375q0.75 -0.625 0.75 -1.390625l0 -1.53125q-0.375 0.265625 -0.96875 0.359375q-0.59375 0.078125 -1.578125 0.21875q-0.984375 0.140625 -1.453125 0.53125q-0.46875 0.390625 -0.46875 1.109375zm10.275848 -9.234375l0 2.6875l1.78125 0l0 1.296875l-1.78125 0l0 5.609375q0 0.671875 0.4375 0.71875q0.453125 0.03125 0.9375 0.03125l0.40625 0l0 1.296875l-1.21875 0q-1.203125 0 -1.625 -0.421875q-0.40625 -0.4375 -0.40625 -1.453125l0 -5.78125l-1.53125 0l0 -1.296875l1.53125 0l0 -2.6875l1.46875 0zm4.9729614 -0.734375l0 1.8125l-1.484375 0l0 -1.8125l1.484375 0zm0 3.421875l0 8.953125l-1.484375 0l0 -8.953125l1.484375 0zm6.146637 -0.203125q2.03125 0 3.1875 1.3125q1.171875 1.296875 1.171875 3.375q0 2.09375 -1.1875 3.390625q-1.1875 1.296875 -3.171875 1.296875q-1.9375 0 -3.140625 -1.265625q-1.203125 -1.28125 -1.203125 -3.421875q0 -2.125 1.171875 -3.40625q1.1875 -1.28125 3.171875 -1.28125zm-2.78125 4.6875q0 1.546875 0.78125 2.46875q0.78125 0.90625 2.0 0.90625q1.21875 0 2.0 -0.921875q0.796875 -0.921875 0.796875 -2.453125q0 -1.53125 -0.796875 -2.46875q-0.78125 -0.9375 -2.015625 -0.9375q-1.171875 0 -1.96875 0.921875q-0.796875 0.921875 -0.796875 2.484375zm13.215729 -4.6875q1.609375 0 2.34375 0.828125q0.734375 0.828125 0.734375 2.359375l0 5.96875l-1.46875 0l0 -6.125q0 -0.75 -0.5 -1.25q-0.484375 -0.5 -1.34375 -0.5q-1.234375 0 -1.9375 0.765625q-0.703125 0.765625 -0.703125 1.984375l0 5.125l-1.46875 0l0 -8.953125l1.390625 0l0 1.421875l0.03125 0q0.484375 -0.84375 1.203125 -1.234375q0.71875 -0.390625 1.71875 -0.390625zm7.543335 7.234375l0 1.921875l-1.921875 0l0 -1.921875l1.921875 0z" fill-rule="nonzero"/><path fill="#000000" fill-opacity="0.0" d="m14.682413 467.22217l55.624725 0l0 55.624695l-55.624725 0z" fill-rule="evenodd"/><g transform="matrix(0.12361049868766404 0.0 0.0 0.12361049868766404 14.68241286089239 467.2221566929134)"><clipPath id="g2e3e872469c_0_168.1"><path d="m-1.4210855E-14 0l450.0 0l0 450.0l-450.0 0z" clip-rule="evenodd"/></clipPath><image clip-path="url(#g2e3e872469c_0_168.1)" fill="#000" width="450.0" height="450.0" x="0.0" y="0.0" preserveAspectRatio="none" xlink:href="https://lh7-rt.googleusercontent.com/slidesz/AGV_vUeXFAOlCYpSIIGxtYj2p_2KCtWxzuCb_iuD8yoziIBhly1IaTrx5TjmHVjE3EHKCiMp8FXlwxSaGVhPtRd_CHeC8ZKVDPSBSYDxXm2IkYDPoB-sQtTi61v069_r8p9Brto=s2048?key=7LE3oBm5y_Q2w8Qv5o4NHULt"/></g><g id="a11y-g2e3e872469c_0_171" role="img" aria-label="MASS EVENTS&#xa;" tabindex="0"><path fill="#000000" fill-opacity="0.0" d="m0 0l0 47.779526l222.31496 0l23.88977 -23.889763l-23.88977 -23.889763z" fill-rule="nonzero"/></g><path fill="#666666" d="m0 0l222.31496 0l23.88977 23.889763l-23.88977 23.889763l-222.31496 0z" fill-rule="evenodd"/><path stroke="#303030" stroke-width="1.0" stroke-linejoin="round" stroke-linecap="butt" d="m0 0l222.31496 0l23.88977 23.889763l-23.88977 23.889763l-222.31496 0z" fill-rule="evenodd"/><path fill="#000000" d="m52.171524 30.809761l0 -13.359375l2.65625 0l3.15625 9.453125q0.4375 1.328125 0.640625 1.984375q0.234375 -0.734375 0.703125 -2.140625l3.203125 -9.296875l2.375 0l0 13.359375l-1.703125 0l0 -11.171875l-3.875 11.171875l-1.59375 0l-3.859375 -11.375l0 11.375l-1.703125 0zm14.118927 0l5.125 -13.359375l1.90625 0l5.46875 13.359375l-2.015625 0l-1.546875 -4.046875l-5.59375 0l-1.46875 4.046875l-1.875 0zm3.859375 -5.484375l4.53125 0l-1.40625 -3.703125q-0.625 -1.6875 -0.9375 -2.765625q-0.265625 1.28125 -0.71875 2.546875l-1.46875 3.921875zm9.459198 1.1875l1.65625 -0.140625q0.125 1.0 0.546875 1.640625q0.4375 0.640625 1.34375 1.046875q0.921875 0.390625 2.0625 0.390625q1.0 0 1.78125 -0.296875q0.78125 -0.296875 1.15625 -0.8125q0.375 -0.53125 0.375 -1.15625q0 -0.625 -0.375 -1.09375q-0.359375 -0.46875 -1.1875 -0.796875q-0.546875 -0.203125 -2.390625 -0.640625q-1.828125 -0.453125 -2.5625 -0.84375q-0.96875 -0.5 -1.4375 -1.234375q-0.46875 -0.75 -0.46875 -1.671875q0 -1.0 0.578125 -1.875q0.578125 -0.890625 1.671875 -1.34375q1.109375 -0.453125 2.453125 -0.453125q1.484375 0 2.609375 0.484375q1.140625 0.46875 1.75 1.40625q0.609375 0.921875 0.65625 2.09375l-1.6875 0.125q-0.140625 -1.265625 -0.9375 -1.90625q-0.78125 -0.65625 -2.3125 -0.65625q-1.609375 0 -2.34375 0.59375q-0.734375 0.59375 -0.734375 1.421875q0 0.71875 0.53125 1.171875q0.5 0.46875 2.65625 0.96875q2.15625 0.484375 2.953125 0.84375q1.171875 0.53125 1.71875 1.359375q0.5625 0.828125 0.5625 1.90625q0 1.0625 -0.609375 2.015625q-0.609375 0.9375 -1.75 1.46875q-1.140625 0.515625 -2.578125 0.515625q-1.8125 0 -3.046875 -0.53125q-1.21875 -0.53125 -1.921875 -1.59375q-0.6875 -1.0625 -0.71875 -2.40625zm12.443573 0l1.65625 -0.140625q0.125 1.0 0.546875 1.640625q0.4375 0.640625 1.34375 1.046875q0.921875 0.390625 2.0625 0.390625q1.0 0 1.78125 -0.296875q0.78125 -0.296875 1.15625 -0.8125q0.375 -0.53125 0.375 -1.15625q0 -0.625 -0.375 -1.09375q-0.359375 -0.46875 -1.1875 -0.796875q-0.546875 -0.203125 -2.390625 -0.640625q-1.828125 -0.453125 -2.5625 -0.84375q-0.96875 -0.5 -1.4375 -1.234375q-0.46875 -0.75 -0.46875 -1.671875q0 -1.0 0.578125 -1.875q0.578125 -0.890625 1.671875 -1.34375q1.109375 -0.453125 2.453125 -0.453125q1.484375 0 2.609375 0.484375q1.140625 0.46875 1.75 1.40625q0.609375 0.921875 0.65625 2.09375l-1.6875 0.125q-0.140625 -1.265625 -0.9375 -1.90625q-0.78125 -0.65625 -2.3125 -0.65625q-1.609375 0 -2.34375 0.59375q-0.734375 0.59375 -0.734375 1.421875q0 0.71875 0.53125 1.171875q0.5 0.46875 2.65625 0.96875q2.15625 0.484375 2.953125 0.84375q1.171875 0.53125 1.71875 1.359375q0.5625 0.828125 0.5625 1.90625q0 1.0625 -0.609375 2.015625q-0.609375 0.9375 -1.75 1.46875q-1.140625 0.515625 -2.578125 0.515625q-1.8125 0 -3.046875 -0.53125q-1.21875 -0.53125 -1.921875 -1.59375q-0.6875 -1.0625 -0.71875 -2.40625zm18.251877 4.296875l0 -13.359375l9.65625 0l0 1.578125l-7.875 0l0 4.09375l7.375 0l0 1.5625l-7.375 0l0 4.546875l8.1875 0l0 1.578125l-9.96875 0zm16.224823 0l-5.171875 -13.359375l1.921875 0l3.46875 9.703125q0.421875 1.171875 0.703125 2.1875q0.3125 -1.09375 0.71875 -2.1875l3.609375 -9.703125l1.796875 0l-5.234375 13.359375l-1.8125 0zm8.662323 0l0 -13.359375l9.65625 0l0 1.578125l-7.875 0l0 4.09375l7.375 0l0 1.5625l-7.375 0l0 4.546875l8.1875 0l0 1.578125l-9.96875 0zm12.396698 0l0 -13.359375l1.8125 0l7.015625 10.484375l0 -10.484375l1.6875 0l0 13.359375l-1.8125 0l-7.015625 -10.5l0 10.5l-1.6875 0zm16.894821 0l0 -11.78125l-4.40625 0l0 -1.578125l10.578125 0l0 1.578125l-4.40625 0l0 11.78125l-1.765625 0zm7.395981 -4.296875l1.65625 -0.140625q0.125 1.0 0.546875 1.640625q0.4375 0.640625 1.34375 1.046875q0.921875 0.390625 2.0625 0.390625q1.0 0 1.78125 -0.296875q0.78125 -0.296875 1.15625 -0.8125q0.375 -0.53125 0.375 -1.15625q0 -0.625 -0.375 -1.09375q-0.359375 -0.46875 -1.1875 -0.796875q-0.546875 -0.203125 -2.390625 -0.640625q-1.828125 -0.453125 -2.5625 -0.84375q-0.96875 -0.5 -1.4375 -1.234375q-0.46875 -0.75 -0.46875 -1.671875q0 -1.0 0.578125 -1.875q0.578125 -0.890625 1.671875 -1.34375q1.109375 -0.453125 2.453125 -0.453125q1.484375 0 2.609375 0.484375q1.140625 0.46875 1.75 1.40625q0.609375 0.921875 0.65625 2.09375l-1.6875 0.125q-0.140625 -1.265625 -0.9375 -1.90625q-0.78125 -0.65625 -2.3125 -0.65625q-1.609375 0 -2.34375 0.59375q-0.734375 0.59375 -0.734375 1.421875q0 0.71875 0.53125 1.171875q0.5 0.46875 2.65625 0.96875q2.15625 0.484375 2.953125 0.84375q1.171875 0.53125 1.71875 1.359375q0.5625 0.828125 0.5625 1.90625q0 1.0625 -0.609375 2.015625q-0.609375 0.9375 -1.75 1.46875q-1.140625 0.515625 -2.578125 0.515625q-1.8125 0 -3.046875 -0.53125q-1.21875 -0.53125 -1.921875 -1.59375q-0.6875 -1.0625 -0.71875 -2.40625z" fill-rule="nonzero"/><g id="g2e3e872469c_0_203"><path fill="#000000" fill-opacity="0.0" d="m413.30707 59.9895l213.7478 0l0 379.9974l-213.7478 0z" fill-rule="evenodd"/><g transform="matrix(0.29687191601049867 0.0 0.0 0.2968729658792651 413.307062992126 59.989499475065614)"><clipPath id="g2e3e872469c_0_168.2"><path d="m0 0l720.0 0l0 1280.0l-720.0 0z" clip-rule="evenodd"/></clipPath><image clip-path="url(#g2e3e872469c_0_168.2)" fill="#000" width="720.0" height="1280.0" x="0.0" y="0.0" preserveAspectRatio="none" xlink:href="https://lh7-rt.googleusercontent.com/slidesz/AGV_vUdI5r_VfJom1GHBN14D1PTpw8KA0A_cMyNtpGS8054V4eCBrxyBEKRBjaMztsivrIEeieoWxskE7d6BP6GQmrcm6YpEBcsPnnKoYrk0Oao1ldCkXsJhLd2vGHDbfw4YqqQ=s2048?key=7LE3oBm5y_Q2w8Qv5o4NHULt"/></g><a xlink:href="https://www.google.com/url?q=https://docs.google.com/file/d/1Kf40slRZ0QkNWhQCZf30OL4EhPYyyNcy/preview&amp;sa=D&amp;source=editors&amp;ust=1777358530761693&amp;usg=AOvVaw1ZW0xtJ4Mk_X_fiLTJ3l2q" target="_blank" rel="noreferrer"><path fill="transparent" fill-opacity="0" d="m413.30707 59.9895l0 379.9974l213.7478 0l0 -379.9974z" fill-rule="nonzero"/></a></g></g></g></svg>