<svg version="1.1" viewBox="0.0 0.0 960.0 540.0" fill="none" stroke="none" stroke-linecap="square" stroke-miterlimit="10" xmlns:xlink="http://www.w3.org/1999/xlink" xmlns="http://www.w3.org/2000/svg"><clipPath id="g2e3e872469c_0_0.0"><path d="m0 0l960.0 0l0 540.0l-960.0 0l0 -540.0z" clip-rule="nonzero"/></clipPath><g clip-path="url(#g2e3e872469c_0_0.0)"><g id="g2e3e872469c_0_0"><path fill="#ffffff" d="m0 0l960.0 0l0 540.0l-960.0 0l0 -540.0z" fill-rule="nonzero"/><path fill="#000000" d="m0 0l960.0 0l0 540.0l-960.0 0z" fill-rule="evenodd"/><path fill="#000000" fill-opacity="0.0" d="m16.0 97.35958l928.0004 0l0 345.2814l-928.0004 0z" fill-rule="evenodd"/><g transform="matrix(0.4531251968503937 0.0 0.0 0.4531251968503937 16.0 97.35958005249344)"><clipPath id="g2e3e872469c_0_0.1"><path d="m0 0l2048.0 0l0 762.0l-2048.0 0z" clip-rule="evenodd"/></clipPath><image clip-path="url(#g2e3e872469c_0_0.1)" fill="#000" width="2048.0" height="762.0" x="0.0" y="0.0" preserveAspectRatio="none" xlink:href="https://lh7-rt.googleusercontent.com/slidesz/AGV_vUdbilPkiSwBMJGO0JpNcZrFOkCzzr7Qts3eA3lQvc68cWUx75yoVR5e7FGfmHt44BMeIFxUL5fkRHOFBJXjm85l6DZG1-GRY0TN6xb4fd0riEe-Qs9xZ7t_38PGD1r1Ww=s2048?key=7LE3oBm5y_Q2w8Qv5o4NHULt"/></g><g id="a11y-g2e3e872469c_0_22" role="img" aria-label="Portfolio&#xa;" tabindex="0"><path fill="#000000" fill-opacity="0.0" d="m322.51968 458.5433l0 43.62204l314.9606 0l0 -43.62204z" fill-rule="nonzero"/></g><path fill="#000000" fill-opacity="0.0" d="m322.51968 458.5433l314.9606 0l0 43.62204l-314.9606 0z" fill-rule="evenodd"/><path fill="#eeeeee" d="m450.68945 472.46207q1.96875 0 3.125 1.0625q1.171875 1.0625 1.171875 3.15625q0 2.109375 -1.171875 3.171875q-1.15625 1.046875 -2.984375 1.046875l-4.59375 0l0 5.84375l-1.890625 0l0 -14.28125l6.34375 0zm-0.515625 6.84375q1.34375 0 2.125 -0.640625q0.78125 -0.640625 0.78125 -1.984375q0 -1.3125 -0.765625 -1.953125q-0.765625 -0.65625 -2.265625 -0.65625l-3.8125 0l0 5.234375l3.9375 0zm10.478516 -3.140625q2.34375 0 3.671875 1.515625q1.34375 1.515625 1.34375 3.90625q0 2.40625 -1.375 3.90625q-1.359375 1.5 -3.640625 1.5q-2.25 0 -3.640625 -1.46875q-1.390625 -1.484375 -1.390625 -3.9375q0 -2.46875 1.359375 -3.9375q1.359375 -1.484375 3.671875 -1.484375zm-3.234375 5.421875q0 1.78125 0.90625 2.84375q0.921875 1.046875 2.328125 1.046875q1.390625 0 2.296875 -1.0625q0.921875 -1.0625 0.921875 -2.828125q0 -1.765625 -0.90625 -2.84375q-0.90625 -1.078125 -2.34375 -1.078125q-1.359375 0 -2.28125 1.0625q-0.921875 1.046875 -0.921875 2.859375zm15.390625 -5.4375q0.0625 0 0.109375 0q0.046875 0 0.125 0.015625l0 1.796875q-1.90625 0 -2.828125 1.015625q-0.90625 1.015625 -0.90625 3.140625l0 4.625l-1.703125 0l0 -10.34375l1.609375 0l0 2.171875l0.03125 0q0.59375 -1.21875 1.46875 -1.8125q0.875 -0.609375 2.09375 -0.609375zm3.9765625 -2.84375l0 3.09375l2.0625 0l0 1.5l-2.0625 0l0 6.484375q0 0.765625 0.515625 0.8125q0.515625 0.046875 1.0625 0.046875l0.484375 0l0 1.5l-1.40625 0q-1.390625 0 -1.875 -0.5q-0.484375 -0.5 -0.484375 -1.671875l0 -6.671875l-1.765625 0l0 -1.5l1.765625 0l0 -3.09375l1.703125 0zm7.486328 -1.0q0.21875 0 0.5625 0.046875q0.34375 0.046875 0.546875 0.109375l0 1.484375q-0.1875 -0.078125 -0.484375 -0.109375q-0.28125 -0.03125 -0.46875 -0.03125q-0.71875 0 -1.015625 0.296875q-0.28125 0.28125 -0.28125 0.8125l0 1.484375l2.0 0l0 1.5l-2.0 0l0 8.84375l-1.703125 0l0 -8.84375l-1.734375 0l0 -1.5l1.734375 0l0 -1.609375q0 -1.140625 0.71875 -1.8125q0.71875 -0.671875 2.125 -0.671875zm6.8398438 3.859375q2.34375 0 3.671875 1.515625q1.34375 1.515625 1.34375 3.90625q0 2.40625 -1.375 3.90625q-1.359375 1.5 -3.640625 1.5q-2.25 0 -3.640625 -1.46875q-1.390625 -1.484375 -1.390625 -3.9375q0 -2.46875 1.359375 -3.9375q1.359375 -1.484375 3.671875 -1.484375zm-3.234375 5.421875q0 1.78125 0.90625 2.84375q0.921875 1.046875 2.328125 1.046875q1.390625 0 2.296875 -1.0625q0.921875 -1.0625 0.921875 -2.828125q0 -1.765625 -0.90625 -2.84375q-0.90625 -1.078125 -2.34375 -1.078125q-1.359375 0 -2.28125 1.0625q-0.921875 1.046875 -0.921875 2.859375zm12.046875 -9.125l0 14.28125l-1.703125 0l0 -14.28125l1.703125 0zm4.4433594 0l0 2.078125l-1.703125 0l0 -2.078125l1.703125 0zm0 3.9375l0 10.34375l-1.703125 0l0 -10.34375l1.703125 0zm7.1152344 -0.234375q2.34375 0 3.671875 1.515625q1.34375 1.515625 1.34375 3.90625q0 2.40625 -1.375 3.90625q-1.359375 1.5 -3.640625 1.5q-2.25 0 -3.640625 -1.46875q-1.390625 -1.484375 -1.390625 -3.9375q0 -2.46875 1.359375 -3.9375q1.359375 -1.484375 3.671875 -1.484375zm-3.234375 5.421875q0 1.78125 0.90625 2.84375q0.921875 1.046875 2.328125 1.046875q1.390625 0 2.296875 -1.0625q0.921875 -1.0625 0.921875 -2.828125q0 -1.765625 -0.90625 -2.84375q-0.90625 -1.078125 -2.34375 -1.078125q-1.359375 0 -2.28125 1.0625q-0.921875 1.046875 -0.921875 2.859375z" fill-rule="nonzero"/></g></g></svg>