<svg version="1.1" viewBox="0.0 0.0 960.0 540.0" fill="none" stroke="none" stroke-linecap="square" stroke-miterlimit="10" xmlns:xlink="http://www.w3.org/1999/xlink" xmlns="http://www.w3.org/2000/svg"><clipPath id="g2e3e872469c_0_55.0"><path d="m0 0l960.0 0l0 540.0l-960.0 0l0 -540.0z" clip-rule="nonzero"/></clipPath><g clip-path="url(#g2e3e872469c_0_55.0)"><g id="g2e3e872469c_0_55"><path fill="#ffffff" d="m0 0l960.0 0l0 540.0l-960.0 0l0 -540.0z" fill-rule="nonzero"/><path fill="#000000" d="m0 0l960.0 0l0 540.0l-960.0 0z" fill-rule="evenodd"/><g id="a11y-g2e3e872469c_0_56" role="img" aria-label="FULLDOME&#xa;" tabindex="0"><path fill="#000000" fill-opacity="0.0" d="m0 0l0 47.779526l222.31496 0l23.88977 -23.889763l-23.88977 -23.889763z" fill-rule="nonzero"/></g><path fill="#666666" d="m0 0l222.31496 0l23.88977 23.889763l-23.88977 23.889763l-222.31496 0z" fill-rule="evenodd"/><path stroke="#303030" stroke-width="1.0" stroke-linejoin="round" stroke-linecap="butt" d="m0 0l222.31496 0l23.88977 23.889763l-23.88977 23.889763l-222.31496 0z" fill-rule="evenodd"/><path fill="#000000" d="m67.866615 30.809761l0 -13.359375l9.015625 0l0 1.578125l-7.25 0l0 4.140625l6.265625 0l0 1.578125l-6.265625 0l0 6.0625l-1.765625 0zm20.067856 -13.359375l1.765625 0l0 7.71875q0 2.015625 -0.453125 3.203125q-0.453125 1.1875 -1.640625 1.9375q-1.1875 0.734375 -3.125 0.734375q-1.875 0 -3.078125 -0.640625q-1.1875 -0.65625 -1.703125 -1.875q-0.5 -1.234375 -0.5 -3.359375l0 -7.71875l1.765625 0l0 7.71875q0 1.734375 0.3125 2.5625q0.328125 0.8125 1.109375 1.265625q0.796875 0.453125 1.9375 0.453125q1.953125 0 2.78125 -0.890625q0.828125 -0.890625 0.828125 -3.390625l0 -7.71875zm4.629196 13.359375l0 -13.359375l1.78125 0l0 11.78125l6.5625 0l0 1.578125l-8.34375 0zm10.375717 0l0 -13.359375l1.78125 0l0 11.78125l6.5625 0l0 1.578125l-8.34375 0zm10.453842 0l0 -13.359375l4.609375 0q1.546875 0 2.375 0.203125q1.140625 0.25 1.953125 0.953125q1.0625 0.890625 1.578125 2.28125q0.53125 1.390625 0.53125 3.171875q0 1.515625 -0.359375 2.703125q-0.359375 1.171875 -0.921875 1.9375q-0.546875 0.765625 -1.203125 1.21875q-0.65625 0.4375 -1.59375 0.671875q-0.9375 0.21875 -2.140625 0.21875l-4.828125 0zm1.765625 -1.578125l2.859375 0q1.3125 0 2.0625 -0.234375q0.75 -0.25 1.203125 -0.703125q0.625 -0.625 0.96875 -1.6875q0.359375 -1.0625 0.359375 -2.578125q0 -2.09375 -0.6875 -3.21875q-0.6875 -1.125 -1.671875 -1.5q-0.703125 -0.28125 -2.28125 -0.28125l-2.8125 0l0 10.203125zm11.176071 -4.921875q0 -3.328125 1.7812576 -5.203125q1.78125 -1.890625 4.609375 -1.890625q1.84375 0 3.328125 0.890625q1.484375 0.875 2.265625 2.46875q0.78125 1.578125 0.78125 3.578125q0 2.03125 -0.828125 3.640625q-0.8125 1.59375 -2.3125 2.421875q-1.5 0.828125 -3.25 0.828125q-1.875 0 -3.359375 -0.90625q-1.4843826 -0.921875 -2.2500076 -2.5q-0.765625 -1.578125 -0.765625 -3.328125zm1.8125076 0.015625q0 2.421875 1.296875 3.8125q1.296875 1.390625 3.265625 1.390625q2.0 0 3.28125 -1.40625q1.28125 -1.40625 1.28125 -3.984375q0 -1.625 -0.546875 -2.84375q-0.546875 -1.21875 -1.609375 -1.875q-1.0625 -0.671875 -2.375 -0.671875q-1.890625 0 -3.25 1.296875q-1.34375 1.28125 -1.34375 4.28125zm13.183289 6.484375l0 -13.359375l2.65625 0l3.15625 9.453125q0.4375 1.328125 0.640625 1.984375q0.234375 -0.734375 0.703125 -2.140625l3.203125 -9.296875l2.375 0l0 13.359375l-1.703125 0l0 -11.171875l-3.875 11.171875l-1.59375 0l-3.859375 -11.375l0 11.375l-1.703125 0zm15.618927 0l0 -13.359375l9.65625 0l0 1.578125l-7.875 0l0 4.09375l7.375 0l0 1.5625l-7.375 0l0 4.546875l8.1875 0l0 1.578125l-9.96875 0z" fill-rule="nonzero"/><g id="a11y-g2e3e872469c_0_57" role="img" aria-label="Client: PI: Parque de la Innovación, Gobierno Ciudad de Buenos Aires&#xa;FULLDOME INTERACTIVE AI EXPERIENCE&#xa;&#xa;" tabindex="0"><path fill="#000000" fill-opacity="0.0" d="m185.93964 439.98688l0 94.6142l653.8268 0l0 -94.6142z" fill-rule="nonzero"/></g><path fill="#000000" fill-opacity="0.0" d="m185.93964 439.98688l653.8268 0l0 94.6142l-653.8268 0z" fill-rule="evenodd"/><path fill="#d9d9d9" d="m201.53339 452.955q2.0625 0 3.4375 1.078125q1.390625 1.0625 1.65625 2.953125l-1.640625 0q-0.265625 -1.28125 -1.1875 -1.953125q-0.921875 -0.6875 -2.28125 -0.6875q-1.953125 0 -3.078125 1.390625q-1.109375 1.390625 -1.109375 3.625q0 2.359375 1.09375 3.765625q1.09375 1.40625 3.109375 1.40625q1.515625 0 2.484375 -0.953125q0.96875 -0.96875 1.09375 -2.609375l1.640625 0q-0.265625 2.390625 -1.671875 3.671875q-1.390625 1.28125 -3.671875 1.28125q-2.65625 0 -4.1875 -1.75q-1.53125 -1.765625 -1.53125 -4.703125q0 -2.875 1.578125 -4.6875q1.578125 -1.828125 4.265625 -1.828125zm8.591949 0.296875l0 12.375l-1.484375 0l0 -12.375l1.484375 0zm3.849762 0l0 1.8125l-1.484375 0l0 -1.8125l1.484375 0zm0 3.421875l0 8.953125l-1.484375 0l0 -8.953125l1.484375 0zm6.006012 -0.203125q1.9375 0 3.0 1.390625q1.0625 1.375 1.0625 3.546875l0 0.1875l-6.703125 0l0 0.109375q0 1.28125 0.734375 2.0625q0.75 0.765625 2.046875 0.765625q0.984375 0 1.5625 -0.453125q0.578125 -0.453125 0.765625 -1.296875l1.453125 0q-0.296875 1.484375 -1.3125 2.28125q-1.0 0.78125 -2.515625 0.78125q-1.40625 0 -2.390625 -0.640625q-0.96875 -0.640625 -1.4375 -1.78125q-0.46875 -1.140625 -0.46875 -2.328125q0 -1.984375 1.1875 -3.296875q1.203125 -1.328125 3.015625 -1.328125zm-2.640625 3.8125l5.140625 0q-0.0625 -1.09375 -0.796875 -1.8125q-0.71875 -0.71875 -1.796875 -0.71875q-1.015625 0 -1.734375 0.6875q-0.71875 0.6875 -0.8125 1.84375zm12.572723 -3.8125q1.609375 0 2.34375 0.828125q0.734375 0.828125 0.734375 2.359375l0 5.96875l-1.46875 0l0 -6.125q0 -0.75 -0.5 -1.25q-0.484375 -0.5 -1.34375 -0.5q-1.234375 0 -1.9375 0.765625q-0.703125 0.765625 -0.703125 1.984375l0 5.125l-1.46875 0l0 -8.953125l1.390625 0l0 1.421875l0.03125 0q0.484375 -0.84375 1.203125 -1.234375q0.71875 -0.390625 1.71875 -0.390625zm7.34021 -2.484375l0 2.6875l1.78125 0l0 1.296875l-1.78125 0l0 5.609375q0 0.671875 0.4375 0.71875q0.453125 0.03125 0.9375 0.03125l0.40625 0l0 1.296875l-1.21875 0q-1.203125 0 -1.625 -0.421875q-0.40625 -0.4375 -0.40625 -1.453125l0 -5.78125l-1.53125 0l0 -1.296875l1.53125 0l0 -2.6875l1.46875 0zm5.6604767 2.6875l0 1.921875l-1.921875 0l0 -1.921875l1.921875 0zm0 7.03125l0 1.921875l-1.921875 0l0 -1.921875l1.921875 0zm13.128616 -10.453125q1.6875 0 2.6875 0.921875q1.015625 0.921875 1.015625 2.734375q0 1.828125 -1.015625 2.75q-1.0 0.90625 -2.578125 0.90625l-3.9687347 0l0 5.0625l-1.640625 0l0 -12.375l5.4999847 0zm-0.46873474 5.921875q1.1874847 0 1.8593597 -0.546875q0.671875 -0.5625 0.671875 -1.71875q0 -1.140625 -0.671875 -1.703125q-0.65625 -0.5625 -1.9531097 -0.5625l-3.296875 0l0 4.53125l3.390625 0zm7.8996124 -5.921875l0 12.375l-1.640625 0l0 -12.375l1.640625 0zm4.7812195 3.421875l0 1.921875l-1.921875 0l0 -1.921875l1.921875 0zm0 7.03125l0 1.921875l-1.921875 0l0 -1.921875l1.921875 0zm13.128632 -10.453125q1.6875 0 2.6875 0.921875q1.015625 0.921875 1.015625 2.734375q0 1.828125 -1.015625 2.75q-1.0 0.90625 -2.578125 0.90625l-3.96875 0l0 5.0625l-1.640625 0l0 -12.375l5.5 0zm-0.46875 5.921875q1.1875 0 1.859375 -0.546875q0.671875 -0.5625 0.671875 -1.71875q0 -1.140625 -0.671875 -1.703125q-0.65625 -0.5625 -1.953125 -0.5625l-3.296875 0l0 4.53125l3.390625 0zm9.086456 -2.703125q1.828125 0 2.59375 0.65625q0.765625 0.640625 0.765625 1.734375q0 4.65625 0 5.171875q0 0.5 0.46875 0.5q0.109375 0 0.21875 -0.015625q0.125 -0.03125 0.234375 -0.0625l0 1.140625q-0.203125 0.109375 -0.46875 0.171875q-0.265625 0.078125 -0.578125 0.078125q-0.609375 0 -0.9375 -0.34375q-0.3125 -0.34375 -0.3125 -1.046875q-0.59375 0.6875 -1.390625 1.046875q-0.796875 0.34375 -1.765625 0.34375q-1.390625 0 -2.1875 -0.65625q-0.78125 -0.65625 -0.78125 -1.859375q0 -1.21875 0.765625 -1.921875q0.78125 -0.703125 3.625 -1.0625q0.96875 -0.125 1.3125 -0.359375q0.34375 -0.25 0.34375 -0.75q0 -0.734375 -0.484375 -1.109375q-0.46875 -0.375 -1.515625 -0.375q-1.09375 0 -1.640625 0.421875q-0.546875 0.40625 -0.59375 1.28125l-1.46875 0q0.078125 -1.484375 1.046875 -2.234375q0.984375 -0.75 2.75 -0.75zm-2.578125 6.75q0 0.625 0.453125 0.96875q0.453125 0.34375 1.28125 0.34375q1.234375 0 1.984375 -0.609375q0.75 -0.625 0.75 -1.390625l0 -1.53125q-0.375 0.265625 -0.96875 0.359375q-0.59375 0.078125 -1.578125 0.21875q-0.984375 0.140625 -1.453125 0.53125q-0.46875 0.390625 -0.46875 1.109375zm12.682098 -6.765625q0.0625 0 0.09375 0q0.046875 0 0.109375 0.015625l0 1.546875q-1.65625 0 -2.453125 0.890625q-0.78125 0.875 -0.78125 2.703125l0 4.015625l-1.46875 0l0 -8.953125l1.375 0l0 1.875l0.046875 0q0.515625 -1.0625 1.265625 -1.578125q0.765625 -0.515625 1.8125 -0.515625zm4.59787 0.015625q0.875 0 1.671875 0.359375q0.796875 0.34375 1.234375 1.03125l0.03125 0l0 -1.1875l1.46875 0l0 12.390625l-1.46875 0l0 -4.640625l-0.03125 0q-0.34375 0.6875 -1.109375 1.0625q-0.75 0.359375 -1.75 0.359375q-1.875 0 -3.0 -1.296875q-1.125 -1.3125 -1.125 -3.421875q0 -2.078125 1.09375 -3.359375q1.09375 -1.296875 2.984375 -1.296875zm-2.515625 4.75q0 1.4375 0.75 2.375q0.75 0.9375 2.015625 0.9375q1.3125 0 2.015625 -0.9375q0.71875 -0.9375 0.71875 -2.4375q0 -1.53125 -0.734375 -2.46875q-0.734375 -0.9375 -2.109375 -0.9375q-1.265625 0 -1.96875 0.9375q-0.6875 0.921875 -0.6875 2.53125zm10.6622925 -4.546875l0 6.109375q0 0.75 0.484375 1.25q0.484375 0.5 1.34375 0.5q1.265625 0 1.953125 -0.765625q0.703125 -0.78125 0.703125 -1.984375l0 -5.109375l1.46875 0l0 8.953125l-1.390625 0l0 -1.421875l-0.03125 0q-0.5 0.859375 -1.234375 1.25q-0.734375 0.390625 -1.6875 0.390625q-1.5625 0 -2.328125 -0.8125q-0.75 -0.8125 -0.75 -2.390625l0 -5.96875l1.46875 0zm11.887085 -0.203125q1.9375 0 3.0 1.390625q1.0625 1.375 1.0625 3.546875l0 0.1875l-6.703125 0l0 0.109375q0 1.28125 0.734375 2.0625q0.75 0.765625 2.046875 0.765625q0.984375 0 1.5625 -0.453125q0.578125 -0.453125 0.765625 -1.296875l1.453125 0q-0.296875 1.484375 -1.3125 2.28125q-1.0 0.78125 -2.515625 0.78125q-1.40625 0 -2.390625 -0.640625q-0.96875 -0.640625 -1.4375 -1.78125q-0.46875 -1.140625 -0.46875 -2.328125q0 -1.984375 1.1875 -3.296875q1.203125 -1.328125 3.015625 -1.328125zm-2.640625 3.8125l5.140625 0q-0.0625 -1.09375 -0.796875 -1.8125q-0.71875 -0.71875 -1.796875 -0.71875q-1.015625 0 -1.734375 0.6875q-0.71875 0.6875 -0.8125 1.84375zm21.043274 -7.03125l0 12.375l-1.46875 0l0 -1.203125l-0.03125 0q-0.34375 0.6875 -1.109375 1.0625q-0.75 0.359375 -1.75 0.359375q-1.875 0 -3.0 -1.296875q-1.125 -1.3125 -1.125 -3.421875q0 -2.078125 1.078125 -3.359375q1.09375 -1.296875 3.0 -1.296875q0.875 0 1.671875 0.359375q0.796875 0.34375 1.234375 1.03125l0.03125 0l0 -4.609375l1.46875 0zm-6.921875 7.96875q0 1.4375 0.75 2.375q0.75 0.9375 2.015625 0.9375q1.3125 0 2.015625 -0.9375q0.71875 -0.9375 0.71875 -2.4375q0 -1.53125 -0.734375 -2.46875q-0.734375 -0.9375 -2.109375 -0.9375q-1.265625 0 -1.96875 0.9375q-0.6875 0.921875 -0.6875 2.53125zm12.9122925 -4.75q1.9375 0 3.0 1.390625q1.0625 1.375 1.0625 3.546875l0 0.1875l-6.703125 0l0 0.109375q0 1.28125 0.734375 2.0625q0.75 0.765625 2.046875 0.765625q0.984375 0 1.5625 -0.453125q0.578125 -0.453125 0.765625 -1.296875l1.453125 0q-0.296875 1.484375 -1.3125 2.28125q-1.0 0.78125 -2.515625 0.78125q-1.40625 0 -2.390625 -0.640625q-0.96875 -0.640625 -1.4375 -1.78125q-0.46875 -1.140625 -0.46875 -2.328125q0 -1.984375 1.1875 -3.296875q1.203125 -1.328125 3.015625 -1.328125zm-2.640625 3.8125l5.140625 0q-0.0625 -1.09375 -0.796875 -1.8125q-0.71875 -0.71875 -1.796875 -0.71875q-1.015625 0 -1.734375 0.6875q-0.71875 0.6875 -0.8125 1.84375zm14.605774 -7.03125l0 12.375l-1.484375 0l0 -12.375l1.484375 0zm5.943512 3.21875q1.828125 0 2.59375 0.65625q0.765625 0.640625 0.765625 1.734375q0 4.65625 0 5.171875q0 0.5 0.46875 0.5q0.109375 0 0.21875 -0.015625q0.125 -0.03125 0.234375 -0.0625l0 1.140625q-0.203125 0.109375 -0.46875 0.171875q-0.265625 0.078125 -0.578125 0.078125q-0.609375 0 -0.9375 -0.34375q-0.3125 -0.34375 -0.3125 -1.046875q-0.59375 0.6875 -1.390625 1.046875q-0.796875 0.34375 -1.765625 0.34375q-1.390625 0 -2.1875 -0.65625q-0.78125 -0.65625 -0.78125 -1.859375q0 -1.21875 0.765625 -1.921875q0.78125 -0.703125 3.625 -1.0625q0.96875 -0.125 1.3125 -0.359375q0.34375 -0.25 0.34375 -0.75q0 -0.734375 -0.484375 -1.109375q-0.46875 -0.375 -1.515625 -0.375q-1.09375 0 -1.640625 0.421875q-0.546875 0.40625 -0.59375 1.28125l-1.46875 0q0.078125 -1.484375 1.046875 -2.234375q0.984375 -0.75 2.75 -0.75zm-2.578125 6.75q0 0.625 0.453125 0.96875q0.453125 0.34375 1.28125 0.34375q1.234375 0 1.984375 -0.609375q0.75 -0.625 0.75 -1.390625l0 -1.53125q-0.375 0.265625 -0.96875 0.359375q-0.59375 0.078125 -1.578125 0.21875q-0.984375 0.140625 -1.453125 0.53125q-0.46875 0.390625 -0.46875 1.109375zm14.996429 -9.96875l0 12.375l-1.640625 0l0 -12.375l1.640625 0zm6.874939 3.21875q1.609375 0 2.34375 0.828125q0.734375 0.828125 0.734375 2.359375l0 5.96875l-1.46875 0l0 -6.125q0 -0.75 -0.5 -1.25q-0.484375 -0.5 -1.34375 -0.5q-1.234375 0 -1.9375 0.765625q-0.703125 0.765625 -0.703125 1.984375l0 5.125l-1.46875 0l0 -8.953125l1.390625 0l0 1.421875l0.03125 0q0.484375 -0.84375 1.203125 -1.234375q0.71875 -0.390625 1.71875 -0.390625zm9.637085 0q1.609375 0 2.34375 0.828125q0.734375 0.828125 0.734375 2.359375l0 5.96875l-1.46875 0l0 -6.125q0 -0.75 -0.5 -1.25q-0.484375 -0.5 -1.34375 -0.5q-1.234375 0 -1.9375 0.765625q-0.703125 0.765625 -0.703125 1.984375l0 5.125l-1.46875 0l0 -8.953125l1.390625 0l0 1.421875l0.03125 0q0.484375 -0.84375 1.203125 -1.234375q0.71875 -0.390625 1.71875 -0.390625zm9.15271 0q2.03125 0 3.1875 1.3125q1.171875 1.296875 1.171875 3.375q0 2.09375 -1.1875 3.390625q-1.1875 1.296875 -3.171875 1.296875q-1.9375 0 -3.140625 -1.265625q-1.203125 -1.28125 -1.203125 -3.421875q0 -2.125 1.171875 -3.40625q1.1875 -1.28125 3.171875 -1.28125zm-2.78125 4.6875q0 1.546875 0.78125 2.46875q0.78125 0.90625 2.0 0.90625q1.21875 0 2.0 -0.921875q0.796875 -0.921875 0.796875 -2.453125q0 -1.53125 -0.796875 -2.46875q-0.78125 -0.9375 -2.015625 -0.9375q-1.171875 0 -1.96875 0.921875q-0.796875 0.921875 -0.796875 2.484375zm9.653259 -4.484375l2.515625 7.46875l0.03125 0l2.4375 -7.46875l1.546875 0l-3.28125 8.953125l-1.5625 0l-3.328125 -8.953125l1.640625 0zm11.5390625 -0.203125q1.828125 0 2.59375 0.65625q0.765625 0.640625 0.765625 1.734375q0 4.65625 0 5.171875q0 0.5 0.46875 0.5q0.109375 0 0.21875 -0.015625q0.125 -0.03125 0.234375 -0.0625l0 1.140625q-0.203125 0.109375 -0.46875 0.171875q-0.265625 0.078125 -0.578125 0.078125q-0.609375 0 -0.9375 -0.34375q-0.3125 -0.34375 -0.3125 -1.046875q-0.59375 0.6875 -1.390625 1.046875q-0.796875 0.34375 -1.765625 0.34375q-1.390625 0 -2.1875 -0.65625q-0.78125 -0.65625 -0.78125 -1.859375q0 -1.21875 0.765625 -1.921875q0.78125 -0.703125 3.625 -1.0625q0.96875 -0.125 1.3125 -0.359375q0.34375 -0.25 0.34375 -0.75q0 -0.734375 -0.484375 -1.109375q-0.46875 -0.375 -1.515625 -0.375q-1.09375 0 -1.640625 0.421875q-0.546875 0.40625 -0.59375 1.28125l-1.46875 0q0.078125 -1.484375 1.046875 -2.234375q0.984375 -0.75 2.75 -0.75zm-2.578125 6.75q0 0.625 0.453125 0.96875q0.453125 0.34375 1.28125 0.34375q1.234375 0 1.984375 -0.609375q0.75 -0.625 0.75 -1.390625l0 -1.53125q-0.375 0.265625 -0.96875 0.359375q-0.59375 0.078125 -1.578125 0.21875q-0.984375 0.140625 -1.453125 0.53125q-0.46875 0.390625 -0.46875 1.109375zm11.963348 -6.75q1.640625 0 2.65625 0.78125q1.03125 0.765625 1.21875 2.296875l-1.53125 0q-0.171875 -0.875 -0.75 -1.328125q-0.578125 -0.46875 -1.46875 -0.46875q-1.359375 0 -2.078125 0.921875q-0.703125 0.921875 -0.703125 2.59375q0 1.484375 0.703125 2.375q0.703125 0.890625 1.90625 0.890625q1.078125 0 1.6875 -0.578125q0.625 -0.578125 0.78125 -1.609375l1.5 0q-0.25 1.6875 -1.265625 2.59375q-1.015625 0.90625 -2.6875 0.90625q-1.953125 0 -3.078125 -1.234375q-1.109375 -1.234375 -1.109375 -3.34375q0 -2.203125 1.125 -3.5q1.140625 -1.296875 3.09375 -1.296875zm7.1352234 -3.21875l0 1.8125l-1.484375 0l0 -1.8125l1.484375 0zm0 3.421875l0 8.953125l-1.484375 0l0 -8.953125l1.484375 0zm6.146637 -0.203125q2.03125 0 3.1875 1.3125q1.171875 1.296875 1.171875 3.375q0 2.09375 -1.1875 3.390625q-1.1875 1.296875 -3.171875 1.296875q-1.9375 0 -3.140625 -1.265625q-1.203125 -1.28125 -1.203125 -3.421875q0 -2.125 1.171875 -3.40625q1.1875 -1.28125 3.171875 -1.28125zm-2.78125 4.6875q0 1.546875 0.78125 2.46875q0.78125 0.90625 2.0 0.90625q1.21875 0 2.0 -0.921875q0.796875 -0.921875 0.796875 -2.453125q0 -1.53125 -0.796875 -2.46875q-0.78125 -0.9375 -2.015625 -0.9375q-1.171875 0 -1.96875 0.921875q-0.796875 0.921875 -0.796875 2.484375zm5.359375 -8.21875l-2.28125 2.484375l-1.109375 0l1.5 -2.484375l1.890625 0zm7.8563843 3.53125q1.609375 0 2.34375 0.828125q0.734375 0.828125 0.734375 2.359375l0 5.96875l-1.46875 0l0 -6.125q0 -0.75 -0.5 -1.25q-0.484375 -0.5 -1.34375 -0.5q-1.234375 0 -1.9375 0.765625q-0.703125 0.765625 -0.703125 1.984375l0 5.125l-1.46875 0l0 -8.953125l1.390625 0l0 1.421875l0.03125 0q0.484375 -0.84375 1.203125 -1.234375q0.71875 -0.390625 1.71875 -0.390625zm7.543335 7.234375l0 1.84375q0 0.953125 -0.46875 1.640625q-0.46875 0.6875 -1.4375 0.984375l0 -0.859375q0.453125 -0.171875 0.734375 -0.59375q0.28125 -0.421875 0.28125 -1.0l0 -0.09375l-1.03125 0l0 -1.921875l1.921875 0zm12.909912 -10.75q2.1875 0 3.59375 1.0625q1.40625 1.046875 1.71875 3.046875l-1.640625 0q-0.25 -1.3125 -1.21875 -2.015625q-0.953125 -0.703125 -2.453125 -0.703125q-1.984375 0 -3.125 1.46875q-1.125 1.46875 -1.125 3.78125q0 2.125 1.171875 3.53125q1.171875 1.40625 3.078125 1.40625q1.765625 0 2.859375 -1.0625q1.109375 -1.078125 1.109375 -2.78125l0 -0.1875l-3.953125 0l0 -1.390625l5.421875 0l0 6.515625l-1.03125 0l-0.4375 -1.546875q-0.671875 0.890625 -1.71875 1.375q-1.046875 0.46875 -2.25 0.46875q-2.53125 0 -4.21875 -1.8125q-1.671875 -1.8125 -1.671875 -4.4375q0 -2.921875 1.578125 -4.8125q1.59375 -1.90625 4.3125 -1.90625zm11.476501 3.515625q2.03125 0 3.1875 1.3125q1.171875 1.296875 1.171875 3.375q0 2.09375 -1.1875 3.390625q-1.1875 1.296875 -3.171875 1.296875q-1.9375 0 -3.140625 -1.265625q-1.203125 -1.28125 -1.203125 -3.421875q0 -2.125 1.171875 -3.40625q1.1875 -1.28125 3.171875 -1.28125zm-2.78125 4.6875q0 1.546875 0.78125 2.46875q0.78125 0.90625 2.0 0.90625q1.21875 0 2.0 -0.921875q0.796875 -0.921875 0.796875 -2.453125q0 -1.53125 -0.796875 -2.46875q-0.78125 -0.9375 -2.015625 -0.9375q-1.171875 0 -1.96875 0.921875q-0.796875 0.921875 -0.796875 2.484375zm10.387634 -7.90625l0 4.640625l0.046875 0q0.34375 -0.703125 1.078125 -1.0625q0.75 -0.359375 1.78125 -0.359375q1.921875 0 3.015625 1.328125q1.109375 1.3125 1.109375 3.375q0 2.078125 -1.109375 3.375q-1.09375 1.296875 -2.984375 1.296875q-0.828125 0 -1.640625 -0.34375q-0.796875 -0.359375 -1.25 -1.0625l-0.046875 0l0 1.1875l-1.46875 0l0 -12.375l1.46875 0zm-0.046875 7.890625q0 1.5625 0.75 2.484375q0.765625 0.90625 2.078125 0.90625q1.28125 0 1.984375 -0.90625q0.703125 -0.921875 0.703125 -2.546875q0 -1.453125 -0.75 -2.390625q-0.734375 -0.9375 -2.03125 -0.9375q-1.296875 0 -2.015625 0.953125q-0.71875 0.953125 -0.71875 2.4375zm10.3654175 -7.890625l0 1.8125l-1.484375 0l0 -1.8125l1.484375 0zm0 3.421875l0 8.953125l-1.484375 0l0 -8.953125l1.484375 0zm6.0059814 -0.203125q1.9375 0 3.0 1.390625q1.0625 1.375 1.0625 3.546875l0 0.1875l-6.7030945 0l0 0.109375q0 1.28125 0.734375 2.0625q0.75 0.765625 2.0468445 0.765625q0.984375 0 1.5625 -0.453125q0.578125 -0.453125 0.765625 -1.296875l1.453125 0q-0.296875 1.484375 -1.3125 2.28125q-1.0 0.78125 -2.515625 0.78125q-1.4062195 0 -2.3905945 -0.640625q-0.96875 -0.640625 -1.4375 -1.78125q-0.46875 -1.140625 -0.46875 -2.328125q0 -1.984375 1.1875 -3.296875q1.203125 -1.328125 3.0155945 -1.328125zm-2.6405945 3.8125l5.1405945 0q-0.0625 -1.09375 -0.796875 -1.8125q-0.71875 -0.71875 -1.796875 -0.71875q-1.0155945 0 -1.7343445 0.6875q-0.71875 0.6875 -0.8125 1.84375zm12.682098 -3.828125q0.0625 0 0.09375 0q0.046875 0 0.109375 0.015625l0 1.546875q-1.65625 0 -2.453125 0.890625q-0.78125 0.875 -0.78125 2.703125l0 4.015625l-1.46875 0l0 -8.953125l1.375 0l0 1.875l0.046875 0q0.515625 -1.0625 1.265625 -1.578125q0.765625 -0.515625 1.8125 -0.515625zm5.6610107 0.015625q1.609375 0 2.34375 0.828125q0.734375 0.828125 0.734375 2.359375l0 5.96875l-1.46875 0l0 -6.125q0 -0.75 -0.5 -1.25q-0.484375 -0.5 -1.34375 -0.5q-1.234375 0 -1.9375 0.765625q-0.703125 0.765625 -0.703125 1.984375l0 5.125l-1.46875 0l0 -8.953125l1.390625 0l0 1.421875l0.03125 0q0.484375 -0.84375 1.203125 -1.234375q0.71875 -0.390625 1.71875 -0.390625zm9.15271 0q2.03125 0 3.1875 1.3125q1.171875 1.296875 1.171875 3.375q0 2.09375 -1.1875 3.390625q-1.1875 1.296875 -3.171875 1.296875q-1.9375 0 -3.140625 -1.265625q-1.203125 -1.28125 -1.203125 -3.421875q0 -2.125 1.171875 -3.40625q1.1875 -1.28125 3.171875 -1.28125zm-2.78125 4.6875q0 1.546875 0.78125 2.46875q0.78125 0.90625 2.0 0.90625q1.21875 0 2.0 -0.921875q0.796875 -0.921875 0.796875 -2.453125q0 -1.53125 -0.796875 -2.46875q-0.78125 -0.9375 -2.015625 -0.9375q-1.171875 0 -1.96875 0.921875q-0.796875 0.921875 -0.796875 2.484375zm19.170715 -8.203125q2.0625 0 3.4375 1.078125q1.390625 1.0625 1.65625 2.953125l-1.640625 0q-0.265625 -1.28125 -1.1875 -1.953125q-0.921875 -0.6875 -2.28125 -0.6875q-1.953125 0 -3.078125 1.390625q-1.109375 1.390625 -1.109375 3.625q0 2.359375 1.09375 3.765625q1.09375 1.40625 3.109375 1.40625q1.515625 0 2.484375 -0.953125q0.96875 -0.96875 1.09375 -2.609375l1.640625 0q-0.265625 2.390625 -1.671875 3.671875q-1.390625 1.28125 -3.671875 1.28125q-2.65625 0 -4.1875 -1.75q-1.53125 -1.765625 -1.53125 -4.703125q0 -2.875 1.578125 -4.6875q1.578125 -1.828125 4.265625 -1.828125zm8.591919 0.296875l0 1.8125l-1.484375 0l0 -1.8125l1.484375 0zm0 3.421875l0 8.953125l-1.484375 0l0 -8.953125l1.484375 0zm3.7560425 0l0 6.109375q0 0.75 0.484375 1.25q0.484375 0.5 1.34375 0.5q1.265625 0 1.953125 -0.765625q0.703125 -0.78125 0.703125 -1.984375l0 -5.109375l1.46875 0l0 8.953125l-1.390625 0l0 -1.421875l-0.03125 0q-0.5 0.859375 -1.234375 1.25q-0.734375 0.390625 -1.6875 0.390625q-1.5625 0 -2.328125 -0.8125q-0.75 -0.8125 -0.75 -2.390625l0 -5.96875l1.46875 0zm16.168335 -3.421875l0 12.375l-1.46875 0l0 -1.203125l-0.03125 0q-0.34375 0.6875 -1.109375 1.0625q-0.75 0.359375 -1.75 0.359375q-1.875 0 -3.0 -1.296875q-1.125 -1.3125 -1.125 -3.421875q0 -2.078125 1.078125 -3.359375q1.09375 -1.296875 3.0 -1.296875q0.875 0 1.671875 0.359375q0.796875 0.34375 1.234375 1.03125l0.03125 0l0 -4.609375l1.46875 0zm-6.921875 7.96875q0 1.4375 0.75 2.375q0.75 0.9375 2.015625 0.9375q1.3125 0 2.015625 -0.9375q0.71875 -0.9375 0.71875 -2.4375q0 -1.53125 -0.734375 -2.46875q-0.734375 -0.9375 -2.109375 -0.9375q-1.265625 0 -1.96875 0.9375q-0.6875 0.921875 -0.6875 2.53125zm12.8497925 -4.75q1.828125 0 2.59375 0.65625q0.765625 0.640625 0.765625 1.734375q0 4.65625 0 5.171875q0 0.5 0.46875 0.5q0.109375 0 0.21875 -0.015625q0.125 -0.03125 0.234375 -0.0625l0 1.140625q-0.203125 0.109375 -0.46875 0.171875q-0.265625 0.078125 -0.578125 0.078125q-0.609375 0 -0.9375 -0.34375q-0.3125 -0.34375 -0.3125 -1.046875q-0.59375 0.6875 -1.390625 1.046875q-0.796875 0.34375 -1.765625 0.34375q-1.390625 0 -2.1875 -0.65625q-0.78125 -0.65625 -0.78125 -1.859375q0 -1.21875 0.765625 -1.921875q0.78125 -0.703125 3.625 -1.0625q0.96875 -0.125 1.3125 -0.359375q0.34375 -0.25 0.34375 -0.75q0 -0.734375 -0.484375 -1.109375q-0.46875 -0.375 -1.515625 -0.375q-1.09375 0 -1.640625 0.421875q-0.546875 0.40625 -0.59375 1.28125l-1.46875 0q0.078125 -1.484375 1.046875 -2.234375q0.984375 -0.75 2.75 -0.75zm-2.578125 6.75q0 0.625 0.453125 0.96875q0.453125 0.34375 1.28125 0.34375q1.234375 0 1.984375 -0.609375q0.75 -0.625 0.75 -1.390625l0 -1.53125q-0.375 0.265625 -0.96875 0.359375q-0.59375 0.078125 -1.578125 0.21875q-0.984375 0.140625 -1.453125 0.53125q-0.46875 0.390625 -0.46875 1.109375zm16.228943 -9.96875l0 12.375l-1.46875 0l0 -1.203125l-0.03125 0q-0.34375 0.6875 -1.109375 1.0625q-0.75 0.359375 -1.75 0.359375q-1.875 0 -3.0 -1.296875q-1.125 -1.3125 -1.125 -3.421875q0 -2.078125 1.078125 -3.359375q1.09375 -1.296875 3.0 -1.296875q0.875 0 1.671875 0.359375q0.796875 0.34375 1.234375 1.03125l0.03125 0l0 -4.609375l1.46875 0zm-6.921875 7.96875q0 1.4375 0.75 2.375q0.75 0.9375 2.015625 0.9375q1.3125 0 2.015625 -0.9375q0.71875 -0.9375 0.71875 -2.4375q0 -1.53125 -0.734375 -2.46875q-0.734375 -0.9375 -2.109375 -0.9375q-1.265625 0 -1.96875 0.9375q-0.6875 0.921875 -0.6875 2.53125zm22.007874 -7.96875l0 12.375l-1.46875 0l0 -1.203125l-0.03125 0q-0.34375 0.6875 -1.109375 1.0625q-0.75 0.359375 -1.75 0.359375q-1.875 0 -3.0 -1.296875q-1.125 -1.3125 -1.125 -3.421875q0 -2.078125 1.078125 -3.359375q1.09375 -1.296875 3.0 -1.296875q0.875 0 1.671875 0.359375q0.796875 0.34375 1.234375 1.03125l0.03125 0l0 -4.609375l1.46875 0zm-6.921875 7.96875q0 1.4375 0.75 2.375q0.75 0.9375 2.015625 0.9375q1.3125 0 2.015625 -0.9375q0.71875 -0.9375 0.71875 -2.4375q0 -1.53125 -0.734375 -2.46875q-0.734375 -0.9375 -2.109375 -0.9375q-1.265625 0 -1.96875 0.9375q-0.6875 0.921875 -0.6875 2.53125zm12.9122925 -4.75q1.9375 0 3.0 1.390625q1.0625 1.375 1.0625 3.546875l0 0.1875l-6.703125 0l0 0.109375q0 1.28125 0.734375 2.0625q0.75 0.765625 2.046875 0.765625q0.984375 0 1.5625 -0.453125q0.578125 -0.453125 0.765625 -1.296875l1.453125 0q-0.296875 1.484375 -1.3125 2.28125q-1.0 0.78125 -2.515625 0.78125q-1.40625 0 -2.390625 -0.640625q-0.96875 -0.640625 -1.4375 -1.78125q-0.46875 -1.140625 -0.46875 -2.328125q0 -1.984375 1.1875 -3.296875q1.203125 -1.328125 3.015625 -1.328125zm-2.640625 3.8125l5.140625 0q-0.0625 -1.09375 -0.796875 -1.8125q-0.71875 -0.71875 -1.796875 -0.71875q-1.015625 0 -1.734375 0.6875q-0.71875 0.6875 -0.8125 1.84375zm18.574524 -7.03125q2.28125 0 3.09375 0.9375q0.828125 0.921875 0.828125 2.09375q0 0.984375 -0.484375 1.703125q-0.46875 0.71875 -1.34375 1.078125l0 0.03125q1.140625 0.25 1.75 1.046875q0.609375 0.78125 0.609375 1.9375q0 1.5 -1.0625 2.53125q-1.046875 1.015625 -2.640625 1.015625l-6.03125 0l0 -12.375l5.28125 0zm-0.265625 5.3125q1.234375 0 1.890625 -0.453125q0.65625 -0.46875 0.65625 -1.515625q0 -0.984375 -0.546875 -1.46875q-0.546875 -0.484375 -1.984375 -0.484375l-3.390625 0l0 3.921875l3.375 0zm0.8125 5.671875q1.0 0 1.625 -0.59375q0.625 -0.59375 0.625 -1.625q0 -1.03125 -0.71875 -1.546875q-0.703125 -0.515625 -2.03125 -0.515625l-3.6875 0l0 4.28125l4.1875 0zm7.2614136 -7.5625l0 6.109375q0 0.75 0.484375 1.25q0.484375 0.5 1.34375 0.5q1.265625 0 1.953125 -0.765625q0.703125 -0.78125 0.703125 -1.984375l0 -5.109375l1.46875 0l0 8.953125l-1.390625 0l0 -1.421875l-0.03125 0q-0.5 0.859375 -1.234375 1.25q-0.734375 0.390625 -1.6875 0.390625q-1.5625 0 -2.328125 -0.8125q-0.75 -0.8125 -0.75 -2.390625l0 -5.96875l1.46875 0zm11.887085 -0.203125q1.9375 0 3.0 1.390625q1.0625 1.375 1.0625 3.546875l0 0.1875l-6.703125 0l0 0.109375q0 1.28125 0.734375 2.0625q0.75 0.765625 2.046875 0.765625q0.984375 0 1.5625 -0.453125q0.578125 -0.453125 0.765625 -1.296875l1.453125 0q-0.296875 1.484375 -1.3125 2.28125q-1.0 0.78125 -2.515625 0.78125q-1.40625 0 -2.390625 -0.640625q-0.96875 -0.640625 -1.4375 -1.78125q-0.46875 -1.140625 -0.46875 -2.328125q0 -1.984375 1.1875 -3.296875q1.203125 -1.328125 3.015625 -1.328125zm-2.640625 3.8125l5.140625 0q-0.0625 -1.09375 -0.796875 -1.8125q-0.71875 -0.71875 -1.796875 -0.71875q-1.015625 0 -1.734375 0.6875q-0.71875 0.6875 -0.8125 1.84375zm12.572693 -3.8125q1.609375 0 2.34375 0.828125q0.734375 0.828125 0.734375 2.359375l0 5.96875l-1.46875 0l0 -6.125q0 -0.75 -0.5 -1.25q-0.484375 -0.5 -1.34375 -0.5q-1.234375 0 -1.9375 0.765625q-0.703125 0.765625 -0.703125 1.984375l0 5.125l-1.46875 0l0 -8.953125l1.390625 0l0 1.421875l0.03125 0q0.484375 -0.84375 1.203125 -1.234375q0.71875 -0.390625 1.71875 -0.390625zm9.15271 0q2.03125 0 3.1875 1.3125q1.171875 1.296875 1.171875 3.375q0 2.09375 -1.1875 3.390625q-1.1875 1.296875 -3.171875 1.296875q-1.9375 0 -3.140625 -1.265625q-1.203125 -1.28125 -1.203125 -3.421875q0 -2.125 1.171875 -3.40625q1.1875 -1.28125 3.171875 -1.28125zm-2.78125 4.6875q0 1.546875 0.78125 2.46875q0.78125 0.90625 2.0 0.90625q1.21875 0 2.0 -0.921875q0.796875 -0.921875 0.796875 -2.453125q0 -1.53125 -0.796875 -2.46875q-0.78125 -0.9375 -2.015625 -0.9375q-1.171875 0 -1.96875 0.921875q-0.796875 0.921875 -0.796875 2.484375zm11.856384 -4.6875q1.796875 0 2.671875 0.703125q0.890625 0.6875 0.96875 2.09375l-1.46875 0l0 -0.015625q-0.0625 -0.71875 -0.625 -1.109375q-0.5625 -0.390625 -1.4375 -0.390625q-0.890625 0 -1.40625 0.3125q-0.515625 0.296875 -0.515625 0.84375q0 0.484375 0.453125 0.796875q0.453125 0.3125 1.375 0.5l1.375 0.3125q1.3125 0.296875 1.984375 0.890625q0.671875 0.59375 0.671875 1.609375q0 1.3125 -1.03125 2.078125q-1.015625 0.75 -2.78125 0.75q-1.71875 0 -2.734375 -0.765625q-1.0 -0.78125 -1.0625 -2.28125l1.484375 0q0.03125 0.84375 0.65625 1.296875q0.640625 0.4375 1.75 0.4375q1.0625 0 1.609375 -0.328125q0.546875 -0.34375 0.546875 -1.0q0 -0.609375 -0.546875 -0.953125q-0.546875 -0.359375 -2.234375 -0.6875q-1.6875 -0.34375 -2.375 -0.9375q-0.6875 -0.609375 -0.6875 -1.609375q0 -1.1875 0.953125 -1.859375q0.953125 -0.6875 2.40625 -0.6875zm15.915894 -3.21875l4.828125 12.375l-1.8125 0l-1.34375 -3.71875l-5.234375 0l-1.390625 3.71875l-1.703125 0l4.84375 -12.375l1.8125 0zm-0.953125 1.5l-2.09375 5.765625l4.1875 0l-2.046875 -5.765625l-0.046875 0zm8.321472 -1.5l0 1.8125l-1.484375 0l0 -1.8125l1.484375 0zm0 3.421875l0 8.953125l-1.484375 0l0 -8.953125l1.484375 0zm6.7403564 -0.21875q0.0625 0 0.09375 0q0.046875 0 0.109375 0.015625l0 1.546875q-1.65625 0 -2.453125 0.890625q-0.78125 0.875 -0.78125 2.703125l0 4.015625l-1.46875 0l0 -8.953125l1.375 0l0 1.875l0.046875 0q0.515625 -1.0625 1.265625 -1.578125q0.765625 -0.515625 1.8125 -0.515625zm4.7229004 0.015625q1.9375 0 3.0 1.390625q1.0625 1.375 1.0625 3.546875l0 0.1875l-6.703125 0l0 0.109375q0 1.28125 0.734375 2.0625q0.75 0.765625 2.046875 0.765625q0.984375 0 1.5625 -0.453125q0.578125 -0.453125 0.765625 -1.296875l1.453125 0q-0.296875 1.484375 -1.3125 2.28125q-1.0 0.78125 -2.515625 0.78125q-1.40625 0 -2.390625 -0.640625q-0.96875 -0.640625 -1.4375 -1.78125q-0.46875 -1.140625 -0.46875 -2.328125q0 -1.984375 1.1875 -3.296875q1.203125 -1.328125 3.015625 -1.328125zm-2.640625 3.8125l5.140625 0q-0.0625 -1.09375 -0.796875 -1.8125q-0.71875 -0.71875 -1.796875 -0.71875q-1.015625 0 -1.734375 0.6875q-0.71875 0.6875 -0.8125 1.84375zm11.213379 -3.8125q1.796875 0 2.671875 0.703125q0.890625 0.6875 0.96875 2.09375l-1.46875 0l0 -0.015625q-0.0625 -0.71875 -0.625 -1.109375q-0.5625 -0.390625 -1.4375 -0.390625q-0.890625 0 -1.40625 0.3125q-0.515625 0.296875 -0.515625 0.84375q0 0.484375 0.453125 0.796875q0.453125 0.3125 1.375 0.5l1.375 0.3125q1.3125 0.296875 1.984375 0.890625q0.671875 0.59375 0.671875 1.609375q0 1.3125 -1.03125 2.078125q-1.015625 0.75 -2.78125 0.75q-1.71875 0 -2.734375 -0.765625q-1.0 -0.78125 -1.0625 -2.28125l1.484375 0q0.03125 0.84375 0.65625 1.296875q0.640625 0.4375 1.75 0.4375q1.0625 0 1.609375 -0.328125q0.546875 -0.34375 0.546875 -1.0q0 -0.609375 -0.546875 -0.953125q-0.546875 -0.359375 -2.234375 -0.6875q-1.6875 -0.34375 -2.375 -0.9375q-0.6875 -0.609375 -0.6875 -1.609375q0 -1.1875 0.953125 -1.859375q0.953125 -0.6875 2.40625 -0.6875z" fill-rule="nonzero"/><path fill="#d9d9d9" d="m204.40839 486.05188l0 1.390625l-6.46875 0l0 3.921875l5.6875 0l0 1.390625l-5.6875 0l0 5.671875l-1.640625 0l0 -12.375l8.109375 0zm3.4032593 0l0 7.96875q0 1.515625 0.859375 2.421875q0.875 0.890625 2.578125 0.890625q1.609375 0 2.421875 -0.890625q0.8125 -0.890625 0.8125 -2.421875l0 -7.96875l1.640625 0l0 8.0q0 2.171875 -1.234375 3.421875q-1.21875 1.25 -3.640625 1.25q-2.53125 0 -3.8125 -1.21875q-1.265625 -1.21875 -1.265625 -3.453125l0 -8.0l1.640625 0zm12.591949 0l0 10.984375l6.546875 0l0 1.390625l-8.1875 0l0 -12.375l1.640625 0zm9.637085 0l0 10.984375l6.546875 0l0 1.390625l-8.1875 0l0 -12.375l1.640625 0zm12.324585 0q2.8125 0 4.328125 1.5q1.53125 1.484375 1.53125 4.40625q0 3.265625 -1.515625 4.875q-1.5 1.59375 -4.34375 1.59375l-4.328125 0l0 -12.375l4.328125 0zm0.109375 10.984375q1.859375 0 2.96875 -1.203125q1.125 -1.21875 1.125 -3.65625q0 -2.453125 -1.015625 -3.59375q-1.015625 -1.140625 -3.015625 -1.140625l-2.859375 0l0 9.59375l2.796875 0zm12.98201 -11.28125q1.8124847 0 3.1406097 0.84375q1.34375 0.828125 2.0625 2.34375q0.734375 1.5 0.734375 3.296875q0 1.8125 -0.734375 3.3125q-0.71875 1.5 -2.0625 2.34375q-1.34375 0.828125 -3.1406097 0.828125q-1.78125 0 -3.125 -0.828125q-1.34375 -0.828125 -2.078125 -2.328125q-0.71875 -1.5 -0.71875 -3.328125q0 -2.8125 1.609375 -4.640625q1.625 -1.84375 4.3125 -1.84375zm-4.28125 6.484375q0 1.375 0.5 2.578125q0.515625 1.1875 1.484375 1.859375q0.984375 0.65625 2.296875 0.65625q1.9999847 0 3.1406097 -1.421875q1.140625 -1.4375 1.140625 -3.671875q0 -2.203125 -1.140625 -3.640625q-1.125 -1.453125 -3.1562347 -1.453125q-1.984375 0 -3.125 1.453125q-1.140625 1.453125 -1.140625 3.640625zm14.509048 -6.1875l3.890625 10.390625l3.921875 -10.390625l2.25 0l0 12.375l-1.546875 0l0 -10.296875l-0.046875 0l-3.859375 10.296875l-1.40625 0l-3.859375 -10.296875l-0.046875 0l0 10.296875l-1.546875 0l0 -12.375l2.25 0zm21.344421 0l0 1.390625l-6.890625 0l0 3.921875l6.421875 0l0 1.390625l-6.421875 0l0 4.28125l6.953125 0l0 1.390625l-8.59375 0l0 -12.375l8.53125 0zm8.570923 0l0 12.375l-1.640625 0l0 -12.375l1.640625 0zm4.515564 0l6.515625 10.046875l0.03125 0l0 -10.046875l1.546875 0l0 12.375l-1.796875 0l-6.46875 -9.9375l-0.03125 0l0 9.9375l-1.546875 0l0 -12.375l1.75 0zm19.357574 0l0 1.390625l-4.140625 0l0 10.984375l-1.640625 0l0 -10.984375l-4.125 0l0 -1.390625l9.90625 0zm9.903259 0l0 1.390625l-6.890625 0l0 3.921875l6.421875 0l0 1.390625l-6.421875 0l0 4.28125l6.953125 0l0 1.390625l-8.59375 0l0 -12.375l8.53125 0zm7.944092 0q1.609375 0 2.640625 0.859375q1.046875 0.859375 1.046875 2.390625q0 1.21875 -0.546875 2.03125q-0.53125 0.796875 -1.609375 1.09375l0 0.03125q0.9375 0.1875 1.375 0.875q0.453125 0.6875 0.515625 2.375q0.046875 1.078125 0.203125 1.703125q0.171875 0.609375 0.484375 1.015625l-1.828125 0q-0.15625 -0.203125 -0.203125 -0.390625q-0.046875 -0.203125 -0.09375 -0.5625l-0.0625 -1.359375q-0.03125 -0.953125 -0.421875 -1.9375q-0.375 -1.0 -1.6875 -1.03125l-4.0625 0l0 5.28125l-1.640625 0l0 -12.375l5.890625 0zm-0.734375 5.703125q1.375 0 2.078125 -0.53125q0.703125 -0.53125 0.703125 -1.671875q0 -1.0 -0.5625 -1.546875q-0.5625 -0.5625 -1.578125 -0.5625l-4.15625 0l0 4.3125l3.515625 0zm11.886414 -5.703125l4.828125 12.375l-1.8125 0l-1.34375 -3.71875l-5.234375 0l-1.390625 3.71875l-1.703125 0l4.84375 -12.375l1.8125 0zm-0.953125 1.5l-2.09375 5.765625l4.1875 0l-2.046875 -5.765625l-0.046875 0zm11.930237 -1.796875q2.0625 0 3.4375 1.078125q1.390625 1.0625 1.65625 2.953125l-1.640625 0q-0.265625 -1.28125 -1.1875 -1.953125q-0.921875 -0.6875 -2.28125 -0.6875q-1.953125 0 -3.078125 1.390625q-1.109375 1.390625 -1.109375 3.625q0 2.359375 1.09375 3.765625q1.09375 1.40625 3.109375 1.40625q1.515625 0 2.484375 -0.953125q0.96875 -0.96875 1.09375 -2.609375l1.640625 0q-0.265625 2.390625 -1.671875 3.671875q-1.390625 1.28125 -3.671875 1.28125q-2.65625 0 -4.1875 -1.75q-1.53125 -1.765625 -1.53125 -4.703125q0 -2.875 1.578125 -4.6875q1.578125 -1.828125 4.265625 -1.828125zm15.442841 0.296875l0 1.390625l-4.140625 0l0 10.984375l-1.640625 0l0 -10.984375l-4.125 0l0 -1.390625l9.90625 0zm3.0751343 0l0 12.375l-1.640625 0l0 -12.375l1.640625 0zm3.1874695 0l3.546875 10.71875l0.03125 0l3.5625 -10.71875l1.71875 0l-4.40625 12.375l-1.875 0l-4.359375 -12.375l1.78125 0zm18.709717 0l0 1.390625l-6.890625 0l0 3.921875l6.421875 0l0 1.390625l-6.421875 0l0 4.28125l6.953125 0l0 1.390625l-8.59375 0l0 -12.375l8.53125 0zm12.039642 0l4.828125 12.375l-1.8125 0l-1.34375 -3.71875l-5.234375 0l-1.390625 3.71875l-1.703125 0l4.84375 -12.375l1.8125 0zm-0.953125 1.5l-2.09375 5.765625l4.1875 0l-2.046875 -5.765625l-0.046875 0zm8.712128 -1.5l0 12.375l-1.640625 0l0 -12.375l1.640625 0zm16.12677 0l0 1.390625l-6.890625 0l0 3.921875l6.421875 0l0 1.390625l-6.421875 0l0 4.28125l6.953125 0l0 1.390625l-8.59375 0l0 -12.375l8.53125 0zm2.8972168 0l3.078125 4.84375l3.2344055 -4.84375l1.828125 0l-4.09375 6.015625l4.359375 6.359375l-2.015625 0l-3.3281555 -5.109375l-3.421875 5.109375l-1.859375 0l4.3125 -6.359375l-4.0625 -6.015625l1.96875 0zm15.240997 0q1.6875 0 2.6875 0.921875q1.015625 0.921875 1.015625 2.734375q0 1.828125 -1.015625 2.75q-1.0 0.90625 -2.578125 0.90625l-3.96875 0l0 5.0625l-1.640625 0l0 -12.375l5.5 0zm-0.46875 5.921875q1.1875 0 1.859375 -0.546875q0.671875 -0.5625 0.671875 -1.71875q0 -1.140625 -0.671875 -1.703125q-0.65625 -0.5625 -1.953125 -0.5625l-3.296875 0l0 4.53125l3.390625 0zm14.727722 -5.921875l0 1.390625l-6.890625 0l0 3.921875l6.421875 0l0 1.390625l-6.421875 0l0 4.28125l6.953125 0l0 1.390625l-8.59375 0l0 -12.375l8.53125 0zm7.944092 0q1.609375 0 2.640625 0.859375q1.046875 0.859375 1.046875 2.390625q0 1.21875 -0.546875 2.03125q-0.53125 0.796875 -1.609375 1.09375l0 0.03125q0.9375 0.1875 1.375 0.875q0.453125 0.6875 0.515625 2.375q0.046875 1.078125 0.203125 1.703125q0.171875 0.609375 0.484375 1.015625l-1.828125 0q-0.15625 -0.203125 -0.203125 -0.390625q-0.046875 -0.203125 -0.09375 -0.5625l-0.0625 -1.359375q-0.03125 -0.953125 -0.421875 -1.9375q-0.375 -1.0 -1.6875 -1.03125l-4.0625 0l0 5.28125l-1.640625 0l0 -12.375l5.890625 0zm-0.734375 5.703125q1.375 0 2.078125 -0.53125q0.703125 -0.53125 0.703125 -1.671875q0 -1.0 -0.5625 -1.546875q-0.5625 -0.5625 -1.578125 -0.5625l-4.15625 0l0 4.3125l3.515625 0zm8.417664 -5.703125l0 12.375l-1.640625 0l0 -12.375l1.640625 0zm11.312439 0l0 1.390625l-6.890625 0l0 3.921875l6.421875 0l0 1.390625l-6.421875 0l0 4.28125l6.953125 0l0 1.390625l-8.59375 0l0 -12.375l8.53125 0zm3.7878418 0l6.515625 10.046875l0.03125 0l0 -10.046875l1.546875 0l0 12.375l-1.796875 0l-6.46875 -9.9375l-0.03125 0l0 9.9375l-1.546875 0l0 -12.375l1.75 0zm16.013794 -0.296875q2.0625 0 3.4375 1.078125q1.390625 1.0625 1.65625 2.953125l-1.640625 0q-0.265625 -1.28125 -1.1875 -1.953125q-0.921875 -0.6875 -2.28125 -0.6875q-1.953125 0 -3.0780945 1.390625q-1.109375 1.390625 -1.109375 3.625q0 2.359375 1.09375 3.765625q1.0937195 1.40625 3.1093445 1.40625q1.515625 0 2.484375 -0.953125q0.96875 -0.96875 1.09375 -2.609375l1.640625 0q-0.265625 2.390625 -1.671875 3.671875q-1.390625 1.28125 -3.671875 1.28125q-2.65625 0 -4.1874695 -1.75q-1.53125 -1.765625 -1.53125 -4.703125q0 -2.875 1.578125 -4.6875q1.5780945 -1.828125 4.2655945 -1.828125zm15.81073 0.296875l0 1.390625l-6.890625 0l0 3.921875l6.421875 0l0 1.390625l-6.421875 0l0 4.28125l6.953125 0l0 1.390625l-8.59375 0l0 -12.375l8.53125 0z" fill-rule="nonzero"/><path fill="#000000" fill-opacity="0.0" d="m14.682413 467.22217l55.624725 0l0 55.624695l-55.624725 0z" fill-rule="evenodd"/><g transform="matrix(0.12361049868766404 0.0 0.0 0.12361049868766404 14.68241286089239 467.2221566929134)"><clipPath id="g2e3e872469c_0_55.1"><path d="m-1.4210855E-14 0l450.0 0l0 450.0l-450.0 0z" clip-rule="evenodd"/></clipPath><image clip-path="url(#g2e3e872469c_0_55.1)" fill="#000" width="450.0" height="450.0" x="0.0" y="0.0" preserveAspectRatio="none" xlink:href="https://lh7-rt.googleusercontent.com/slidesz/AGV_vUeXFAOlCYpSIIGxtYj2p_2KCtWxzuCb_iuD8yoziIBhly1IaTrx5TjmHVjE3EHKCiMp8FXlwxSaGVhPtRd_CHeC8ZKVDPSBSYDxXm2IkYDPoB-sQtTi61v069_r8p9Brto=s2048?key=7LE3oBm5y_Q2w8Qv5o4NHULt"/></g><g id="g2e3e872469c_0_200"><path fill="#000000" fill-opacity="0.0" d="m180.58273 56.98169l680.8982 0l0 383.00522l-680.8982 0z" fill-rule="evenodd"/><g transform="matrix(0.5319517060367454 0.0 0.0 0.5319517060367454 180.58273805774277 56.98168818897638)"><clipPath id="g2e3e872469c_0_55.2"><path d="m0 0l1280.0 0l0 720.0l-1280.0 0z" clip-rule="evenodd"/></clipPath><image clip-path="url(#g2e3e872469c_0_55.2)" fill="#000" width="1280.0" height="720.0" x="0.0" y="0.0" preserveAspectRatio="none" xlink:href="https://lh7-rt.googleusercontent.com/slidesz/AGV_vUcWyIyDHYg1oBFcPqyLKfzkKa--r8S1nrFDSijqqtgY9yXRXnJMA9zzYDb8Y1DaSGsfpKlqMKg3aWI_DB3YlOGoZwY9cMn2PBvCOc6KYhg3JYR_YwNvDCQ32OOznnyAwWg=s2048?key=7LE3oBm5y_Q2w8Qv5o4NHULt"/></g><a xlink:href="https://www.google.com/url?q=https://docs.google.com/file/d/1AfqtNscYYCU7Hhlvsu15wGMZy_QYvXN5/preview&amp;sa=D&amp;source=editors&amp;ust=1777358530752124&amp;usg=AOvVaw0Yz_K-VYru_iivRsq7KnLE" target="_blank" rel="noreferrer"><path fill="transparent" fill-opacity="0" d="m180.58273 56.98169l0 383.00522l680.8982 0l0 -383.00522z" fill-rule="nonzero"/></a></g></g></g></svg>