<svg version="1.1" viewBox="0.0 0.0 960.0 540.0" fill="none" stroke="none" stroke-linecap="square" stroke-miterlimit="10" xmlns:xlink="http://www.w3.org/1999/xlink" xmlns="http://www.w3.org/2000/svg"><clipPath id="g2e3e872469c_0_140.0"><path d="m0 0l960.0 0l0 540.0l-960.0 0l0 -540.0z" clip-rule="nonzero"/></clipPath><g clip-path="url(#g2e3e872469c_0_140.0)"><g id="g2e3e872469c_0_140"><path fill="#ffffff" d="m0 0l960.0 0l0 540.0l-960.0 0l0 -540.0z" fill-rule="nonzero"/><path fill="#000000" d="m0 0l960.0 0l0 540.0l-960.0 0z" fill-rule="evenodd"/><g id="a11y-g2e3e872469c_0_141" role="img" aria-label="Client: CHEVROLET - NOS - Lollapalooza&#xa;We engaged the audience with a real-time vehicle customization platform, projected onto the stand's walls.&#xa;" tabindex="0"><path fill="#000000" fill-opacity="0.0" d="m185.93964 439.98688l0 94.6142l653.8268 0l0 -94.6142z" fill-rule="nonzero"/></g><path fill="#000000" fill-opacity="0.0" d="m185.93964 439.98688l653.8268 0l0 94.6142l-653.8268 0z" fill-rule="evenodd"/><path fill="#d9d9d9" d="m201.53339 452.955q2.0625 0 3.4375 1.078125q1.390625 1.0625 1.65625 2.953125l-1.640625 0q-0.265625 -1.28125 -1.1875 -1.953125q-0.921875 -0.6875 -2.28125 -0.6875q-1.953125 0 -3.078125 1.390625q-1.109375 1.390625 -1.109375 3.625q0 2.359375 1.09375 3.765625q1.09375 1.40625 3.109375 1.40625q1.515625 0 2.484375 -0.953125q0.96875 -0.96875 1.09375 -2.609375l1.640625 0q-0.265625 2.390625 -1.671875 3.671875q-1.390625 1.28125 -3.671875 1.28125q-2.65625 0 -4.1875 -1.75q-1.53125 -1.765625 -1.53125 -4.703125q0 -2.875 1.578125 -4.6875q1.578125 -1.828125 4.265625 -1.828125zm8.591949 0.296875l0 12.375l-1.484375 0l0 -12.375l1.484375 0zm3.849762 0l0 1.8125l-1.484375 0l0 -1.8125l1.484375 0zm0 3.421875l0 8.953125l-1.484375 0l0 -8.953125l1.484375 0zm6.006012 -0.203125q1.9375 0 3.0 1.390625q1.0625 1.375 1.0625 3.546875l0 0.1875l-6.703125 0l0 0.109375q0 1.28125 0.734375 2.0625q0.75 0.765625 2.046875 0.765625q0.984375 0 1.5625 -0.453125q0.578125 -0.453125 0.765625 -1.296875l1.453125 0q-0.296875 1.484375 -1.3125 2.28125q-1.0 0.78125 -2.515625 0.78125q-1.40625 0 -2.390625 -0.640625q-0.96875 -0.640625 -1.4375 -1.78125q-0.46875 -1.140625 -0.46875 -2.328125q0 -1.984375 1.1875 -3.296875q1.203125 -1.328125 3.015625 -1.328125zm-2.640625 3.8125l5.140625 0q-0.0625 -1.09375 -0.796875 -1.8125q-0.71875 -0.71875 -1.796875 -0.71875q-1.015625 0 -1.734375 0.6875q-0.71875 0.6875 -0.8125 1.84375zm12.572723 -3.8125q1.609375 0 2.34375 0.828125q0.734375 0.828125 0.734375 2.359375l0 5.96875l-1.46875 0l0 -6.125q0 -0.75 -0.5 -1.25q-0.484375 -0.5 -1.34375 -0.5q-1.234375 0 -1.9375 0.765625q-0.703125 0.765625 -0.703125 1.984375l0 5.125l-1.46875 0l0 -8.953125l1.390625 0l0 1.421875l0.03125 0q0.484375 -0.84375 1.203125 -1.234375q0.71875 -0.390625 1.71875 -0.390625zm7.34021 -2.484375l0 2.6875l1.78125 0l0 1.296875l-1.78125 0l0 5.609375q0 0.671875 0.4375 0.71875q0.453125 0.03125 0.9375 0.03125l0.40625 0l0 1.296875l-1.21875 0q-1.203125 0 -1.625 -0.421875q-0.40625 -0.4375 -0.40625 -1.453125l0 -5.78125l-1.53125 0l0 -1.296875l1.53125 0l0 -2.6875l1.46875 0zm5.6604767 2.6875l0 1.921875l-1.921875 0l0 -1.921875l1.921875 0zm0 7.03125l0 1.921875l-1.921875 0l0 -1.921875l1.921875 0zm12.863007 -10.75q2.0624847 0 3.4374847 1.078125q1.390625 1.0625 1.65625 2.953125l-1.640625 0q-0.265625 -1.28125 -1.1875 -1.953125q-0.921875 -0.6875 -2.2812347 -0.6875q-1.953125 0 -3.078125 1.390625q-1.109375 1.390625 -1.109375 3.625q0 2.359375 1.09375 3.765625q1.09375 1.40625 3.109375 1.40625q1.5156097 0 2.4843597 -0.953125q0.96875 -0.96875 1.09375 -2.609375l1.640625 0q-0.265625 2.390625 -1.671875 3.671875q-1.390625 1.28125 -3.6718597 1.28125q-2.65625 0 -4.1875 -1.75q-1.53125 -1.765625 -1.53125 -4.703125q0 -2.875 1.578125 -4.6875q1.578125 -1.828125 4.265625 -1.828125zm8.920059 0.296875l0 5.3125l6.515625 0l0 -5.3125l1.640625 0l0 12.375l-1.640625 0l0 -5.671875l-6.515625 0l0 5.671875l-1.640625 0l0 -12.375l1.640625 0zm19.40445 0l0 1.390625l-6.890625 0l0 3.921875l6.421875 0l0 1.390625l-6.421875 0l0 4.28125l6.953125 0l0 1.390625l-8.59375 0l0 -12.375l8.53125 0zm2.4597168 0l3.546875 10.71875l0.03125 0l3.5625 -10.71875l1.71875 0l-4.40625 12.375l-1.875 0l-4.359375 -12.375l1.78125 0zm16.069092 0q1.609375 0 2.640625 0.859375q1.046875 0.859375 1.046875 2.390625q0 1.21875 -0.546875 2.03125q-0.53125 0.796875 -1.609375 1.09375l0 0.03125q0.9375 0.1875 1.375 0.875q0.453125 0.6875 0.515625 2.375q0.046875 1.078125 0.203125 1.703125q0.171875 0.609375 0.484375 1.015625l-1.828125 0q-0.15625 -0.203125 -0.203125 -0.390625q-0.046875 -0.203125 -0.09375 -0.5625l-0.0625 -1.359375q-0.03125 -0.953125 -0.421875 -1.9375q-0.375 -1.0 -1.6875 -1.03125l-4.0625 0l0 5.28125l-1.640625 0l0 -12.375l5.890625 0zm-0.734375 5.703125q1.375 0 2.078125 -0.53125q0.703125 -0.53125 0.703125 -1.671875q0 -1.0 -0.5625 -1.546875q-0.5625 -0.5625 -1.578125 -0.5625l-4.15625 0l0 4.3125l3.515625 0zm11.933289 -6.0q1.8125 0 3.140625 0.84375q1.34375 0.828125 2.0625 2.34375q0.734375 1.5 0.734375 3.296875q0 1.8125 -0.734375 3.3125q-0.71875 1.5 -2.0625 2.34375q-1.34375 0.828125 -3.140625 0.828125q-1.78125 0 -3.125 -0.828125q-1.34375 -0.828125 -2.078125 -2.328125q-0.71875 -1.5 -0.71875 -3.328125q0 -2.8125 1.609375 -4.640625q1.625 -1.84375 4.3125 -1.84375zm-4.28125 6.484375q0 1.375 0.5 2.578125q0.515625 1.1875 1.484375 1.859375q0.984375 0.65625 2.296875 0.65625q2.0 0 3.140625 -1.421875q1.140625 -1.4375 1.140625 -3.671875q0 -2.203125 -1.140625 -3.640625q-1.125 -1.453125 -3.15625 -1.453125q-1.984375 0 -3.125 1.453125q-1.140625 1.453125 -1.140625 3.640625zm13.868439 -6.1875l0 10.984375l6.546875 0l0 1.390625l-8.1875 0l0 -12.375l1.640625 0zm16.52771 0l0 1.390625l-6.890625 0l0 3.921875l6.421875 0l0 1.390625l-6.421875 0l0 4.28125l6.953125 0l0 1.390625l-8.59375 0l0 -12.375l8.53125 0zm10.631592 0l0 1.390625l-4.140625 0l0 10.984375l-1.640625 0l0 -10.984375l-4.125 0l0 -1.390625l9.90625 0zm10.701965 6.859375l0 1.390625l-5.015625 0l0 -1.390625l5.015625 0zm8.776489 -6.859375l6.515625 10.046875l0.03125 0l0 -10.046875l1.546875 0l0 12.375l-1.796875 0l-6.46875 -9.9375l-0.03125 0l0 9.9375l-1.546875 0l0 -12.375l1.75 0zm15.998199 -0.296875q1.8125 0 3.140625 0.84375q1.34375 0.828125 2.0625 2.34375q0.734375 1.5 0.734375 3.296875q0 1.8125 -0.734375 3.3125q-0.71875 1.5 -2.0625 2.34375q-1.34375 0.828125 -3.140625 0.828125q-1.78125 0 -3.125 -0.828125q-1.34375 -0.828125 -2.078125 -2.328125q-0.71875 -1.5 -0.71875 -3.328125q0 -2.8125 1.609375 -4.640625q1.625 -1.84375 4.3125 -1.84375zm-4.28125 6.484375q0 1.375 0.5 2.578125q0.515625 1.1875 1.484375 1.859375q0.984375 0.65625 2.296875 0.65625q2.0 0 3.140625 -1.421875q1.140625 -1.4375 1.140625 -3.671875q0 -2.203125 -1.140625 -3.640625q-1.125 -1.453125 -3.15625 -1.453125q-1.984375 0 -3.125 1.453125q-1.140625 1.453125 -1.140625 3.640625zm16.384064 -6.484375q2.0625 0 3.265625 1.0q1.21875 1.0 1.28125 2.921875l-1.546875 0q-0.140625 -1.265625 -0.921875 -1.890625q-0.765625 -0.640625 -2.15625 -0.640625q-1.3125 0 -2.046875 0.546875q-0.71875 0.546875 -0.71875 1.5625q0 0.734375 0.609375 1.203125q0.625 0.453125 3.359375 1.0q1.984375 0.40625 2.953125 1.25q0.984375 0.84375 0.984375 2.328125q0 1.71875 -1.40625 2.703125q-1.40625 0.984375 -3.421875 0.984375q-2.25 0 -3.671875 -1.125q-1.421875 -1.125 -1.4375 -3.234375l1.5625 0q0.015625 1.40625 1.0 2.1875q1.0 0.78125 2.59375 0.78125q1.5 0 2.3125 -0.578125q0.828125 -0.578125 0.828125 -1.671875q0 -0.875 -0.75 -1.40625q-0.75 -0.53125 -2.734375 -0.921875q-2.640625 -0.5 -3.53125 -1.28125q-0.890625 -0.796875 -0.890625 -2.09375q0 -1.671875 1.25 -2.640625q1.265625 -0.984375 3.234375 -0.984375zm16.401428 7.15625l0 1.390625l-5.015625 0l0 -1.390625l5.015625 0zm8.682739 -6.859375l0 10.984375l6.546875 0l0 1.390625l-8.1875 0l0 -12.375l1.640625 0zm11.292694 3.21875q2.03125 0 3.1875 1.3125q1.171875 1.296875 1.171875 3.375q0 2.09375 -1.1875 3.390625q-1.1875 1.296875 -3.171875 1.296875q-1.9375 0 -3.140625 -1.265625q-1.203125 -1.28125 -1.203125 -3.421875q0 -2.125 1.171875 -3.40625q1.1875 -1.28125 3.171875 -1.28125zm-2.78125 4.6875q0 1.546875 0.78125 2.46875q0.78125 0.90625 2.0 0.90625q1.21875 0 2.0 -0.921875q0.796875 -0.921875 0.796875 -2.453125q0 -1.53125 -0.796875 -2.46875q-0.78125 -0.9375 -2.015625 -0.9375q-1.171875 0 -1.96875 0.921875q-0.796875 0.921875 -0.796875 2.484375zm10.434509 -7.90625l0 12.375l-1.484375 0l0 -12.375l1.484375 0zm3.849762 0l0 12.375l-1.484375 0l0 -12.375l1.484375 0zm5.943512 3.21875q1.828125 0 2.59375 0.65625q0.765625 0.640625 0.765625 1.734375q0 4.65625 0 5.171875q0 0.5 0.46875 0.5q0.109375 0 0.21875 -0.015625q0.125 -0.03125 0.234375 -0.0625l0 1.140625q-0.203125 0.109375 -0.46875 0.171875q-0.265625 0.078125 -0.578125 0.078125q-0.609375 0 -0.9375 -0.34375q-0.3125 -0.34375 -0.3125 -1.046875q-0.59375 0.6875 -1.390625 1.046875q-0.796875 0.34375 -1.765625 0.34375q-1.390625 0 -2.1875 -0.65625q-0.78125 -0.65625 -0.78125 -1.859375q0 -1.21875 0.765625 -1.921875q0.78125 -0.703125 3.625 -1.0625q0.96875 -0.125 1.3125 -0.359375q0.34375 -0.25 0.34375 -0.75q0 -0.734375 -0.484375 -1.109375q-0.46875 -0.375 -1.515625 -0.375q-1.09375 0 -1.640625 0.421875q-0.546875 0.40625 -0.59375 1.28125l-1.46875 0q0.078125 -1.484375 1.046875 -2.234375q0.984375 -0.75 2.75 -0.75zm-2.578125 6.75q0 0.625 0.453125 0.96875q0.453125 0.34375 1.28125 0.34375q1.234375 0 1.984375 -0.609375q0.75 -0.625 0.75 -1.390625l0 -1.53125q-0.375 0.265625 -0.96875 0.359375q-0.59375 0.078125 -1.578125 0.21875q-0.984375 0.140625 -1.453125 0.53125q-0.46875 0.390625 -0.46875 1.109375zm12.650848 -6.75q1.921875 0 3.015625 1.328125q1.109375 1.3125 1.109375 3.375q0 2.078125 -1.109375 3.375q-1.09375 1.296875 -2.984375 1.296875q-0.828125 0 -1.640625 -0.34375q-0.796875 -0.359375 -1.25 -1.0625l-0.046875 0l0 4.625l-1.46875 0l0 -12.390625l1.46875 0l0 1.21875l0.046875 0q0.34375 -0.703125 1.09375 -1.0625q0.75 -0.359375 1.765625 -0.359375zm-2.953125 4.671875q0 1.5625 0.75 2.484375q0.765625 0.90625 2.078125 0.90625q1.28125 0 1.984375 -0.90625q0.703125 -0.921875 0.703125 -2.546875q0 -1.453125 -0.75 -2.390625q-0.734375 -0.9375 -2.03125 -0.9375q-1.296875 0 -2.015625 0.953125q-0.71875 0.953125 -0.71875 2.4375zm12.4591675 -4.671875q1.828125 0 2.59375 0.65625q0.765625 0.640625 0.765625 1.734375q0 4.65625 0 5.171875q0 0.5 0.46875 0.5q0.109375 0 0.21875 -0.015625q0.125 -0.03125 0.234375 -0.0625l0 1.140625q-0.203125 0.109375 -0.46875 0.171875q-0.265625 0.078125 -0.578125 0.078125q-0.609375 0 -0.9375 -0.34375q-0.3125 -0.34375 -0.3125 -1.046875q-0.59375 0.6875 -1.390625 1.046875q-0.796875 0.34375 -1.765625 0.34375q-1.390625 0 -2.1875 -0.65625q-0.78125 -0.65625 -0.78125 -1.859375q0 -1.21875 0.765625 -1.921875q0.78125 -0.703125 3.625 -1.0625q0.96875 -0.125 1.3125 -0.359375q0.34375 -0.25 0.34375 -0.75q0 -0.734375 -0.484375 -1.109375q-0.46875 -0.375 -1.515625 -0.375q-1.09375 0 -1.640625 0.421875q-0.546875 0.40625 -0.59375 1.28125l-1.46875 0q0.078125 -1.484375 1.046875 -2.234375q0.984375 -0.75 2.75 -0.75zm-2.578125 6.75q0 0.625 0.453125 0.96875q0.453125 0.34375 1.28125 0.34375q1.234375 0 1.984375 -0.609375q0.75 -0.625 0.75 -1.390625l0 -1.53125q-0.375 0.265625 -0.96875 0.359375q-0.59375 0.078125 -1.578125 0.21875q-0.984375 0.140625 -1.453125 0.53125q-0.46875 0.390625 -0.46875 1.109375zm9.791473 -9.96875l0 12.375l-1.484375 0l0 -12.375l1.484375 0zm6.146637 3.21875q2.03125 0 3.1875 1.3125q1.171875 1.296875 1.171875 3.375q0 2.09375 -1.1875 3.390625q-1.1875 1.296875 -3.171875 1.296875q-1.9375 0 -3.140625 -1.265625q-1.203125 -1.28125 -1.203125 -3.421875q0 -2.125 1.171875 -3.40625q1.1875 -1.28125 3.171875 -1.28125zm-2.78125 4.6875q0 1.546875 0.78125 2.46875q0.78125 0.90625 2.0 0.90625q1.21875 0 2.0 -0.921875q0.796875 -0.921875 0.796875 -2.453125q0 -1.53125 -0.796875 -2.46875q-0.78125 -0.9375 -2.015625 -0.9375q-1.171875 0 -1.96875 0.921875q-0.796875 0.921875 -0.796875 2.484375zm12.731384 -4.6875q2.03125 0 3.1875 1.3125q1.171875 1.296875 1.171875 3.375q0 2.09375 -1.1875 3.390625q-1.1875 1.296875 -3.171875 1.296875q-1.9375 0 -3.140625 -1.265625q-1.203125 -1.28125 -1.203125 -3.421875q0 -2.125 1.171875 -3.40625q1.1875 -1.28125 3.171875 -1.28125zm-2.78125 4.6875q0 1.546875 0.78125 2.46875q0.78125 0.90625 2.0 0.90625q1.21875 0 2.0 -0.921875q0.796875 -0.921875 0.796875 -2.453125q0 -1.53125 -0.796875 -2.46875q-0.78125 -0.9375 -2.015625 -0.9375q-1.171875 0 -1.96875 0.921875q-0.796875 0.921875 -0.796875 2.484375zm15.136963 -4.484375l0 1.0l-5.46875 6.65625l5.71875 0l0 1.296875l-7.5625 0l0 -1.125l5.40625 -6.53125l-5.046875 0l0 -1.296875l6.953125 0zm5.3952637 -0.203125q1.828125 0 2.59375 0.65625q0.765625 0.640625 0.765625 1.734375q0 4.65625 0 5.171875q0 0.5 0.46875 0.5q0.109375 0 0.21875 -0.015625q0.125 -0.03125 0.234375 -0.0625l0 1.140625q-0.203125 0.109375 -0.46875 0.171875q-0.265625 0.078125 -0.578125 0.078125q-0.609375 0 -0.9375 -0.34375q-0.3125 -0.34375 -0.3125 -1.046875q-0.59375 0.6875 -1.390625 1.046875q-0.796875 0.34375 -1.7655945 0.34375q-1.390625 0 -2.1875 -0.65625q-0.78125 -0.65625 -0.78125 -1.859375q0 -1.21875 0.765625 -1.921875q0.78125 -0.703125 3.6249695 -1.0625q0.96875 -0.125 1.3125 -0.359375q0.34375 -0.25 0.34375 -0.75q0 -0.734375 -0.484375 -1.109375q-0.46875 -0.375 -1.515625 -0.375q-1.0937195 0 -1.6405945 0.421875q-0.546875 0.40625 -0.59375 1.28125l-1.46875 0q0.078125 -1.484375 1.046875 -2.234375q0.984375 -0.75 2.7499695 -0.75zm-2.5780945 6.75q0 0.625 0.453125 0.96875q0.453125 0.34375 1.28125 0.34375q1.2343445 0 1.9843445 -0.609375q0.75 -0.625 0.75 -1.390625l0 -1.53125q-0.375 0.265625 -0.96875 0.359375q-0.59375 0.078125 -1.5780945 0.21875q-0.984375 0.140625 -1.453125 0.53125q-0.46875 0.390625 -0.46875 1.109375z" fill-rule="nonzero"/><path fill="#d9d9d9" d="m196.83026 486.05188l2.421875 10.296875l0.03125 0l2.78125 -10.296875l1.78125 0l2.734375 10.296875l0.03125 0l2.515625 -10.296875l1.65625 0l-3.3125 12.375l-1.71875 0l-2.828125 -10.40625l-0.03125 0l-2.859375 10.40625l-1.71875 0l-3.15625 -12.375l1.671875 0zm18.564835 3.21875q1.9375 0 3.0 1.390625q1.0625 1.375 1.0625 3.546875l0 0.1875l-6.703125 0l0 0.109375q0 1.28125 0.734375 2.0625q0.75 0.765625 2.046875 0.765625q0.984375 0 1.5625 -0.453125q0.578125 -0.453125 0.765625 -1.296875l1.453125 0q-0.296875 1.484375 -1.3125 2.28125q-1.0 0.78125 -2.515625 0.78125q-1.40625 0 -2.390625 -0.640625q-0.96875 -0.640625 -1.4375 -1.78125q-0.46875 -1.140625 -0.46875 -2.328125q0 -1.984375 1.1875 -3.296875q1.203125 -1.328125 3.015625 -1.328125zm-2.640625 3.8125l5.140625 0q-0.0625 -1.09375 -0.796875 -1.8125q-0.71875 -0.71875 -1.796875 -0.71875q-1.015625 0 -1.734375 0.6875q-0.71875 0.6875 -0.8125 1.84375zm16.76204 -3.8125q1.9375 0 3.0 1.390625q1.0625 1.375 1.0625 3.546875l0 0.1875l-6.703125 0l0 0.109375q0 1.28125 0.734375 2.0625q0.75 0.765625 2.046875 0.765625q0.984375 0 1.5625 -0.453125q0.578125 -0.453125 0.765625 -1.296875l1.453125 0q-0.296875 1.484375 -1.3125 2.28125q-1.0 0.78125 -2.515625 0.78125q-1.40625 0 -2.390625 -0.640625q-0.96875 -0.640625 -1.4375 -1.78125q-0.46875 -1.140625 -0.46875 -2.328125q0 -1.984375 1.1875 -3.296875q1.203125 -1.328125 3.015625 -1.328125zm-2.640625 3.8125l5.140625 0q-0.0625 -1.09375 -0.796875 -1.8125q-0.71875 -0.71875 -1.796875 -0.71875q-1.015625 0 -1.734375 0.6875q-0.71875 0.6875 -0.8125 1.84375zm12.572723 -3.8125q1.609375 0 2.34375 0.828125q0.734375 0.828125 0.734375 2.359375l0 5.96875l-1.46875 0l0 -6.125q0 -0.75 -0.5 -1.25q-0.484375 -0.5 -1.34375 -0.5q-1.234375 0 -1.9375 0.765625q-0.703125 0.765625 -0.703125 1.984375l0 5.125l-1.46875 0l0 -8.953125l1.390625 0l0 1.421875l0.03125 0q0.484375 -0.84375 1.203125 -1.234375q0.71875 -0.390625 1.71875 -0.390625zm8.93396 0q0.9375 0 1.625 0.40625q0.6875 0.40625 1.0625 1.078125l0.015625 0l0 -1.28125l1.375 0l0 8.28125q0 2.109375 -1.015625 3.203125q-1.015625 1.109375 -3.125 1.109375q-1.546875 0 -2.59375 -0.6875q-1.046875 -0.671875 -1.125 -1.953125l1.46875 0q0.046875 0.6875 0.734375 1.078125q0.703125 0.390625 1.59375 0.390625q1.296875 0 1.984375 -0.875q0.703125 -0.859375 0.703125 -2.5625l0 -0.546875l-0.03125 0q-0.34375 0.734375 -1.09375 1.171875q-0.75 0.4375 -1.703125 0.4375q-1.828125 0 -2.921875 -1.25q-1.078125 -1.25 -1.078125 -3.28125q0 -2.046875 1.078125 -3.375q1.09375 -1.34375 3.046875 -1.34375zm-2.5625 4.546875q0 1.59375 0.65625 2.515625q0.671875 0.90625 1.875 0.90625q1.21875 0 1.9375 -0.9375q0.71875 -0.953125 0.71875 -2.53125q0 -1.4375 -0.671875 -2.328125q-0.65625 -0.890625 -1.890625 -0.890625q-1.234375 0 -1.9375 0.890625q-0.6875 0.890625 -0.6875 2.375zm12.528259 -4.546875q1.828125 0 2.59375 0.65625q0.765625 0.640625 0.765625 1.734375q0 4.65625 0 5.171875q0 0.5 0.46875 0.5q0.109375 0 0.21875 -0.015625q0.125 -0.03125 0.234375 -0.0625l0 1.140625q-0.203125 0.109375 -0.46875 0.171875q-0.265625 0.078125 -0.578125 0.078125q-0.609375 0 -0.9375 -0.34375q-0.3125 -0.34375 -0.3125 -1.046875q-0.59375 0.6875 -1.390625 1.046875q-0.796875 0.34375 -1.765625 0.34375q-1.390625 0 -2.1875 -0.65625q-0.78125 -0.65625 -0.78125 -1.859375q0 -1.21875 0.765625 -1.921875q0.78125 -0.703125 3.625 -1.0625q0.96875 -0.125 1.3125 -0.359375q0.34375 -0.25 0.34375 -0.75q0 -0.734375 -0.484375 -1.109375q-0.46875 -0.375 -1.515625 -0.375q-1.09375 0 -1.640625 0.421875q-0.546875 0.40625 -0.59375 1.28125l-1.46875 0q0.078125 -1.484375 1.046875 -2.234375q0.984375 -0.75 2.75 -0.75zm-2.578125 6.75q0 0.625 0.453125 0.96875q0.453125 0.34375 1.28125 0.34375q1.234375 0 1.984375 -0.609375q0.75 -0.625 0.75 -1.390625l0 -1.53125q-0.375 0.265625 -0.96875 0.359375q-0.59375 0.078125 -1.578125 0.21875q-0.984375 0.140625 -1.453125 0.53125q-0.46875 0.390625 -0.46875 1.109375zm11.869598 -6.75q0.9375 0 1.625 0.40625q0.6875 0.40625 1.0625 1.078125l0.015625 0l0 -1.28125l1.375 0l0 8.28125q0 2.109375 -1.015625 3.203125q-1.015625 1.109375 -3.125 1.109375q-1.546875 0 -2.59375 -0.6875q-1.046875 -0.671875 -1.125 -1.953125l1.46875 0q0.046875 0.6875 0.734375 1.078125q0.703125 0.390625 1.59375 0.390625q1.296875 0 1.984375 -0.875q0.703125 -0.859375 0.703125 -2.5625l0 -0.546875l-0.03125 0q-0.34375 0.734375 -1.09375 1.171875q-0.75 0.4375 -1.703125 0.4375q-1.828125 0 -2.921875 -1.25q-1.078125 -1.25 -1.078125 -3.28125q0 -2.046875 1.078125 -3.375q1.09375 -1.34375 3.046875 -1.34375zm-2.5625 4.546875q0 1.59375 0.65625 2.515625q0.671875 0.90625 1.875 0.90625q1.21875 0 1.9375 -0.9375q0.71875 -0.953125 0.71875 -2.53125q0 -1.4375 -0.671875 -2.328125q-0.65625 -0.890625 -1.890625 -0.890625q-1.234375 0 -1.9375 0.890625q-0.6875 0.890625 -0.6875 2.375zm12.590759 -4.546875q1.9375 0 3.0 1.390625q1.0625 1.375 1.0625 3.546875l0 0.1875l-6.703125 0l0 0.109375q0 1.28125 0.734375 2.0625q0.75 0.765625 2.046875 0.765625q0.984375 0 1.5625 -0.453125q0.578125 -0.453125 0.765625 -1.296875l1.453125 0q-0.296875 1.484375 -1.3125 2.28125q-1.0 0.78125 -2.515625 0.78125q-1.40625 0 -2.390625 -0.640625q-0.96875 -0.640625 -1.4375 -1.78125q-0.46875 -1.140625 -0.46875 -2.328125q0 -1.984375 1.1875 -3.296875q1.203125 -1.328125 3.015625 -1.328125zm-2.640625 3.8125l5.140625 0q-0.0625 -1.09375 -0.796875 -1.8125q-0.71875 -0.71875 -1.796875 -0.71875q-1.015625 0 -1.734375 0.6875q-0.71875 0.6875 -0.8125 1.84375zm16.228973 -7.03125l0 12.375l-1.46875 0l0 -1.203125l-0.03125 0q-0.34375 0.6875 -1.109375 1.0625q-0.75 0.359375 -1.75 0.359375q-1.875 0 -3.0 -1.296875q-1.125 -1.3125 -1.125 -3.421875q0 -2.078125 1.078125 -3.359375q1.09375 -1.296875 3.0 -1.296875q0.875 0 1.671875 0.359375q0.796875 0.34375 1.234375 1.03125l0.03125 0l0 -4.609375l1.46875 0zm-6.921875 7.96875q0 1.4375 0.75 2.375q0.75 0.9375 2.015625 0.9375q1.3125 0 2.015625 -0.9375q0.71875 -0.9375 0.71875 -2.4375q0 -1.53125 -0.734375 -2.46875q-0.734375 -0.9375 -2.109375 -0.9375q-1.265625 0 -1.96875 0.9375q-0.6875 0.921875 -0.6875 2.53125zm16.054718 -7.234375l0 2.6875l1.78125 0l0 1.296875l-1.78125 0l0 5.609375q0 0.671875 0.4375 0.71875q0.453125 0.03125 0.9375 0.03125l0.40625 0l0 1.296875l-1.21875 0q-1.203125 0 -1.625 -0.421875q-0.40625 -0.4375 -0.40625 -1.453125l0 -5.78125l-1.53125 0l0 -1.296875l1.53125 0l0 -2.6875l1.46875 0zm4.8792114 -0.734375l0 4.734375l0.03125 0q0.328125 -0.71875 1.09375 -1.109375q0.765625 -0.40625 1.75 -0.40625q1.609375 0 2.34375 0.828125q0.734375 0.828125 0.734375 2.359375l0 5.96875l-1.46875 0l0 -6.125q0 -0.75 -0.5 -1.25q-0.484375 -0.5 -1.34375 -0.5q-1.234375 0 -1.9375 0.765625q-0.703125 0.765625 -0.703125 1.984375l0 5.125l-1.46875 0l0 -12.375l1.46875 0zm11.887085 3.21875q1.9375 0 3.0 1.390625q1.0625 1.375 1.0625 3.546875l0 0.1875l-6.703125 0l0 0.109375q0 1.28125 0.734375 2.0625q0.75 0.765625 2.046875 0.765625q0.984375 0 1.5625 -0.453125q0.578125 -0.453125 0.765625 -1.296875l1.453125 0q-0.296875 1.484375 -1.3125 2.28125q-1.0 0.78125 -2.515625 0.78125q-1.40625 0 -2.390625 -0.640625q-0.96875 -0.640625 -1.4375 -1.78125q-0.46875 -1.140625 -0.46875 -2.328125q0 -1.984375 1.1875 -3.296875q1.203125 -1.328125 3.015625 -1.328125zm-2.640625 3.8125l5.140625 0q-0.0625 -1.09375 -0.796875 -1.8125q-0.71875 -0.71875 -1.796875 -0.71875q-1.015625 0 -1.734375 0.6875q-0.71875 0.6875 -0.8125 1.84375zm16.699554 -3.8125q1.828125 0 2.59375 0.65625q0.765625 0.640625 0.765625 1.734375q0 4.65625 0 5.171875q0 0.5 0.46875 0.5q0.109375 0 0.21875 -0.015625q0.125 -0.03125 0.234375 -0.0625l0 1.140625q-0.203125 0.109375 -0.46875 0.171875q-0.265625 0.078125 -0.578125 0.078125q-0.609375 0 -0.9375 -0.34375q-0.3125 -0.34375 -0.3125 -1.046875q-0.59375 0.6875 -1.390625 1.046875q-0.796875 0.34375 -1.765625 0.34375q-1.390625 0 -2.1875 -0.65625q-0.78125 -0.65625 -0.78125 -1.859375q0 -1.21875 0.765625 -1.921875q0.78125 -0.703125 3.625 -1.0625q0.96875 -0.125 1.3125 -0.359375q0.34375 -0.25 0.34375 -0.75q0 -0.734375 -0.484375 -1.109375q-0.46875 -0.375 -1.515625 -0.375q-1.09375 0 -1.640625 0.421875q-0.546875 0.40625 -0.59375 1.28125l-1.46875 0q0.078125 -1.484375 1.046875 -2.234375q0.984375 -0.75 2.75 -0.75zm-2.578125 6.75q0 0.625 0.453125 0.96875q0.453125 0.34375 1.28125 0.34375q1.234375 0 1.984375 -0.609375q0.75 -0.625 0.75 -1.390625l0 -1.53125q-0.375 0.265625 -0.96875 0.359375q-0.59375 0.078125 -1.578125 0.21875q-0.984375 0.140625 -1.453125 0.53125q-0.46875 0.390625 -0.46875 1.109375zm9.697723 -6.546875l0 6.109375q0 0.75 0.484375 1.25q0.484375 0.5 1.34375 0.5q1.265625 0 1.953125 -0.765625q0.703125 -0.78125 0.703125 -1.984375l0 -5.109375l1.46875 0l0 8.953125l-1.390625 0l0 -1.421875l-0.03125 0q-0.5 0.859375 -1.234375 1.25q-0.734375 0.390625 -1.6875 0.390625q-1.5625 0 -2.328125 -0.8125q-0.75 -0.8125 -0.75 -2.390625l0 -5.96875l1.46875 0zm16.168335 -3.421875l0 12.375l-1.46875 0l0 -1.203125l-0.03125 0q-0.34375 0.6875 -1.109375 1.0625q-0.75 0.359375 -1.75 0.359375q-1.875 0 -3.0 -1.296875q-1.125 -1.3125 -1.125 -3.421875q0 -2.078125 1.078125 -3.359375q1.09375 -1.296875 3.0 -1.296875q0.875 0 1.671875 0.359375q0.796875 0.34375 1.234375 1.03125l0.03125 0l0 -4.609375l1.46875 0zm-6.921875 7.96875q0 1.4375 0.75 2.375q0.75 0.9375 2.015625 0.9375q1.3125 0 2.015625 -0.9375q0.71875 -0.9375 0.71875 -2.4375q0 -1.53125 -0.734375 -2.46875q-0.734375 -0.9375 -2.109375 -0.9375q-1.265625 0 -1.96875 0.9375q-0.6875 0.921875 -0.6875 2.53125zm10.756012 -7.96875l0 1.8125l-1.484375 0l0 -1.8125l1.484375 0zm0 3.421875l0 8.953125l-1.484375 0l0 -8.953125l1.484375 0zm6.006012 -0.203125q1.9375 0 3.0 1.390625q1.0625 1.375 1.0625 3.546875l0 0.1875l-6.703125 0l0 0.109375q0 1.28125 0.734375 2.0625q0.75 0.765625 2.046875 0.765625q0.984375 0 1.5625 -0.453125q0.578125 -0.453125 0.765625 -1.296875l1.453125 0q-0.296875 1.484375 -1.3125 2.28125q-1.0 0.78125 -2.515625 0.78125q-1.40625 0 -2.390625 -0.640625q-0.96875 -0.640625 -1.4375 -1.78125q-0.46875 -1.140625 -0.46875 -2.328125q0 -1.984375 1.1875 -3.296875q1.203125 -1.328125 3.015625 -1.328125zm-2.640625 3.8125l5.140625 0q-0.0625 -1.09375 -0.796875 -1.8125q-0.71875 -0.71875 -1.796875 -0.71875q-1.015625 0 -1.734375 0.6875q-0.71875 0.6875 -0.8125 1.84375zm12.572723 -3.8125q1.609375 0 2.34375 0.828125q0.734375 0.828125 0.734375 2.359375l0 5.96875l-1.46875 0l0 -6.125q0 -0.75 -0.5 -1.25q-0.484375 -0.5 -1.34375 -0.5q-1.234375 0 -1.9375 0.765625q-0.703125 0.765625 -0.703125 1.984375l0 5.125l-1.46875 0l0 -8.953125l1.390625 0l0 1.421875l0.03125 0q0.484375 -0.84375 1.203125 -1.234375q0.71875 -0.390625 1.71875 -0.390625zm9.02771 0q1.640625 0 2.65625 0.78125q1.03125 0.765625 1.21875 2.296875l-1.53125 0q-0.171875 -0.875 -0.75 -1.328125q-0.578125 -0.46875 -1.46875 -0.46875q-1.359375 0 -2.078125 0.921875q-0.703125 0.921875 -0.703125 2.59375q0 1.484375 0.703125 2.375q0.703125 0.890625 1.90625 0.890625q1.078125 0 1.6875 -0.578125q0.625 -0.578125 0.78125 -1.609375l1.5 0q-0.25 1.6875 -1.265625 2.59375q-1.015625 0.90625 -2.6875 0.90625q-1.953125 0 -3.078125 -1.234375q-1.109375 -1.234375 -1.109375 -3.34375q0 -2.203125 1.125 -3.5q1.140625 -1.296875 3.09375 -1.296875zm9.291473 0q1.9375 0 3.0 1.390625q1.0625 1.375 1.0625 3.546875l0 0.1875l-6.703125 0l0 0.109375q0 1.28125 0.734375 2.0625q0.75 0.765625 2.046875 0.765625q0.984375 0 1.5625 -0.453125q0.578125 -0.453125 0.765625 -1.296875l1.453125 0q-0.296875 1.484375 -1.3125 2.28125q-1.0 0.78125 -2.515625 0.78125q-1.40625 0 -2.390625 -0.640625q-0.96875 -0.640625 -1.4375 -1.78125q-0.46875 -1.140625 -0.46875 -2.328125q0 -1.984375 1.1875 -3.296875q1.203125 -1.328125 3.015625 -1.328125zm-2.640625 3.8125l5.140625 0q-0.0625 -1.09375 -0.796875 -1.8125q-0.71875 -0.71875 -1.796875 -0.71875q-1.015625 0 -1.734375 0.6875q-0.71875 0.6875 -0.8125 1.84375zm13.855804 -3.609375l2.03125 7.3125l0.03125 0l1.796875 -7.3125l1.609375 0l1.875 7.28125l0.015625 0.03125l0.03125 0l2.0 -7.3125l1.53125 0l-2.84375 8.921875l-0.03125 0.03125l-1.546875 0l-1.8125 -7.078125l-0.015625 -0.046875l-0.03125 0l-1.796875 7.125l-1.59375 0l-2.875 -8.953125l1.625 0zm13.88147 -3.421875l0 1.8125l-1.484375 0l0 -1.8125l1.484375 0zm0 3.421875l0 8.953125l-1.484375 0l0 -8.953125l1.484375 0zm4.334137 -2.6875l0 2.6875l1.78125 0l0 1.296875l-1.78125 0l0 5.609375q0 0.671875 0.4375 0.71875q0.453125 0.03125 0.9375 0.03125l0.40625 0l0 1.296875l-1.21875 0q-1.203125 0 -1.625 -0.421875q-0.40625 -0.4375 -0.40625 -1.453125l0 -5.78125l-1.53125 0l0 -1.296875l1.53125 0l0 -2.6875l1.46875 0zm4.8792114 -0.734375l0 4.734375l0.03125 0q0.328125 -0.71875 1.09375 -1.109375q0.765625 -0.40625 1.75 -0.40625q1.609375 0 2.34375 0.828125q0.734375 0.828125 0.734375 2.359375l0 5.96875l-1.46875 0l0 -6.125q0 -0.75 -0.5 -1.25q-0.484375 -0.5 -1.34375 -0.5q-1.234375 0 -1.9375 0.765625q-0.703125 0.765625 -0.703125 1.984375l0 5.125l-1.46875 0l0 -12.375l1.46875 0zm16.638916 3.21875q1.828125 0 2.59375 0.65625q0.765625 0.640625 0.765625 1.734375q0 4.65625 0 5.171875q0 0.5 0.46875 0.5q0.109375 0 0.21875 -0.015625q0.125 -0.03125 0.234375 -0.0625l0 1.140625q-0.203125 0.109375 -0.46875 0.171875q-0.265625 0.078125 -0.578125 0.078125q-0.609375 0 -0.9375 -0.34375q-0.3125 -0.34375 -0.3125 -1.046875q-0.59375 0.6875 -1.390625 1.046875q-0.796875 0.34375 -1.765625 0.34375q-1.390625 0 -2.1875 -0.65625q-0.78125 -0.65625 -0.78125 -1.859375q0 -1.21875 0.765625 -1.921875q0.78125 -0.703125 3.625 -1.0625q0.96875 -0.125 1.3125 -0.359375q0.34375 -0.25 0.34375 -0.75q0 -0.734375 -0.484375 -1.109375q-0.46875 -0.375 -1.515625 -0.375q-1.09375 0 -1.640625 0.421875q-0.546875 0.40625 -0.59375 1.28125l-1.46875 0q0.078125 -1.484375 1.046875 -2.234375q0.984375 -0.75 2.75 -0.75zm-2.578125 6.75q0 0.625 0.453125 0.96875q0.453125 0.34375 1.28125 0.34375q1.234375 0 1.984375 -0.609375q0.75 -0.625 0.75 -1.390625l0 -1.53125q-0.375 0.265625 -0.96875 0.359375q-0.59375 0.078125 -1.578125 0.21875q-0.984375 0.140625 -1.453125 0.53125q-0.46875 0.390625 -0.46875 1.109375zm17.49643 -6.765625q0.0625 0 0.09375 0q0.046875 0 0.109375 0.015625l0 1.546875q-1.65625 0 -2.453125 0.890625q-0.78125 0.875 -0.78125 2.703125l0 4.015625l-1.46875 0l0 -8.953125l1.375 0l0 1.875l0.046875 0q0.515625 -1.0625 1.265625 -1.578125q0.765625 -0.515625 1.8125 -0.515625zm4.72287 0.015625q1.9375 0 3.0 1.390625q1.0625 1.375 1.0625 3.546875l0 0.1875l-6.703125 0l0 0.109375q0 1.28125 0.734375 2.0625q0.75 0.765625 2.046875 0.765625q0.984375 0 1.5625 -0.453125q0.578125 -0.453125 0.765625 -1.296875l1.453125 0q-0.296875 1.484375 -1.3125 2.28125q-1.0 0.78125 -2.515625 0.78125q-1.40625 0 -2.390625 -0.640625q-0.96875 -0.640625 -1.4375 -1.78125q-0.46875 -1.140625 -0.46875 -2.328125q0 -1.984375 1.1875 -3.296875q1.203125 -1.328125 3.015625 -1.328125zm-2.640625 3.8125l5.140625 0q-0.0625 -1.09375 -0.796875 -1.8125q-0.71875 -0.71875 -1.796875 -0.71875q-1.015625 0 -1.734375 0.6875q-0.71875 0.6875 -0.8125 1.84375zm11.885223 -3.8125q1.828125 0 2.59375 0.65625q0.765625 0.640625 0.765625 1.734375q0 4.65625 0 5.171875q0 0.5 0.46875 0.5q0.109375 0 0.21875 -0.015625q0.125 -0.03125 0.234375 -0.0625l0 1.140625q-0.203125 0.109375 -0.46875 0.171875q-0.265625 0.078125 -0.578125 0.078125q-0.609375 0 -0.9375 -0.34375q-0.3125 -0.34375 -0.3125 -1.046875q-0.59375 0.6875 -1.390625 1.046875q-0.796875 0.34375 -1.765625 0.34375q-1.390625 0 -2.1875 -0.65625q-0.78125 -0.65625 -0.78125 -1.859375q0 -1.21875 0.765625 -1.921875q0.78125 -0.703125 3.625 -1.0625q0.96875 -0.125 1.3125 -0.359375q0.34375 -0.25 0.34375 -0.75q0 -0.734375 -0.484375 -1.109375q-0.46875 -0.375 -1.515625 -0.375q-1.09375 0 -1.640625 0.421875q-0.546875 0.40625 -0.59375 1.28125l-1.46875 0q0.078125 -1.484375 1.046875 -2.234375q0.984375 -0.75 2.75 -0.75zm-2.578125 6.75q0 0.625 0.453125 0.96875q0.453125 0.34375 1.28125 0.34375q1.234375 0 1.984375 -0.609375q0.75 -0.625 0.75 -1.390625l0 -1.53125q-0.375 0.265625 -0.96875 0.359375q-0.59375 0.078125 -1.578125 0.21875q-0.984375 0.140625 -1.453125 0.53125q-0.46875 0.390625 -0.46875 1.109375zm9.791473 -9.96875l0 12.375l-1.484375 0l0 -12.375l1.484375 0zm7.052887 6.859375l0 1.390625l-5.015625 0l0 -1.390625l5.015625 0zm4.024658 -6.125l0 2.6875l1.78125 0l0 1.296875l-1.78125 0l0 5.609375q0 0.671875 0.4375 0.71875q0.453125 0.03125 0.9375 0.03125l0.40625 0l0 1.296875l-1.21875 0q-1.203125 0 -1.625 -0.421875q-0.40625 -0.4375 -0.40625 -1.453125l0 -5.78125l-1.53125 0l0 -1.296875l1.53125 0l0 -2.6875l1.46875 0zm4.9729614 -0.734375l0 1.8125l-1.484375 0l0 -1.8125l1.484375 0zm0 3.421875l0 8.953125l-1.484375 0l0 -8.953125l1.484375 0zm6.599762 -0.203125q0.984375 0 1.609375 0.390625q0.625 0.390625 0.859375 1.125q0.453125 -0.71875 1.1875 -1.109375q0.734375 -0.40625 1.625 -0.40625q1.515625 0 2.234375 0.6875q0.734375 0.671875 0.734375 1.84375l0 6.625l-1.46875 0l0 -5.9375q0 -0.96875 -0.421875 -1.453125q-0.40625 -0.484375 -1.3125 -0.484375q-1.109375 0 -1.734375 0.65625q-0.609375 0.640625 -0.609375 1.59375l0 5.625l-1.46875 0l0 -5.9375q0 -0.96875 -0.40625 -1.453125q-0.40625 -0.484375 -1.28125 -0.484375q-0.703125 0 -1.25 0.34375q-0.53125 0.34375 -0.84375 0.9375q-0.296875 0.578125 -0.296875 0.984375l0 5.609375l-1.46875 0l0 -8.953125l1.390625 0l0 1.3125l0.03125 0q0.5 -0.765625 1.21875 -1.140625q0.71875 -0.375 1.671875 -0.375zm14.187592 0q1.9375 0 3.0 1.390625q1.0625 1.375 1.0625 3.546875l0 0.1875l-6.703125 0l0 0.109375q0 1.28125 0.734375 2.0625q0.75 0.765625 2.046875 0.765625q0.984375 0 1.5625 -0.453125q0.578125 -0.453125 0.765625 -1.296875l1.453125 0q-0.296875 1.484375 -1.3125 2.28125q-1.0 0.78125 -2.515625 0.78125q-1.40625 0 -2.390625 -0.640625q-0.96875 -0.640625 -1.4375 -1.78125q-0.46875 -1.140625 -0.46875 -2.328125q0 -1.984375 1.1875 -3.296875q1.203125 -1.328125 3.015625 -1.328125zm-2.640625 3.8125l5.140625 0q-0.0625 -1.09375 -0.796875 -1.8125q-0.71875 -0.71875 -1.796875 -0.71875q-1.015625 0 -1.734375 0.6875q-0.71875 0.6875 -0.8125 1.84375zm13.824585 -3.609375l2.515625 7.46875l0.03125 0l2.4375 -7.46875l1.546875 0l-3.28125 8.953125l-1.5625 0l-3.328125 -8.953125l1.640625 0zm11.6015625 -0.203125q1.9375 0 3.0 1.390625q1.0625 1.375 1.0625 3.546875l0 0.1875l-6.703125 0l0 0.109375q0 1.28125 0.734375 2.0625q0.75 0.765625 2.046875 0.765625q0.984375 0 1.5625 -0.453125q0.578125 -0.453125 0.765625 -1.296875l1.453125 0q-0.296875 1.484375 -1.3125 2.28125q-1.0 0.78125 -2.515625 0.78125q-1.40625 0 -2.390625 -0.640625q-0.96875 -0.640625 -1.4375 -1.78125q-0.46875 -1.140625 -0.46875 -2.328125q0 -1.984375 1.1875 -3.296875q1.203125 -1.328125 3.015625 -1.328125zm-2.640625 3.8125l5.140625 0q-0.0625 -1.09375 -0.796875 -1.8125q-0.71875 -0.71875 -1.796875 -0.71875q-1.015625 0 -1.734375 0.6875q-0.71875 0.6875 -0.8125 1.84375zm9.697693 -7.03125l0 4.734375l0.03125 0q0.328125 -0.71875 1.09375 -1.109375q0.765625 -0.40625 1.75 -0.40625q1.609375 0 2.34375 0.828125q0.734375 0.828125 0.734375 2.359375l0 5.96875l-1.46875 0l0 -6.125q0 -0.75 -0.5 -1.25q-0.484375 -0.5 -1.34375 -0.5q-1.234375 0 -1.9375 0.765625q-0.703125 0.765625 -0.703125 1.984375l0 5.125l-1.46875 0l0 -12.375l1.46875 0zm9.730835 0l0 1.8125l-1.484375 0l0 -1.8125l1.484375 0zm0 3.421875l0 8.953125l-1.484375 0l0 -8.953125l1.484375 0zm6.0216675 -0.203125q1.640625 0 2.65625 0.78125q1.03125 0.765625 1.21875 2.296875l-1.53125 0q-0.171875 -0.875 -0.75 -1.328125q-0.578125 -0.46875 -1.46875 -0.46875q-1.359375 0 -2.078125 0.921875q-0.703125 0.921875 -0.703125 2.59375q0 1.484375 0.703125 2.375q0.703125 0.890625 1.90625 0.890625q1.078125 0 1.6875 -0.578125q0.625 -0.578125 0.78125 -1.609375l1.5 0q-0.25 1.6875 -1.265625 2.59375q-1.015625 0.90625 -2.6875 0.90625q-1.953125 0 -3.078125 -1.234375q-1.109375 -1.234375 -1.109375 -3.34375q0 -2.203125 1.125 -3.5q1.140625 -1.296875 3.09375 -1.296875zm7.135193 -3.21875l0 12.375l-1.484375 0l0 -12.375l1.484375 0zm6.0060425 3.21875q1.9375 0 3.0 1.390625q1.0625 1.375 1.0625 3.546875l0 0.1875l-6.703125 0l0 0.109375q0 1.28125 0.734375 2.0625q0.75 0.765625 2.046875 0.765625q0.984375 0 1.5625 -0.453125q0.578125 -0.453125 0.765625 -1.296875l1.453125 0q-0.296875 1.484375 -1.3125 2.28125q-1.0 0.78125 -2.515625 0.78125q-1.40625 0 -2.390625 -0.640625q-0.96875 -0.640625 -1.4375 -1.78125q-0.46875 -1.140625 -0.46875 -2.328125q0 -1.984375 1.1875 -3.296875q1.203125 -1.328125 3.015625 -1.328125zm-2.640625 3.8125l5.140625 0q-0.0625 -1.09375 -0.796875 -1.8125q-0.71875 -0.71875 -1.796875 -0.71875q-1.015625 0 -1.734375 0.6875q-0.71875 0.6875 -0.8125 1.84375zm16.777649 -3.8125q1.640625 0 2.65625 0.78125q1.03125 0.765625 1.21875 2.296875l-1.53125 0q-0.171875 -0.875 -0.75 -1.328125q-0.578125 -0.46875 -1.46875 -0.46875q-1.359375 0 -2.078125 0.921875q-0.703125 0.921875 -0.703125 2.59375q0 1.484375 0.703125 2.375q0.703125 0.890625 1.90625 0.890625q1.078125 0 1.6875 -0.578125q0.625 -0.578125 0.78125 -1.609375l1.5 0q-0.25 1.6875 -1.265625 2.59375q-1.015625 0.90625 -2.6875 0.90625q-1.953125 0 -3.078125 -1.234375q-1.109375 -1.234375 -1.109375 -3.34375q0 -2.203125 1.125 -3.5q1.140625 -1.296875 3.09375 -1.296875zm7.041443 0.203125l0 6.109375q0 0.75 0.484375 1.25q0.484375 0.5 1.34375 0.5q1.265625 0 1.953125 -0.765625q0.703125 -0.78125 0.703125 -1.984375l0 -5.109375l1.46875 0l0 8.953125l-1.390625 0l0 -1.421875l-0.03125 0q-0.5 0.859375 -1.234375 1.25q-0.734375 0.390625 -1.6875 0.390625q-1.5625 0 -2.328125 -0.8125q-0.75 -0.8125 -0.75 -2.390625l0 -5.96875l1.46875 0zm11.15271 -0.203125q1.796875 0 2.671875 0.703125q0.890625 0.6875 0.96875 2.09375l-1.46875 0l0 -0.015625q-0.0625 -0.71875 -0.625 -1.109375q-0.5625 -0.390625 -1.4375 -0.390625q-0.890625 0 -1.40625 0.3125q-0.515625 0.296875 -0.515625 0.84375q0 0.484375 0.453125 0.796875q0.453125 0.3125 1.375 0.5l1.375 0.3125q1.3125 0.296875 1.984375 0.890625q0.671875 0.59375 0.671875 1.609375q0 1.3125 -1.03125 2.078125q-1.015625 0.75 -2.78125 0.75q-1.71875 0 -2.734375 -0.765625q-1.0 -0.78125 -1.0625 -2.28125l1.484375 0q0.03125 0.84375 0.65625 1.296875q0.640625 0.4375 1.75 0.4375q1.0625 0 1.609375 -0.328125q0.546875 -0.34375 0.546875 -1.0q0 -0.609375 -0.546875 -0.953125q-0.546875 -0.359375 -2.234375 -0.6875q-1.6875 -0.34375 -2.375 -0.9375q-0.6875 -0.609375 -0.6875 -1.609375q0 -1.1875 0.953125 -1.859375q0.953125 -0.6875 2.40625 -0.6875zm7.7265625 -2.484375l0 2.6875l1.78125 0l0 1.296875l-1.78125 0l0 5.609375q0 0.671875 0.4375 0.71875q0.453125 0.03125 0.9375 0.03125l0.40625 0l0 1.296875l-1.21875 0q-1.203125 0 -1.625 -0.421875q-0.40625 -0.4375 -0.40625 -1.453125l0 -5.78125l-1.53125 0l0 -1.296875l1.53125 0l0 -2.6875l1.46875 0zm7.0582886 2.484375q2.03125 0 3.1875 1.3125q1.171875 1.296875 1.171875 3.375q0 2.09375 -1.1875 3.390625q-1.1875 1.296875 -3.171875 1.296875q-1.9375 0 -3.140625 -1.265625q-1.203125 -1.28125 -1.203125 -3.421875q0 -2.125 1.171875 -3.40625q1.1875 -1.28125 3.171875 -1.28125zm-2.78125 4.6875q0 1.546875 0.78125 2.46875q0.78125 0.90625 2.0 0.90625q1.21875 0 2.0 -0.921875q0.796875 -0.921875 0.796875 -2.453125q0 -1.53125 -0.796875 -2.46875q-0.78125 -0.9375 -2.015625 -0.9375q-1.171875 0 -1.96875 0.921875q-0.796875 0.921875 -0.796875 2.484375zm13.184509 -4.6875q0.984375 0 1.609375 0.390625q0.625 0.390625 0.859375 1.125q0.453125 -0.71875 1.1875 -1.109375q0.734375 -0.40625 1.625 -0.40625q1.515625 0 2.234375 0.6875q0.734375 0.671875 0.734375 1.84375l0 6.625l-1.46875 0l0 -5.9375q0 -0.96875 -0.421875 -1.453125q-0.40625 -0.484375 -1.3125 -0.484375q-1.109375 0 -1.734375 0.65625q-0.609375 0.640625 -0.609375 1.59375l0 5.625l-1.46875 0l0 -5.9375q0 -0.96875 -0.40625 -1.453125q-0.40625 -0.484375 -1.28125 -0.484375q-0.703125 0 -1.25 0.34375q-0.53125 0.34375 -0.84375 0.9375q-0.296875 0.578125 -0.296875 0.984375l0 5.609375l-1.46875 0l0 -8.953125l1.390625 0l0 1.3125l0.03125 0q0.5 -0.765625 1.21875 -1.140625q0.71875 -0.375 1.671875 -0.375zm12.031372 -3.21875l0 1.8125l-1.484375 0l0 -1.8125l1.484375 0zm0 3.421875l0 8.953125l-1.484375 0l0 -8.953125l1.484375 0zm8.865356 0l0 1.0l-5.46875 6.65625l5.71875 0l0 1.296875l-7.5625 0l0 -1.125l5.40625 -6.53125l-5.046875 0l0 -1.296875l6.953125 0zm5.3953247 -0.203125q1.828125 0 2.59375 0.65625q0.765625 0.640625 0.765625 1.734375q0 4.65625 0 5.171875q0 0.5 0.46875 0.5q0.109375 0 0.21875 -0.015625q0.125 -0.03125 0.234375 -0.0625l0 1.140625q-0.203125 0.109375 -0.46875 0.171875q-0.265625 0.078125 -0.578125 0.078125q-0.609375 0 -0.9375 -0.34375q-0.3125 -0.34375 -0.3125 -1.046875q-0.59375 0.6875 -1.390625 1.046875q-0.796875 0.34375 -1.765625 0.34375q-1.390625 0 -2.1875 -0.65625q-0.78125 -0.65625 -0.78125 -1.859375q0 -1.21875 0.765625 -1.921875q0.78125 -0.703125 3.625 -1.0625q0.96875 -0.125 1.3125 -0.359375q0.34375 -0.25 0.34375 -0.75q0 -0.734375 -0.484375 -1.109375q-0.46875 -0.375 -1.515625 -0.375q-1.09375 0 -1.640625 0.421875q-0.546875 0.40625 -0.59375 1.28125l-1.46875 0q0.078125 -1.484375 1.046875 -2.234375q0.984375 -0.75 2.75 -0.75zm-2.578125 6.75q0 0.625 0.453125 0.96875q0.453125 0.34375 1.28125 0.34375q1.234375 0 1.984375 -0.609375q0.75 -0.625 0.75 -1.390625l0 -1.53125q-0.375 0.265625 -0.96875 0.359375q-0.59375 0.078125 -1.578125 0.21875q-0.984375 0.140625 -1.453125 0.53125q-0.46875 0.390625 -0.46875 1.109375zm10.275818 -9.234375l0 2.6875l1.78125 0l0 1.296875l-1.78125 0l0 5.609375q0 0.671875 0.4375 0.71875q0.453125 0.03125 0.9375 0.03125l0.40625 0l0 1.296875l-1.21875 0q-1.203125 0 -1.625 -0.421875q-0.40625 -0.4375 -0.40625 -1.453125l0 -5.78125l-1.53125 0l0 -1.296875l1.53125 0l0 -2.6875l1.46875 0zm4.9730225 -0.734375l0 1.8125l-1.484375 0l0 -1.8125l1.484375 0zm0 3.421875l0 8.953125l-1.484375 0l0 -8.953125l1.484375 0zm6.1466064 -0.203125q2.03125 0 3.1875 1.3125q1.171875 1.296875 1.171875 3.375q0 2.09375 -1.1875 3.390625q-1.1875 1.296875 -3.171875 1.296875q-1.9375 0 -3.140625 -1.265625q-1.203125 -1.28125 -1.203125 -3.421875q0 -2.125 1.171875 -3.40625q1.1875 -1.28125 3.171875 -1.28125zm-2.78125 4.6875q0 1.546875 0.78125 2.46875q0.78125 0.90625 2.0 0.90625q1.21875 0 2.0 -0.921875q0.796875 -0.921875 0.796875 -2.453125q0 -1.53125 -0.796875 -2.46875q-0.78125 -0.9375 -2.015625 -0.9375q-1.171875 0 -1.96875 0.921875q-0.796875 0.921875 -0.796875 2.484375zm13.215759 -4.6875q1.609375 0 2.34375 0.828125q0.734375 0.828125 0.734375 2.359375l0 5.96875l-1.46875 0l0 -6.125q0 -0.75 -0.5 -1.25q-0.484375 -0.5 -1.34375 -0.5q-1.234375 0 -1.9375 0.765625q-0.703125 0.765625 -0.703125 1.984375l0 5.125l-1.46875 0l0 -8.953125l1.390625 0l0 1.421875l0.03125 0q0.484375 -0.84375 1.203125 -1.234375q0.71875 -0.390625 1.71875 -0.390625zm14.529541 0q1.921875 0 3.015625 1.328125q1.109375 1.3125 1.109375 3.375q0 2.078125 -1.109375 3.375q-1.09375 1.296875 -2.984375 1.296875q-0.828125 0 -1.640625 -0.34375q-0.796875 -0.359375 -1.25 -1.0625l-0.046875 0l0 4.625l-1.46875 0l0 -12.390625l1.46875 0l0 1.21875l0.046875 0q0.34375 -0.703125 1.09375 -1.0625q0.75 -0.359375 1.765625 -0.359375zm-2.953125 4.671875q0 1.5625 0.75 2.484375q0.765625 0.90625 2.078125 0.90625q1.28125 0 1.984375 -0.90625q0.703125 -0.921875 0.703125 -2.546875q0 -1.453125 -0.75 -2.390625q-0.734375 -0.9375 -2.03125 -0.9375q-1.296875 0 -2.015625 0.953125q-0.71875 0.953125 -0.71875 2.4375zm10.3654175 -7.890625l0 12.375l-1.484375 0l0 -12.375l1.484375 0zm5.9435425 3.21875q1.828125 0 2.59375 0.65625q0.765625 0.640625 0.765625 1.734375q0 4.65625 0 5.171875q0 0.5 0.46875 0.5q0.109375 0 0.21875 -0.015625q0.125 -0.03125 0.234375 -0.0625l0 1.140625q-0.203125 0.109375 -0.46875 0.171875q-0.265625 0.078125 -0.578125 0.078125q-0.609375 0 -0.9375 -0.34375q-0.3125 -0.34375 -0.3125 -1.046875q-0.59375 0.6875 -1.390625 1.046875q-0.796875 0.34375 -1.765625 0.34375q-1.390625 0 -2.1875 -0.65625q-0.78125 -0.65625 -0.78125 -1.859375q0 -1.21875 0.765625 -1.921875q0.78125 -0.703125 3.625 -1.0625q0.96875 -0.125 1.3125 -0.359375q0.34375 -0.25 0.34375 -0.75q0 -0.734375 -0.484375 -1.109375q-0.46875 -0.375 -1.515625 -0.375q-1.09375 0 -1.640625 0.421875q-0.546875 0.40625 -0.59375 1.28125l-1.46875 0q0.078125 -1.484375 1.046875 -2.234375q0.984375 -0.75 2.75 -0.75zm-2.578125 6.75q0 0.625 0.453125 0.96875q0.453125 0.34375 1.28125 0.34375q1.234375 0 1.984375 -0.609375q0.75 -0.625 0.75 -1.390625l0 -1.53125q-0.375 0.265625 -0.96875 0.359375q-0.59375 0.078125 -1.578125 0.21875q-0.984375 0.140625 -1.453125 0.53125q-0.46875 0.390625 -0.46875 1.109375zm10.275879 -9.234375l0 2.6875l1.78125 0l0 1.296875l-1.78125 0l0 5.609375q0 0.671875 0.4375 0.71875q0.453125 0.03125 0.9375 0.03125l0.40625 0l0 1.296875l-1.21875 0q-1.203125 0 -1.625 -0.421875q-0.40625 -0.4375 -0.40625 -1.453125l0 -5.78125l-1.53125 0l0 -1.296875l1.53125 0l0 -2.6875l1.46875 0zm6.4885864 -0.875q0.171875 0 0.46875 0.046875q0.3125 0.046875 0.484375 0.09375l0 1.28125q-0.171875 -0.0625 -0.421875 -0.078125q-0.234375 -0.03125 -0.40625 -0.03125q-0.609375 0 -0.875 0.25q-0.25 0.25 -0.25 0.703125l0 1.296875l1.734375 0l0 1.296875l-1.734375 0l0 7.65625l-1.46875 0l0 -7.65625l-1.5 0l0 -1.296875l1.5 0l0 -1.40625q0 -0.984375 0.625 -1.5625q0.625 -0.59375 1.84375 -0.59375zm5.9086304 3.359375q2.03125 0 3.1875 1.3125q1.171875 1.296875 1.171875 3.375q0 2.09375 -1.1875 3.390625q-1.1875 1.296875 -3.171875 1.296875q-1.9375 0 -3.140625 -1.265625q-1.203125 -1.28125 -1.203125 -3.421875q0 -2.125 1.171875 -3.40625q1.1875 -1.28125 3.171875 -1.28125zm-2.78125 4.6875q0 1.546875 0.78125 2.46875q0.78125 0.90625 2.0 0.90625q1.21875 0 2.0 -0.921875q0.796875 -0.921875 0.796875 -2.453125q0 -1.53125 -0.796875 -2.46875q-0.78125 -0.9375 -2.015625 -0.9375q-1.171875 0 -1.96875 0.921875q-0.796875 0.921875 -0.796875 2.484375zm13.325134 -4.703125q0.0625 0 0.09375 0q0.046875 0 0.109375 0.015625l0 1.546875q-1.65625 0 -2.453125 0.890625q-0.78125 0.875 -0.78125 2.703125l0 4.015625l-1.46875 0l0 -8.953125l1.375 0l0 1.875l0.046875 0q0.515625 -1.0625 1.265625 -1.578125q0.765625 -0.515625 1.8125 -0.515625zm5.6297607 0.015625q0.984375 0 1.609375 0.390625q0.625 0.390625 0.859375 1.125q0.453125 -0.71875 1.1875 -1.109375q0.734375 -0.40625 1.625 -0.40625q1.515625 0 2.234375 0.6875q0.734375 0.671875 0.734375 1.84375l0 6.625l-1.46875 0l0 -5.9375q0 -0.96875 -0.421875 -1.453125q-0.40625 -0.484375 -1.3125 -0.484375q-1.109375 0 -1.734375 0.65625q-0.609375 0.640625 -0.609375 1.59375l0 5.625l-1.46875 0l0 -5.9375q0 -0.96875 -0.40625 -1.453125q-0.40625 -0.484375 -1.28125 -0.484375q-0.703125 0 -1.25 0.34375q-0.53125 0.34375 -0.84375 0.9375q-0.296875 0.578125 -0.296875 0.984375l0 5.609375l-1.46875 0l0 -8.953125l1.390625 0l0 1.3125l0.03125 0q0.5 -0.765625 1.21875 -1.140625q0.71875 -0.375 1.671875 -0.375zm12.718872 7.234375l0 1.84375q0 0.953125 -0.46875 1.640625q-0.46875 0.6875 -1.4375 0.984375l0 -0.859375q0.453125 -0.171875 0.734375 -0.59375q0.28125 -0.421875 0.28125 -1.0l0 -0.09375l-1.03125 0l0 -1.921875l1.921875 0z" fill-rule="nonzero"/><path fill="#d9d9d9" d="m200.47089 510.07062q1.921875 0 3.015625 1.328125q1.109375 1.3125 1.109375 3.375q0 2.078125 -1.109375 3.375q-1.09375 1.296875 -2.984375 1.296875q-0.828125 0 -1.640625 -0.34375q-0.796875 -0.359375 -1.25 -1.0625l-0.046875 0l0 4.625l-1.46875 0l0 -12.390625l1.46875 0l0 1.21875l0.046875 0q0.34375 -0.703125 1.09375 -1.0625q0.75 -0.359375 1.765625 -0.359375zm-2.953125 4.671875q0 1.5625 0.75 2.484375q0.765625 0.90625 2.078125 0.90625q1.28125 0 1.984375 -0.90625q0.703125 -0.921875 0.703125 -2.546875q0 -1.453125 -0.75 -2.390625q-0.734375 -0.9375 -2.03125 -0.9375q-1.296875 0 -2.015625 0.953125q-0.71875 0.953125 -0.71875 2.4375zm13.256027 -4.6875q0.0625 0 0.09375 0q0.046875 0 0.109375 0.015625l0 1.546875q-1.65625 0 -2.453125 0.890625q-0.78125 0.875 -0.78125 2.703125l0 4.015625l-1.46875 0l0 -8.953125l1.375 0l0 1.875l0.046875 0q0.515625 -1.0625 1.265625 -1.578125q0.765625 -0.515625 1.8125 -0.515625zm4.863495 0.015625q2.03125 0 3.1875 1.3125q1.171875 1.296875 1.171875 3.375q0 2.09375 -1.1875 3.390625q-1.1875 1.296875 -3.171875 1.296875q-1.9375 0 -3.140625 -1.265625q-1.203125 -1.28125 -1.203125 -3.421875q0 -2.125 1.171875 -3.40625q1.1875 -1.28125 3.171875 -1.28125zm-2.78125 4.6875q0 1.546875 0.78125 2.46875q0.78125 0.90625 2.0 0.90625q1.21875 0 2.0 -0.921875q0.796875 -0.921875 0.796875 -2.453125q0 -1.53125 -0.796875 -2.46875q-0.78125 -0.9375 -2.015625 -0.9375q-1.171875 0 -1.96875 0.921875q-0.796875 0.921875 -0.796875 2.484375zm10.434509 -7.90625l0 1.8125l-1.484375 0l0 -1.8125l1.484375 0zm0 3.421875l0 10.15625q0 1.046875 -0.546875 1.640625q-0.53125 0.59375 -1.609375 0.59375q-0.203125 0 -0.390625 -0.015625q-0.1875 -0.015625 -0.375 -0.0625l0 -1.265625q0.125 0.03125 0.25 0.03125q0.125 0 0.234375 0q0.4375 0 0.59375 -0.09375q0.15625 -0.078125 0.25 -0.296875q0.109375 -0.21875 0.109375 -0.765625l0 -9.921875l1.484375 0zm6.006012 -0.203125q1.9375 0 3.0 1.390625q1.0625 1.375 1.0625 3.546875l0 0.1875l-6.703125 0l0 0.109375q0 1.28125 0.734375 2.0625q0.75 0.765625 2.046875 0.765625q0.984375 0 1.5625 -0.453125q0.578125 -0.453125 0.765625 -1.296875l1.453125 0q-0.296875 1.484375 -1.3125 2.28125q-1.0 0.78125 -2.515625 0.78125q-1.40625 0 -2.390625 -0.640625q-0.96875 -0.640625 -1.4375 -1.78125q-0.46875 -1.140625 -0.46875 -2.328125q0 -1.984375 1.1875 -3.296875q1.203125 -1.328125 3.015625 -1.328125zm-2.640625 3.8125l5.140625 0q-0.0625 -1.09375 -0.796875 -1.8125q-0.71875 -0.71875 -1.796875 -0.71875q-1.015625 0 -1.734375 0.6875q-0.71875 0.6875 -0.8125 1.84375zm11.963348 -3.8125q1.640625 0 2.65625 0.78125q1.03125 0.765625 1.21875 2.296875l-1.53125 0q-0.171875 -0.875 -0.75 -1.328125q-0.578125 -0.46875 -1.46875 -0.46875q-1.359375 0 -2.078125 0.921875q-0.703125 0.921875 -0.703125 2.59375q0 1.484375 0.703125 2.375q0.703125 0.890625 1.90625 0.890625q1.078125 0 1.6875 -0.578125q0.625 -0.578125 0.78125 -1.609375l1.5 0q-0.25 1.6875 -1.265625 2.59375q-1.015625 0.90625 -2.6875 0.90625q-1.953125 0 -3.078125 -1.234375q-1.109375 -1.234375 -1.109375 -3.34375q0 -2.203125 1.125 -3.5q1.140625 -1.296875 3.09375 -1.296875zm7.6195984 -2.484375l0 2.6875l1.78125 0l0 1.296875l-1.78125 0l0 5.609375q0 0.671875 0.4375 0.71875q0.453125 0.03125 0.9375 0.03125l0.40625 0l0 1.296875l-1.21875 0q-1.203125 0 -1.625 -0.421875q-0.40625 -0.4375 -0.40625 -1.453125l0 -5.78125l-1.53125 0l0 -1.296875l1.53125 0l0 -2.6875l1.46875 0zm6.917633 2.484375q1.9375 0 2.9999847 1.390625q1.0625 1.375 1.0625 3.546875l0 0.1875l-6.7031097 0l0 0.109375q0 1.28125 0.734375 2.0625q0.75 0.765625 2.046875 0.765625q0.984375 0 1.5625 -0.453125q0.578125 -0.453125 0.765625 -1.296875l1.4531097 0q-0.296875 1.484375 -1.3124847 2.28125q-1.0 0.78125 -2.515625 0.78125q-1.40625 0 -2.390625 -0.640625q-0.96875 -0.640625 -1.4375 -1.78125q-0.46875 -1.140625 -0.46875 -2.328125q0 -1.984375 1.1875 -3.296875q1.203125 -1.328125 3.015625 -1.328125zm-2.640625 3.8125l5.140625 0q-0.0625 -1.09375 -0.796875 -1.8125q-0.71875 -0.71875 -1.796875 -0.71875q-1.015625 0 -1.734375 0.6875q-0.71875 0.6875 -0.8125 1.84375zm16.228958 -7.03125l0 12.375l-1.46875 0l0 -1.203125l-0.03125 0q-0.34375 0.6875 -1.109375 1.0625q-0.75 0.359375 -1.75 0.359375q-1.875 0 -3.0 -1.296875q-1.125 -1.3125 -1.125 -3.421875q0 -2.078125 1.078125 -3.359375q1.09375 -1.296875 3.0 -1.296875q0.875 0 1.671875 0.359375q0.796875 0.34375 1.234375 1.03125l0.03125 0l0 -4.609375l1.46875 0zm-6.921875 7.96875q0 1.4375 0.75 2.375q0.75 0.9375 2.015625 0.9375q1.3125 0 2.015625 -0.9375q0.71875 -0.9375 0.71875 -2.4375q0 -1.53125 -0.734375 -2.46875q-0.734375 -0.9375 -2.109375 -0.9375q-1.265625 0 -1.96875 0.9375q-0.6875 0.921875 -0.6875 2.53125zm17.867218 -4.75q2.03125 0 3.1875 1.3125q1.171875 1.296875 1.171875 3.375q0 2.09375 -1.1875 3.390625q-1.1875 1.296875 -3.171875 1.296875q-1.9375 0 -3.140625 -1.265625q-1.203125 -1.28125 -1.203125 -3.421875q0 -2.125 1.171875 -3.40625q1.1875 -1.28125 3.171875 -1.28125zm-2.78125 4.6875q0 1.546875 0.78125 2.46875q0.78125 0.90625 2.0 0.90625q1.21875 0 2.0 -0.921875q0.796875 -0.921875 0.796875 -2.453125q0 -1.53125 -0.796875 -2.46875q-0.78125 -0.9375 -2.015625 -0.9375q-1.171875 0 -1.96875 0.921875q-0.796875 0.921875 -0.796875 2.484375zm13.215759 -4.6875q1.609375 0 2.34375 0.828125q0.734375 0.828125 0.734375 2.359375l0 5.96875l-1.46875 0l0 -6.125q0 -0.75 -0.5 -1.25q-0.484375 -0.5 -1.34375 -0.5q-1.234375 0 -1.9375 0.765625q-0.703125 0.765625 -0.703125 1.984375l0 5.125l-1.46875 0l0 -8.953125l1.390625 0l0 1.421875l0.03125 0q0.484375 -0.84375 1.203125 -1.234375q0.71875 -0.390625 1.71875 -0.390625zm7.34021 -2.484375l0 2.6875l1.78125 0l0 1.296875l-1.78125 0l0 5.609375q0 0.671875 0.4375 0.71875q0.453125 0.03125 0.9375 0.03125l0.40625 0l0 1.296875l-1.21875 0q-1.203125 0 -1.625 -0.421875q-0.40625 -0.4375 -0.40625 -1.453125l0 -5.78125l-1.53125 0l0 -1.296875l1.53125 0l0 -2.6875l1.46875 0zm7.058258 2.484375q2.03125 0 3.1875 1.3125q1.171875 1.296875 1.171875 3.375q0 2.09375 -1.1875 3.390625q-1.1875 1.296875 -3.171875 1.296875q-1.9375 0 -3.140625 -1.265625q-1.203125 -1.28125 -1.203125 -3.421875q0 -2.125 1.171875 -3.40625q1.1875 -1.28125 3.171875 -1.28125zm-2.78125 4.6875q0 1.546875 0.78125 2.46875q0.78125 0.90625 2.0 0.90625q1.21875 0 2.0 -0.921875q0.796875 -0.921875 0.796875 -2.453125q0 -1.53125 -0.796875 -2.46875q-0.78125 -0.9375 -2.015625 -0.9375q-1.171875 0 -1.96875 0.921875q-0.796875 0.921875 -0.796875 2.484375zm15.733215 -7.171875l0 2.6875l1.78125 0l0 1.296875l-1.78125 0l0 5.609375q0 0.671875 0.4375 0.71875q0.453125 0.03125 0.9375 0.03125l0.40625 0l0 1.296875l-1.21875 0q-1.203125 0 -1.625 -0.421875q-0.40625 -0.4375 -0.40625 -1.453125l0 -5.78125l-1.53125 0l0 -1.296875l1.53125 0l0 -2.6875l1.46875 0zm4.8792114 -0.734375l0 4.734375l0.03125 0q0.328125 -0.71875 1.09375 -1.109375q0.765625 -0.40625 1.75 -0.40625q1.609375 0 2.34375 0.828125q0.734375 0.828125 0.734375 2.359375l0 5.96875l-1.46875 0l0 -6.125q0 -0.75 -0.5 -1.25q-0.484375 -0.5 -1.34375 -0.5q-1.234375 0 -1.9375 0.765625q-0.703125 0.765625 -0.703125 1.984375l0 5.125l-1.46875 0l0 -12.375l1.46875 0zm11.887085 3.21875q1.9375 0 3.0 1.390625q1.0625 1.375 1.0625 3.546875l0 0.1875l-6.703125 0l0 0.109375q0 1.28125 0.734375 2.0625q0.75 0.765625 2.046875 0.765625q0.984375 0 1.5625 -0.453125q0.578125 -0.453125 0.765625 -1.296875l1.453125 0q-0.296875 1.484375 -1.3125 2.28125q-1.0 0.78125 -2.515625 0.78125q-1.40625 0 -2.390625 -0.640625q-0.96875 -0.640625 -1.4375 -1.78125q-0.46875 -1.140625 -0.46875 -2.328125q0 -1.984375 1.1875 -3.296875q1.203125 -1.328125 3.015625 -1.328125zm-2.640625 3.8125l5.140625 0q-0.0625 -1.09375 -0.796875 -1.8125q-0.71875 -0.71875 -1.796875 -0.71875q-1.015625 0 -1.734375 0.6875q-0.71875 0.6875 -0.8125 1.84375zm16.02768 -3.8125q1.796875 0 2.671875 0.703125q0.890625 0.6875 0.96875 2.09375l-1.46875 0l0 -0.015625q-0.0625 -0.71875 -0.625 -1.109375q-0.5625 -0.390625 -1.4375 -0.390625q-0.890625 0 -1.40625 0.3125q-0.515625 0.296875 -0.515625 0.84375q0 0.484375 0.453125 0.796875q0.453125 0.3125 1.375 0.5l1.375 0.3125q1.3125 0.296875 1.984375 0.890625q0.671875 0.59375 0.671875 1.609375q0 1.3125 -1.03125 2.078125q-1.015625 0.75 -2.78125 0.75q-1.71875 0 -2.734375 -0.765625q-1.0 -0.78125 -1.0625 -2.28125l1.484375 0q0.03125 0.84375 0.65625 1.296875q0.640625 0.4375 1.75 0.4375q1.0625 0 1.609375 -0.328125q0.546875 -0.34375 0.546875 -1.0q0 -0.609375 -0.546875 -0.953125q-0.546875 -0.359375 -2.234375 -0.6875q-1.6875 -0.34375 -2.375 -0.9375q-0.6875 -0.609375 -0.6875 -1.609375q0 -1.1875 0.953125 -1.859375q0.953125 -0.6875 2.40625 -0.6875zm7.7265625 -2.484375l0 2.6875l1.78125 0l0 1.296875l-1.78125 0l0 5.609375q0 0.671875 0.4375 0.71875q0.453125 0.03125 0.9375 0.03125l0.40625 0l0 1.296875l-1.21875 0q-1.203125 0 -1.625 -0.421875q-0.40625 -0.4375 -0.40625 -1.453125l0 -5.78125l-1.53125 0l0 -1.296875l1.53125 0l0 -2.6875l1.46875 0zm7.0667114 2.484375q1.828125 0 2.59375 0.65625q0.765625 0.640625 0.765625 1.734375q0 4.65625 0 5.171875q0 0.5 0.46875 0.5q0.109375 0 0.21875 -0.015625q0.125 -0.03125 0.234375 -0.0625l0 1.140625q-0.203125 0.109375 -0.46875 0.171875q-0.265625 0.078125 -0.578125 0.078125q-0.609375 0 -0.9375 -0.34375q-0.3125 -0.34375 -0.3125 -1.046875q-0.59375 0.6875 -1.390625 1.046875q-0.796875 0.34375 -1.765625 0.34375q-1.390625 0 -2.1875 -0.65625q-0.78125 -0.65625 -0.78125 -1.859375q0 -1.21875 0.765625 -1.921875q0.78125 -0.703125 3.625 -1.0625q0.96875 -0.125 1.3125 -0.359375q0.34375 -0.25 0.34375 -0.75q0 -0.734375 -0.484375 -1.109375q-0.46875 -0.375 -1.515625 -0.375q-1.09375 0 -1.640625 0.421875q-0.546875 0.40625 -0.59375 1.28125l-1.46875 0q0.078125 -1.484375 1.046875 -2.234375q0.984375 -0.75 2.75 -0.75zm-2.578125 6.75q0 0.625 0.453125 0.96875q0.453125 0.34375 1.28125 0.34375q1.234375 0 1.984375 -0.609375q0.75 -0.625 0.75 -1.390625l0 -1.53125q-0.375 0.265625 -0.96875 0.359375q-0.59375 0.078125 -1.578125 0.21875q-0.984375 0.140625 -1.453125 0.53125q-0.46875 0.390625 -0.46875 1.109375zm12.572723 -6.75q1.609375 0 2.34375 0.828125q0.734375 0.828125 0.734375 2.359375l0 5.96875l-1.46875 0l0 -6.125q0 -0.75 -0.5 -1.25q-0.484375 -0.5 -1.34375 -0.5q-1.234375 0 -1.9375 0.765625q-0.703125 0.765625 -0.703125 1.984375l0 5.125l-1.46875 0l0 -8.953125l1.390625 0l0 1.421875l0.03125 0q0.484375 -0.84375 1.203125 -1.234375q0.71875 -0.390625 1.71875 -0.390625zm13.293335 -3.21875l0 12.375l-1.46875 0l0 -1.203125l-0.03125 0q-0.34375 0.6875 -1.109375 1.0625q-0.75 0.359375 -1.75 0.359375q-1.875 0 -3.0 -1.296875q-1.125 -1.3125 -1.125 -3.421875q0 -2.078125 1.078125 -3.359375q1.09375 -1.296875 3.0 -1.296875q0.875 0 1.671875 0.359375q0.796875 0.34375 1.234375 1.03125l0.03125 0l0 -4.609375l1.46875 0zm-6.921875 7.96875q0 1.4375 0.75 2.375q0.75 0.9375 2.015625 0.9375q1.3125 0 2.015625 -0.9375q0.71875 -0.9375 0.71875 -2.4375q0 -1.53125 -0.734375 -2.46875q-0.734375 -0.9375 -2.109375 -0.9375q-1.265625 0 -1.96875 0.9375q-0.6875 0.921875 -0.6875 2.53125zm11.0841675 -7.96875l0 4.46875l-1.1875 0l0 -4.46875l1.1875 0zm5.9080505 3.21875q1.796875 0 2.671875 0.703125q0.890625 0.6875 0.96875 2.09375l-1.46875 0l0 -0.015625q-0.0625 -0.71875 -0.625 -1.109375q-0.5625 -0.390625 -1.4375 -0.390625q-0.890625 0 -1.40625 0.3125q-0.515625 0.296875 -0.515625 0.84375q0 0.484375 0.453125 0.796875q0.453125 0.3125 1.375 0.5l1.375 0.3125q1.3125 0.296875 1.984375 0.890625q0.671875 0.59375 0.671875 1.609375q0 1.3125 -1.03125 2.078125q-1.015625 0.75 -2.78125 0.75q-1.71875 0 -2.734375 -0.765625q-1.0 -0.78125 -1.0625 -2.28125l1.484375 0q0.03125 0.84375 0.65625 1.296875q0.640625 0.4375 1.75 0.4375q1.0625 0 1.609375 -0.328125q0.546875 -0.34375 0.546875 -1.0q0 -0.609375 -0.546875 -0.953125q-0.546875 -0.359375 -2.234375 -0.6875q-1.6875 -0.34375 -2.375 -0.9375q-0.6875 -0.609375 -0.6875 -1.609375q0 -1.1875 0.953125 -1.859375q0.953125 -0.6875 2.40625 -0.6875zm11.306519 0.203125l2.03125 7.3125l0.03125 0l1.796875 -7.3125l1.609375 0l1.875 7.28125l0.015625 0.03125l0.03125 0l2.0 -7.3125l1.53125 0l-2.84375 8.921875l-0.03125 0.03125l-1.546875 0l-1.8125 -7.078125l-0.015625 -0.046875l-0.03125 0l-1.796875 7.125l-1.59375 0l-2.875 -8.953125l1.625 0zm15.97522 -0.203125q1.828125 0 2.59375 0.65625q0.765625 0.640625 0.765625 1.734375q0 4.65625 0 5.171875q0 0.5 0.46875 0.5q0.109375 0 0.21875 -0.015625q0.125 -0.03125 0.234375 -0.0625l0 1.140625q-0.203125 0.109375 -0.46875 0.171875q-0.265625 0.078125 -0.578125 0.078125q-0.609375 0 -0.9375 -0.34375q-0.3125 -0.34375 -0.3125 -1.046875q-0.59375 0.6875 -1.390625 1.046875q-0.796875 0.34375 -1.765625 0.34375q-1.390625 0 -2.1875 -0.65625q-0.78125 -0.65625 -0.78125 -1.859375q0 -1.21875 0.765625 -1.921875q0.78125 -0.703125 3.625 -1.0625q0.96875 -0.125 1.3125 -0.359375q0.34375 -0.25 0.34375 -0.75q0 -0.734375 -0.484375 -1.109375q-0.46875 -0.375 -1.515625 -0.375q-1.09375 0 -1.640625 0.421875q-0.546875 0.40625 -0.59375 1.28125l-1.46875 0q0.078125 -1.484375 1.046875 -2.234375q0.984375 -0.75 2.75 -0.75zm-2.578125 6.75q0 0.625 0.453125 0.96875q0.453125 0.34375 1.28125 0.34375q1.234375 0 1.984375 -0.609375q0.75 -0.625 0.75 -1.390625l0 -1.53125q-0.375 0.265625 -0.96875 0.359375q-0.59375 0.078125 -1.578125 0.21875q-0.984375 0.140625 -1.453125 0.53125q-0.46875 0.390625 -0.46875 1.109375zm9.791473 -9.96875l0 12.375l-1.484375 0l0 -12.375l1.484375 0zm3.849762 0l0 12.375l-1.484375 0l0 -12.375l1.484375 0zm5.271637 3.21875q1.796875 0 2.671875 0.703125q0.890625 0.6875 0.96875 2.09375l-1.46875 0l0 -0.015625q-0.0625 -0.71875 -0.625 -1.109375q-0.5625 -0.390625 -1.4375 -0.390625q-0.890625 0 -1.40625 0.3125q-0.515625 0.296875 -0.515625 0.84375q0 0.484375 0.453125 0.796875q0.453125 0.3125 1.375 0.5l1.375 0.3125q1.3125 0.296875 1.984375 0.890625q0.671875 0.59375 0.671875 1.609375q0 1.3125 -1.03125 2.078125q-1.015625 0.75 -2.78125 0.75q-1.71875 0 -2.734375 -0.765625q-1.0 -0.78125 -1.0625 -2.28125l1.484375 0q0.03125 0.84375 0.65625 1.296875q0.640625 0.4375 1.75 0.4375q1.0625 0 1.609375 -0.328125q0.546875 -0.34375 0.546875 -1.0q0 -0.609375 -0.546875 -0.953125q-0.546875 -0.359375 -2.234375 -0.6875q-1.6875 -0.34375 -2.375 -0.9375q-0.6875 -0.609375 -0.6875 -1.609375q0 -1.1875 0.953125 -1.859375q0.953125 -0.6875 2.40625 -0.6875zm7.9296875 7.234375l0 1.921875l-1.921875 0l0 -1.921875l1.921875 0z" fill-rule="nonzero"/><path fill="#000000" fill-opacity="0.0" d="m14.682413 467.22217l55.624725 0l0 55.624695l-55.624725 0z" fill-rule="evenodd"/><g transform="matrix(0.12361049868766404 0.0 0.0 0.12361049868766404 14.68241286089239 467.2221566929134)"><clipPath id="g2e3e872469c_0_140.1"><path d="m-1.4210855E-14 0l450.0 0l0 450.0l-450.0 0z" clip-rule="evenodd"/></clipPath><image clip-path="url(#g2e3e872469c_0_140.1)" fill="#000" width="450.0" height="450.0" x="0.0" y="0.0" preserveAspectRatio="none" xlink:href="https://lh7-rt.googleusercontent.com/slidesz/AGV_vUeXFAOlCYpSIIGxtYj2p_2KCtWxzuCb_iuD8yoziIBhly1IaTrx5TjmHVjE3EHKCiMp8FXlwxSaGVhPtRd_CHeC8ZKVDPSBSYDxXm2IkYDPoB-sQtTi61v069_r8p9Brto=s2048?key=7LE3oBm5y_Q2w8Qv5o4NHULt"/></g><g id="a11y-g2e3e872469c_0_143" role="img" aria-label="MASS EVENTS&#xa;" tabindex="0"><path fill="#000000" fill-opacity="0.0" d="m0 0l0 47.779526l222.31496 0l23.88977 -23.889763l-23.88977 -23.889763z" fill-rule="nonzero"/></g><path fill="#666666" d="m0 0l222.31496 0l23.88977 23.889763l-23.88977 23.889763l-222.31496 0z" fill-rule="evenodd"/><path stroke="#303030" stroke-width="1.0" stroke-linejoin="round" stroke-linecap="butt" d="m0 0l222.31496 0l23.88977 23.889763l-23.88977 23.889763l-222.31496 0z" fill-rule="evenodd"/><path fill="#000000" d="m52.171524 30.809761l0 -13.359375l2.65625 0l3.15625 9.453125q0.4375 1.328125 0.640625 1.984375q0.234375 -0.734375 0.703125 -2.140625l3.203125 -9.296875l2.375 0l0 13.359375l-1.703125 0l0 -11.171875l-3.875 11.171875l-1.59375 0l-3.859375 -11.375l0 11.375l-1.703125 0zm14.118927 0l5.125 -13.359375l1.90625 0l5.46875 13.359375l-2.015625 0l-1.546875 -4.046875l-5.59375 0l-1.46875 4.046875l-1.875 0zm3.859375 -5.484375l4.53125 0l-1.40625 -3.703125q-0.625 -1.6875 -0.9375 -2.765625q-0.265625 1.28125 -0.71875 2.546875l-1.46875 3.921875zm9.459198 1.1875l1.65625 -0.140625q0.125 1.0 0.546875 1.640625q0.4375 0.640625 1.34375 1.046875q0.921875 0.390625 2.0625 0.390625q1.0 0 1.78125 -0.296875q0.78125 -0.296875 1.15625 -0.8125q0.375 -0.53125 0.375 -1.15625q0 -0.625 -0.375 -1.09375q-0.359375 -0.46875 -1.1875 -0.796875q-0.546875 -0.203125 -2.390625 -0.640625q-1.828125 -0.453125 -2.5625 -0.84375q-0.96875 -0.5 -1.4375 -1.234375q-0.46875 -0.75 -0.46875 -1.671875q0 -1.0 0.578125 -1.875q0.578125 -0.890625 1.671875 -1.34375q1.109375 -0.453125 2.453125 -0.453125q1.484375 0 2.609375 0.484375q1.140625 0.46875 1.75 1.40625q0.609375 0.921875 0.65625 2.09375l-1.6875 0.125q-0.140625 -1.265625 -0.9375 -1.90625q-0.78125 -0.65625 -2.3125 -0.65625q-1.609375 0 -2.34375 0.59375q-0.734375 0.59375 -0.734375 1.421875q0 0.71875 0.53125 1.171875q0.5 0.46875 2.65625 0.96875q2.15625 0.484375 2.953125 0.84375q1.171875 0.53125 1.71875 1.359375q0.5625 0.828125 0.5625 1.90625q0 1.0625 -0.609375 2.015625q-0.609375 0.9375 -1.75 1.46875q-1.140625 0.515625 -2.578125 0.515625q-1.8125 0 -3.046875 -0.53125q-1.21875 -0.53125 -1.921875 -1.59375q-0.6875 -1.0625 -0.71875 -2.40625zm12.443573 0l1.65625 -0.140625q0.125 1.0 0.546875 1.640625q0.4375 0.640625 1.34375 1.046875q0.921875 0.390625 2.0625 0.390625q1.0 0 1.78125 -0.296875q0.78125 -0.296875 1.15625 -0.8125q0.375 -0.53125 0.375 -1.15625q0 -0.625 -0.375 -1.09375q-0.359375 -0.46875 -1.1875 -0.796875q-0.546875 -0.203125 -2.390625 -0.640625q-1.828125 -0.453125 -2.5625 -0.84375q-0.96875 -0.5 -1.4375 -1.234375q-0.46875 -0.75 -0.46875 -1.671875q0 -1.0 0.578125 -1.875q0.578125 -0.890625 1.671875 -1.34375q1.109375 -0.453125 2.453125 -0.453125q1.484375 0 2.609375 0.484375q1.140625 0.46875 1.75 1.40625q0.609375 0.921875 0.65625 2.09375l-1.6875 0.125q-0.140625 -1.265625 -0.9375 -1.90625q-0.78125 -0.65625 -2.3125 -0.65625q-1.609375 0 -2.34375 0.59375q-0.734375 0.59375 -0.734375 1.421875q0 0.71875 0.53125 1.171875q0.5 0.46875 2.65625 0.96875q2.15625 0.484375 2.953125 0.84375q1.171875 0.53125 1.71875 1.359375q0.5625 0.828125 0.5625 1.90625q0 1.0625 -0.609375 2.015625q-0.609375 0.9375 -1.75 1.46875q-1.140625 0.515625 -2.578125 0.515625q-1.8125 0 -3.046875 -0.53125q-1.21875 -0.53125 -1.921875 -1.59375q-0.6875 -1.0625 -0.71875 -2.40625zm18.251877 4.296875l0 -13.359375l9.65625 0l0 1.578125l-7.875 0l0 4.09375l7.375 0l0 1.5625l-7.375 0l0 4.546875l8.1875 0l0 1.578125l-9.96875 0zm16.224823 0l-5.171875 -13.359375l1.921875 0l3.46875 9.703125q0.421875 1.171875 0.703125 2.1875q0.3125 -1.09375 0.71875 -2.1875l3.609375 -9.703125l1.796875 0l-5.234375 13.359375l-1.8125 0zm8.662323 0l0 -13.359375l9.65625 0l0 1.578125l-7.875 0l0 4.09375l7.375 0l0 1.5625l-7.375 0l0 4.546875l8.1875 0l0 1.578125l-9.96875 0zm12.396698 0l0 -13.359375l1.8125 0l7.015625 10.484375l0 -10.484375l1.6875 0l0 13.359375l-1.8125 0l-7.015625 -10.5l0 10.5l-1.6875 0zm16.894821 0l0 -11.78125l-4.40625 0l0 -1.578125l10.578125 0l0 1.578125l-4.40625 0l0 11.78125l-1.765625 0zm7.395981 -4.296875l1.65625 -0.140625q0.125 1.0 0.546875 1.640625q0.4375 0.640625 1.34375 1.046875q0.921875 0.390625 2.0625 0.390625q1.0 0 1.78125 -0.296875q0.78125 -0.296875 1.15625 -0.8125q0.375 -0.53125 0.375 -1.15625q0 -0.625 -0.375 -1.09375q-0.359375 -0.46875 -1.1875 -0.796875q-0.546875 -0.203125 -2.390625 -0.640625q-1.828125 -0.453125 -2.5625 -0.84375q-0.96875 -0.5 -1.4375 -1.234375q-0.46875 -0.75 -0.46875 -1.671875q0 -1.0 0.578125 -1.875q0.578125 -0.890625 1.671875 -1.34375q1.109375 -0.453125 2.453125 -0.453125q1.484375 0 2.609375 0.484375q1.140625 0.46875 1.75 1.40625q0.609375 0.921875 0.65625 2.09375l-1.6875 0.125q-0.140625 -1.265625 -0.9375 -1.90625q-0.78125 -0.65625 -2.3125 -0.65625q-1.609375 0 -2.34375 0.59375q-0.734375 0.59375 -0.734375 1.421875q0 0.71875 0.53125 1.171875q0.5 0.46875 2.65625 0.96875q2.15625 0.484375 2.953125 0.84375q1.171875 0.53125 1.71875 1.359375q0.5625 0.828125 0.5625 1.90625q0 1.0625 -0.609375 2.015625q-0.609375 0.9375 -1.75 1.46875q-1.140625 0.515625 -2.578125 0.515625q-1.8125 0 -3.046875 -0.53125q-1.21875 -0.53125 -1.921875 -1.59375q-0.6875 -1.0625 -0.71875 -2.40625z" fill-rule="nonzero"/><g id="g2e3e872469c_0_205"><path fill="#000000" fill-opacity="0.0" d="m185.93964 59.989502l675.5511 0l0 379.99728l-675.5511 0z" fill-rule="evenodd"/><g transform="matrix(0.527774278215223 0.0 0.0 0.5277740157480315 185.93963254593174 59.98950131233596)"><clipPath id="g2e3e872469c_0_140.2"><path d="m0 -1.4210855E-14l1280.0 0l0 720.0l-1280.0 0z" clip-rule="evenodd"/></clipPath><image clip-path="url(#g2e3e872469c_0_140.2)" fill="#000" width="1280.0" height="720.0" x="0.0" y="0.0" preserveAspectRatio="none" xlink:href="https://lh7-rt.googleusercontent.com/slidesz/AGV_vUeR-iGR_U9fF1BZVf8PaNxzzsLr_Pmq8Mu9dxdUh0A_N94Bai6QXoyt5OfhI4pdcW-zvoLwpIRufHvxHoTIHGWPkxIKUAEOXcZKLBxuwQWNoqcUhWYINPxWa9TSoTC_urY=s2048?key=7LE3oBm5y_Q2w8Qv5o4NHULt"/></g><a xlink:href="https://www.google.com/url?q=https://docs.google.com/file/d/1qdVsjJHuzWqOkRjQJcix7G--qQAvrX3B/preview&amp;sa=D&amp;source=editors&amp;ust=1777358530762414&amp;usg=AOvVaw0V8N0W3E4ppaR3RRkNNPFp" target="_blank" rel="noreferrer"><path fill="transparent" fill-opacity="0" d="m185.93964 59.989502l0 379.99728l675.5511 0l0 -379.99728z" fill-rule="nonzero"/></a></g></g></g></svg>