<svg version="1.1" viewBox="0.0 0.0 960.0 540.0" fill="none" stroke="none" stroke-linecap="square" stroke-miterlimit="10" xmlns:xlink="http://www.w3.org/1999/xlink" xmlns="http://www.w3.org/2000/svg"><clipPath id="g2e3e872469c_0_180.0"><path d="m0 0l960.0 0l0 540.0l-960.0 0l0 -540.0z" clip-rule="nonzero"/></clipPath><g clip-path="url(#g2e3e872469c_0_180.0)"><g id="g2e3e872469c_0_180"><path fill="#ffffff" d="m0 0l960.0 0l0 540.0l-960.0 0l0 -540.0z" fill-rule="nonzero"/><path fill="#000000" d="m0 0l960.0 0l0 540.0l-960.0 0z" fill-rule="evenodd"/><path fill="#000000" fill-opacity="0.0" d="m14.682413 467.22217l55.624725 0l0 55.624695l-55.624725 0z" fill-rule="evenodd"/><g transform="matrix(0.12361049868766404 0.0 0.0 0.12361049868766404 14.68241286089239 467.2221566929134)"><clipPath id="g2e3e872469c_0_180.1"><path d="m-1.4210855E-14 0l450.0 0l0 450.0l-450.0 0z" clip-rule="evenodd"/></clipPath><image clip-path="url(#g2e3e872469c_0_180.1)" fill="#000" width="450.0" height="450.0" x="0.0" y="0.0" preserveAspectRatio="none" xlink:href="https://lh7-rt.googleusercontent.com/slidesz/AGV_vUeXFAOlCYpSIIGxtYj2p_2KCtWxzuCb_iuD8yoziIBhly1IaTrx5TjmHVjE3EHKCiMp8FXlwxSaGVhPtRd_CHeC8ZKVDPSBSYDxXm2IkYDPoB-sQtTi61v069_r8p9Brto=s2048?key=7LE3oBm5y_Q2w8Qv5o4NHULt"/></g><g id="a11y-g2e3e872469c_0_183" role="img" aria-label="CONTACT&#xa;" tabindex="0"><path fill="#000000" fill-opacity="0.0" d="m0 0l0 47.779526l222.31496 0l23.88977 -23.889763l-23.88977 -23.889763z" fill-rule="nonzero"/></g><path fill="#666666" d="m0 0l222.31496 0l23.88977 23.889763l-23.88977 23.889763l-222.31496 0z" fill-rule="evenodd"/><path stroke="#303030" stroke-width="1.0" stroke-linejoin="round" stroke-linecap="butt" d="m0 0l222.31496 0l23.88977 23.889763l-23.88977 23.889763l-222.31496 0z" fill-rule="evenodd"/><path fill="#000000" d="m83.70848 26.122261l1.765625 0.453125q-0.5625 2.171875 -2.0 3.328125q-1.4375 1.140625 -3.53125 1.140625q-2.15625 0 -3.515625 -0.875q-1.34375 -0.890625 -2.0625 -2.546875q-0.703125 -1.671875 -0.703125 -3.59375q0 -2.078125 0.796875 -3.625q0.796875 -1.5625 2.265625 -2.359375q1.484375 -0.8125 3.25 -0.8125q2.0 0 3.359375 1.015625q1.375 1.015625 1.90625 2.875l-1.734375 0.40625q-0.46875 -1.453125 -1.359375 -2.109375q-0.875 -0.671875 -2.203125 -0.671875q-1.546875 0 -2.578125 0.734375q-1.03125 0.734375 -1.453125 1.984375q-0.421875 1.234375 -0.421875 2.5625q0 1.703125 0.5 2.96875q0.5 1.265625 1.546875 1.90625q1.046875 0.625 2.265625 0.625q1.484375 0 2.515625 -0.859375q1.03125 -0.859375 1.390625 -2.546875zm3.4104462 -1.8125q0 -3.328125 1.78125 -5.203125q1.78125 -1.890625 4.609375 -1.890625q1.84375 0 3.328125 0.890625q1.484375 0.875 2.265625 2.46875q0.78125 1.578125 0.78125 3.578125q0 2.03125 -0.828125 3.640625q-0.8125 1.59375 -2.3125 2.421875q-1.5 0.828125 -3.25 0.828125q-1.875 0 -3.359375 -0.90625q-1.484375 -0.921875 -2.25 -2.5q-0.765625 -1.578125 -0.765625 -3.328125zm1.8125 0.015625q0 2.421875 1.296875 3.8125q1.296875 1.390625 3.265625 1.390625q2.0 0 3.28125 -1.40625q1.28125 -1.40625 1.28125 -3.984375q0 -1.625 -0.546875 -2.84375q-0.546875 -1.21875 -1.609375 -1.875q-1.0625 -0.671875 -2.375 -0.671875q-1.890625 0 -3.25 1.296875q-1.34375 1.28125 -1.34375 4.28125zm13.214554 6.484375l0 -13.359375l1.8125 0l7.015625 10.484375l0 -10.484375l1.6875 0l0 13.359375l-1.8125 0l-7.015625 -10.5l0 10.5l-1.6875 0zm16.894821 0l0 -11.78125l-4.40625 0l0 -1.578125l10.578125 0l0 1.578125l-4.40625 0l0 11.78125l-1.765625 0zm5.135559 0l5.125 -13.359375l1.90625 0l5.46875 13.359375l-2.015625 0l-1.546875 -4.046875l-5.59375 0l-1.46875 4.046875l-1.875 0zm3.859375 -5.484375l4.53125 0l-1.40625 -3.703125q-0.625 -1.6875 -0.9375 -2.765625q-0.265625 1.28125 -0.71875 2.546875l-1.46875 3.921875zm19.584198 0.796875l1.765625 0.453125q-0.5625 2.171875 -2.0 3.328125q-1.4375 1.140625 -3.53125 1.140625q-2.15625 0 -3.515625 -0.875q-1.34375 -0.890625 -2.0625 -2.546875q-0.703125 -1.671875 -0.703125 -3.59375q0 -2.078125 0.796875 -3.625q0.796875 -1.5625 2.265625 -2.359375q1.484375 -0.8125 3.25 -0.8125q2.0 0 3.359375 1.015625q1.375 1.015625 1.90625 2.875l-1.734375 0.40625q-0.46875 -1.453125 -1.359375 -2.109375q-0.875 -0.671875 -2.203125 -0.671875q-1.546875 0 -2.578125 0.734375q-1.03125 0.734375 -1.453125 1.984375q-0.421875 1.234375 -0.421875 2.5625q0 1.703125 0.5 2.96875q0.5 1.265625 1.546875 1.90625q1.046875 0.625 2.265625 0.625q1.484375 0 2.515625 -0.859375q1.03125 -0.859375 1.390625 -2.546875zm7.347946 4.6875l0 -11.78125l-4.40625 0l0 -1.578125l10.578125 0l0 1.578125l-4.40625 0l0 11.78125l-1.765625 0z" fill-rule="nonzero"/><g id="a11y-g2e3e872469c_0_181" role="img" aria-label="+54.911.4149.4885&#xa;" tabindex="0"><path fill="#000000" fill-opacity="0.0" d="m573.3989 393.36484l0 47.77951l184.22052 0l0 -47.77951z" fill-rule="nonzero"/></g><path fill="#000000" fill-opacity="0.0" d="m573.3989 393.36484l184.22052 0l0 47.77951l-184.22052 0z" fill-rule="evenodd"/><path fill="#d9d9d9" d="m588.1802 410.2392l0 3.796875l3.78125 0l0 1.171875l-3.78125 0l0 3.796875l-1.171875 0l0 -3.796875l-3.78125 0l0 -1.171875l3.78125 0l0 -3.796875l1.171875 0zm12.757996 -3.3125l0 1.296875l-4.953125 0l-0.65625 3.53125l0.03125 0.046875q0.390625 -0.421875 0.96875 -0.65625q0.59375 -0.234375 1.328125 -0.234375q1.78125 0 2.859375 1.125q1.09375 1.109375 1.09375 3.078125q0 1.765625 -1.1875 2.9375q-1.171875 1.171875 -3.09375 1.171875q-1.640625 0 -2.765625 -0.953125q-1.109375 -0.953125 -1.15625 -2.5625l0 -0.015625l1.46875 0q0.078125 0.984375 0.796875 1.609375q0.71875 0.609375 1.78125 0.609375q1.140625 0 1.875 -0.765625q0.734375 -0.78125 0.734375 -2.140625q0 -1.25 -0.8125 -2.015625q-0.796875 -0.78125 -1.96875 -0.78125q-0.65625 0 -1.234375 0.296875q-0.5625 0.296875 -1.046875 0.859375l-1.265625 -0.0625l1.140625 -6.375l6.0625 0zm8.762085 -0.203125l0 8.09375l1.65625 0l0 1.3125l-1.65625 0l0 2.875l-1.390625 0l0 -2.875l-5.390625 0l0 -1.421875l5.59375 -7.984375l1.1875 0zm-1.421875 2.09375l-4.09375 6.0l4.125 0l0 -6.0l-0.03125 0zm7.15271 8.265625l0 1.921875l-1.921875 0l0 -1.921875l1.921875 0zm6.079895 -10.359375q2.140625 0 3.171875 1.46875q1.03125 1.453125 1.03125 4.40625q0 3.390625 -1.0625 5.015625q-1.0625 1.609375 -3.1875 1.609375q-1.59375 0 -2.59375 -0.8125q-0.984375 -0.8125 -1.140625 -2.375l1.46875 0q0.125 0.90625 0.75 1.390625q0.625 0.484375 1.515625 0.484375q1.34375 0 2.015625 -1.15625q0.6875 -1.171875 0.75 -3.59375l-0.03125 -0.03125q-0.4375 0.796875 -1.1875 1.25q-0.75 0.4375 -1.671875 0.4375q-1.796875 0 -2.828125 -1.09375q-1.03125 -1.109375 -1.03125 -3.0q0 -1.75 1.125 -2.875q1.140625 -1.125 2.90625 -1.125zm-2.46875 4.203125q0 1.0625 0.703125 1.84375q0.71875 0.765625 1.71875 0.765625q1.09375 0 1.796875 -0.78125q0.71875 -0.796875 0.71875 -1.9375q0 -1.171875 -0.6875 -1.984375q-0.671875 -0.8125 -1.859375 -0.8125q-1.125 0 -1.765625 0.78125q-0.625 0.78125 -0.625 2.125zm13.65271 -4.203125l0 12.28125l-1.46875 0l0 -8.796875l-3.203125 0l0 -1.1875l0.0625 0q1.546875 0 2.40625 -0.546875q0.859375 -0.5625 1.078125 -1.75l1.125 0zm9.637085 0l0 12.28125l-1.46875 0l0 -8.796875l-3.203125 0l0 -1.1875l0.0625 0q1.546875 0 2.40625 -0.546875q0.859375 -0.5625 1.078125 -1.75l1.125 0zm6.824585 10.359375l0 1.921875l-1.921875 0l0 -1.921875l1.921875 0zm8.720581 -10.359375l0 8.09375l1.65625 0l0 1.3125l-1.65625 0l0 2.875l-1.390625 0l0 -2.875l-5.390625 0l0 -1.421875l5.59375 -7.984375l1.1875 0zm-1.421875 2.09375l-4.09375 6.0l4.125 0l0 -6.0l-0.03125 0zm9.96521 -2.09375l0 12.28125l-1.46875 0l0 -8.796875l-3.203125 0l0 -1.1875l0.0625 0q1.546875 0 2.40625 -0.546875q0.859375 -0.5625 1.078125 -1.75l1.125 0zm10.730835 0l0 8.09375l1.65625 0l0 1.3125l-1.65625 0l0 2.875l-1.390625 0l0 -2.875l-5.390625 0l0 -1.421875l5.59375 -7.984375l1.1875 0zm-1.421875 2.09375l-4.09375 6.0l4.125 0l0 -6.0l-0.03125 0zm8.418335 -2.09375q2.140625 0 3.171875 1.46875q1.03125 1.453125 1.03125 4.40625q0 3.390625 -1.0625 5.015625q-1.0625 1.609375 -3.1875 1.609375q-1.59375 0 -2.59375 -0.8125q-0.984375 -0.8125 -1.140625 -2.375l1.46875 0q0.125 0.90625 0.75 1.390625q0.625 0.484375 1.515625 0.484375q1.34375 0 2.015625 -1.15625q0.6875 -1.171875 0.75 -3.59375l-0.03125 -0.03125q-0.4375 0.796875 -1.1875 1.25q-0.75 0.4375 -1.671875 0.4375q-1.796875 0 -2.828125 -1.09375q-1.03125 -1.109375 -1.03125 -3.0q0 -1.75 1.125 -2.875q1.140625 -1.125 2.90625 -1.125zm-2.46875 4.203125q0 1.0625 0.703125 1.84375q0.71875 0.765625 1.71875 0.765625q1.09375 0 1.796875 -0.78125q0.71875 -0.796875 0.71875 -1.9375q0 -1.171875 -0.6875 -1.984375q-0.671875 -0.8125 -1.859375 -0.8125q-1.125 0 -1.765625 0.78125q-0.625 0.78125 -0.625 2.125zm10.84021 6.15625l0 1.921875l-1.921875 0l0 -1.921875l1.921875 0zm8.720581 -10.359375l0 8.09375l1.65625 0l0 1.3125l-1.65625 0l0 2.875l-1.390625 0l0 -2.875l-5.390625 0l0 -1.421875l5.59375 -7.984375l1.1875 0zm-1.421875 2.09375l-4.09375 6.0l4.125 0l0 -6.0l-0.03125 0zm8.52771 -2.09375q1.75 0 2.734375 0.859375q0.984375 0.84375 0.984375 2.265625q0 0.796875 -0.4375 1.484375q-0.421875 0.671875 -1.25 1.078125q1.0625 0.328125 1.609375 1.109375q0.5625 0.78125 0.5625 1.953125q0 1.671875 -1.140625 2.71875q-1.140625 1.03125 -2.9375 1.03125q-1.875 0 -3.03125 -1.0q-1.140625 -1.0 -1.140625 -2.75q0 -1.09375 0.5625 -1.90625q0.5625 -0.8125 1.59375 -1.15625q-0.8125 -0.359375 -1.265625 -1.046875q-0.453125 -0.703125 -0.453125 -1.515625q0 -1.390625 1.03125 -2.25q1.046875 -0.875 2.578125 -0.875zm-2.046875 3.1875q0 0.875 0.578125 1.421875q0.578125 0.546875 1.59375 0.546875q0.921875 0 1.46875 -0.53125q0.5625 -0.53125 0.5625 -1.4375q0 -0.90625 -0.5625 -1.390625q-0.546875 -0.5 -1.515625 -0.5q-0.953125 0 -1.546875 0.53125q-0.578125 0.53125 -0.578125 1.359375zm-0.4375 5.625q0 1.078125 0.71875 1.734375q0.734375 0.640625 1.890625 0.640625q1.09375 0 1.796875 -0.671875q0.71875 -0.671875 0.71875 -1.71875q0 -0.96875 -0.75 -1.65625q-0.734375 -0.6875 -1.796875 -0.6875q-1.09375 0 -1.84375 0.65625q-0.734375 0.65625 -0.734375 1.703125zm12.12146 -8.8125q1.75 0 2.734375 0.859375q0.984375 0.84375 0.984375 2.265625q0 0.796875 -0.4375 1.484375q-0.421875 0.671875 -1.25 1.078125q1.0625 0.328125 1.609375 1.109375q0.5625 0.78125 0.5625 1.953125q0 1.671875 -1.140625 2.71875q-1.140625 1.03125 -2.9375 1.03125q-1.875 0 -3.03125 -1.0q-1.140625 -1.0 -1.140625 -2.75q0 -1.09375 0.5625 -1.90625q0.5625 -0.8125 1.59375 -1.15625q-0.8125 -0.359375 -1.265625 -1.046875q-0.453125 -0.703125 -0.453125 -1.515625q0 -1.390625 1.03125 -2.25q1.046875 -0.875 2.578125 -0.875zm-2.046875 3.1875q0 0.875 0.578125 1.421875q0.578125 0.546875 1.59375 0.546875q0.921875 0 1.46875 -0.53125q0.5625 -0.53125 0.5625 -1.4375q0 -0.90625 -0.5625 -1.390625q-0.546875 -0.5 -1.515625 -0.5q-0.953125 0 -1.546875 0.53125q-0.578125 0.53125 -0.578125 1.359375zm-0.4375 5.625q0 1.078125 0.71875 1.734375q0.734375 0.640625 1.890625 0.640625q1.09375 0 1.796875 -0.671875q0.71875 -0.671875 0.71875 -1.71875q0 -0.96875 -0.75 -1.65625q-0.734375 -0.6875 -1.796875 -0.6875q-1.09375 0 -1.84375 0.65625q-0.734375 0.65625 -0.734375 1.703125zm15.52771 -8.609375l0 1.296875l-4.953125 0l-0.65625 3.53125l0.03125 0.046875q0.390625 -0.421875 0.96875 -0.65625q0.59375 -0.234375 1.328125 -0.234375q1.78125 0 2.859375 1.125q1.09375 1.109375 1.09375 3.078125q0 1.765625 -1.1875 2.9375q-1.171875 1.171875 -3.09375 1.171875q-1.640625 0 -2.765625 -0.953125q-1.109375 -0.953125 -1.15625 -2.5625l0 -0.015625l1.46875 0q0.078125 0.984375 0.796875 1.609375q0.71875 0.609375 1.78125 0.609375q1.140625 0 1.875 -0.765625q0.734375 -0.78125 0.734375 -2.140625q0 -1.25 -0.8125 -2.015625q-0.796875 -0.78125 -1.96875 -0.78125q-0.65625 0 -1.234375 0.296875q-0.5625 0.296875 -1.046875 0.859375l-1.265625 -0.0625l1.140625 -6.375l6.0625 0z" fill-rule="nonzero"/><g id="a11y-g2e3e872469c_0_187" role="img" aria-label="segnosound@gmail.com&#xa;" tabindex="0"><path fill="#000000" fill-opacity="0.0" d="m555.61945 429.6929l0 47.77954l219.77948 0l0 -47.77954z" fill-rule="nonzero"/></g><path fill="#000000" fill-opacity="0.0" d="m555.61945 429.6929l219.77948 0l0 47.77954l-219.77948 0z" fill-rule="evenodd"/><path fill="#d9d9d9" d="m574.5436 450.66644q1.796875 0 2.671875 0.703125q0.890625 0.6875 0.96875 2.09375l-1.46875 0l0 -0.015625q-0.0625 -0.71875 -0.625 -1.109375q-0.5625 -0.390625 -1.4375 -0.390625q-0.890625 0 -1.40625 0.3125q-0.515625 0.296875 -0.515625 0.84375q0 0.484375 0.453125 0.796875q0.453125 0.3125 1.375 0.5l1.375 0.3125q1.3125 0.296875 1.984375 0.890625q0.671875 0.59375 0.671875 1.609375q0 1.3125 -1.03125 2.078125q-1.015625 0.75 -2.78125 0.75q-1.71875 0 -2.734375 -0.765625q-1.0 -0.78125 -1.0625 -2.28125l1.484375 0q0.03125 0.84375 0.65625 1.296875q0.640625 0.4375 1.75 0.4375q1.0625 0 1.609375 -0.328125q0.546875 -0.34375 0.546875 -1.0q0 -0.609375 -0.546875 -0.953125q-0.546875 -0.359375 -2.234375 -0.6875q-1.6875 -0.34375 -2.375 -0.9375q-0.6875 -0.609375 -0.6875 -1.609375q0 -1.1875 0.953125 -1.859375q0.953125 -0.6875 2.40625 -0.6875zm9.3984375 0q1.9375 0 3.0 1.390625q1.0625 1.375 1.0625 3.546875l0 0.1875l-6.703125 0l0 0.109375q0 1.28125 0.734375 2.0625q0.75 0.765625 2.046875 0.765625q0.984375 0 1.5625 -0.453125q0.578125 -0.453125 0.765625 -1.296875l1.453125 0q-0.296875 1.484375 -1.3125 2.28125q-1.0 0.78125 -2.515625 0.78125q-1.40625 0 -2.390625 -0.640625q-0.96875 -0.640625 -1.4375 -1.78125q-0.46875 -1.140625 -0.46875 -2.328125q0 -1.984375 1.1875 -3.296875q1.203125 -1.328125 3.015625 -1.328125zm-2.640625 3.8125l5.140625 0q-0.0625 -1.09375 -0.796875 -1.8125q-0.71875 -0.71875 -1.796875 -0.71875q-1.015625 0 -1.734375 0.6875q-0.71875 0.6875 -0.8125 1.84375zm11.869629 -3.8125q0.9375 0 1.625 0.40625q0.6875 0.40625 1.0625 1.078125l0.015625 0l0 -1.28125l1.375 0l0 8.28125q0 2.109375 -1.015625 3.203125q-1.015625 1.109375 -3.125 1.109375q-1.546875 0 -2.59375 -0.6875q-1.046875 -0.671875 -1.125 -1.953125l1.46875 0q0.046875 0.6875 0.734375 1.078125q0.703125 0.390625 1.59375 0.390625q1.296875 0 1.984375 -0.875q0.703125 -0.859375 0.703125 -2.5625l0 -0.546875l-0.03125 0q-0.34375 0.734375 -1.09375 1.171875q-0.75 0.4375 -1.703125 0.4375q-1.828125 0 -2.921875 -1.25q-1.078125 -1.25 -1.078125 -3.28125q0 -2.046875 1.078125 -3.375q1.09375 -1.34375 3.046875 -1.34375zm-2.5625 4.546875q0 1.59375 0.65625 2.515625q0.671875 0.90625 1.875 0.90625q1.21875 0 1.9375 -0.9375q0.71875 -0.953125 0.71875 -2.53125q0 -1.4375 -0.671875 -2.328125q-0.65625 -0.890625 -1.890625 -0.890625q-1.234375 0 -1.9375 0.890625q-0.6875 0.890625 -0.6875 2.375zm13.215759 -4.546875q1.609375 0 2.34375 0.828125q0.734375 0.828125 0.734375 2.359375l0 5.96875l-1.46875 0l0 -6.125q0 -0.75 -0.5 -1.25q-0.484375 -0.5 -1.34375 -0.5q-1.234375 0 -1.9375 0.765625q-0.703125 0.765625 -0.703125 1.984375l0 5.125l-1.46875 0l0 -8.953125l1.390625 0l0 1.421875l0.03125 0q0.484375 -0.84375 1.203125 -1.234375q0.71875 -0.390625 1.71875 -0.390625zm9.15271 0q2.03125 0 3.1875 1.3125q1.171875 1.296875 1.171875 3.375q0 2.09375 -1.1875 3.390625q-1.1875 1.296875 -3.171875 1.296875q-1.9375 0 -3.140625 -1.265625q-1.203125 -1.28125 -1.203125 -3.421875q0 -2.125 1.171875 -3.40625q1.1875 -1.28125 3.171875 -1.28125zm-2.78125 4.6875q0 1.546875 0.78125 2.46875q0.78125 0.90625 2.0 0.90625q1.21875 0 2.0 -0.921875q0.796875 -0.921875 0.796875 -2.453125q0 -1.53125 -0.796875 -2.46875q-0.78125 -0.9375 -2.015625 -0.9375q-1.171875 0 -1.96875 0.921875q-0.796875 0.921875 -0.796875 2.484375zm11.856384 -4.6875q1.796875 0 2.671875 0.703125q0.890625 0.6875 0.96875 2.09375l-1.46875 0l0 -0.015625q-0.0625 -0.71875 -0.625 -1.109375q-0.5625 -0.390625 -1.4375 -0.390625q-0.890625 0 -1.40625 0.3125q-0.515625 0.296875 -0.515625 0.84375q0 0.484375 0.453125 0.796875q0.453125 0.3125 1.375 0.5l1.375 0.3125q1.3125 0.296875 1.984375 0.890625q0.671875 0.59375 0.671875 1.609375q0 1.3125 -1.03125 2.078125q-1.015625 0.75 -2.78125 0.75q-1.71875 0 -2.734375 -0.765625q-1.0 -0.78125 -1.0625 -2.28125l1.484375 0q0.03125 0.84375 0.65625 1.296875q0.640625 0.4375 1.75 0.4375q1.0625 0 1.609375 -0.328125q0.546875 -0.34375 0.546875 -1.0q0 -0.609375 -0.546875 -0.953125q-0.546875 -0.359375 -2.234375 -0.6875q-1.6875 -0.34375 -2.375 -0.9375q-0.6875 -0.609375 -0.6875 -1.609375q0 -1.1875 0.953125 -1.859375q0.953125 -0.6875 2.40625 -0.6875zm9.5390625 0q2.03125 0 3.1875 1.3125q1.171875 1.296875 1.171875 3.375q0 2.09375 -1.1875 3.390625q-1.1875 1.296875 -3.171875 1.296875q-1.9375 0 -3.140625 -1.265625q-1.203125 -1.28125 -1.203125 -3.421875q0 -2.125 1.171875 -3.40625q1.1875 -1.28125 3.171875 -1.28125zm-2.78125 4.6875q0 1.546875 0.78125 2.46875q0.78125 0.90625 2.0 0.90625q1.21875 0 2.0 -0.921875q0.796875 -0.921875 0.796875 -2.453125q0 -1.53125 -0.796875 -2.46875q-0.78125 -0.9375 -2.015625 -0.9375q-1.171875 0 -1.96875 0.921875q-0.796875 0.921875 -0.796875 2.484375zm10.340759 -4.484375l0 6.109375q0 0.75 0.484375 1.25q0.484375 0.5 1.34375 0.5q1.265625 0 1.953125 -0.765625q0.703125 -0.78125 0.703125 -1.984375l0 -5.109375l1.46875 0l0 8.953125l-1.390625 0l0 -1.421875l-0.03125 0q-0.5 0.859375 -1.234375 1.25q-0.734375 0.390625 -1.6875 0.390625q-1.5625 0 -2.328125 -0.8125q-0.75 -0.8125 -0.75 -2.390625l0 -5.96875l1.46875 0zm12.512085 -0.203125q1.609375 0 2.34375 0.828125q0.734375 0.828125 0.734375 2.359375l0 5.96875l-1.46875 0l0 -6.125q0 -0.75 -0.5 -1.25q-0.484375 -0.5 -1.34375 -0.5q-1.234375 0 -1.9375 0.765625q-0.703125 0.765625 -0.703125 1.984375l0 5.125l-1.46875 0l0 -8.953125l1.390625 0l0 1.421875l0.03125 0q0.484375 -0.84375 1.203125 -1.234375q0.71875 -0.390625 1.71875 -0.390625zm13.293335 -3.21875l0 12.375l-1.46875 0l0 -1.203125l-0.03125 0q-0.34375 0.6875 -1.109375 1.0625q-0.75 0.359375 -1.75 0.359375q-1.875 0 -3.0 -1.296875q-1.125 -1.3125 -1.125 -3.421875q0 -2.078125 1.078125 -3.359375q1.09375 -1.296875 3.0 -1.296875q0.875 0 1.671875 0.359375q0.796875 0.34375 1.234375 1.03125l0.03125 0l0 -4.609375l1.46875 0zm-6.921875 7.96875q0 1.4375 0.75 2.375q0.75 0.9375 2.015625 0.9375q1.3125 0 2.015625 -0.9375q0.71875 -0.9375 0.71875 -2.4375q0 -1.53125 -0.734375 -2.46875q-0.734375 -0.9375 -2.109375 -0.9375q-1.265625 0 -1.96875 0.9375q-0.6875 0.921875 -0.6875 2.53125zm15.240356 -8.265625q2.453125 0 4.171875 1.53125q1.71875 1.53125 1.71875 3.8125q0 1.359375 -0.640625 2.53125q-0.625 1.15625 -1.609375 1.828125q-0.96875 0.671875 -1.796875 0.671875q-0.484375 0 -0.78125 -0.296875q-0.296875 -0.3125 -0.328125 -0.84375l-0.0625 0q-0.5 0.578125 -1.0625 0.875q-0.5625 0.296875 -1.078125 0.296875q-1.0625 0 -1.78125 -0.78125q-0.703125 -0.78125 -0.703125 -1.96875q0 -1.9375 1.1875 -3.421875q1.1875 -1.5 2.890625 -1.5q0.6875 0 1.171875 0.375q0.5 0.359375 0.765625 1.046875l0.40625 -1.09375l1.09375 0l-1.453125 4.890625q-0.140625 0.46875 -0.171875 0.625q-0.03125 0.15625 -0.03125 0.296875q0 0.265625 0.09375 0.40625q0.109375 0.140625 0.3125 0.140625q0.796875 0 1.59375 -1.3125q0.8125 -1.3125 0.8125 -2.6875q0 -1.921875 -1.390625 -3.1875q-1.375 -1.265625 -3.3125 -1.265625q-2.171875 0 -3.71875 1.65625q-1.546875 1.65625 -1.546875 3.890625q0 2.265625 1.578125 3.890625q1.578125 1.609375 3.78125 1.609375q1.203125 0 2.375 -0.5625q1.171875 -0.5625 1.921875 -1.546875l1.09375 0q-0.84375 1.421875 -2.296875 2.25q-1.453125 0.8125 -3.140625 0.8125q-1.75 0 -3.265625 -0.859375q-1.515625 -0.875 -2.375 -2.375q-0.84375 -1.515625 -0.84375 -3.296875q0 -2.640625 1.890625 -4.53125q1.90625 -1.90625 4.53125 -1.90625zm-2.65625 7.546875q0 0.703125 0.40625 1.1875q0.421875 0.484375 1.09375 0.484375q1.046875 0 1.859375 -1.25q0.828125 -1.25 0.828125 -2.421875q0 -0.609375 -0.421875 -1.109375q-0.421875 -0.515625 -1.0 -0.515625q-1.09375 0 -1.9375 1.1875q-0.828125 1.1875 -0.828125 2.4375zm14.109131 -4.03125q0.9375 0 1.625 0.40625q0.6875 0.40625 1.0625 1.078125l0.015625 0l0 -1.28125l1.375 0l0 8.28125q0 2.109375 -1.015625 3.203125q-1.015625 1.109375 -3.125 1.109375q-1.546875 0 -2.59375 -0.6875q-1.046875 -0.671875 -1.125 -1.953125l1.46875 0q0.046875 0.6875 0.734375 1.078125q0.703125 0.390625 1.59375 0.390625q1.296875 0 1.984375 -0.875q0.703125 -0.859375 0.703125 -2.5625l0 -0.546875l-0.03125 0q-0.34375 0.734375 -1.09375 1.171875q-0.75 0.4375 -1.703125 0.4375q-1.828125 0 -2.921875 -1.25q-1.078125 -1.25 -1.078125 -3.28125q0 -2.046875 1.078125 -3.375q1.09375 -1.34375 3.046875 -1.34375zm-2.5625 4.546875q0 1.59375 0.65625 2.515625q0.671875 0.90625 1.875 0.90625q1.21875 0 1.9375 -0.9375q0.71875 -0.953125 0.71875 -2.53125q0 -1.4375 -0.671875 -2.328125q-0.65625 -0.890625 -1.890625 -0.890625q-1.234375 0 -1.9375 0.890625q-0.6875 0.890625 -0.6875 2.375zm13.184509 -4.546875q0.984375 0 1.609375 0.390625q0.625 0.390625 0.859375 1.125q0.453125 -0.71875 1.1875 -1.109375q0.734375 -0.40625 1.625 -0.40625q1.515625 0 2.234375 0.6875q0.734375 0.671875 0.734375 1.84375l0 6.625l-1.46875 0l0 -5.9375q0 -0.96875 -0.421875 -1.453125q-0.40625 -0.484375 -1.3125 -0.484375q-1.109375 0 -1.734375 0.65625q-0.609375 0.640625 -0.609375 1.59375l0 5.625l-1.46875 0l0 -5.9375q0 -0.96875 -0.40625 -1.453125q-0.40625 -0.484375 -1.28125 -0.484375q-0.703125 0 -1.25 0.34375q-0.53125 0.34375 -0.84375 0.9375q-0.296875 0.578125 -0.296875 0.984375l0 5.609375l-1.46875 0l0 -8.953125l1.390625 0l0 1.3125l0.03125 0q0.5 -0.765625 1.21875 -1.140625q0.71875 -0.375 1.671875 -0.375zm14.125122 0q1.828125 0 2.59375 0.65625q0.765625 0.640625 0.765625 1.734375q0 4.65625 0 5.171875q0 0.5 0.46875 0.5q0.109375 0 0.21875 -0.015625q0.125 -0.03125 0.234375 -0.0625l0 1.140625q-0.203125 0.109375 -0.46875 0.171875q-0.265625 0.078125 -0.578125 0.078125q-0.609375 0 -0.9375 -0.34375q-0.3125 -0.34375 -0.3125 -1.046875q-0.59375 0.6875 -1.390625 1.046875q-0.796875 0.34375 -1.765625 0.34375q-1.390625 0 -2.1875 -0.65625q-0.78125 -0.65625 -0.78125 -1.859375q0 -1.21875 0.765625 -1.921875q0.78125 -0.703125 3.625 -1.0625q0.96875 -0.125 1.3125 -0.359375q0.34375 -0.25 0.34375 -0.75q0 -0.734375 -0.484375 -1.109375q-0.46875 -0.375 -1.515625 -0.375q-1.09375 0 -1.640625 0.421875q-0.546875 0.40625 -0.59375 1.28125l-1.46875 0q0.078125 -1.484375 1.046875 -2.234375q0.984375 -0.75 2.75 -0.75zm-2.578125 6.75q0 0.625 0.453125 0.96875q0.453125 0.34375 1.28125 0.34375q1.234375 0 1.984375 -0.609375q0.75 -0.625 0.75 -1.390625l0 -1.53125q-0.375 0.265625 -0.96875 0.359375q-0.59375 0.078125 -1.578125 0.21875q-0.984375 0.140625 -1.453125 0.53125q-0.46875 0.390625 -0.46875 1.109375zm9.791504 -9.96875l0 1.8125l-1.484375 0l0 -1.8125l1.484375 0zm0 3.421875l0 8.953125l-1.484375 0l0 -8.953125l1.484375 0zm3.8497314 -3.421875l0 12.375l-1.484375 0l0 -12.375l1.484375 0zm4.5372925 10.453125l0 1.921875l-1.921875 0l0 -1.921875l1.921875 0zm6.298645 -7.234375q1.640625 0 2.65625 0.78125q1.03125 0.765625 1.21875 2.296875l-1.53125 0q-0.171875 -0.875 -0.75 -1.328125q-0.578125 -0.46875 -1.46875 -0.46875q-1.359375 0 -2.078125 0.921875q-0.703125 0.921875 -0.703125 2.59375q0 1.484375 0.703125 2.375q0.703125 0.890625 1.90625 0.890625q1.078125 0 1.6875 -0.578125q0.625 -0.578125 0.78125 -1.609375l1.5 0q-0.25 1.6875 -1.265625 2.59375q-1.015625 0.90625 -2.6875 0.90625q-1.953125 0 -3.078125 -1.234375q-1.109375 -1.234375 -1.109375 -3.34375q0 -2.203125 1.125 -3.5q1.140625 -1.296875 3.09375 -1.296875zm9.432129 0q2.03125 0 3.1875 1.3125q1.171875 1.296875 1.171875 3.375q0 2.09375 -1.1875 3.390625q-1.1875 1.296875 -3.171875 1.296875q-1.9375 0 -3.140625 -1.265625q-1.203125 -1.28125 -1.203125 -3.421875q0 -2.125 1.171875 -3.40625q1.1875 -1.28125 3.171875 -1.28125zm-2.78125 4.6875q0 1.546875 0.78125 2.46875q0.78125 0.90625 2.0 0.90625q1.21875 0 2.0 -0.921875q0.796875 -0.921875 0.796875 -2.453125q0 -1.53125 -0.796875 -2.46875q-0.78125 -0.9375 -2.015625 -0.9375q-1.171875 0 -1.96875 0.921875q-0.796875 0.921875 -0.796875 2.484375zm13.184509 -4.6875q0.984375 0 1.609375 0.390625q0.625 0.390625 0.859375 1.125q0.453125 -0.71875 1.1875 -1.109375q0.734375 -0.40625 1.625 -0.40625q1.515625 0 2.234375 0.6875q0.734375 0.671875 0.734375 1.84375l0 6.625l-1.46875 0l0 -5.9375q0 -0.96875 -0.421875 -1.453125q-0.40625 -0.484375 -1.3125 -0.484375q-1.109375 0 -1.734375 0.65625q-0.609375 0.640625 -0.609375 1.59375l0 5.625l-1.46875 0l0 -5.9375q0 -0.96875 -0.40625 -1.453125q-0.40625 -0.484375 -1.28125 -0.484375q-0.703125 0 -1.25 0.34375q-0.53125 0.34375 -0.84375 0.9375q-0.296875 0.578125 -0.296875 0.984375l0 5.609375l-1.46875 0l0 -8.953125l1.390625 0l0 1.3125l0.03125 0q0.5 -0.765625 1.21875 -1.140625q0.71875 -0.375 1.671875 -0.375z" fill-rule="nonzero"/><path fill="#000000" fill-opacity="0.0" d="m564.49866 169.28871l202.021 0l0 201.42195l-202.021 0z" fill-rule="evenodd"/><g transform="matrix(0.521124241803387 0.0 0.0 0.5211163490020071 430.68000610204183 -149.30036846933442)"><clipPath id="g2e3e872469c_0_180.2"><path d="m256.78845 611.3588l387.6637 0l0 386.52008l-387.6637 0z" clip-rule="evenodd"/></clipPath><image clip-path="url(#g2e3e872469c_0_180.2)" fill="#000" width="900.0" height="1600.0" x="0.0" y="0.0" preserveAspectRatio="none" xlink:href="https://lh7-rt.googleusercontent.com/slidesz/AGV_vUcuss8ec7fOZClqyF8tDE1M9CEymjWNScXcLjb_6jK-pvsUT90E3i49yNfqjtUH1PkgVQyIpzgSEEiIJeM1iOUzNZC2ycu1ZnxwABxiOFUuk4VlImlSrOZy4o_Myy6UhgI=s2048?key=7LE3oBm5y_Q2w8Qv5o4NHULt"/></g><g id="a11y-g2afab4581bd_1_1" role="img" aria-label=" +54.911.5564.9872&#xa;" tabindex="0"><path fill="#000000" fill-opacity="0.0" d="m220.85301 393.36484l0 47.77951l184.22047 0l0 -47.77951z" fill-rule="nonzero"/></g><path fill="#000000" fill-opacity="0.0" d="m220.85301 393.36484l184.22047 0l0 47.77951l-184.22047 0z" fill-rule="evenodd"/><path fill="#d9d9d9" d="m240.44858 410.2392l0 3.796875l3.78125 0l0 1.171875l-3.78125 0l0 3.796875l-1.171875 0l0 -3.796875l-3.78125 0l0 -1.171875l3.78125 0l0 -3.796875l1.171875 0zm12.75795 -3.3125l0 1.296875l-4.953125 0l-0.65625 3.53125l0.03125 0.046875q0.390625 -0.421875 0.96875 -0.65625q0.59375 -0.234375 1.328125 -0.234375q1.78125 0 2.859375 1.125q1.09375 1.109375 1.09375 3.078125q0 1.765625 -1.1875 2.9375q-1.171875 1.171875 -3.09375 1.171875q-1.640625 0 -2.765625 -0.953125q-1.109375 -0.953125 -1.15625 -2.5625l0 -0.015625l1.46875 0q0.078125 0.984375 0.796875 1.609375q0.71875 0.609375 1.78125 0.609375q1.140625 0 1.875 -0.765625q0.734375 -0.78125 0.734375 -2.140625q0 -1.25 -0.8125 -2.015625q-0.796875 -0.78125 -1.96875 -0.78125q-0.65625 0 -1.234375 0.296875q-0.5625 0.296875 -1.046875 0.859375l-1.265625 -0.0625l1.140625 -6.375l6.0625 0zm8.7621 -0.203125l0 8.09375l1.65625 0l0 1.3125l-1.65625 0l0 2.875l-1.390625 0l0 -2.875l-5.3906403 0l0 -1.421875l5.5937653 -7.984375l1.1875 0zm-1.421875 2.09375l-4.09375 6.0l4.125 0l0 -6.0l-0.03125 0zm7.15271 8.265625l0 1.921875l-1.921875 0l0 -1.921875l1.921875 0zm6.0799255 -10.359375q2.140625 0 3.171875 1.46875q1.03125 1.453125 1.03125 4.40625q0 3.390625 -1.0625 5.015625q-1.0625 1.609375 -3.1875 1.609375q-1.59375 0 -2.59375 -0.8125q-0.984375 -0.8125 -1.140625 -2.375l1.46875 0q0.125 0.90625 0.75 1.390625q0.625 0.484375 1.515625 0.484375q1.34375 0 2.015625 -1.15625q0.6875 -1.171875 0.75 -3.59375l-0.03125 -0.03125q-0.4375 0.796875 -1.1875 1.25q-0.75 0.4375 -1.671875 0.4375q-1.796875 0 -2.828125 -1.09375q-1.03125 -1.109375 -1.03125 -3.0q0 -1.75 1.125 -2.875q1.140625 -1.125 2.90625 -1.125zm-2.46875 4.203125q0 1.0625 0.703125 1.84375q0.71875 0.765625 1.71875 0.765625q1.09375 0 1.796875 -0.78125q0.71875 -0.796875 0.71875 -1.9375q0 -1.171875 -0.6875 -1.984375q-0.671875 -0.8125 -1.859375 -0.8125q-1.125 0 -1.765625 0.78125q-0.625 0.78125 -0.625 2.125zm13.65271 -4.203125l0 12.28125l-1.46875 0l0 -8.796875l-3.203125 0l0 -1.1875l0.0625 0q1.546875 0 2.40625 -0.546875q0.859375 -0.5625 1.078125 -1.75l1.125 0zm9.637085 0l0 12.28125l-1.46875 0l0 -8.796875l-3.203125 0l0 -1.1875l0.0625 0q1.546875 0 2.40625 -0.546875q0.859375 -0.5625 1.078125 -1.75l1.125 0zm6.824585 10.359375l0 1.921875l-1.921875 0l0 -1.921875l1.921875 0zm9.595581 -10.15625l0 1.296875l-4.953125 0l-0.65625 3.53125l0.03125 0.046875q0.390625 -0.421875 0.96875 -0.65625q0.59375 -0.234375 1.328125 -0.234375q1.78125 0 2.859375 1.125q1.09375 1.109375 1.09375 3.078125q0 1.765625 -1.1875 2.9375q-1.171875 1.171875 -3.09375 1.171875q-1.640625 0 -2.765625 -0.953125q-1.109375 -0.953125 -1.15625 -2.5625l0 -0.015625l1.46875 0q0.078125 0.984375 0.796875 1.609375q0.71875 0.609375 1.78125 0.609375q1.140625 0 1.875 -0.765625q0.734375 -0.78125 0.734375 -2.140625q0 -1.25 -0.8125 -2.015625q-0.796875 -0.78125 -1.96875 -0.78125q-0.65625 0 -1.234375 0.296875q-0.5625 0.296875 -1.046875 0.859375l-1.265625 -0.0625l1.140625 -6.375l6.0625 0zm9.637085 0l0 1.296875l-4.953125 0l-0.65625 3.53125l0.03125 0.046875q0.390625 -0.421875 0.96875 -0.65625q0.59375 -0.234375 1.328125 -0.234375q1.78125 0 2.859375 1.125q1.09375 1.109375 1.09375 3.078125q0 1.765625 -1.1875 2.9375q-1.171875 1.171875 -3.09375 1.171875q-1.640625 0 -2.765625 -0.953125q-1.109375 -0.953125 -1.15625 -2.5625l0 -0.015625l1.46875 0q0.078125 0.984375 0.796875 1.609375q0.71875 0.609375 1.78125 0.609375q1.140625 0 1.875 -0.765625q0.734375 -0.78125 0.734375 -2.140625q0 -1.25 -0.8125 -2.015625q-0.796875 -0.78125 -1.96875 -0.78125q-0.65625 0 -1.234375 0.296875q-0.5625 0.296875 -1.046875 0.859375l-1.265625 -0.0625l1.140625 -6.375l6.0625 0zm6.668335 -0.203125q1.53125 0 2.421875 0.828125q0.90625 0.8125 1.046875 2.3125l-1.46875 0q-0.109375 -0.890625 -0.671875 -1.359375q-0.546875 -0.484375 -1.390625 -0.484375q-1.421875 0 -2.171875 1.1875q-0.75 1.171875 -0.8125 3.46875l0.046875 0.046875q0.5 -0.8125 1.25 -1.21875q0.765625 -0.40625 1.8125 -0.40625q1.671875 0 2.71875 1.109375q1.046875 1.109375 1.046875 2.875q0 1.765625 -1.078125 2.953125q-1.078125 1.1875 -3.03125 1.1875q-2.09375 0 -3.171875 -1.46875q-1.0625 -1.46875 -1.0625 -4.46875q0 -3.171875 1.15625 -4.859375q1.15625 -1.703125 3.359375 -1.703125zm-2.765625 8.453125q0 1.203125 0.703125 1.96875q0.703125 0.765625 1.84375 0.765625q1.09375 0 1.78125 -0.765625q0.703125 -0.765625 0.703125 -1.953125q0 -1.265625 -0.671875 -2.015625q-0.671875 -0.765625 -1.828125 -0.765625q-1.140625 0 -1.84375 0.765625q-0.6875 0.765625 -0.6875 2.0zm14.49646 -8.453125l0 8.09375l1.65625 0l0 1.3125l-1.65625 0l0 2.875l-1.390625 0l0 -2.875l-5.390625 0l0 -1.421875l5.59375 -7.984375l1.1875 0zm-1.421875 2.09375l-4.09375 6.0l4.125 0l0 -6.0l-0.03125 0zm7.15271 8.265625l0 1.921875l-1.921875 0l0 -1.921875l1.921875 0zm6.0799255 -10.359375q2.140625 0 3.171875 1.46875q1.03125 1.453125 1.03125 4.40625q0 3.390625 -1.0625 5.015625q-1.0625 1.609375 -3.1875 1.609375q-1.59375 0 -2.59375 -0.8125q-0.984375 -0.8125 -1.140625 -2.375l1.46875 0q0.125 0.90625 0.75 1.390625q0.625 0.484375 1.515625 0.484375q1.34375 0 2.015625 -1.15625q0.6875 -1.171875 0.75 -3.59375l-0.03125 -0.03125q-0.4375 0.796875 -1.1875 1.25q-0.75 0.4375 -1.671875 0.4375q-1.796875 0 -2.828125 -1.09375q-1.03125 -1.109375 -1.03125 -3.0q0 -1.75 1.125 -2.875q1.140625 -1.125 2.90625 -1.125zm-2.46875 4.203125q0 1.0625 0.703125 1.84375q0.71875 0.765625 1.71875 0.765625q1.09375 0 1.796875 -0.78125q0.71875 -0.796875 0.71875 -1.9375q0 -1.171875 -0.6875 -1.984375q-0.671875 -0.8125 -1.859375 -0.8125q-1.125 0 -1.765625 0.78125q-0.625 0.78125 -0.625 2.125zm12.21521 -4.203125q1.75 0 2.734375 0.859375q0.984375 0.84375 0.984375 2.265625q0 0.796875 -0.4375 1.484375q-0.421875 0.671875 -1.25 1.078125q1.0625 0.328125 1.609375 1.109375q0.5625 0.78125 0.5625 1.953125q0 1.671875 -1.140625 2.71875q-1.140625 1.03125 -2.9375 1.03125q-1.875 0 -3.03125 -1.0q-1.140625 -1.0 -1.140625 -2.75q0 -1.09375 0.5625 -1.90625q0.5625 -0.8125 1.59375 -1.15625q-0.8125 -0.359375 -1.265625 -1.046875q-0.453125 -0.703125 -0.453125 -1.515625q0 -1.390625 1.03125 -2.25q1.046875 -0.875 2.578125 -0.875zm-2.046875 3.1875q0 0.875 0.578125 1.421875q0.578125 0.546875 1.59375 0.546875q0.921875 0 1.46875 -0.53125q0.5625 -0.53125 0.5625 -1.4375q0 -0.90625 -0.5625 -1.390625q-0.546875 -0.5 -1.515625 -0.5q-0.953125 0 -1.546875 0.53125q-0.578125 0.53125 -0.578125 1.359375zm-0.4375 5.625q0 1.078125 0.71875 1.734375q0.734375 0.640625 1.890625 0.640625q1.09375 0 1.796875 -0.671875q0.71875 -0.671875 0.71875 -1.71875q0 -0.96875 -0.75 -1.65625q-0.734375 -0.6875 -1.796875 -0.6875q-1.09375 0 -1.84375 0.65625q-0.734375 0.65625 -0.734375 1.703125zm16.199585 -8.609375l0 1.265625q-1.890625 1.890625 -3.203125 4.890625q-1.296875 3.0 -1.5 5.921875l-1.640625 0q0.203125 -2.875 1.421875 -5.609375q1.234375 -2.734375 3.421875 -5.078125l-6.453125 0l0 -1.390625l7.953125 0zm5.543335 -0.203125q1.6875 0 2.765625 0.96875q1.078125 0.953125 1.078125 2.5625q0 1.265625 -0.71875 2.296875q-0.703125 1.015625 -3.0 2.34375q-1.40625 0.8125 -2.0 1.46875q-0.578125 0.640625 -0.71875 1.34375l6.3125 0l0 1.296875l-8.015625 0q0.125 -1.53125 0.78125 -2.671875q0.671875 -1.15625 2.484375 -2.25q2.15625 -1.3125 2.734375 -2.046875q0.578125 -0.75 0.578125 -1.78125q0 -0.96875 -0.6875 -1.59375q-0.671875 -0.640625 -1.6875 -0.640625q-1.109375 0 -1.75 0.828125q-0.640625 0.828125 -0.640625 2.09375l0 0.125l-1.46875 0l-0.015625 -0.296875q0 -1.828125 1.078125 -2.9375q1.09375 -1.109375 2.890625 -1.109375z" fill-rule="nonzero"/><g id="a11y-g2afab4581bd_1_2" role="img" aria-label="estebanvivo@gmail.com&#xa;" tabindex="0"><path fill="#000000" fill-opacity="0.0" d="m203.07349 429.6929l0 47.77954l219.77954 0l0 -47.77954z" fill-rule="nonzero"/></g><path fill="#000000" fill-opacity="0.0" d="m203.07349 429.6929l219.77954 0l0 47.77954l-219.77954 0z" fill-rule="evenodd"/><path fill="#d9d9d9" d="m224.13235 450.66644q1.9375 0 3.0 1.390625q1.0625 1.375 1.0625 3.546875l0 0.1875l-6.703125 0l0 0.109375q0 1.28125 0.734375 2.0625q0.75 0.765625 2.046875 0.765625q0.984375 0 1.5625 -0.453125q0.578125 -0.453125 0.765625 -1.296875l1.453125 0q-0.296875 1.484375 -1.3125 2.28125q-1.0 0.78125 -2.515625 0.78125q-1.40625 0 -2.390625 -0.640625q-0.96875 -0.640625 -1.4375 -1.78125q-0.46875 -1.140625 -0.46875 -2.328125q0 -1.984375 1.1875 -3.296875q1.203125 -1.328125 3.015625 -1.328125zm-2.640625 3.8125l5.140625 0q-0.0625 -1.09375 -0.796875 -1.8125q-0.71875 -0.71875 -1.796875 -0.71875q-1.015625 0 -1.734375 0.6875q-0.71875 0.6875 -0.8125 1.84375zm11.213348 -3.8125q1.796875 0 2.671875 0.703125q0.890625 0.6875 0.96875 2.09375l-1.46875 0l0 -0.015625q-0.0625 -0.71875 -0.625 -1.109375q-0.5625 -0.390625 -1.4375 -0.390625q-0.890625 0 -1.40625 0.3125q-0.515625 0.296875 -0.515625 0.84375q0 0.484375 0.453125 0.796875q0.453125 0.3125 1.375 0.5l1.375 0.3125q1.3125 0.296875 1.984375 0.890625q0.671875 0.59375 0.671875 1.609375q0 1.3125 -1.03125 2.078125q-1.015625 0.75 -2.78125 0.75q-1.71875 0 -2.734375 -0.765625q-1.0 -0.78125 -1.0625 -2.28125l1.484375 0q0.03125 0.84375 0.65625 1.296875q0.640625 0.4375 1.75 0.4375q1.0625 0 1.609375 -0.328125q0.546875 -0.34375 0.546875 -1.0q0 -0.609375 -0.546875 -0.953125q-0.546875 -0.359375 -2.234375 -0.6875q-1.6875 -0.34375 -2.375 -0.9375q-0.6875 -0.609375 -0.6875 -1.609375q0 -1.1875 0.953125 -1.859375q0.953125 -0.6875 2.40625 -0.6875zm7.7265625 -2.484375l0 2.6875l1.78125 0l0 1.296875l-1.78125 0l0 5.609375q0 0.671875 0.4375 0.71875q0.453125 0.03125 0.9375 0.03125l0.40625 0l0 1.296875l-1.21875 0q-1.203125 0 -1.625 -0.421875q-0.40625 -0.4375 -0.40625 -1.453125l0 -5.78125l-1.53125 0l0 -1.296875l1.53125 0l0 -2.6875l1.46875 0zm6.917633 2.484375q1.9375 0 3.0 1.390625q1.0625 1.375 1.0625 3.546875l0 0.1875l-6.703125 0l0 0.109375q0 1.28125 0.734375 2.0625q0.75 0.765625 2.046875 0.765625q0.984375 0 1.5625 -0.453125q0.578125 -0.453125 0.765625 -1.296875l1.453125 0q-0.296875 1.484375 -1.3125 2.28125q-1.0 0.78125 -2.515625 0.78125q-1.40625 0 -2.390625 -0.640625q-0.96875 -0.640625 -1.4375 -1.78125q-0.46875 -1.140625 -0.46875 -2.328125q0 -1.984375 1.1875 -3.296875q1.203125 -1.328125 3.015625 -1.328125zm-2.640625 3.8125l5.140625 0q-0.0625 -1.09375 -0.796875 -1.8125q-0.71875 -0.71875 -1.796875 -0.71875q-1.015625 0 -1.734375 0.6875q-0.71875 0.6875 -0.8125 1.84375zm9.744598 -7.03125l0 4.640625l0.046875 0q0.34375 -0.703125 1.078125 -1.0625q0.75 -0.359375 1.78125 -0.359375q1.921875 0 3.015625 1.328125q1.109375 1.3125 1.109375 3.375q0 2.078125 -1.109375 3.375q-1.09375 1.296875 -2.984375 1.296875q-0.828125 0 -1.640625 -0.34375q-0.796875 -0.359375 -1.25 -1.0625l-0.046875 0l0 1.1875l-1.46875 0l0 -12.375l1.46875 0zm-0.046875 7.890625q0 1.5625 0.75 2.484375q0.765625 0.90625 2.078125 0.90625q1.28125 0 1.984375 -0.90625q0.703125 -0.921875 0.703125 -2.546875q0 -1.453125 -0.75 -2.390625q-0.734375 -0.9375 -2.03125 -0.9375q-1.296875 0 -2.015625 0.953125q-0.71875 0.953125 -0.71875 2.4375zm12.4591675 -4.671875q1.828125 0 2.59375 0.65625q0.765625 0.640625 0.765625 1.734375q0 4.65625 0 5.171875q0 0.5 0.46875 0.5q0.109375 0 0.21875 -0.015625q0.125 -0.03125 0.234375 -0.0625l0 1.140625q-0.203125 0.109375 -0.46875 0.171875q-0.265625 0.078125 -0.578125 0.078125q-0.609375 0 -0.9375 -0.34375q-0.3125 -0.34375 -0.3125 -1.046875q-0.59375 0.6875 -1.390625 1.046875q-0.796875 0.34375 -1.765625 0.34375q-1.390625 0 -2.1875 -0.65625q-0.78125 -0.65625 -0.78125 -1.859375q0 -1.21875 0.765625 -1.921875q0.78125 -0.703125 3.625 -1.0625q0.96875 -0.125 1.3125 -0.359375q0.34375 -0.25 0.34375 -0.75q0 -0.734375 -0.484375 -1.109375q-0.46875 -0.375 -1.515625 -0.375q-1.09375 0 -1.640625 0.421875q-0.546875 0.40625 -0.59375 1.28125l-1.46875 0q0.078125 -1.484375 1.046875 -2.234375q0.984375 -0.75 2.75 -0.75zm-2.578125 6.75q0 0.625 0.453125 0.96875q0.453125 0.34375 1.28125 0.34375q1.234375 0 1.984375 -0.609375q0.75 -0.625 0.75 -1.390625l0 -1.53125q-0.375 0.265625 -0.96875 0.359375q-0.59375 0.078125 -1.578125 0.21875q-0.984375 0.140625 -1.453125 0.53125q-0.46875 0.390625 -0.46875 1.109375zm12.572723 -6.75q1.609375 0 2.34375 0.828125q0.734375 0.828125 0.734375 2.359375l0 5.96875l-1.46875 0l0 -6.125q0 -0.75 -0.5 -1.25q-0.484375 -0.5 -1.34375 -0.5q-1.234375 0 -1.9375 0.765625q-0.703125 0.765625 -0.703125 1.984375l0 5.125l-1.46875 0l0 -8.953125l1.390625 0l0 1.421875l0.03125 0q0.484375 -0.84375 1.203125 -1.234375q0.71875 -0.390625 1.71875 -0.390625zm6.074585 0.203125l2.515625 7.46875l0.03125 0l2.4375 -7.46875l1.546875 0l-3.28125 8.953125l-1.5625 0l-3.328125 -8.953125l1.640625 0zm9.4453125 -3.421875l0 1.8125l-1.484375 0l0 -1.8125l1.484375 0zm0 3.421875l0 8.953125l-1.484375 0l0 -8.953125l1.484375 0zm3.068512 0l2.515625 7.46875l0.03125 0l2.4375 -7.46875l1.546875 0l-3.28125 8.953125l-1.5625 0l-3.328125 -8.953125l1.640625 0zm11.7421875 -0.203125q2.03125 0 3.1875 1.3125q1.171875 1.296875 1.171875 3.375q0 2.09375 -1.1875 3.390625q-1.1875 1.296875 -3.171875 1.296875q-1.9375 0 -3.140625 -1.265625q-1.203125 -1.28125 -1.203125 -3.421875q0 -2.125 1.171875 -3.40625q1.1875 -1.28125 3.171875 -1.28125zm-2.78125 4.6875q0 1.546875 0.78125 2.46875q0.78125 0.90625 2.0 0.90625q1.21875 0 2.0 -0.921875q0.796875 -0.921875 0.796875 -2.453125q0 -1.53125 -0.796875 -2.46875q-0.78125 -0.9375 -2.015625 -0.9375q-1.171875 0 -1.96875 0.921875q-0.796875 0.921875 -0.796875 2.484375zm14.918884 -8.203125q2.453125 0 4.171875 1.53125q1.71875 1.53125 1.71875 3.8125q0 1.359375 -0.640625 2.53125q-0.625 1.15625 -1.609375 1.828125q-0.96875 0.671875 -1.796875 0.671875q-0.484375 0 -0.78125 -0.296875q-0.296875 -0.3125 -0.328125 -0.84375l-0.0625 0q-0.5 0.578125 -1.0625 0.875q-0.5625 0.296875 -1.078125 0.296875q-1.0625 0 -1.78125 -0.78125q-0.703125 -0.78125 -0.703125 -1.96875q0 -1.9375 1.1875 -3.421875q1.1875 -1.5 2.890625 -1.5q0.6875 0 1.171875 0.375q0.5 0.359375 0.765625 1.046875l0.40625 -1.09375l1.09375 0l-1.453125 4.890625q-0.140625 0.46875 -0.171875 0.625q-0.03125 0.15625 -0.03125 0.296875q0 0.265625 0.09375 0.40625q0.109375 0.140625 0.3125 0.140625q0.796875 0 1.59375 -1.3125q0.8125 -1.3125 0.8125 -2.6875q0 -1.921875 -1.390625 -3.1875q-1.375 -1.265625 -3.3125 -1.265625q-2.171875 0 -3.71875 1.65625q-1.546875 1.65625 -1.546875 3.890625q0 2.265625 1.578125 3.890625q1.578125 1.609375 3.78125 1.609375q1.203125 0 2.375 -0.5625q1.171875 -0.5625 1.921875 -1.546875l1.09375 0q-0.84375 1.421875 -2.296875 2.25q-1.453125 0.8125 -3.140625 0.8125q-1.75 0 -3.265625 -0.859375q-1.515625 -0.875 -2.375 -2.375q-0.84375 -1.515625 -0.84375 -3.296875q0 -2.640625 1.890625 -4.53125q1.90625 -1.90625 4.53125 -1.90625zm-2.65625 7.546875q0 0.703125 0.40625 1.1875q0.421875 0.484375 1.09375 0.484375q1.046875 0 1.859375 -1.25q0.828125 -1.25 0.828125 -2.421875q0 -0.609375 -0.421875 -1.109375q-0.421875 -0.515625 -1.0 -0.515625q-1.09375 0 -1.9375 1.1875q-0.828125 1.1875 -0.828125 2.4375zm14.1091 -4.03125q0.9375 0 1.625 0.40625q0.6875 0.40625 1.0625 1.078125l0.015625 0l0 -1.28125l1.375 0l0 8.28125q0 2.109375 -1.015625 3.203125q-1.015625 1.109375 -3.125 1.109375q-1.546875 0 -2.59375 -0.6875q-1.046875 -0.671875 -1.125 -1.953125l1.46875 0q0.046875 0.6875 0.734375 1.078125q0.703125 0.390625 1.59375 0.390625q1.296875 0 1.984375 -0.875q0.703125 -0.859375 0.703125 -2.5625l0 -0.546875l-0.03125 0q-0.34375 0.734375 -1.09375 1.171875q-0.75 0.4375 -1.703125 0.4375q-1.828125 0 -2.921875 -1.25q-1.078125 -1.25 -1.078125 -3.28125q0 -2.046875 1.078125 -3.375q1.09375 -1.34375 3.046875 -1.34375zm-2.5625 4.546875q0 1.59375 0.65625 2.515625q0.671875 0.90625 1.875 0.90625q1.21875 0 1.9375 -0.9375q0.71875 -0.953125 0.71875 -2.53125q0 -1.4375 -0.671875 -2.328125q-0.65625 -0.890625 -1.890625 -0.890625q-1.234375 0 -1.9375 0.890625q-0.6875 0.890625 -0.6875 2.375zm13.184509 -4.546875q0.984375 0 1.609375 0.390625q0.625 0.390625 0.859375 1.125q0.453125 -0.71875 1.1875 -1.109375q0.734375 -0.40625 1.625 -0.40625q1.515625 0 2.234375 0.6875q0.734375 0.671875 0.734375 1.84375l0 6.625l-1.46875 0l0 -5.9375q0 -0.96875 -0.421875 -1.453125q-0.40625 -0.484375 -1.3125 -0.484375q-1.109375 0 -1.734375 0.65625q-0.609375 0.640625 -0.609375 1.59375l0 5.625l-1.46875 0l0 -5.9375q0 -0.96875 -0.40625 -1.453125q-0.40625 -0.484375 -1.28125 -0.484375q-0.703125 0 -1.25 0.34375q-0.53125 0.34375 -0.84375 0.9375q-0.296875 0.578125 -0.296875 0.984375l0 5.609375l-1.46875 0l0 -8.953125l1.390625 0l0 1.3125l0.03125 0q0.5 -0.765625 1.21875 -1.140625q0.71875 -0.375 1.671875 -0.375zm14.125122 0q1.828125 0 2.59375 0.65625q0.765625 0.640625 0.765625 1.734375q0 4.65625 0 5.171875q0 0.5 0.46875 0.5q0.109375 0 0.21875 -0.015625q0.125 -0.03125 0.234375 -0.0625l0 1.140625q-0.203125 0.109375 -0.46875 0.171875q-0.265625 0.078125 -0.578125 0.078125q-0.609375 0 -0.9375 -0.34375q-0.3125 -0.34375 -0.3125 -1.046875q-0.59375 0.6875 -1.390625 1.046875q-0.796875 0.34375 -1.765625 0.34375q-1.390625 0 -2.1875 -0.65625q-0.78125 -0.65625 -0.78125 -1.859375q0 -1.21875 0.765625 -1.921875q0.78125 -0.703125 3.625 -1.0625q0.96875 -0.125 1.3125 -0.359375q0.34375 -0.25 0.34375 -0.75q0 -0.734375 -0.484375 -1.109375q-0.46875 -0.375 -1.515625 -0.375q-1.09375 0 -1.640625 0.421875q-0.546875 0.40625 -0.59375 1.28125l-1.46875 0q0.078125 -1.484375 1.046875 -2.234375q0.984375 -0.75 2.75 -0.75zm-2.578125 6.75q0 0.625 0.453125 0.96875q0.453125 0.34375 1.28125 0.34375q1.234375 0 1.984375 -0.609375q0.75 -0.625 0.75 -1.390625l0 -1.53125q-0.375 0.265625 -0.96875 0.359375q-0.59375 0.078125 -1.578125 0.21875q-0.984375 0.140625 -1.453125 0.53125q-0.46875 0.390625 -0.46875 1.109375zm9.791473 -9.96875l0 1.8125l-1.484375 0l0 -1.8125l1.484375 0zm0 3.421875l0 8.953125l-1.484375 0l0 -8.953125l1.484375 0zm3.849762 -3.421875l0 12.375l-1.484375 0l0 -12.375l1.484375 0zm4.537262 10.453125l0 1.921875l-1.921875 0l0 -1.921875l1.921875 0zm6.298706 -7.234375q1.640625 0 2.65625 0.78125q1.03125 0.765625 1.21875 2.296875l-1.53125 0q-0.171875 -0.875 -0.75 -1.328125q-0.578125 -0.46875 -1.46875 -0.46875q-1.359375 0 -2.078125 0.921875q-0.703125 0.921875 -0.703125 2.59375q0 1.484375 0.703125 2.375q0.703125 0.890625 1.90625 0.890625q1.078125 0 1.6875 -0.578125q0.625 -0.578125 0.78125 -1.609375l1.5 0q-0.25 1.6875 -1.265625 2.59375q-1.015625 0.90625 -2.6875 0.90625q-1.953125 0 -3.078125 -1.234375q-1.109375 -1.234375 -1.109375 -3.34375q0 -2.203125 1.125 -3.5q1.140625 -1.296875 3.09375 -1.296875zm9.432098 0q2.03125 0 3.1875 1.3125q1.171875 1.296875 1.171875 3.375q0 2.09375 -1.1875 3.390625q-1.1875 1.296875 -3.171875 1.296875q-1.9375 0 -3.140625 -1.265625q-1.203125 -1.28125 -1.203125 -3.421875q0 -2.125 1.171875 -3.40625q1.1875 -1.28125 3.171875 -1.28125zm-2.78125 4.6875q0 1.546875 0.78125 2.46875q0.78125 0.90625 2.0 0.90625q1.21875 0 2.0 -0.921875q0.796875 -0.921875 0.796875 -2.453125q0 -1.53125 -0.796875 -2.46875q-0.78125 -0.9375 -2.015625 -0.9375q-1.171875 0 -1.96875 0.921875q-0.796875 0.921875 -0.796875 2.484375zm13.184509 -4.6875q0.984375 0 1.609375 0.390625q0.625 0.390625 0.859375 1.125q0.453125 -0.71875 1.1875 -1.109375q0.734375 -0.40625 1.625 -0.40625q1.515625 0 2.234375 0.6875q0.734375 0.671875 0.734375 1.84375l0 6.625l-1.46875 0l0 -5.9375q0 -0.96875 -0.421875 -1.453125q-0.40625 -0.484375 -1.3125 -0.484375q-1.109375 0 -1.734375 0.65625q-0.609375 0.640625 -0.609375 1.59375l0 5.625l-1.46875 0l0 -5.9375q0 -0.96875 -0.40625 -1.453125q-0.40625 -0.484375 -1.28125 -0.484375q-0.703125 0 -1.25 0.34375q-0.53125 0.34375 -0.84375 0.9375q-0.296875 0.578125 -0.296875 0.984375l0 5.609375l-1.46875 0l0 -8.953125l1.390625 0l0 1.3125l0.03125 0q0.5 -0.765625 1.21875 -1.140625q0.71875 -0.375 1.671875 -0.375z" fill-rule="nonzero"/><path fill="#000000" fill-opacity="0.0" d="m220.85301 169.71785l202.02092 0l0 200.56245l-202.02092 0z" fill-rule="evenodd"/><g transform="matrix(0.243398687664042 0.0 0.0 0.2434010498687664 220.85301837270342 169.71784776902888)"><clipPath id="g2e3e872469c_0_180.3"><path d="m0 -1.1368684E-13l830.0 0l0 824.0l-830.0 0z" clip-rule="evenodd"/></clipPath><image clip-path="url(#g2e3e872469c_0_180.3)" fill="#000" width="830.0" height="824.0" x="0.0" y="0.0" preserveAspectRatio="none" xlink:href="https://lh7-rt.googleusercontent.com/slidesz/AGV_vUfk3to0Xogqc-iHOjiDRj-792Lnn4KbcChgKlrubPOoq_dfkrZj7_lv4ebDjGKxXRgH3Uupv76mOZBB1_Rf3ebC-F0EOLd8B4jsLIiS53IKSrGE269i4WRJX3jvRKwcslo=s2048?key=7LE3oBm5y_Q2w8Qv5o4NHULt"/></g></g></g></svg>