<svg version="1.1" viewBox="0.0 0.0 960.0 540.0" fill="none" stroke="none" stroke-linecap="square" stroke-miterlimit="10" xmlns:xlink="http://www.w3.org/1999/xlink" xmlns="http://www.w3.org/2000/svg"><clipPath id="g2e3e872469c_0_101.0"><path d="m0 0l960.0 0l0 540.0l-960.0 0l0 -540.0z" clip-rule="nonzero"/></clipPath><g clip-path="url(#g2e3e872469c_0_101.0)"><g id="g2e3e872469c_0_101"><path fill="#ffffff" d="m0 0l960.0 0l0 540.0l-960.0 0l0 -540.0z" fill-rule="nonzero"/><path fill="#000000" d="m0 0l960.0 0l0 540.0l-960.0 0z" fill-rule="evenodd"/><g id="a11y-g2e3e872469c_0_102" role="img" aria-label="IMMERSIVE&#xa;" tabindex="0"><path fill="#000000" fill-opacity="0.0" d="m0 0l0 47.779526l222.31496 0l23.88977 -23.889763l-23.88977 -23.889763z" fill-rule="nonzero"/></g><path fill="#666666" d="m0 0l222.31496 0l23.88977 23.889763l-23.88977 23.889763l-222.31496 0z" fill-rule="evenodd"/><path stroke="#303030" stroke-width="1.0" stroke-linejoin="round" stroke-linecap="butt" d="m0 0l222.31496 0l23.88977 23.889763l-23.88977 23.889763l-222.31496 0z" fill-rule="evenodd"/><path fill="#000000" d="m66.51657 30.809761l0 -13.359375l1.765625 0l0 13.359375l-1.765625 0zm4.839554 0l0 -13.359375l2.65625 0l3.15625 9.453125q0.4375 1.328125 0.640625 1.984375q0.234375 -0.734375 0.703125 -2.140625l3.203125 -9.296875l2.375 0l0 13.359375l-1.703125 0l0 -11.171875l-3.875 11.171875l-1.59375 0l-3.859375 -11.375l0 11.375l-1.703125 0zm15.540802 0l0 -13.359375l2.65625 0l3.15625 9.453125q0.4375 1.328125 0.640625 1.984375q0.234375 -0.734375 0.703125 -2.140625l3.203125 -9.296875l2.375 0l0 13.359375l-1.703125 0l0 -11.171875l-3.875 11.171875l-1.59375 0l-3.859375 -11.375l0 11.375l-1.703125 0zm15.618927 0l0 -13.359375l9.65625 0l0 1.578125l-7.875 0l0 4.09375l7.375 0l0 1.5625l-7.375 0l0 4.546875l8.1875 0l0 1.578125l-9.96875 0zm12.443573 0l0 -13.359375l5.921875 0q1.78125 0 2.703125 0.359375q0.9375 0.359375 1.484375 1.28125q0.5625 0.90625 0.5625 2.015625q0 1.40625 -0.921875 2.390625q-0.921875 0.96875 -2.84375 1.234375q0.703125 0.34375 1.078125 0.671875q0.765625 0.703125 1.453125 1.765625l2.328125 3.640625l-2.21875 0l-1.765625 -2.78125q-0.78125 -1.203125 -1.28125 -1.828125q-0.5 -0.640625 -0.90625 -0.890625q-0.390625 -0.265625 -0.796875 -0.359375q-0.296875 -0.078125 -0.984375 -0.078125l-2.046875 0l0 5.9375l-1.765625 0zm1.765625 -7.453125l3.796875 0q1.21875 0 1.890625 -0.25q0.6875 -0.265625 1.046875 -0.8125q0.359375 -0.546875 0.359375 -1.1875q0 -0.953125 -0.6875 -1.5625q-0.6875 -0.609375 -2.1875 -0.609375l-4.21875 0l0 4.421875zm11.082321 3.15625l1.65625 -0.140625q0.125 1.0 0.546875 1.640625q0.4375 0.640625 1.34375 1.046875q0.921875 0.390625 2.0625 0.390625q1.0 0 1.78125 -0.296875q0.78125 -0.296875 1.15625 -0.8125q0.375 -0.53125 0.375 -1.15625q0 -0.625 -0.375 -1.09375q-0.359375 -0.46875 -1.1875 -0.796875q-0.546875 -0.203125 -2.390625 -0.640625q-1.828125 -0.453125 -2.5625 -0.84375q-0.96875 -0.5 -1.4375 -1.234375q-0.46875 -0.75 -0.46875 -1.671875q0 -1.0 0.578125 -1.875q0.578125 -0.890625 1.671875 -1.34375q1.109375 -0.453125 2.453125 -0.453125q1.484375 0 2.609375 0.484375q1.140625 0.46875 1.75 1.40625q0.609375 0.921875 0.65625 2.09375l-1.6875 0.125q-0.140625 -1.265625 -0.9375 -1.90625q-0.78125 -0.65625 -2.3125 -0.65625q-1.609375 0 -2.34375 0.59375q-0.734375 0.59375 -0.734375 1.421875q0 0.71875 0.53125 1.171875q0.5 0.46875 2.65625 0.96875q2.15625 0.484375 2.953125 0.84375q1.171875 0.53125 1.71875 1.359375q0.5625 0.828125 0.5625 1.90625q0 1.0625 -0.609375 2.015625q-0.609375 0.9375 -1.75 1.46875q-1.140625 0.515625 -2.578125 0.515625q-1.8125 0 -3.046875 -0.53125q-1.21875 -0.53125 -1.921875 -1.59375q-0.6875 -1.0625 -0.71875 -2.40625zm13.334198 4.296875l0 -13.359375l1.765625 0l0 13.359375l-1.765625 0zm8.698929 0l-5.171875 -13.359375l1.921875 0l3.46875 9.703125q0.421875 1.171875 0.703125 2.1875q0.3125 -1.09375 0.71875 -2.1875l3.609375 -9.703125l1.796875 0l-5.234375 13.359375l-1.8125 0zm8.662323 0l0 -13.359375l9.65625 0l0 1.578125l-7.875 0l0 4.09375l7.375 0l0 1.5625l-7.375 0l0 4.546875l8.1875 0l0 1.578125l-9.96875 0z" fill-rule="nonzero"/><g id="a11y-g2e3e872469c_0_103" role="img" aria-label="Client: AstraZeneca&#xa;IMMERSIVE 360 LED TUNEL&#xa;&#xa;" tabindex="0"><path fill="#000000" fill-opacity="0.0" d="m185.93964 439.98688l0 94.6142l653.8268 0l0 -94.6142z" fill-rule="nonzero"/></g><path fill="#000000" fill-opacity="0.0" d="m185.93964 439.98688l653.8268 0l0 94.6142l-653.8268 0z" fill-rule="evenodd"/><path fill="#d9d9d9" d="m201.53339 452.955q2.0625 0 3.4375 1.078125q1.390625 1.0625 1.65625 2.953125l-1.640625 0q-0.265625 -1.28125 -1.1875 -1.953125q-0.921875 -0.6875 -2.28125 -0.6875q-1.953125 0 -3.078125 1.390625q-1.109375 1.390625 -1.109375 3.625q0 2.359375 1.09375 3.765625q1.09375 1.40625 3.109375 1.40625q1.515625 0 2.484375 -0.953125q0.96875 -0.96875 1.09375 -2.609375l1.640625 0q-0.265625 2.390625 -1.671875 3.671875q-1.390625 1.28125 -3.671875 1.28125q-2.65625 0 -4.1875 -1.75q-1.53125 -1.765625 -1.53125 -4.703125q0 -2.875 1.578125 -4.6875q1.578125 -1.828125 4.265625 -1.828125zm8.591949 0.296875l0 12.375l-1.484375 0l0 -12.375l1.484375 0zm3.849762 0l0 1.8125l-1.484375 0l0 -1.8125l1.484375 0zm0 3.421875l0 8.953125l-1.484375 0l0 -8.953125l1.484375 0zm6.006012 -0.203125q1.9375 0 3.0 1.390625q1.0625 1.375 1.0625 3.546875l0 0.1875l-6.703125 0l0 0.109375q0 1.28125 0.734375 2.0625q0.75 0.765625 2.046875 0.765625q0.984375 0 1.5625 -0.453125q0.578125 -0.453125 0.765625 -1.296875l1.453125 0q-0.296875 1.484375 -1.3125 2.28125q-1.0 0.78125 -2.515625 0.78125q-1.40625 0 -2.390625 -0.640625q-0.96875 -0.640625 -1.4375 -1.78125q-0.46875 -1.140625 -0.46875 -2.328125q0 -1.984375 1.1875 -3.296875q1.203125 -1.328125 3.015625 -1.328125zm-2.640625 3.8125l5.140625 0q-0.0625 -1.09375 -0.796875 -1.8125q-0.71875 -0.71875 -1.796875 -0.71875q-1.015625 0 -1.734375 0.6875q-0.71875 0.6875 -0.8125 1.84375zm12.572723 -3.8125q1.609375 0 2.34375 0.828125q0.734375 0.828125 0.734375 2.359375l0 5.96875l-1.46875 0l0 -6.125q0 -0.75 -0.5 -1.25q-0.484375 -0.5 -1.34375 -0.5q-1.234375 0 -1.9375 0.765625q-0.703125 0.765625 -0.703125 1.984375l0 5.125l-1.46875 0l0 -8.953125l1.390625 0l0 1.421875l0.03125 0q0.484375 -0.84375 1.203125 -1.234375q0.71875 -0.390625 1.71875 -0.390625zm7.34021 -2.484375l0 2.6875l1.78125 0l0 1.296875l-1.78125 0l0 5.609375q0 0.671875 0.4375 0.71875q0.453125 0.03125 0.9375 0.03125l0.40625 0l0 1.296875l-1.21875 0q-1.203125 0 -1.625 -0.421875q-0.40625 -0.4375 -0.40625 -1.453125l0 -5.78125l-1.53125 0l0 -1.296875l1.53125 0l0 -2.6875l1.46875 0zm5.6604767 2.6875l0 1.921875l-1.921875 0l0 -1.921875l1.921875 0zm0 7.03125l0 1.921875l-1.921875 0l0 -1.921875l1.921875 0zm12.800507 -10.453125l4.8281097 12.375l-1.8125 0l-1.34375 -3.71875l-5.2343597 0l-1.390625 3.71875l-1.703125 0l4.84375 -12.375l1.8125 0zm-0.953125 1.5l-2.09375 5.765625l4.1874847 0l-2.0468597 -5.765625l-0.046875 0zm9.743362 1.71875q1.796875 0 2.671875 0.703125q0.890625 0.6875 0.96875 2.09375l-1.46875 0l0 -0.015625q-0.0625 -0.71875 -0.625 -1.109375q-0.5625 -0.390625 -1.4375 -0.390625q-0.890625 0 -1.40625 0.3125q-0.515625 0.296875 -0.515625 0.84375q0 0.484375 0.453125 0.796875q0.453125 0.3125 1.375 0.5l1.375 0.3125q1.3125 0.296875 1.984375 0.890625q0.671875 0.59375 0.671875 1.609375q0 1.3125 -1.03125 2.078125q-1.015625 0.75 -2.78125 0.75q-1.71875 0 -2.734375 -0.765625q-1.0 -0.78125 -1.0625 -2.28125l1.484375 0q0.03125 0.84375 0.65625 1.296875q0.640625 0.4375 1.75 0.4375q1.0625 0 1.609375 -0.328125q0.546875 -0.34375 0.546875 -1.0q0 -0.609375 -0.546875 -0.953125q-0.546875 -0.359375 -2.234375 -0.6875q-1.6875 -0.34375 -2.375 -0.9375q-0.6875 -0.609375 -0.6875 -1.609375q0 -1.1875 0.953125 -1.859375q0.953125 -0.6875 2.40625 -0.6875zm7.7265625 -2.484375l0 2.6875l1.78125 0l0 1.296875l-1.78125 0l0 5.609375q0 0.671875 0.4375 0.71875q0.453125 0.03125 0.9375 0.03125l0.40625 0l0 1.296875l-1.21875 0q-1.203125 0 -1.625 -0.421875q-0.40625 -0.4375 -0.40625 -1.453125l0 -5.78125l-1.53125 0l0 -1.296875l1.53125 0l0 -2.6875l1.46875 0zm7.863617 2.46875q0.0625 0 0.09375 0q0.046875 0 0.109375 0.015625l0 1.546875q-1.65625 0 -2.453125 0.890625q-0.78125 0.875 -0.78125 2.703125l0 4.015625l-1.46875 0l0 -8.953125l1.375 0l0 1.875l0.046875 0q0.515625 -1.0625 1.265625 -1.578125q0.765625 -0.515625 1.8125 -0.515625zm4.5588074 0.015625q1.828125 0 2.59375 0.65625q0.765625 0.640625 0.765625 1.734375q0 4.65625 0 5.171875q0 0.5 0.46875 0.5q0.109375 0 0.21875 -0.015625q0.125 -0.03125 0.234375 -0.0625l0 1.140625q-0.203125 0.109375 -0.46875 0.171875q-0.265625 0.078125 -0.578125 0.078125q-0.609375 0 -0.9375 -0.34375q-0.3125 -0.34375 -0.3125 -1.046875q-0.59375 0.6875 -1.390625 1.046875q-0.796875 0.34375 -1.765625 0.34375q-1.390625 0 -2.1875 -0.65625q-0.78125 -0.65625 -0.78125 -1.859375q0 -1.21875 0.765625 -1.921875q0.78125 -0.703125 3.625 -1.0625q0.96875 -0.125 1.3125 -0.359375q0.34375 -0.25 0.34375 -0.75q0 -0.734375 -0.484375 -1.109375q-0.46875 -0.375 -1.515625 -0.375q-1.09375 0 -1.640625 0.421875q-0.546875 0.40625 -0.59375 1.28125l-1.46875 0q0.078125 -1.484375 1.046875 -2.234375q0.984375 -0.75 2.75 -0.75zm-2.578125 6.75q0 0.625 0.453125 0.96875q0.453125 0.34375 1.28125 0.34375q1.234375 0 1.984375 -0.609375q0.75 -0.625 0.75 -1.390625l0 -1.53125q-0.375 0.265625 -0.96875 0.359375q-0.59375 0.078125 -1.578125 0.21875q-0.984375 0.140625 -1.453125 0.53125q-0.46875 0.390625 -0.46875 1.109375zm17.135223 -9.96875l0 1.390625l-7.6875 9.59375l7.890625 0l0 1.390625l-9.84375 0l0 -1.390625l7.703125 -9.59375l-7.109375 0l0 -1.390625l9.046875 0zm4.982483 3.21875q1.9375 0 3.0 1.390625q1.0625 1.375 1.0625 3.546875l0 0.1875l-6.703125 0l0 0.109375q0 1.28125 0.734375 2.0625q0.75 0.765625 2.046875 0.765625q0.984375 0 1.5625 -0.453125q0.578125 -0.453125 0.765625 -1.296875l1.453125 0q-0.296875 1.484375 -1.3125 2.28125q-1.0 0.78125 -2.515625 0.78125q-1.40625 0 -2.390625 -0.640625q-0.96875 -0.640625 -1.4375 -1.78125q-0.46875 -1.140625 -0.46875 -2.328125q0 -1.984375 1.1875 -3.296875q1.203125 -1.328125 3.015625 -1.328125zm-2.640625 3.8125l5.140625 0q-0.0625 -1.09375 -0.796875 -1.8125q-0.71875 -0.71875 -1.796875 -0.71875q-1.015625 0 -1.734375 0.6875q-0.71875 0.6875 -0.8125 1.84375zm12.572723 -3.8125q1.609375 0 2.34375 0.828125q0.734375 0.828125 0.734375 2.359375l0 5.96875l-1.46875 0l0 -6.125q0 -0.75 -0.5 -1.25q-0.484375 -0.5 -1.34375 -0.5q-1.234375 0 -1.9375 0.765625q-0.703125 0.765625 -0.703125 1.984375l0 5.125l-1.46875 0l0 -8.953125l1.390625 0l0 1.421875l0.03125 0q0.484375 -0.84375 1.203125 -1.234375q0.71875 -0.390625 1.71875 -0.390625zm9.012085 0q1.9375 0 3.0 1.390625q1.0625 1.375 1.0625 3.546875l0 0.1875l-6.703125 0l0 0.109375q0 1.28125 0.734375 2.0625q0.75 0.765625 2.046875 0.765625q0.984375 0 1.5625 -0.453125q0.578125 -0.453125 0.765625 -1.296875l1.453125 0q-0.296875 1.484375 -1.3125 2.28125q-1.0 0.78125 -2.515625 0.78125q-1.40625 0 -2.390625 -0.640625q-0.96875 -0.640625 -1.4375 -1.78125q-0.46875 -1.140625 -0.46875 -2.328125q0 -1.984375 1.1875 -3.296875q1.203125 -1.328125 3.015625 -1.328125zm-2.640625 3.8125l5.140625 0q-0.0625 -1.09375 -0.796875 -1.8125q-0.71875 -0.71875 -1.796875 -0.71875q-1.015625 0 -1.734375 0.6875q-0.71875 0.6875 -0.8125 1.84375zm11.963348 -3.8125q1.640625 0 2.65625 0.78125q1.03125 0.765625 1.21875 2.296875l-1.53125 0q-0.171875 -0.875 -0.75 -1.328125q-0.578125 -0.46875 -1.46875 -0.46875q-1.359375 0 -2.078125 0.921875q-0.703125 0.921875 -0.703125 2.59375q0 1.484375 0.703125 2.375q0.703125 0.890625 1.90625 0.890625q1.078125 0 1.6875 -0.578125q0.625 -0.578125 0.78125 -1.609375l1.5 0q-0.25 1.6875 -1.265625 2.59375q-1.015625 0.90625 -2.6875 0.90625q-1.953125 0 -3.078125 -1.234375q-1.109375 -1.234375 -1.109375 -3.34375q0 -2.203125 1.125 -3.5q1.140625 -1.296875 3.09375 -1.296875zm9.228973 0q1.828125 0 2.59375 0.65625q0.765625 0.640625 0.765625 1.734375q0 4.65625 0 5.171875q0 0.5 0.46875 0.5q0.109375 0 0.21875 -0.015625q0.125 -0.03125 0.234375 -0.0625l0 1.140625q-0.203125 0.109375 -0.46875 0.171875q-0.265625 0.078125 -0.578125 0.078125q-0.609375 0 -0.9375 -0.34375q-0.3125 -0.34375 -0.3125 -1.046875q-0.59375 0.6875 -1.390625 1.046875q-0.796875 0.34375 -1.765625 0.34375q-1.390625 0 -2.1875 -0.65625q-0.78125 -0.65625 -0.78125 -1.859375q0 -1.21875 0.765625 -1.921875q0.78125 -0.703125 3.625 -1.0625q0.96875 -0.125 1.3125 -0.359375q0.34375 -0.25 0.34375 -0.75q0 -0.734375 -0.484375 -1.109375q-0.46875 -0.375 -1.515625 -0.375q-1.09375 0 -1.640625 0.421875q-0.546875 0.40625 -0.59375 1.28125l-1.46875 0q0.078125 -1.484375 1.046875 -2.234375q0.984375 -0.75 2.75 -0.75zm-2.578125 6.75q0 0.625 0.453125 0.96875q0.453125 0.34375 1.28125 0.34375q1.234375 0 1.984375 -0.609375q0.75 -0.625 0.75 -1.390625l0 -1.53125q-0.375 0.265625 -0.96875 0.359375q-0.59375 0.078125 -1.578125 0.21875q-0.984375 0.140625 -1.453125 0.53125q-0.46875 0.390625 -0.46875 1.109375z" fill-rule="nonzero"/><path fill="#d9d9d9" d="m198.00214 486.05188l0 12.375l-1.640625 0l0 -12.375l1.640625 0zm5.062454 0l3.890625 10.390625l3.921875 -10.390625l2.25 0l0 12.375l-1.546875 0l0 -10.296875l-0.046875 0l-3.859375 10.296875l-1.40625 0l-3.859375 -10.296875l-0.046875 0l0 10.296875l-1.546875 0l0 -12.375l2.25 0zm15.094421 0l3.890625 10.390625l3.921875 -10.390625l2.25 0l0 12.375l-1.546875 0l0 -10.296875l-0.046875 0l-3.859375 10.296875l-1.40625 0l-3.859375 -10.296875l-0.046875 0l0 10.296875l-1.546875 0l0 -12.375l2.25 0zm21.344421 0l0 1.390625l-6.890625 0l0 3.921875l6.421875 0l0 1.390625l-6.421875 0l0 4.28125l6.953125 0l0 1.390625l-8.59375 0l0 -12.375l8.53125 0zm7.944092 0q1.609375 0 2.640625 0.859375q1.046875 0.859375 1.046875 2.390625q0 1.21875 -0.546875 2.03125q-0.53125 0.796875 -1.609375 1.09375l0 0.03125q0.9375 0.1875 1.375 0.875q0.453125 0.6875 0.515625 2.375q0.046875 1.078125 0.203125 1.703125q0.171875 0.609375 0.484375 1.015625l-1.828125 0q-0.15625 -0.203125 -0.203125 -0.390625q-0.046875 -0.203125 -0.09375 -0.5625l-0.0625 -1.359375q-0.03125 -0.953125 -0.421875 -1.9375q-0.375 -1.0 -1.6875 -1.03125l-4.0625 0l0 5.28125l-1.640625 0l0 -12.375l5.890625 0zm-0.734375 5.703125q1.375 0 2.078125 -0.53125q0.703125 -0.53125 0.703125 -1.671875q0 -1.0 -0.5625 -1.546875q-0.5625 -0.5625 -1.578125 -0.5625l-4.15625 0l0 4.3125l3.515625 0zm10.870773 -6.0q2.0625 0 3.265625 1.0q1.21875 1.0 1.28125 2.921875l-1.546875 0q-0.140625 -1.265625 -0.921875 -1.890625q-0.765625 -0.640625 -2.15625 -0.640625q-1.3125 0 -2.0468597 0.546875q-0.71875 0.546875 -0.71875 1.5625q0 0.734375 0.609375 1.203125q0.625 0.453125 3.3593597 1.0q1.984375 0.40625 2.953125 1.25q0.984375 0.84375 0.984375 2.328125q0 1.71875 -1.40625 2.703125q-1.40625 0.984375 -3.421875 0.984375q-2.2499847 0 -3.6718597 -1.125q-1.421875 -1.125 -1.4375 -3.234375l1.5625 0q0.015625 1.40625 1.0 2.1875q0.99998474 0.78125 2.5937347 0.78125q1.5 0 2.3125 -0.578125q0.828125 -0.578125 0.828125 -1.671875q0 -0.875 -0.75 -1.40625q-0.75 -0.53125 -2.734375 -0.921875q-2.6406097 -0.5 -3.5312347 -1.28125q-0.890625 -0.796875 -0.890625 -2.09375q0 -1.671875 1.25 -2.640625q1.265625 -0.984375 3.2343597 -0.984375zm8.774628 0.296875l0 12.375l-1.640625 0l0 -12.375l1.640625 0zm3.1874695 0l3.546875 10.71875l0.03125 0l3.5625 -10.71875l1.71875 0l-4.40625 12.375l-1.875 0l-4.359375 -12.375l1.78125 0zm18.709717 0l0 1.390625l-6.890625 0l0 3.921875l6.421875 0l0 1.390625l-6.421875 0l0 4.28125l6.953125 0l0 1.390625l-8.59375 0l0 -12.375l8.53125 0zm10.070892 0.09375q1.78125 0 2.765625 0.875q0.984375 0.875 0.984375 2.40625q0 0.734375 -0.4375 1.390625q-0.4375 0.65625 -1.265625 1.0625l0 0.03125q1.078125 0.25 1.640625 1.03125q0.578125 0.765625 0.578125 1.953125q0 1.71875 -1.1875 2.734375q-1.171875 1.015625 -3.03125 1.015625q-1.84375 0 -2.984375 -1.03125q-1.125 -1.03125 -1.125 -2.921875l0 -0.0625l1.484375 0q0.0625 1.3125 0.75 2.015625q0.703125 0.6875 1.875 0.6875q1.140625 0 1.890625 -0.65625q0.765625 -0.671875 0.765625 -1.71875q0 -1.078125 -0.71875 -1.71875q-0.71875 -0.640625 -1.953125 -0.640625q-0.171875 0 -0.390625 0.015625q-0.21875 0.015625 -0.4375 0.046875l0 -1.25q0.1875 0.015625 0.546875 0.015625q0.84375 0 1.34375 -0.265625q0.515625 -0.28125 0.796875 -0.703125q0.296875 -0.4375 0.296875 -1.046875q0 -0.90625 -0.59375 -1.4375q-0.59375 -0.53125 -1.59375 -0.53125q-1.0625 0 -1.6875 0.703125q-0.609375 0.703125 -0.640625 1.96875l-1.46875 0q0.09375 -1.921875 1.078125 -2.9375q1.0 -1.03125 2.71875 -1.03125zm10.24646 0q1.53125 0 2.421875 0.828125q0.90625 0.8125 1.046875 2.3125l-1.46875 0q-0.109375 -0.890625 -0.671875 -1.359375q-0.546875 -0.484375 -1.390625 -0.484375q-1.421875 0 -2.171875 1.1875q-0.75 1.171875 -0.8125 3.46875l0.046875 0.046875q0.5 -0.8125 1.25 -1.21875q0.765625 -0.40625 1.8125 -0.40625q1.671875 0 2.71875 1.109375q1.046875 1.109375 1.046875 2.875q0 1.765625 -1.078125 2.953125q-1.078125 1.1875 -3.03125 1.1875q-2.09375 0 -3.171875 -1.46875q-1.0625 -1.46875 -1.0625 -4.46875q0 -3.171875 1.15625 -4.859375q1.15625 -1.703125 3.359375 -1.703125zm-2.765625 8.453125q0 1.203125 0.703125 1.96875q0.703125 0.765625 1.84375 0.765625q1.09375 0 1.78125 -0.765625q0.703125 -0.765625 0.703125 -1.953125q0 -1.265625 -0.671875 -2.015625q-0.671875 -0.765625 -1.828125 -0.765625q-1.140625 0 -1.84375 0.765625q-0.6875 0.765625 -0.6875 2.0zm12.043335 -8.453125q1.03125 0 1.78125 0.34375q0.765625 0.328125 1.296875 1.0q1.015625 1.328125 1.015625 4.90625q0 1.796875 -0.25 3.0q-0.25 1.203125 -0.765625 1.890625q-0.515625 0.65625 -1.28125 1.015625q-0.765625 0.34375 -1.796875 0.34375q-2.046875 0 -3.0625 -1.375q-1.015625 -1.375 -1.015625 -4.875q0 -3.53125 1.015625 -4.890625q1.03125 -1.359375 3.0625 -1.359375zm-2.53125 6.234375q0 1.46875 0.15625 2.4375q0.171875 0.96875 0.484375 1.5q0.65625 1.015625 1.890625 1.015625q1.375 0 1.96875 -1.171875q0.296875 -0.609375 0.421875 -1.53125q0.140625 -0.921875 0.140625 -2.203125q0 -0.4375 -0.015625 -0.96875q0 -0.53125 -0.078125 -1.078125q-0.0625 -0.546875 -0.21875 -1.0625q-0.140625 -0.53125 -0.421875 -0.9375q-0.28125 -0.421875 -0.71875 -0.671875q-0.4375 -0.265625 -1.09375 -0.265625q-0.578125 0 -1.046875 0.25q-0.46875 0.25 -0.8125 0.75q-0.65625 1.0 -0.65625 3.9375zm15.170166 -6.328125l0 10.984375l6.546875 0l0 1.390625l-8.1875 0l0 -12.375l1.640625 0zm16.52771 0l0 1.390625l-6.890625 0l0 3.921875l6.421875 0l0 1.390625l-6.421875 0l0 4.28125l6.953125 0l0 1.390625l-8.59375 0l0 -12.375l8.53125 0zm6.381592 0q2.8125 0 4.328125 1.5q1.53125 1.484375 1.53125 4.40625q0 3.265625 -1.515625 4.875q-1.5 1.59375 -4.34375 1.59375l-4.328125 0l0 -12.375l4.328125 0zm0.109375 10.984375q1.859375 0 2.96875 -1.203125q1.125 -1.21875 1.125 -3.65625q0 -2.453125 -1.015625 -3.59375q-1.015625 -1.140625 -3.015625 -1.140625l-2.859375 0l0 9.59375l2.796875 0zm21.1557 -10.984375l0 1.390625l-4.140625 0l0 10.984375l-1.640625 0l0 -10.984375l-4.125 0l0 -1.390625l9.90625 0zm2.9345093 0l0 7.96875q0 1.515625 0.859375 2.421875q0.875 0.890625 2.578125 0.890625q1.609375 0 2.421875 -0.890625q0.8125 -0.890625 0.8125 -2.421875l0 -7.96875l1.640625 0l0 8.0q0 2.171875 -1.234375 3.421875q-1.21875 1.25 -3.640625 1.25q-2.53125 0 -3.8125 -1.21875q-1.265625 -1.21875 -1.265625 -3.453125l0 -8.0l1.640625 0zm12.685699 0l6.515625 10.046875l0.03125 0l0 -10.046875l1.546875 0l0 12.375l-1.796875 0l-6.46875 -9.9375l-0.03125 0l0 9.9375l-1.546875 0l0 -12.375l1.75 0zm19.3107 0l0 1.390625l-6.890625 0l0 3.921875l6.421875 0l0 1.390625l-6.421875 0l0 4.28125l6.953125 0l0 1.390625l-8.59375 0l0 -12.375l8.53125 0zm3.6940918 0l0 10.984375l6.546875 0l0 1.390625l-8.1875 0l0 -12.375l1.640625 0z" fill-rule="nonzero"/><path fill="#000000" fill-opacity="0.0" d="m14.682413 467.22217l55.624725 0l0 55.624695l-55.624725 0z" fill-rule="evenodd"/><g transform="matrix(0.12361049868766404 0.0 0.0 0.12361049868766404 14.68241286089239 467.2221566929134)"><clipPath id="g2e3e872469c_0_101.1"><path d="m-1.4210855E-14 0l450.0 0l0 450.0l-450.0 0z" clip-rule="evenodd"/></clipPath><image clip-path="url(#g2e3e872469c_0_101.1)" fill="#000" width="450.0" height="450.0" x="0.0" y="0.0" preserveAspectRatio="none" xlink:href="https://lh7-rt.googleusercontent.com/slidesz/AGV_vUeXFAOlCYpSIIGxtYj2p_2KCtWxzuCb_iuD8yoziIBhly1IaTrx5TjmHVjE3EHKCiMp8FXlwxSaGVhPtRd_CHeC8ZKVDPSBSYDxXm2IkYDPoB-sQtTi61v069_r8p9Brto=s2048?key=7LE3oBm5y_Q2w8Qv5o4NHULt"/></g><g id="g2e3e872469c_0_106"><g filter="url(#shadowFilter-g2e3e872469c_0_101.2)"><use xlink:href="#g2e3e872469c_0_101.2" transform="matrix(1.0 0.0 0.0 1.0 0.0 2.0)"/></g><defs><filter id="shadowFilter-g2e3e872469c_0_101.2" filterUnits="userSpaceOnUse"><feGaussianBlur in="SourceAlpha" stdDeviation="2.0" result="blur"/><feComponentTransfer in="blur" color-interpolation-filters="sRGB"><feFuncR type="linear" slope="0" intercept="0.0"/><feFuncG type="linear" slope="0" intercept="0.0"/><feFuncB type="linear" slope="0" intercept="0.0"/><feFuncA type="linear" slope="0.5" intercept="0"/></feComponentTransfer></filter></defs><g id="g2e3e872469c_0_101.2"><path fill="#000000" fill-opacity="0.0" d="m284.1994 68.60367l660.236 0l0 371.38318l-660.236 0z" fill-rule="evenodd"/><g transform="matrix(2.0632375328083987 0.0 0.0 2.063239895013123 284.19940209973754 68.6036719160105)"><clipPath id="g2e3e872469c_0_101.3"><path d="m0 0l320.0 0l0 180.0l-320.0 0z" clip-rule="evenodd"/></clipPath><image clip-path="url(#g2e3e872469c_0_101.3)" fill="#000" width="320.0" height="180.0" x="0.0" y="0.0" preserveAspectRatio="none" xlink:href="https://lh7-rt.googleusercontent.com/slidesz/AGV_vUcLnVxF9NJsU6-sBOWXA0Dx2bflBesFKLjfhHTVihwJguIhPOPjoAy8ucFXg836gCnSOYP4NZu--8g6rTQztN8MY18yZnYNnIayW20EziE8_3KlXoHUqRQlmInvcDO1CQ=s2048?key=7LE3oBm5y_Q2w8Qv5o4NHULt"/></g><a xlink:href="https://www.google.com/url?q=http://www.youtube.com/watch?v%3DAPoTtQSvKp8&amp;sa=D&amp;source=editors&amp;ust=1777358530743901&amp;usg=AOvVaw2mbRQIGVp0pjFGt2qjcJOQ" target="_blank" rel="noreferrer"><path fill="transparent" fill-opacity="0" d="m284.1994 68.60367l0 371.38318l660.236 0l0 -371.38318z" fill-rule="nonzero"/></a></g></g><g id="g2e3e872469c_0_198"><path fill="#000000" fill-opacity="0.0" d="m75.29691 68.6037l208.9028 0l0 371.3831l-208.9028 0z" fill-rule="evenodd"/><g transform="matrix(0.29014278215223094 0.0 0.0 0.2901430446194226 75.29690997375327 68.60370078740156)"><clipPath id="g2e3e872469c_0_101.4"><path d="m0 -2.842171E-14l720.0 0l0 1280.0l-720.0 0z" clip-rule="evenodd"/></clipPath><image clip-path="url(#g2e3e872469c_0_101.4)" fill="#000" width="720.0" height="1280.0" x="0.0" y="0.0" preserveAspectRatio="none" xlink:href="https://lh7-rt.googleusercontent.com/slidesz/AGV_vUfoepMICIdhGGNnZ2k_O-fxKRUDtEfu4nPFP3uii-jYgkh6SGsCE2geakqoNkqBDbh_Vb2baxMQaJkqsKLiMYuc9To1BeGKSHV4Utl1TBLaKbnff5O2xvHta9x-iGQBI_c=s2048?key=7LE3oBm5y_Q2w8Qv5o4NHULt"/></g><a xlink:href="https://www.google.com/url?q=https://docs.google.com/file/d/1KpFHcm9afJ-6GRxGrQ_bc1iYVt0VkR8J/preview&amp;sa=D&amp;source=editors&amp;ust=1777358530744159&amp;usg=AOvVaw0n4oHPxNbE2q9b48CcBGg1" target="_blank" rel="noreferrer"><path fill="transparent" fill-opacity="0" d="m75.29691 68.6037l0 371.3831l208.9028 0l0 -371.3831z" fill-rule="nonzero"/></a></g></g></g></svg>